<svg width="442" height="301" viewBox="0 0 442 301" fill="none" xmlns="http://www.w3.org/2000/svg">
<line x1="20" y1="269" x2="420" y2="269" stroke="black" stroke-width="2"/>
<line x1="21" y1="279" x2="21" y2="259" stroke="black" stroke-width="2"/>
<line x1="69" y1="279" x2="69" y2="259" stroke="black" stroke-width="2"/>
<line x1="119" y1="279" x2="119" y2="259" stroke="black" stroke-width="2"/>
<line x1="119" y1="279" x2="119" y2="259" stroke="black" stroke-width="2"/>
<line x1="169" y1="279" x2="169" y2="259" stroke="black" stroke-width="2"/>
<line x1="219" y1="279" x2="219" y2="259" stroke="black" stroke-width="2"/>
<line x1="269" y1="279" x2="269" y2="259" stroke="black" stroke-width="2"/>
<line x1="319" y1="279" x2="319" y2="259" stroke="black" stroke-width="2"/>
<line x1="369" y1="279" x2="369" y2="259" stroke="black" stroke-width="2"/>
<line x1="419" y1="279" x2="419" y2="259" stroke="black" stroke-width="2"/>
<path d="M5.40039 289.469H6.50781V295.404C6.5 295.799 6.42383 296.162 6.2793 296.494C6.13867 296.826 5.94531 297.111 5.69922 297.35C5.45312 297.592 5.16211 297.781 4.82617 297.918C4.49414 298.051 4.13086 298.117 3.73633 298.117C3.33789 298.117 2.97461 298.057 2.64648 297.936C2.32227 297.814 2.04102 297.641 1.80273 297.414C1.56055 297.191 1.36719 296.922 1.22266 296.605C1.07812 296.285 0.988281 295.928 0.953125 295.533H2.05469C2.06641 295.771 2.11328 295.992 2.19531 296.195C2.28125 296.398 2.39648 296.574 2.54102 296.723C2.68555 296.875 2.85742 296.992 3.05664 297.074C3.25977 297.156 3.48633 297.197 3.73633 297.197C3.99414 297.197 4.22461 297.15 4.42773 297.057C4.63086 296.959 4.80469 296.828 4.94922 296.664C5.08984 296.5 5.19727 296.311 5.27148 296.096C5.34961 295.877 5.39258 295.646 5.40039 295.404V289.469ZM12.7715 298C12.7285 297.918 12.6934 297.816 12.666 297.695C12.6426 297.57 12.625 297.441 12.6133 297.309C12.5039 297.418 12.3809 297.521 12.2441 297.619C12.1113 297.717 11.9648 297.803 11.8047 297.877C11.6406 297.951 11.4668 298.01 11.2832 298.053C11.0996 298.096 10.9043 298.117 10.6973 298.117C10.3613 298.117 10.0566 298.068 9.7832 297.971C9.51367 297.873 9.28516 297.74 9.09766 297.572C8.90625 297.408 8.75781 297.213 8.65234 296.986C8.55078 296.756 8.5 296.508 8.5 296.242C8.5 295.895 8.56836 295.59 8.70508 295.328C8.8457 295.066 9.04297 294.848 9.29688 294.672C9.55078 294.5 9.85547 294.371 10.2109 294.285C10.5703 294.199 10.9707 294.156 11.4121 294.156H12.5957V293.658C12.5957 293.467 12.5605 293.295 12.4902 293.143C12.4199 292.99 12.3203 292.859 12.1914 292.75C12.0625 292.645 11.9043 292.562 11.7168 292.504C11.5332 292.445 11.3262 292.416 11.0957 292.416C10.8809 292.416 10.6875 292.443 10.5156 292.498C10.3477 292.553 10.2051 292.625 10.0879 292.715C9.9707 292.805 9.87891 292.912 9.8125 293.037C9.75 293.158 9.71875 293.285 9.71875 293.418H8.62891C8.63281 293.188 8.69141 292.961 8.80469 292.738C8.92188 292.516 9.08984 292.314 9.30859 292.135C9.52344 291.959 9.78516 291.816 10.0938 291.707C10.4062 291.598 10.7598 291.543 11.1543 291.543C11.5137 291.543 11.8477 291.588 12.1562 291.678C12.4648 291.764 12.7324 291.895 12.959 292.07C13.1816 292.25 13.3574 292.473 13.4863 292.738C13.6152 293.004 13.6797 293.314 13.6797 293.67V296.617C13.6797 296.828 13.6992 297.053 13.7383 297.291C13.7773 297.525 13.832 297.73 13.9023 297.906V298H12.7715ZM10.8555 297.174C11.0664 297.174 11.2637 297.146 11.4473 297.092C11.6309 297.037 11.7988 296.965 11.9512 296.875C12.0996 296.785 12.2285 296.684 12.3379 296.57C12.4473 296.453 12.5332 296.332 12.5957 296.207V294.924H11.5879C11.2129 294.924 10.8848 294.957 10.6035 295.023C10.3262 295.086 10.1055 295.184 9.94141 295.316C9.82422 295.41 9.73438 295.521 9.67188 295.65C9.61328 295.779 9.58398 295.926 9.58398 296.09C9.58398 296.246 9.60938 296.391 9.66016 296.523C9.71484 296.656 9.79492 296.77 9.90039 296.863C10.0059 296.961 10.1387 297.037 10.2988 297.092C10.459 297.146 10.6445 297.174 10.8555 297.174ZM15.8125 298V291.66H16.7852L16.8613 292.598C16.9551 292.465 17.0566 292.344 17.166 292.234C17.2793 292.121 17.3984 292.023 17.5234 291.941C17.7109 291.816 17.9141 291.721 18.1328 291.654C18.3555 291.584 18.5898 291.547 18.8359 291.543C19.168 291.543 19.4688 291.59 19.7383 291.684C20.0117 291.777 20.2441 291.924 20.4355 292.123C20.627 292.322 20.7734 292.576 20.875 292.885C20.9805 293.189 21.0332 293.553 21.0332 293.975V298H19.9492V293.998C19.9492 293.717 19.918 293.479 19.8555 293.283C19.793 293.088 19.7012 292.93 19.5801 292.809C19.4551 292.688 19.3027 292.6 19.123 292.545C18.9473 292.49 18.7441 292.463 18.5137 292.463C18.3145 292.463 18.1289 292.492 17.957 292.551C17.7852 292.605 17.627 292.682 17.4824 292.779C17.3652 292.865 17.2559 292.965 17.1543 293.078C17.0566 293.191 16.9707 293.316 16.8965 293.453V298H15.8125ZM35.582 294.736C35.582 295.279 35.5195 295.762 35.3945 296.184C35.2695 296.602 35.0898 296.953 34.8555 297.238C34.6211 297.527 34.334 297.746 33.9941 297.895C33.6543 298.043 33.2656 298.117 32.8281 298.117C32.3945 298.117 32.0059 298.045 31.6621 297.9C31.3184 297.752 31.0273 297.531 30.7891 297.238C30.5508 296.953 30.3691 296.602 30.2441 296.184C30.1191 295.762 30.0566 295.279 30.0566 294.736V292.738C30.0566 292.195 30.1191 291.715 30.2441 291.297C30.3691 290.875 30.5508 290.52 30.7891 290.23C31.0234 289.941 31.3105 289.723 31.6504 289.574C31.9941 289.422 32.3828 289.346 32.8164 289.346C33.2539 289.346 33.6426 289.422 33.9824 289.574C34.3262 289.723 34.6172 289.941 34.8555 290.23C35.0898 290.52 35.2695 290.875 35.3945 291.297C35.5195 291.715 35.582 292.195 35.582 292.738V294.736ZM31.1465 294.52L34.4688 291.971C34.4375 291.689 34.3809 291.441 34.2988 291.227C34.2207 291.008 34.1133 290.826 33.9766 290.682C33.8438 290.533 33.6797 290.422 33.4844 290.348C33.293 290.273 33.0703 290.236 32.8164 290.236C32.5586 290.236 32.3301 290.277 32.1309 290.359C31.9355 290.438 31.7695 290.553 31.6328 290.705C31.4688 290.896 31.3457 291.145 31.2637 291.449C31.1855 291.75 31.1465 292.1 31.1465 292.498V293.928C31.1465 294.025 31.1465 294.123 31.1465 294.221C31.1465 294.318 31.1465 294.418 31.1465 294.52ZM34.4922 294.965V293.758C34.4922 293.699 34.4922 293.588 34.4922 293.424C34.4922 293.256 34.4922 293.117 34.4922 293.008L31.1758 295.545C31.2109 295.83 31.2734 296.082 31.3633 296.301C31.4531 296.516 31.5703 296.693 31.7148 296.834C31.8477 296.967 32.0078 297.068 32.1953 297.139C32.3828 297.205 32.5938 297.238 32.8281 297.238C33.0742 297.238 33.293 297.201 33.4844 297.127C33.6758 297.053 33.8379 296.945 33.9707 296.805C34.1504 296.613 34.2812 296.363 34.3633 296.055C34.4492 295.746 34.4922 295.383 34.4922 294.965ZM40.9492 298H39.8652V290.852L37.6328 291.701V290.711L40.8613 289.469H40.9492V298Z" fill="black"/>
<path d="M1.01367 199.438V190.66H2.00391L2.05664 191.352C2.14258 191.242 2.23633 191.145 2.33789 191.059C2.43945 190.969 2.54883 190.893 2.66602 190.83C2.83008 190.736 3.01172 190.666 3.21094 190.619C3.41406 190.568 3.63086 190.543 3.86133 190.543C4.26758 190.543 4.62695 190.623 4.93945 190.783C5.25195 190.943 5.51367 191.166 5.72461 191.451C5.93555 191.736 6.0957 192.078 6.20508 192.477C6.31445 192.871 6.36914 193.305 6.36914 193.777V193.9C6.36914 194.354 6.31445 194.777 6.20508 195.172C6.0957 195.562 5.93555 195.902 5.72461 196.191C5.51367 196.48 5.25195 196.707 4.93945 196.871C4.63086 197.035 4.27734 197.117 3.87891 197.117C3.63672 197.117 3.41016 197.092 3.19922 197.041C2.99219 196.99 2.80469 196.918 2.63672 196.824C2.53516 196.766 2.43945 196.701 2.34961 196.631C2.25977 196.557 2.17578 196.477 2.09766 196.391V199.438H1.01367ZM5.28516 193.777C5.28516 193.469 5.25 193.176 5.17969 192.898C5.11328 192.617 5.00977 192.369 4.86914 192.154C4.72461 191.943 4.54297 191.775 4.32422 191.65C4.10547 191.525 3.84375 191.463 3.53906 191.463C3.37109 191.463 3.21484 191.482 3.07031 191.521C2.92969 191.561 2.80273 191.617 2.68945 191.691C2.56445 191.766 2.45312 191.857 2.35547 191.967C2.25781 192.076 2.17188 192.197 2.09766 192.33V195.383C2.16406 195.5 2.24023 195.609 2.32617 195.711C2.41211 195.812 2.50977 195.898 2.61914 195.969C2.74414 196.051 2.88281 196.115 3.03516 196.162C3.19141 196.209 3.36328 196.232 3.55078 196.232C3.85156 196.232 4.11133 196.17 4.33008 196.045C4.54883 195.916 4.72852 195.744 4.86914 195.529C5.00977 195.314 5.11328 195.066 5.17969 194.785C5.25 194.504 5.28516 194.209 5.28516 193.9V193.777ZM9.31055 191.604C9.39648 191.475 9.49219 191.357 9.59766 191.252C9.70312 191.143 9.81445 191.047 9.93164 190.965C10.1191 190.828 10.3242 190.725 10.5469 190.654C10.7734 190.584 11.0137 190.547 11.2676 190.543C11.5996 190.543 11.9004 190.592 12.1699 190.689C12.4434 190.783 12.6758 190.932 12.8672 191.135C13.0586 191.338 13.2051 191.596 13.3066 191.908C13.4121 192.217 13.4648 192.584 13.4648 193.01V197H12.3809V192.998C12.3809 192.748 12.3516 192.529 12.293 192.342C12.2344 192.15 12.1484 191.992 12.0352 191.867C11.9141 191.73 11.7617 191.629 11.5781 191.562C11.3945 191.492 11.1836 191.459 10.9453 191.463C10.75 191.463 10.5645 191.49 10.3887 191.545C10.2129 191.6 10.0508 191.678 9.90234 191.779C9.78516 191.857 9.67578 191.949 9.57422 192.055C9.47656 192.156 9.38867 192.27 9.31055 192.395V197H8.22656V188H9.31055V191.604ZM15.6035 190.66H18.8438V196.062H20.9121V197H15.6035V196.062H17.7598V191.604H15.6035V190.66ZM17.6191 188.996C17.6191 188.902 17.6328 188.814 17.6602 188.732C17.6914 188.65 17.7383 188.58 17.8008 188.521C17.8516 188.471 17.916 188.432 17.9941 188.404C18.0762 188.373 18.168 188.357 18.2695 188.357C18.3711 188.357 18.4609 188.373 18.5391 188.404C18.6172 188.432 18.6816 188.471 18.7324 188.521C18.7949 188.576 18.8418 188.645 18.873 188.727C18.9043 188.809 18.9199 188.898 18.9199 188.996C18.9199 189.172 18.8652 189.318 18.7559 189.436C18.6465 189.553 18.4844 189.611 18.2695 189.611C18.0508 189.611 17.8867 189.553 17.7773 189.436C17.6719 189.318 17.6191 189.172 17.6191 188.996ZM22.6406 197V190.66H23.6133L23.6895 191.598C23.7832 191.465 23.8848 191.344 23.9941 191.234C24.1074 191.121 24.2266 191.023 24.3516 190.941C24.5391 190.816 24.7422 190.721 24.9609 190.654C25.1836 190.584 25.418 190.547 25.6641 190.543C25.9961 190.543 26.2969 190.59 26.5664 190.684C26.8398 190.777 27.0723 190.924 27.2637 191.123C27.4551 191.322 27.6016 191.576 27.7031 191.885C27.8086 192.189 27.8613 192.553 27.8613 192.975V197H26.7773V192.998C26.7773 192.717 26.7461 192.479 26.6836 192.283C26.6211 192.088 26.5293 191.93 26.4082 191.809C26.2832 191.688 26.1309 191.6 25.9512 191.545C25.7754 191.49 25.5723 191.463 25.3418 191.463C25.1426 191.463 24.957 191.492 24.7852 191.551C24.6133 191.605 24.4551 191.682 24.3105 191.779C24.1934 191.865 24.084 191.965 23.9824 192.078C23.8848 192.191 23.7988 192.316 23.7246 192.453V197H22.6406ZM32.4141 189.125V190.66H34.8281V191.498H32.4141V194.943C32.4141 195.189 32.4453 195.393 32.5078 195.553C32.5703 195.713 32.6562 195.84 32.7656 195.934C32.875 196.031 33 196.1 33.1406 196.139C33.2852 196.178 33.4375 196.197 33.5977 196.197C33.7148 196.197 33.8359 196.191 33.9609 196.18C34.0859 196.164 34.209 196.146 34.3301 196.127C34.4473 196.107 34.5566 196.088 34.6582 196.068C34.7637 196.045 34.8496 196.025 34.916 196.01L35.0684 196.777C34.9785 196.832 34.8691 196.881 34.7402 196.924C34.6113 196.963 34.4707 196.996 34.3184 197.023C34.166 197.055 34.0039 197.078 33.832 197.094C33.6641 197.109 33.4961 197.117 33.3281 197.117C33.0469 197.117 32.7832 197.078 32.5371 197C32.2949 196.918 32.084 196.789 31.9043 196.613C31.7246 196.441 31.582 196.219 31.4766 195.945C31.375 195.668 31.3242 195.334 31.3242 194.943V191.498H29.6602V190.66H31.3242V189.125H32.4141ZM42.3164 197.885H36.9434V197H42.3164V197.885ZM48.4746 195.318C48.4746 195.189 48.4492 195.074 48.3984 194.973C48.3477 194.867 48.2617 194.771 48.1406 194.686C48.0195 194.6 47.8594 194.521 47.6602 194.451C47.4609 194.377 47.2129 194.311 46.916 194.252C46.5527 194.178 46.2207 194.088 45.9199 193.982C45.623 193.877 45.3691 193.75 45.1582 193.602C44.9434 193.457 44.7773 193.287 44.6602 193.092C44.543 192.893 44.4844 192.662 44.4844 192.4C44.4844 192.143 44.5449 191.902 44.666 191.68C44.7871 191.453 44.957 191.256 45.1758 191.088C45.3945 190.92 45.6543 190.787 45.9551 190.689C46.2598 190.592 46.5938 190.543 46.957 190.543C47.3477 190.543 47.6992 190.594 48.0117 190.695C48.3242 190.797 48.5898 190.938 48.8086 191.117C49.0273 191.297 49.1953 191.508 49.3125 191.75C49.4336 191.988 49.4941 192.246 49.4941 192.523H48.4102C48.4102 192.387 48.375 192.254 48.3047 192.125C48.2344 191.992 48.1367 191.875 48.0117 191.773C47.8867 191.672 47.7344 191.59 47.5547 191.527C47.3789 191.465 47.1797 191.434 46.957 191.434C46.7266 191.434 46.5234 191.459 46.3477 191.51C46.1758 191.561 46.0332 191.629 45.9199 191.715C45.8027 191.801 45.7148 191.9 45.6562 192.014C45.5977 192.127 45.5684 192.244 45.5684 192.365C45.5684 192.49 45.5918 192.602 45.6387 192.699C45.6855 192.797 45.7676 192.885 45.8848 192.963C45.998 193.041 46.1504 193.111 46.3418 193.174C46.5371 193.236 46.7832 193.297 47.0801 193.355C47.4707 193.438 47.8203 193.533 48.1289 193.643C48.4375 193.748 48.6973 193.875 48.9082 194.023C49.1191 194.176 49.2793 194.352 49.3887 194.551C49.502 194.75 49.5586 194.98 49.5586 195.242C49.5586 195.523 49.4941 195.779 49.3652 196.01C49.2402 196.24 49.0645 196.438 48.8379 196.602C48.6113 196.766 48.3398 196.893 48.0234 196.982C47.707 197.072 47.3613 197.117 46.9863 197.117C46.5566 197.117 46.1738 197.061 45.8379 196.947C45.502 196.83 45.2188 196.676 44.9883 196.484C44.7539 196.297 44.5742 196.078 44.4492 195.828C44.3281 195.578 44.2676 195.318 44.2676 195.049H45.3516C45.3672 195.271 45.4258 195.459 45.5273 195.611C45.6328 195.764 45.7637 195.887 45.9199 195.98C46.0723 196.074 46.2422 196.141 46.4297 196.18C46.6172 196.219 46.8027 196.238 46.9863 196.238C47.2754 196.238 47.5273 196.205 47.7422 196.139C47.957 196.068 48.125 195.973 48.2461 195.852C48.3203 195.777 48.377 195.695 48.416 195.605C48.4551 195.516 48.4746 195.42 48.4746 195.318ZM51.2695 193.777C51.2695 193.305 51.3262 192.871 51.4395 192.477C51.5527 192.078 51.7188 191.736 51.9375 191.451C52.1562 191.166 52.4238 190.943 52.7402 190.783C53.0605 190.623 53.4238 190.543 53.8301 190.543C54.0566 190.543 54.2676 190.566 54.4629 190.613C54.6621 190.66 54.8438 190.73 55.0078 190.824C55.1133 190.883 55.2129 190.951 55.3066 191.029C55.4004 191.107 55.4883 191.193 55.5703 191.287L55.6172 190.66H56.6133V199.438H55.5293V196.426C55.4355 196.523 55.3359 196.611 55.2305 196.689C55.1289 196.768 55.0176 196.834 54.8965 196.889C54.7441 196.963 54.5781 197.02 54.3984 197.059C54.2188 197.098 54.0254 197.117 53.8184 197.117C53.416 197.117 53.0566 197.035 52.7402 196.871C52.4277 196.707 52.1621 196.48 51.9434 196.191C51.7246 195.902 51.5566 195.562 51.4395 195.172C51.3262 194.777 51.2695 194.354 51.2695 193.9V193.777ZM52.3535 193.9C52.3535 194.209 52.3867 194.504 52.4531 194.785C52.5234 195.066 52.6289 195.314 52.7695 195.529C52.9102 195.744 53.0879 195.916 53.3027 196.045C53.5215 196.17 53.7812 196.232 54.082 196.232C54.25 196.232 54.4043 196.213 54.5449 196.174C54.6855 196.135 54.8145 196.082 54.9316 196.016C55.0566 195.941 55.168 195.852 55.2656 195.746C55.3633 195.637 55.4512 195.518 55.5293 195.389V192.26C55.4551 192.139 55.3691 192.029 55.2715 191.932C55.1777 191.83 55.0723 191.742 54.9551 191.668C54.834 191.594 54.7012 191.537 54.5566 191.498C54.416 191.455 54.2617 191.434 54.0938 191.434C53.793 191.434 53.5332 191.498 53.3145 191.627C53.0957 191.756 52.916 191.928 52.7754 192.143C52.6309 192.361 52.5234 192.611 52.4531 192.893C52.3867 193.174 52.3535 193.469 52.3535 193.777V193.9ZM62.8535 197L62.7891 196.127C62.5781 196.439 62.3145 196.684 61.998 196.859C61.6816 197.031 61.3164 197.117 60.9023 197.117C60.5703 197.117 60.2695 197.066 60 196.965C59.7305 196.859 59.5 196.697 59.3086 196.479C59.1172 196.26 58.9688 195.982 58.8633 195.646C58.7617 195.307 58.7109 194.9 58.7109 194.428V190.66H59.7949V194.439C59.7949 194.783 59.8223 195.068 59.877 195.295C59.9316 195.521 60.0137 195.701 60.123 195.834C60.2324 195.971 60.3652 196.066 60.5215 196.121C60.6816 196.176 60.8652 196.203 61.0723 196.203C61.3145 196.203 61.5312 196.176 61.7227 196.121C61.9141 196.062 62.0801 195.982 62.2207 195.881C62.3379 195.799 62.4395 195.701 62.5254 195.588C62.6152 195.471 62.6895 195.344 62.748 195.207V190.66H63.8379V197H62.8535ZM70.0488 197C70.0059 196.918 69.9707 196.816 69.9434 196.695C69.9199 196.57 69.9023 196.441 69.8906 196.309C69.7812 196.418 69.6582 196.521 69.5215 196.619C69.3887 196.717 69.2422 196.803 69.082 196.877C68.918 196.951 68.7441 197.01 68.5605 197.053C68.377 197.096 68.1816 197.117 67.9746 197.117C67.6387 197.117 67.334 197.068 67.0605 196.971C66.791 196.873 66.5625 196.74 66.375 196.572C66.1836 196.408 66.0352 196.213 65.9297 195.986C65.8281 195.756 65.7773 195.508 65.7773 195.242C65.7773 194.895 65.8457 194.59 65.9824 194.328C66.123 194.066 66.3203 193.848 66.5742 193.672C66.8281 193.5 67.1328 193.371 67.4883 193.285C67.8477 193.199 68.248 193.156 68.6895 193.156H69.873V192.658C69.873 192.467 69.8379 192.295 69.7676 192.143C69.6973 191.99 69.5977 191.859 69.4688 191.75C69.3398 191.645 69.1816 191.562 68.9941 191.504C68.8105 191.445 68.6035 191.416 68.373 191.416C68.1582 191.416 67.9648 191.443 67.793 191.498C67.625 191.553 67.4824 191.625 67.3652 191.715C67.248 191.805 67.1562 191.912 67.0898 192.037C67.0273 192.158 66.9961 192.285 66.9961 192.418H65.9062C65.9102 192.188 65.9688 191.961 66.082 191.738C66.1992 191.516 66.3672 191.314 66.5859 191.135C66.8008 190.959 67.0625 190.816 67.3711 190.707C67.6836 190.598 68.0371 190.543 68.4316 190.543C68.791 190.543 69.125 190.588 69.4336 190.678C69.7422 190.764 70.0098 190.895 70.2363 191.07C70.459 191.25 70.6348 191.473 70.7637 191.738C70.8926 192.004 70.957 192.314 70.957 192.67V195.617C70.957 195.828 70.9766 196.053 71.0156 196.291C71.0547 196.525 71.1094 196.73 71.1797 196.906V197H70.0488ZM68.1328 196.174C68.3438 196.174 68.541 196.146 68.7246 196.092C68.9082 196.037 69.0762 195.965 69.2285 195.875C69.377 195.785 69.5059 195.684 69.6152 195.57C69.7246 195.453 69.8105 195.332 69.873 195.207V193.924H68.8652C68.4902 193.924 68.1621 193.957 67.8809 194.023C67.6035 194.086 67.3828 194.184 67.2188 194.316C67.1016 194.41 67.0117 194.521 66.9492 194.65C66.8906 194.779 66.8613 194.926 66.8613 195.09C66.8613 195.246 66.8867 195.391 66.9375 195.523C66.9922 195.656 67.0723 195.77 67.1777 195.863C67.2832 195.961 67.416 196.037 67.5762 196.092C67.7363 196.146 67.9219 196.174 68.1328 196.174ZM77.3027 195.318C77.3027 195.189 77.2773 195.074 77.2266 194.973C77.1758 194.867 77.0898 194.771 76.9688 194.686C76.8477 194.6 76.6875 194.521 76.4883 194.451C76.2891 194.377 76.041 194.311 75.7441 194.252C75.3809 194.178 75.0488 194.088 74.748 193.982C74.4512 193.877 74.1973 193.75 73.9863 193.602C73.7715 193.457 73.6055 193.287 73.4883 193.092C73.3711 192.893 73.3125 192.662 73.3125 192.4C73.3125 192.143 73.373 191.902 73.4941 191.68C73.6152 191.453 73.7852 191.256 74.0039 191.088C74.2227 190.92 74.4824 190.787 74.7832 190.689C75.0879 190.592 75.4219 190.543 75.7852 190.543C76.1758 190.543 76.5273 190.594 76.8398 190.695C77.1523 190.797 77.418 190.938 77.6367 191.117C77.8555 191.297 78.0234 191.508 78.1406 191.75C78.2617 191.988 78.3223 192.246 78.3223 192.523H77.2383C77.2383 192.387 77.2031 192.254 77.1328 192.125C77.0625 191.992 76.9648 191.875 76.8398 191.773C76.7148 191.672 76.5625 191.59 76.3828 191.527C76.207 191.465 76.0078 191.434 75.7852 191.434C75.5547 191.434 75.3516 191.459 75.1758 191.51C75.0039 191.561 74.8613 191.629 74.748 191.715C74.6309 191.801 74.543 191.9 74.4844 192.014C74.4258 192.127 74.3965 192.244 74.3965 192.365C74.3965 192.49 74.4199 192.602 74.4668 192.699C74.5137 192.797 74.5957 192.885 74.7129 192.963C74.8262 193.041 74.9785 193.111 75.1699 193.174C75.3652 193.236 75.6113 193.297 75.9082 193.355C76.2988 193.438 76.6484 193.533 76.957 193.643C77.2656 193.748 77.5254 193.875 77.7363 194.023C77.9473 194.176 78.1074 194.352 78.2168 194.551C78.3301 194.75 78.3867 194.98 78.3867 195.242C78.3867 195.523 78.3223 195.779 78.1934 196.01C78.0684 196.24 77.8926 196.438 77.666 196.602C77.4395 196.766 77.168 196.893 76.8516 196.982C76.5352 197.072 76.1895 197.117 75.8145 197.117C75.3848 197.117 75.002 197.061 74.666 196.947C74.3301 196.83 74.0469 196.676 73.8164 196.484C73.582 196.297 73.4023 196.078 73.2773 195.828C73.1562 195.578 73.0957 195.318 73.0957 195.049H74.1797C74.1953 195.271 74.2539 195.459 74.3555 195.611C74.4609 195.764 74.5918 195.887 74.748 195.98C74.9004 196.074 75.0703 196.141 75.2578 196.18C75.4453 196.219 75.6309 196.238 75.8145 196.238C76.1035 196.238 76.3555 196.205 76.5703 196.139C76.7852 196.068 76.9531 195.973 77.0742 195.852C77.1484 195.777 77.2051 195.695 77.2441 195.605C77.2832 195.516 77.3027 195.42 77.3027 195.318ZM81.3809 191.604C81.4668 191.475 81.5625 191.357 81.668 191.252C81.7734 191.143 81.8848 191.047 82.002 190.965C82.1895 190.828 82.3945 190.725 82.6172 190.654C82.8438 190.584 83.084 190.547 83.3379 190.543C83.6699 190.543 83.9707 190.592 84.2402 190.689C84.5137 190.783 84.7461 190.932 84.9375 191.135C85.1289 191.338 85.2754 191.596 85.377 191.908C85.4824 192.217 85.5352 192.584 85.5352 193.01V197H84.4512V192.998C84.4512 192.748 84.4219 192.529 84.3633 192.342C84.3047 192.15 84.2188 191.992 84.1055 191.867C83.9844 191.73 83.832 191.629 83.6484 191.562C83.4648 191.492 83.2539 191.459 83.0156 191.463C82.8203 191.463 82.6348 191.49 82.459 191.545C82.2832 191.6 82.1211 191.678 81.9727 191.779C81.8555 191.857 81.7461 191.949 81.6445 192.055C81.5469 192.156 81.459 192.27 81.3809 192.395V197H80.2969V188H81.3809V191.604ZM88.5762 193.537C88.5762 192.979 88.6191 192.453 88.7051 191.961C88.7949 191.469 88.9141 191.012 89.0625 190.59C89.2109 190.172 89.3809 189.789 89.5723 189.441C89.7676 189.094 89.9727 188.785 90.1875 188.516C90.3984 188.246 90.6113 188.016 90.8262 187.824C91.041 187.633 91.2461 187.482 91.4414 187.373L91.6699 188.088C91.5449 188.182 91.418 188.295 91.2891 188.428C91.1641 188.561 91.041 188.709 90.9199 188.873C90.7402 189.127 90.5684 189.426 90.4043 189.77C90.2402 190.109 90.1035 190.482 89.9941 190.889C89.8887 191.256 89.8066 191.66 89.748 192.102C89.6895 192.543 89.6602 193.018 89.6602 193.525V193.607C89.6602 194.096 89.6875 194.553 89.7422 194.979C89.7969 195.404 89.8711 195.797 89.9648 196.156C90.0664 196.52 90.1836 196.855 90.3164 197.164C90.4492 197.477 90.5879 197.756 90.7324 198.002C90.8809 198.236 91.0332 198.443 91.1895 198.623C91.3496 198.807 91.5098 198.963 91.6699 199.092L91.4414 199.754C91.2461 199.645 91.0391 199.494 90.8203 199.303C90.6055 199.115 90.3926 198.885 90.1816 198.611C89.9668 198.342 89.7617 198.033 89.5664 197.686C89.375 197.342 89.207 196.959 89.0625 196.537C88.9141 196.119 88.7949 195.664 88.7051 195.172C88.6191 194.68 88.5762 194.154 88.5762 193.596V193.537ZM94.8809 190.66H98.1211V196.062H100.189V197H94.8809V196.062H97.0371V191.604H94.8809V190.66ZM96.8965 188.996C96.8965 188.902 96.9102 188.814 96.9375 188.732C96.9688 188.65 97.0156 188.58 97.0781 188.521C97.1289 188.471 97.1934 188.432 97.2715 188.404C97.3535 188.373 97.4453 188.357 97.5469 188.357C97.6484 188.357 97.7383 188.373 97.8164 188.404C97.8945 188.432 97.959 188.471 98.0098 188.521C98.0723 188.576 98.1191 188.645 98.1504 188.727C98.1816 188.809 98.1973 188.898 98.1973 188.996C98.1973 189.172 98.1426 189.318 98.0332 189.436C97.9238 189.553 97.7617 189.611 97.5469 189.611C97.3281 189.611 97.1641 189.553 97.0547 189.436C96.9492 189.318 96.8965 189.172 96.8965 188.996ZM101.918 197V190.66H102.891L102.967 191.598C103.061 191.465 103.162 191.344 103.271 191.234C103.385 191.121 103.504 191.023 103.629 190.941C103.816 190.816 104.02 190.721 104.238 190.654C104.461 190.584 104.695 190.547 104.941 190.543C105.273 190.543 105.574 190.59 105.844 190.684C106.117 190.777 106.35 190.924 106.541 191.123C106.732 191.322 106.879 191.576 106.98 191.885C107.086 192.189 107.139 192.553 107.139 192.975V197H106.055V192.998C106.055 192.717 106.023 192.479 105.961 192.283C105.898 192.088 105.807 191.93 105.686 191.809C105.561 191.688 105.408 191.6 105.229 191.545C105.053 191.49 104.85 191.463 104.619 191.463C104.42 191.463 104.234 191.492 104.062 191.551C103.891 191.605 103.732 191.682 103.588 191.779C103.471 191.865 103.361 191.965 103.26 192.078C103.162 192.191 103.076 192.316 103.002 192.453V197H101.918ZM111.691 189.125V190.66H114.105V191.498H111.691V194.943C111.691 195.189 111.723 195.393 111.785 195.553C111.848 195.713 111.934 195.84 112.043 195.934C112.152 196.031 112.277 196.1 112.418 196.139C112.562 196.178 112.715 196.197 112.875 196.197C112.992 196.197 113.113 196.191 113.238 196.18C113.363 196.164 113.486 196.146 113.607 196.127C113.725 196.107 113.834 196.088 113.936 196.068C114.041 196.045 114.127 196.025 114.193 196.01L114.346 196.777C114.256 196.832 114.146 196.881 114.018 196.924C113.889 196.963 113.748 196.996 113.596 197.023C113.443 197.055 113.281 197.078 113.109 197.094C112.941 197.109 112.773 197.117 112.605 197.117C112.324 197.117 112.061 197.078 111.814 197C111.572 196.918 111.361 196.789 111.182 196.613C111.002 196.441 110.859 196.219 110.754 195.945C110.652 195.668 110.602 195.334 110.602 194.943V191.498H108.938V190.66H110.602V189.125H111.691ZM120.545 195.318C120.545 195.189 120.52 195.074 120.469 194.973C120.418 194.867 120.332 194.771 120.211 194.686C120.09 194.6 119.93 194.521 119.73 194.451C119.531 194.377 119.283 194.311 118.986 194.252C118.623 194.178 118.291 194.088 117.99 193.982C117.693 193.877 117.439 193.75 117.229 193.602C117.014 193.457 116.848 193.287 116.73 193.092C116.613 192.893 116.555 192.662 116.555 192.4C116.555 192.143 116.615 191.902 116.736 191.68C116.857 191.453 117.027 191.256 117.246 191.088C117.465 190.92 117.725 190.787 118.025 190.689C118.33 190.592 118.664 190.543 119.027 190.543C119.418 190.543 119.77 190.594 120.082 190.695C120.395 190.797 120.66 190.938 120.879 191.117C121.098 191.297 121.266 191.508 121.383 191.75C121.504 191.988 121.564 192.246 121.564 192.523H120.48C120.48 192.387 120.445 192.254 120.375 192.125C120.305 191.992 120.207 191.875 120.082 191.773C119.957 191.672 119.805 191.59 119.625 191.527C119.449 191.465 119.25 191.434 119.027 191.434C118.797 191.434 118.594 191.459 118.418 191.51C118.246 191.561 118.104 191.629 117.99 191.715C117.873 191.801 117.785 191.9 117.727 192.014C117.668 192.127 117.639 192.244 117.639 192.365C117.639 192.49 117.662 192.602 117.709 192.699C117.756 192.797 117.838 192.885 117.955 192.963C118.068 193.041 118.221 193.111 118.412 193.174C118.607 193.236 118.854 193.297 119.15 193.355C119.541 193.438 119.891 193.533 120.199 193.643C120.508 193.748 120.768 193.875 120.979 194.023C121.189 194.176 121.35 194.352 121.459 194.551C121.572 194.75 121.629 194.98 121.629 195.242C121.629 195.523 121.564 195.779 121.436 196.01C121.311 196.24 121.135 196.438 120.908 196.602C120.682 196.766 120.41 196.893 120.094 196.982C119.777 197.072 119.432 197.117 119.057 197.117C118.627 197.117 118.244 197.061 117.908 196.947C117.572 196.83 117.289 196.676 117.059 196.484C116.824 196.297 116.645 196.078 116.52 195.828C116.398 195.578 116.338 195.318 116.338 195.049H117.422C117.438 195.271 117.496 195.459 117.598 195.611C117.703 195.764 117.834 195.887 117.99 195.98C118.143 196.074 118.312 196.141 118.5 196.18C118.688 196.219 118.873 196.238 119.057 196.238C119.346 196.238 119.598 196.205 119.812 196.139C120.027 196.068 120.195 195.973 120.316 195.852C120.391 195.777 120.447 195.695 120.486 195.605C120.525 195.516 120.545 195.42 120.545 195.318ZM127.494 193.596C127.494 194.154 127.449 194.68 127.359 195.172C127.273 195.664 127.156 196.119 127.008 196.537C126.859 196.959 126.688 197.342 126.492 197.686C126.301 198.033 126.1 198.342 125.889 198.611C125.674 198.885 125.457 199.115 125.238 199.303C125.023 199.494 124.818 199.645 124.623 199.754L124.395 199.092C124.559 198.971 124.725 198.814 124.893 198.623C125.061 198.432 125.221 198.211 125.373 197.961C125.518 197.707 125.656 197.42 125.789 197.1C125.926 196.783 126.037 196.436 126.123 196.057C126.213 195.705 126.281 195.326 126.328 194.92C126.379 194.51 126.404 194.072 126.404 193.607V193.525C126.404 192.998 126.371 192.52 126.305 192.09C126.242 191.66 126.172 191.295 126.094 190.994C125.98 190.564 125.844 190.18 125.684 189.84C125.523 189.496 125.359 189.197 125.191 188.943C125.062 188.744 124.93 188.57 124.793 188.422C124.656 188.27 124.523 188.141 124.395 188.035L124.623 187.373C124.818 187.482 125.025 187.633 125.244 187.824C125.463 188.016 125.678 188.246 125.889 188.516C126.107 188.793 126.312 189.102 126.504 189.441C126.695 189.781 126.863 190.164 127.008 190.59C127.148 191 127.264 191.445 127.354 191.926C127.447 192.402 127.494 192.939 127.494 193.537V193.596Z" fill="black"/>
<path d="M102.4 289.469H103.508V295.404C103.5 295.799 103.424 296.162 103.279 296.494C103.139 296.826 102.945 297.111 102.699 297.35C102.453 297.592 102.162 297.781 101.826 297.918C101.494 298.051 101.131 298.117 100.736 298.117C100.338 298.117 99.9746 298.057 99.6465 297.936C99.3223 297.814 99.041 297.641 98.8027 297.414C98.5605 297.191 98.3672 296.922 98.2227 296.605C98.0781 296.285 97.9883 295.928 97.9531 295.533H99.0547C99.0664 295.771 99.1133 295.992 99.1953 296.195C99.2812 296.398 99.3965 296.574 99.541 296.723C99.6855 296.875 99.8574 296.992 100.057 297.074C100.26 297.156 100.486 297.197 100.736 297.197C100.994 297.197 101.225 297.15 101.428 297.057C101.631 296.959 101.805 296.828 101.949 296.664C102.09 296.5 102.197 296.311 102.271 296.096C102.35 295.877 102.393 295.646 102.4 295.404V289.469ZM109.771 298C109.729 297.918 109.693 297.816 109.666 297.695C109.643 297.57 109.625 297.441 109.613 297.309C109.504 297.418 109.381 297.521 109.244 297.619C109.111 297.717 108.965 297.803 108.805 297.877C108.641 297.951 108.467 298.01 108.283 298.053C108.1 298.096 107.904 298.117 107.697 298.117C107.361 298.117 107.057 298.068 106.783 297.971C106.514 297.873 106.285 297.74 106.098 297.572C105.906 297.408 105.758 297.213 105.652 296.986C105.551 296.756 105.5 296.508 105.5 296.242C105.5 295.895 105.568 295.59 105.705 295.328C105.846 295.066 106.043 294.848 106.297 294.672C106.551 294.5 106.855 294.371 107.211 294.285C107.57 294.199 107.971 294.156 108.412 294.156H109.596V293.658C109.596 293.467 109.561 293.295 109.49 293.143C109.42 292.99 109.32 292.859 109.191 292.75C109.062 292.645 108.904 292.562 108.717 292.504C108.533 292.445 108.326 292.416 108.096 292.416C107.881 292.416 107.688 292.443 107.516 292.498C107.348 292.553 107.205 292.625 107.088 292.715C106.971 292.805 106.879 292.912 106.812 293.037C106.75 293.158 106.719 293.285 106.719 293.418H105.629C105.633 293.188 105.691 292.961 105.805 292.738C105.922 292.516 106.09 292.314 106.309 292.135C106.523 291.959 106.785 291.816 107.094 291.707C107.406 291.598 107.76 291.543 108.154 291.543C108.514 291.543 108.848 291.588 109.156 291.678C109.465 291.764 109.732 291.895 109.959 292.07C110.182 292.25 110.357 292.473 110.486 292.738C110.615 293.004 110.68 293.314 110.68 293.67V296.617C110.68 296.828 110.699 297.053 110.738 297.291C110.777 297.525 110.832 297.73 110.902 297.906V298H109.771ZM107.855 297.174C108.066 297.174 108.264 297.146 108.447 297.092C108.631 297.037 108.799 296.965 108.951 296.875C109.1 296.785 109.229 296.684 109.338 296.57C109.447 296.453 109.533 296.332 109.596 296.207V294.924H108.588C108.213 294.924 107.885 294.957 107.604 295.023C107.326 295.086 107.105 295.184 106.941 295.316C106.824 295.41 106.734 295.521 106.672 295.65C106.613 295.779 106.584 295.926 106.584 296.09C106.584 296.246 106.609 296.391 106.66 296.523C106.715 296.656 106.795 296.77 106.9 296.863C107.006 296.961 107.139 297.037 107.299 297.092C107.459 297.146 107.645 297.174 107.855 297.174ZM112.812 298V291.66H113.785L113.861 292.598C113.955 292.465 114.057 292.344 114.166 292.234C114.279 292.121 114.398 292.023 114.523 291.941C114.711 291.816 114.914 291.721 115.133 291.654C115.355 291.584 115.59 291.547 115.836 291.543C116.168 291.543 116.469 291.59 116.738 291.684C117.012 291.777 117.244 291.924 117.436 292.123C117.627 292.322 117.773 292.576 117.875 292.885C117.98 293.189 118.033 293.553 118.033 293.975V298H116.949V293.998C116.949 293.717 116.918 293.479 116.855 293.283C116.793 293.088 116.701 292.93 116.58 292.809C116.455 292.688 116.303 292.6 116.123 292.545C115.947 292.49 115.744 292.463 115.514 292.463C115.314 292.463 115.129 292.492 114.957 292.551C114.785 292.605 114.627 292.682 114.482 292.779C114.365 292.865 114.256 292.965 114.154 293.078C114.057 293.191 113.971 293.316 113.896 293.453V298H112.812ZM132.582 294.736C132.582 295.279 132.52 295.762 132.395 296.184C132.27 296.602 132.09 296.953 131.855 297.238C131.621 297.527 131.334 297.746 130.994 297.895C130.654 298.043 130.266 298.117 129.828 298.117C129.395 298.117 129.006 298.045 128.662 297.9C128.318 297.752 128.027 297.531 127.789 297.238C127.551 296.953 127.369 296.602 127.244 296.184C127.119 295.762 127.057 295.279 127.057 294.736V292.738C127.057 292.195 127.119 291.715 127.244 291.297C127.369 290.875 127.551 290.52 127.789 290.23C128.023 289.941 128.311 289.723 128.65 289.574C128.994 289.422 129.383 289.346 129.816 289.346C130.254 289.346 130.643 289.422 130.982 289.574C131.326 289.723 131.617 289.941 131.855 290.23C132.09 290.52 132.27 290.875 132.395 291.297C132.52 291.715 132.582 292.195 132.582 292.738V294.736ZM128.146 294.52L131.469 291.971C131.438 291.689 131.381 291.441 131.299 291.227C131.221 291.008 131.113 290.826 130.977 290.682C130.844 290.533 130.68 290.422 130.484 290.348C130.293 290.273 130.07 290.236 129.816 290.236C129.559 290.236 129.33 290.277 129.131 290.359C128.936 290.438 128.77 290.553 128.633 290.705C128.469 290.896 128.346 291.145 128.264 291.449C128.186 291.75 128.146 292.1 128.146 292.498V293.928C128.146 294.025 128.146 294.123 128.146 294.221C128.146 294.318 128.146 294.418 128.146 294.52ZM131.492 294.965V293.758C131.492 293.699 131.492 293.588 131.492 293.424C131.492 293.256 131.492 293.117 131.492 293.008L128.176 295.545C128.211 295.83 128.273 296.082 128.363 296.301C128.453 296.516 128.57 296.693 128.715 296.834C128.848 296.967 129.008 297.068 129.195 297.139C129.383 297.205 129.594 297.238 129.828 297.238C130.074 297.238 130.293 297.201 130.484 297.127C130.676 297.053 130.838 296.945 130.971 296.805C131.15 296.613 131.281 296.363 131.363 296.055C131.449 295.746 131.492 295.383 131.492 294.965ZM135.699 293.213H136.473C136.746 293.213 136.986 293.176 137.193 293.102C137.404 293.027 137.582 292.926 137.727 292.797C137.867 292.668 137.975 292.514 138.049 292.334C138.123 292.154 138.16 291.957 138.16 291.742C138.16 291.488 138.127 291.268 138.061 291.08C137.994 290.889 137.896 290.73 137.768 290.605C137.643 290.484 137.486 290.395 137.299 290.336C137.115 290.273 136.904 290.242 136.666 290.242C136.436 290.242 136.225 290.277 136.033 290.348C135.846 290.414 135.686 290.512 135.553 290.641C135.416 290.77 135.311 290.924 135.236 291.104C135.162 291.283 135.125 291.484 135.125 291.707H134.035C134.035 291.383 134.098 291.078 134.223 290.793C134.352 290.504 134.531 290.252 134.762 290.037C134.992 289.826 135.268 289.66 135.588 289.539C135.912 289.414 136.271 289.352 136.666 289.352C137.049 289.352 137.398 289.404 137.715 289.51C138.031 289.611 138.303 289.764 138.529 289.967C138.756 290.17 138.932 290.422 139.057 290.723C139.182 291.023 139.244 291.371 139.244 291.766C139.244 291.93 139.219 292.1 139.168 292.275C139.117 292.451 139.039 292.621 138.934 292.785C138.828 292.953 138.691 293.111 138.523 293.26C138.359 293.404 138.162 293.525 137.932 293.623C138.209 293.713 138.439 293.83 138.623 293.975C138.811 294.119 138.961 294.281 139.074 294.461C139.184 294.641 139.26 294.83 139.303 295.029C139.35 295.229 139.373 295.426 139.373 295.621C139.373 296.02 139.305 296.373 139.168 296.682C139.031 296.99 138.842 297.25 138.6 297.461C138.357 297.676 138.07 297.84 137.738 297.953C137.41 298.062 137.055 298.117 136.672 298.117C136.297 298.117 135.943 298.064 135.611 297.959C135.283 297.854 134.998 297.699 134.756 297.496C134.514 297.293 134.32 297.045 134.176 296.752C134.035 296.459 133.965 296.125 133.965 295.75H135.049C135.049 295.973 135.086 296.176 135.16 296.359C135.238 296.543 135.348 296.699 135.488 296.828C135.629 296.957 135.799 297.057 135.998 297.127C136.201 297.197 136.426 297.232 136.672 297.232C136.918 297.232 137.141 297.201 137.34 297.139C137.539 297.072 137.709 296.973 137.85 296.84C137.99 296.707 138.098 296.543 138.172 296.348C138.25 296.148 138.289 295.914 138.289 295.645C138.289 295.379 138.244 295.15 138.154 294.959C138.068 294.764 137.947 294.602 137.791 294.473C137.631 294.344 137.438 294.248 137.211 294.186C136.988 294.123 136.742 294.092 136.473 294.092H135.699V293.213Z" fill="black"/>
<path d="M203.4 289.469H204.508V295.404C204.5 295.799 204.424 296.162 204.279 296.494C204.139 296.826 203.945 297.111 203.699 297.35C203.453 297.592 203.162 297.781 202.826 297.918C202.494 298.051 202.131 298.117 201.736 298.117C201.338 298.117 200.975 298.057 200.646 297.936C200.322 297.814 200.041 297.641 199.803 297.414C199.561 297.191 199.367 296.922 199.223 296.605C199.078 296.285 198.988 295.928 198.953 295.533H200.055C200.066 295.771 200.113 295.992 200.195 296.195C200.281 296.398 200.396 296.574 200.541 296.723C200.686 296.875 200.857 296.992 201.057 297.074C201.26 297.156 201.486 297.197 201.736 297.197C201.994 297.197 202.225 297.15 202.428 297.057C202.631 296.959 202.805 296.828 202.949 296.664C203.09 296.5 203.197 296.311 203.271 296.096C203.35 295.877 203.393 295.646 203.4 295.404V289.469ZM210.771 298C210.729 297.918 210.693 297.816 210.666 297.695C210.643 297.57 210.625 297.441 210.613 297.309C210.504 297.418 210.381 297.521 210.244 297.619C210.111 297.717 209.965 297.803 209.805 297.877C209.641 297.951 209.467 298.01 209.283 298.053C209.1 298.096 208.904 298.117 208.697 298.117C208.361 298.117 208.057 298.068 207.783 297.971C207.514 297.873 207.285 297.74 207.098 297.572C206.906 297.408 206.758 297.213 206.652 296.986C206.551 296.756 206.5 296.508 206.5 296.242C206.5 295.895 206.568 295.59 206.705 295.328C206.846 295.066 207.043 294.848 207.297 294.672C207.551 294.5 207.855 294.371 208.211 294.285C208.57 294.199 208.971 294.156 209.412 294.156H210.596V293.658C210.596 293.467 210.561 293.295 210.49 293.143C210.42 292.99 210.32 292.859 210.191 292.75C210.062 292.645 209.904 292.562 209.717 292.504C209.533 292.445 209.326 292.416 209.096 292.416C208.881 292.416 208.688 292.443 208.516 292.498C208.348 292.553 208.205 292.625 208.088 292.715C207.971 292.805 207.879 292.912 207.812 293.037C207.75 293.158 207.719 293.285 207.719 293.418H206.629C206.633 293.188 206.691 292.961 206.805 292.738C206.922 292.516 207.09 292.314 207.309 292.135C207.523 291.959 207.785 291.816 208.094 291.707C208.406 291.598 208.76 291.543 209.154 291.543C209.514 291.543 209.848 291.588 210.156 291.678C210.465 291.764 210.732 291.895 210.959 292.07C211.182 292.25 211.357 292.473 211.486 292.738C211.615 293.004 211.68 293.314 211.68 293.67V296.617C211.68 296.828 211.699 297.053 211.738 297.291C211.777 297.525 211.832 297.73 211.902 297.906V298H210.771ZM208.855 297.174C209.066 297.174 209.264 297.146 209.447 297.092C209.631 297.037 209.799 296.965 209.951 296.875C210.1 296.785 210.229 296.684 210.338 296.57C210.447 296.453 210.533 296.332 210.596 296.207V294.924H209.588C209.213 294.924 208.885 294.957 208.604 295.023C208.326 295.086 208.105 295.184 207.941 295.316C207.824 295.41 207.734 295.521 207.672 295.65C207.613 295.779 207.584 295.926 207.584 296.09C207.584 296.246 207.609 296.391 207.66 296.523C207.715 296.656 207.795 296.77 207.9 296.863C208.006 296.961 208.139 297.037 208.299 297.092C208.459 297.146 208.645 297.174 208.855 297.174ZM213.812 298V291.66H214.785L214.861 292.598C214.955 292.465 215.057 292.344 215.166 292.234C215.279 292.121 215.398 292.023 215.523 291.941C215.711 291.816 215.914 291.721 216.133 291.654C216.355 291.584 216.59 291.547 216.836 291.543C217.168 291.543 217.469 291.59 217.738 291.684C218.012 291.777 218.244 291.924 218.436 292.123C218.627 292.322 218.773 292.576 218.875 292.885C218.98 293.189 219.033 293.553 219.033 293.975V298H217.949V293.998C217.949 293.717 217.918 293.479 217.855 293.283C217.793 293.088 217.701 292.93 217.58 292.809C217.455 292.688 217.303 292.6 217.123 292.545C216.947 292.49 216.744 292.463 216.514 292.463C216.314 292.463 216.129 292.492 215.957 292.551C215.785 292.605 215.627 292.682 215.482 292.779C215.365 292.865 215.256 292.965 215.154 293.078C215.057 293.191 214.971 293.316 214.896 293.453V298H213.812ZM233.582 294.736C233.582 295.279 233.52 295.762 233.395 296.184C233.27 296.602 233.09 296.953 232.855 297.238C232.621 297.527 232.334 297.746 231.994 297.895C231.654 298.043 231.266 298.117 230.828 298.117C230.395 298.117 230.006 298.045 229.662 297.9C229.318 297.752 229.027 297.531 228.789 297.238C228.551 296.953 228.369 296.602 228.244 296.184C228.119 295.762 228.057 295.279 228.057 294.736V292.738C228.057 292.195 228.119 291.715 228.244 291.297C228.369 290.875 228.551 290.52 228.789 290.23C229.023 289.941 229.311 289.723 229.65 289.574C229.994 289.422 230.383 289.346 230.816 289.346C231.254 289.346 231.643 289.422 231.982 289.574C232.326 289.723 232.617 289.941 232.855 290.23C233.09 290.52 233.27 290.875 233.395 291.297C233.52 291.715 233.582 292.195 233.582 292.738V294.736ZM229.146 294.52L232.469 291.971C232.438 291.689 232.381 291.441 232.299 291.227C232.221 291.008 232.113 290.826 231.977 290.682C231.844 290.533 231.68 290.422 231.484 290.348C231.293 290.273 231.07 290.236 230.816 290.236C230.559 290.236 230.33 290.277 230.131 290.359C229.936 290.438 229.77 290.553 229.633 290.705C229.469 290.896 229.346 291.145 229.264 291.449C229.186 291.75 229.146 292.1 229.146 292.498V293.928C229.146 294.025 229.146 294.123 229.146 294.221C229.146 294.318 229.146 294.418 229.146 294.52ZM232.492 294.965V293.758C232.492 293.699 232.492 293.588 232.492 293.424C232.492 293.256 232.492 293.117 232.492 293.008L229.176 295.545C229.211 295.83 229.273 296.082 229.363 296.301C229.453 296.516 229.57 296.693 229.715 296.834C229.848 296.967 230.008 297.068 230.195 297.139C230.383 297.205 230.594 297.238 230.828 297.238C231.074 297.238 231.293 297.201 231.484 297.127C231.676 297.053 231.838 296.945 231.971 296.805C232.15 296.613 232.281 296.363 232.363 296.055C232.449 295.746 232.492 295.383 232.492 294.965ZM235.82 293.723L236.248 289.469H240.625V290.523H237.162L236.922 292.797C237.09 292.699 237.291 292.613 237.525 292.539C237.76 292.465 238.031 292.428 238.34 292.428C238.734 292.428 239.088 292.496 239.4 292.633C239.713 292.77 239.979 292.961 240.197 293.207C240.416 293.457 240.584 293.758 240.701 294.109C240.818 294.461 240.877 294.852 240.877 295.281C240.877 295.688 240.822 296.064 240.713 296.412C240.604 296.76 240.439 297.059 240.221 297.309C239.998 297.562 239.719 297.762 239.383 297.906C239.047 298.047 238.652 298.117 238.199 298.117C237.852 298.117 237.523 298.068 237.215 297.971C236.906 297.873 236.633 297.727 236.395 297.531C236.152 297.336 235.953 297.09 235.797 296.793C235.645 296.496 235.549 296.15 235.51 295.756H236.541C236.607 296.24 236.785 296.607 237.074 296.857C237.367 297.107 237.742 297.232 238.199 297.232C238.457 297.232 238.686 297.188 238.885 297.098C239.084 297.004 239.252 296.871 239.389 296.699C239.521 296.531 239.621 296.328 239.688 296.09C239.758 295.852 239.793 295.586 239.793 295.293C239.793 295.027 239.754 294.779 239.676 294.549C239.602 294.318 239.492 294.117 239.348 293.945C239.203 293.777 239.025 293.645 238.814 293.547C238.604 293.449 238.361 293.4 238.088 293.4C237.908 293.4 237.752 293.414 237.619 293.441C237.49 293.465 237.373 293.5 237.268 293.547C237.162 293.594 237.062 293.65 236.969 293.717C236.879 293.783 236.785 293.859 236.688 293.945L235.82 293.723Z" fill="black"/>
<path d="M303.4 289.469H304.508V295.404C304.5 295.799 304.424 296.162 304.279 296.494C304.139 296.826 303.945 297.111 303.699 297.35C303.453 297.592 303.162 297.781 302.826 297.918C302.494 298.051 302.131 298.117 301.736 298.117C301.338 298.117 300.975 298.057 300.646 297.936C300.322 297.814 300.041 297.641 299.803 297.414C299.561 297.191 299.367 296.922 299.223 296.605C299.078 296.285 298.988 295.928 298.953 295.533H300.055C300.066 295.771 300.113 295.992 300.195 296.195C300.281 296.398 300.396 296.574 300.541 296.723C300.686 296.875 300.857 296.992 301.057 297.074C301.26 297.156 301.486 297.197 301.736 297.197C301.994 297.197 302.225 297.15 302.428 297.057C302.631 296.959 302.805 296.828 302.949 296.664C303.09 296.5 303.197 296.311 303.271 296.096C303.35 295.877 303.393 295.646 303.4 295.404V289.469ZM310.771 298C310.729 297.918 310.693 297.816 310.666 297.695C310.643 297.57 310.625 297.441 310.613 297.309C310.504 297.418 310.381 297.521 310.244 297.619C310.111 297.717 309.965 297.803 309.805 297.877C309.641 297.951 309.467 298.01 309.283 298.053C309.1 298.096 308.904 298.117 308.697 298.117C308.361 298.117 308.057 298.068 307.783 297.971C307.514 297.873 307.285 297.74 307.098 297.572C306.906 297.408 306.758 297.213 306.652 296.986C306.551 296.756 306.5 296.508 306.5 296.242C306.5 295.895 306.568 295.59 306.705 295.328C306.846 295.066 307.043 294.848 307.297 294.672C307.551 294.5 307.855 294.371 308.211 294.285C308.57 294.199 308.971 294.156 309.412 294.156H310.596V293.658C310.596 293.467 310.561 293.295 310.49 293.143C310.42 292.99 310.32 292.859 310.191 292.75C310.062 292.645 309.904 292.562 309.717 292.504C309.533 292.445 309.326 292.416 309.096 292.416C308.881 292.416 308.688 292.443 308.516 292.498C308.348 292.553 308.205 292.625 308.088 292.715C307.971 292.805 307.879 292.912 307.812 293.037C307.75 293.158 307.719 293.285 307.719 293.418H306.629C306.633 293.188 306.691 292.961 306.805 292.738C306.922 292.516 307.09 292.314 307.309 292.135C307.523 291.959 307.785 291.816 308.094 291.707C308.406 291.598 308.76 291.543 309.154 291.543C309.514 291.543 309.848 291.588 310.156 291.678C310.465 291.764 310.732 291.895 310.959 292.07C311.182 292.25 311.357 292.473 311.486 292.738C311.615 293.004 311.68 293.314 311.68 293.67V296.617C311.68 296.828 311.699 297.053 311.738 297.291C311.777 297.525 311.832 297.73 311.902 297.906V298H310.771ZM308.855 297.174C309.066 297.174 309.264 297.146 309.447 297.092C309.631 297.037 309.799 296.965 309.951 296.875C310.1 296.785 310.229 296.684 310.338 296.57C310.447 296.453 310.533 296.332 310.596 296.207V294.924H309.588C309.213 294.924 308.885 294.957 308.604 295.023C308.326 295.086 308.105 295.184 307.941 295.316C307.824 295.41 307.734 295.521 307.672 295.65C307.613 295.779 307.584 295.926 307.584 296.09C307.584 296.246 307.609 296.391 307.66 296.523C307.715 296.656 307.795 296.77 307.9 296.863C308.006 296.961 308.139 297.037 308.299 297.092C308.459 297.146 308.645 297.174 308.855 297.174ZM313.812 298V291.66H314.785L314.861 292.598C314.955 292.465 315.057 292.344 315.166 292.234C315.279 292.121 315.398 292.023 315.523 291.941C315.711 291.816 315.914 291.721 316.133 291.654C316.355 291.584 316.59 291.547 316.836 291.543C317.168 291.543 317.469 291.59 317.738 291.684C318.012 291.777 318.244 291.924 318.436 292.123C318.627 292.322 318.773 292.576 318.875 292.885C318.98 293.189 319.033 293.553 319.033 293.975V298H317.949V293.998C317.949 293.717 317.918 293.479 317.855 293.283C317.793 293.088 317.701 292.93 317.58 292.809C317.455 292.688 317.303 292.6 317.123 292.545C316.947 292.49 316.744 292.463 316.514 292.463C316.314 292.463 316.129 292.492 315.957 292.551C315.785 292.605 315.627 292.682 315.482 292.779C315.365 292.865 315.256 292.965 315.154 293.078C315.057 293.191 314.971 293.316 314.896 293.453V298H313.812ZM333.582 294.736C333.582 295.279 333.52 295.762 333.395 296.184C333.27 296.602 333.09 296.953 332.855 297.238C332.621 297.527 332.334 297.746 331.994 297.895C331.654 298.043 331.266 298.117 330.828 298.117C330.395 298.117 330.006 298.045 329.662 297.9C329.318 297.752 329.027 297.531 328.789 297.238C328.551 296.953 328.369 296.602 328.244 296.184C328.119 295.762 328.057 295.279 328.057 294.736V292.738C328.057 292.195 328.119 291.715 328.244 291.297C328.369 290.875 328.551 290.52 328.789 290.23C329.023 289.941 329.311 289.723 329.65 289.574C329.994 289.422 330.383 289.346 330.816 289.346C331.254 289.346 331.643 289.422 331.982 289.574C332.326 289.723 332.617 289.941 332.855 290.23C333.09 290.52 333.27 290.875 333.395 291.297C333.52 291.715 333.582 292.195 333.582 292.738V294.736ZM329.146 294.52L332.469 291.971C332.438 291.689 332.381 291.441 332.299 291.227C332.221 291.008 332.113 290.826 331.977 290.682C331.844 290.533 331.68 290.422 331.484 290.348C331.293 290.273 331.07 290.236 330.816 290.236C330.559 290.236 330.33 290.277 330.131 290.359C329.936 290.438 329.77 290.553 329.633 290.705C329.469 290.896 329.346 291.145 329.264 291.449C329.186 291.75 329.146 292.1 329.146 292.498V293.928C329.146 294.025 329.146 294.123 329.146 294.221C329.146 294.318 329.146 294.418 329.146 294.52ZM332.492 294.965V293.758C332.492 293.699 332.492 293.588 332.492 293.424C332.492 293.256 332.492 293.117 332.492 293.008L329.176 295.545C329.211 295.83 329.273 296.082 329.363 296.301C329.453 296.516 329.57 296.693 329.715 296.834C329.848 296.967 330.008 297.068 330.195 297.139C330.383 297.205 330.594 297.238 330.828 297.238C331.074 297.238 331.293 297.201 331.484 297.127C331.676 297.053 331.838 296.945 331.971 296.805C332.15 296.613 332.281 296.363 332.363 296.055C332.449 295.746 332.492 295.383 332.492 294.965ZM340.836 290.078L337.303 298H336.166L339.688 290.418H335.07V289.469H340.836V290.078Z" fill="black"/>
<path d="M403.4 289.469H404.508V295.404C404.5 295.799 404.424 296.162 404.279 296.494C404.139 296.826 403.945 297.111 403.699 297.35C403.453 297.592 403.162 297.781 402.826 297.918C402.494 298.051 402.131 298.117 401.736 298.117C401.338 298.117 400.975 298.057 400.646 297.936C400.322 297.814 400.041 297.641 399.803 297.414C399.561 297.191 399.367 296.922 399.223 296.605C399.078 296.285 398.988 295.928 398.953 295.533H400.055C400.066 295.771 400.113 295.992 400.195 296.195C400.281 296.398 400.396 296.574 400.541 296.723C400.686 296.875 400.857 296.992 401.057 297.074C401.26 297.156 401.486 297.197 401.736 297.197C401.994 297.197 402.225 297.15 402.428 297.057C402.631 296.959 402.805 296.828 402.949 296.664C403.09 296.5 403.197 296.311 403.271 296.096C403.35 295.877 403.393 295.646 403.4 295.404V289.469ZM410.771 298C410.729 297.918 410.693 297.816 410.666 297.695C410.643 297.57 410.625 297.441 410.613 297.309C410.504 297.418 410.381 297.521 410.244 297.619C410.111 297.717 409.965 297.803 409.805 297.877C409.641 297.951 409.467 298.01 409.283 298.053C409.1 298.096 408.904 298.117 408.697 298.117C408.361 298.117 408.057 298.068 407.783 297.971C407.514 297.873 407.285 297.74 407.098 297.572C406.906 297.408 406.758 297.213 406.652 296.986C406.551 296.756 406.5 296.508 406.5 296.242C406.5 295.895 406.568 295.59 406.705 295.328C406.846 295.066 407.043 294.848 407.297 294.672C407.551 294.5 407.855 294.371 408.211 294.285C408.57 294.199 408.971 294.156 409.412 294.156H410.596V293.658C410.596 293.467 410.561 293.295 410.49 293.143C410.42 292.99 410.32 292.859 410.191 292.75C410.062 292.645 409.904 292.562 409.717 292.504C409.533 292.445 409.326 292.416 409.096 292.416C408.881 292.416 408.688 292.443 408.516 292.498C408.348 292.553 408.205 292.625 408.088 292.715C407.971 292.805 407.879 292.912 407.812 293.037C407.75 293.158 407.719 293.285 407.719 293.418H406.629C406.633 293.188 406.691 292.961 406.805 292.738C406.922 292.516 407.09 292.314 407.309 292.135C407.523 291.959 407.785 291.816 408.094 291.707C408.406 291.598 408.76 291.543 409.154 291.543C409.514 291.543 409.848 291.588 410.156 291.678C410.465 291.764 410.732 291.895 410.959 292.07C411.182 292.25 411.357 292.473 411.486 292.738C411.615 293.004 411.68 293.314 411.68 293.67V296.617C411.68 296.828 411.699 297.053 411.738 297.291C411.777 297.525 411.832 297.73 411.902 297.906V298H410.771ZM408.855 297.174C409.066 297.174 409.264 297.146 409.447 297.092C409.631 297.037 409.799 296.965 409.951 296.875C410.1 296.785 410.229 296.684 410.338 296.57C410.447 296.453 410.533 296.332 410.596 296.207V294.924H409.588C409.213 294.924 408.885 294.957 408.604 295.023C408.326 295.086 408.105 295.184 407.941 295.316C407.824 295.41 407.734 295.521 407.672 295.65C407.613 295.779 407.584 295.926 407.584 296.09C407.584 296.246 407.609 296.391 407.66 296.523C407.715 296.656 407.795 296.77 407.9 296.863C408.006 296.961 408.139 297.037 408.299 297.092C408.459 297.146 408.645 297.174 408.855 297.174ZM413.812 298V291.66H414.785L414.861 292.598C414.955 292.465 415.057 292.344 415.166 292.234C415.279 292.121 415.398 292.023 415.523 291.941C415.711 291.816 415.914 291.721 416.133 291.654C416.355 291.584 416.59 291.547 416.836 291.543C417.168 291.543 417.469 291.59 417.738 291.684C418.012 291.777 418.244 291.924 418.436 292.123C418.627 292.322 418.773 292.576 418.875 292.885C418.98 293.189 419.033 293.553 419.033 293.975V298H417.949V293.998C417.949 293.717 417.918 293.479 417.855 293.283C417.793 293.088 417.701 292.93 417.58 292.809C417.455 292.688 417.303 292.6 417.123 292.545C416.947 292.49 416.744 292.463 416.514 292.463C416.314 292.463 416.129 292.492 415.957 292.551C415.785 292.605 415.627 292.682 415.482 292.779C415.365 292.865 415.256 292.965 415.154 293.078C415.057 293.191 414.971 293.316 414.896 293.453V298H413.812ZM433.582 294.736C433.582 295.279 433.52 295.762 433.395 296.184C433.27 296.602 433.09 296.953 432.855 297.238C432.621 297.527 432.334 297.746 431.994 297.895C431.654 298.043 431.266 298.117 430.828 298.117C430.395 298.117 430.006 298.045 429.662 297.9C429.318 297.752 429.027 297.531 428.789 297.238C428.551 296.953 428.369 296.602 428.244 296.184C428.119 295.762 428.057 295.279 428.057 294.736V292.738C428.057 292.195 428.119 291.715 428.244 291.297C428.369 290.875 428.551 290.52 428.789 290.23C429.023 289.941 429.311 289.723 429.65 289.574C429.994 289.422 430.383 289.346 430.816 289.346C431.254 289.346 431.643 289.422 431.982 289.574C432.326 289.723 432.617 289.941 432.855 290.23C433.09 290.52 433.27 290.875 433.395 291.297C433.52 291.715 433.582 292.195 433.582 292.738V294.736ZM429.146 294.52L432.469 291.971C432.438 291.689 432.381 291.441 432.299 291.227C432.221 291.008 432.113 290.826 431.977 290.682C431.844 290.533 431.68 290.422 431.484 290.348C431.293 290.273 431.07 290.236 430.816 290.236C430.559 290.236 430.33 290.277 430.131 290.359C429.936 290.438 429.77 290.553 429.633 290.705C429.469 290.896 429.346 291.145 429.264 291.449C429.186 291.75 429.146 292.1 429.146 292.498V293.928C429.146 294.025 429.146 294.123 429.146 294.221C429.146 294.318 429.146 294.418 429.146 294.52ZM432.492 294.965V293.758C432.492 293.699 432.492 293.588 432.492 293.424C432.492 293.256 432.492 293.117 432.492 293.008L429.176 295.545C429.211 295.83 429.273 296.082 429.363 296.301C429.453 296.516 429.57 296.693 429.715 296.834C429.848 296.967 430.008 297.068 430.195 297.139C430.383 297.205 430.594 297.238 430.828 297.238C431.074 297.238 431.293 297.201 431.484 297.127C431.676 297.053 431.838 296.945 431.971 296.805C432.15 296.613 432.281 296.363 432.363 296.055C432.449 295.746 432.492 295.383 432.492 294.965ZM436.6 297.039C437.146 297.039 437.602 296.975 437.965 296.846C438.332 296.713 438.627 296.527 438.85 296.289C439.119 295.996 439.301 295.682 439.395 295.346C439.488 295.01 439.545 294.662 439.564 294.303V294.291C439.471 294.408 439.363 294.52 439.242 294.625C439.121 294.727 438.984 294.816 438.832 294.895C438.68 294.973 438.51 295.035 438.322 295.082C438.139 295.125 437.938 295.146 437.719 295.146C437.297 295.146 436.932 295.064 436.623 294.9C436.318 294.732 436.066 294.514 435.867 294.244C435.668 293.975 435.521 293.67 435.428 293.33C435.334 292.99 435.287 292.648 435.287 292.305C435.287 291.902 435.342 291.523 435.451 291.168C435.564 290.809 435.732 290.494 435.955 290.225C436.174 289.959 436.447 289.748 436.775 289.592C437.107 289.432 437.492 289.352 437.93 289.352C438.367 289.352 438.746 289.434 439.066 289.598C439.391 289.758 439.662 289.971 439.881 290.236C440.139 290.549 440.332 290.939 440.461 291.408C440.59 291.873 440.654 292.338 440.654 292.803V293.195C440.654 293.855 440.584 294.52 440.443 295.188C440.303 295.852 440.002 296.441 439.541 296.957C439.264 297.27 438.879 297.523 438.387 297.719C437.898 297.91 437.303 298.006 436.6 298.006H436.488V297.039H436.6ZM437.895 294.25C438.078 294.25 438.256 294.221 438.428 294.162C438.604 294.1 438.766 294.012 438.914 293.898C439.059 293.789 439.188 293.66 439.301 293.512C439.418 293.359 439.51 293.191 439.576 293.008V292.656C439.576 292.277 439.531 291.939 439.441 291.643C439.355 291.346 439.238 291.094 439.09 290.887C438.938 290.684 438.762 290.527 438.562 290.418C438.367 290.309 438.158 290.254 437.936 290.254C437.682 290.254 437.457 290.305 437.262 290.406C437.066 290.508 436.902 290.646 436.77 290.822C436.633 291.002 436.529 291.215 436.459 291.461C436.389 291.703 436.354 291.965 436.354 292.246C436.354 292.496 436.385 292.742 436.447 292.984C436.51 293.223 436.605 293.436 436.734 293.623C436.859 293.811 437.018 293.963 437.209 294.08C437.404 294.193 437.633 294.25 437.895 294.25Z" fill="black"/>
<rect x="119" y="211" width="300" height="18" rx="7" fill="#EEE957" stroke="#C7C117" stroke-width="2"/>
<rect x="21" y="211" width="48" height="18" rx="7" fill="#EEE957" stroke="#C7C117" stroke-width="2"/>
<path d="M1.18945 131.66H4.42969V137.062H6.49805V138H1.18945V137.062H3.3457V132.604H1.18945V131.66ZM3.20508 129.996C3.20508 129.902 3.21875 129.814 3.24609 129.732C3.27734 129.65 3.32422 129.58 3.38672 129.521C3.4375 129.471 3.50195 129.432 3.58008 129.404C3.66211 129.373 3.75391 129.357 3.85547 129.357C3.95703 129.357 4.04688 129.373 4.125 129.404C4.20312 129.432 4.26758 129.471 4.31836 129.521C4.38086 129.576 4.42773 129.645 4.45898 129.727C4.49023 129.809 4.50586 129.898 4.50586 129.996C4.50586 130.172 4.45117 130.318 4.3418 130.436C4.23242 130.553 4.07031 130.611 3.85547 130.611C3.63672 130.611 3.47266 130.553 3.36328 130.436C3.25781 130.318 3.20508 130.172 3.20508 129.996ZM8.22656 138V131.66H9.19922L9.27539 132.598C9.36914 132.465 9.4707 132.344 9.58008 132.234C9.69336 132.121 9.8125 132.023 9.9375 131.941C10.125 131.816 10.3281 131.721 10.5469 131.654C10.7695 131.584 11.0039 131.547 11.25 131.543C11.582 131.543 11.8828 131.59 12.1523 131.684C12.4258 131.777 12.6582 131.924 12.8496 132.123C13.041 132.322 13.1875 132.576 13.2891 132.885C13.3945 133.189 13.4473 133.553 13.4473 133.975V138H12.3633V133.998C12.3633 133.717 12.332 133.479 12.2695 133.283C12.207 133.088 12.1152 132.93 11.9941 132.809C11.8691 132.688 11.7168 132.6 11.5371 132.545C11.3613 132.49 11.1582 132.463 10.9277 132.463C10.7285 132.463 10.543 132.492 10.3711 132.551C10.1992 132.605 10.041 132.682 9.89648 132.779C9.7793 132.865 9.66992 132.965 9.56836 133.078C9.4707 133.191 9.38477 133.316 9.31055 133.453V138H8.22656ZM18 130.125V131.66H20.4141V132.498H18V135.943C18 136.189 18.0312 136.393 18.0938 136.553C18.1562 136.713 18.2422 136.84 18.3516 136.934C18.4609 137.031 18.5859 137.1 18.7266 137.139C18.8711 137.178 19.0234 137.197 19.1836 137.197C19.3008 137.197 19.4219 137.191 19.5469 137.18C19.6719 137.164 19.7949 137.146 19.916 137.127C20.0332 137.107 20.1426 137.088 20.2441 137.068C20.3496 137.045 20.4355 137.025 20.502 137.01L20.6543 137.777C20.5645 137.832 20.4551 137.881 20.3262 137.924C20.1973 137.963 20.0566 137.996 19.9043 138.023C19.752 138.055 19.5898 138.078 19.418 138.094C19.25 138.109 19.082 138.117 18.9141 138.117C18.6328 138.117 18.3691 138.078 18.123 138C17.8809 137.918 17.6699 137.789 17.4902 137.613C17.3105 137.441 17.168 137.219 17.0625 136.945C16.9609 136.668 16.9102 136.334 16.9102 135.943V132.498H15.2461V131.66H16.9102V130.125H18ZM26.8535 136.318C26.8535 136.189 26.8281 136.074 26.7773 135.973C26.7266 135.867 26.6406 135.771 26.5195 135.686C26.3984 135.6 26.2383 135.521 26.0391 135.451C25.8398 135.377 25.5918 135.311 25.2949 135.252C24.9316 135.178 24.5996 135.088 24.2988 134.982C24.002 134.877 23.748 134.75 23.5371 134.602C23.3223 134.457 23.1562 134.287 23.0391 134.092C22.9219 133.893 22.8633 133.662 22.8633 133.4C22.8633 133.143 22.9238 132.902 23.0449 132.68C23.166 132.453 23.3359 132.256 23.5547 132.088C23.7734 131.92 24.0332 131.787 24.334 131.689C24.6387 131.592 24.9727 131.543 25.3359 131.543C25.7266 131.543 26.0781 131.594 26.3906 131.695C26.7031 131.797 26.9688 131.938 27.1875 132.117C27.4062 132.297 27.5742 132.508 27.6914 132.75C27.8125 132.988 27.873 133.246 27.873 133.523H26.7891C26.7891 133.387 26.7539 133.254 26.6836 133.125C26.6133 132.992 26.5156 132.875 26.3906 132.773C26.2656 132.672 26.1133 132.59 25.9336 132.527C25.7578 132.465 25.5586 132.434 25.3359 132.434C25.1055 132.434 24.9023 132.459 24.7266 132.51C24.5547 132.561 24.4121 132.629 24.2988 132.715C24.1816 132.801 24.0938 132.9 24.0352 133.014C23.9766 133.127 23.9473 133.244 23.9473 133.365C23.9473 133.49 23.9707 133.602 24.0176 133.699C24.0645 133.797 24.1465 133.885 24.2637 133.963C24.377 134.041 24.5293 134.111 24.7207 134.174C24.916 134.236 25.1621 134.297 25.459 134.355C25.8496 134.438 26.1992 134.533 26.5078 134.643C26.8164 134.748 27.0762 134.875 27.2871 135.023C27.498 135.176 27.6582 135.352 27.7676 135.551C27.8809 135.75 27.9375 135.98 27.9375 136.242C27.9375 136.523 27.873 136.779 27.7441 137.01C27.6191 137.24 27.4434 137.438 27.2168 137.602C26.9902 137.766 26.7188 137.893 26.4023 137.982C26.0859 138.072 25.7402 138.117 25.3652 138.117C24.9355 138.117 24.5527 138.061 24.2168 137.947C23.8809 137.83 23.5977 137.676 23.3672 137.484C23.1328 137.297 22.9531 137.078 22.8281 136.828C22.707 136.578 22.6465 136.318 22.6465 136.049H23.7305C23.7461 136.271 23.8047 136.459 23.9062 136.611C24.0117 136.764 24.1426 136.887 24.2988 136.98C24.4512 137.074 24.6211 137.141 24.8086 137.18C24.9961 137.219 25.1816 137.238 25.3652 137.238C25.6543 137.238 25.9062 137.205 26.1211 137.139C26.3359 137.068 26.5039 136.973 26.625 136.852C26.6992 136.777 26.7559 136.695 26.7949 136.605C26.834 136.516 26.8535 136.42 26.8535 136.318ZM33.6445 129.141H32.3496V138.938H33.6445V139.828H31.3242V128.25H33.6445V129.141ZM40.8516 129.141H39.5566V138.938H40.8516V139.828H38.5312V128.25H40.8516V129.141ZM45.5273 133.213H46.3008C46.5742 133.213 46.8145 133.176 47.0215 133.102C47.2324 133.027 47.4102 132.926 47.5547 132.797C47.6953 132.668 47.8027 132.514 47.877 132.334C47.9512 132.154 47.9883 131.957 47.9883 131.742C47.9883 131.488 47.9551 131.268 47.8887 131.08C47.8223 130.889 47.7246 130.73 47.5957 130.605C47.4707 130.484 47.3145 130.395 47.127 130.336C46.9434 130.273 46.7324 130.242 46.4941 130.242C46.2637 130.242 46.0527 130.277 45.8613 130.348C45.6738 130.414 45.5137 130.512 45.3809 130.641C45.2441 130.77 45.1387 130.924 45.0645 131.104C44.9902 131.283 44.9531 131.484 44.9531 131.707H43.8633C43.8633 131.383 43.9258 131.078 44.0508 130.793C44.1797 130.504 44.3594 130.252 44.5898 130.037C44.8203 129.826 45.0957 129.66 45.416 129.539C45.7402 129.414 46.0996 129.352 46.4941 129.352C46.877 129.352 47.2266 129.404 47.543 129.51C47.8594 129.611 48.1309 129.764 48.3574 129.967C48.584 130.17 48.7598 130.422 48.8848 130.723C49.0098 131.023 49.0723 131.371 49.0723 131.766C49.0723 131.93 49.0469 132.1 48.9961 132.275C48.9453 132.451 48.8672 132.621 48.7617 132.785C48.6562 132.953 48.5195 133.111 48.3516 133.26C48.1875 133.404 47.9902 133.525 47.7598 133.623C48.0371 133.713 48.2676 133.83 48.4512 133.975C48.6387 134.119 48.7891 134.281 48.9023 134.461C49.0117 134.641 49.0879 134.83 49.1309 135.029C49.1777 135.229 49.2012 135.426 49.2012 135.621C49.2012 136.02 49.1328 136.373 48.9961 136.682C48.8594 136.99 48.6699 137.25 48.4277 137.461C48.1855 137.676 47.8984 137.84 47.5664 137.953C47.2383 138.062 46.8828 138.117 46.5 138.117C46.125 138.117 45.7715 138.064 45.4395 137.959C45.1113 137.854 44.8262 137.699 44.584 137.496C44.3418 137.293 44.1484 137.045 44.0039 136.752C43.8633 136.459 43.793 136.125 43.793 135.75H44.877C44.877 135.973 44.9141 136.176 44.9883 136.359C45.0664 136.543 45.1758 136.699 45.3164 136.828C45.457 136.957 45.627 137.057 45.8262 137.127C46.0293 137.197 46.2539 137.232 46.5 137.232C46.7461 137.232 46.9688 137.201 47.168 137.139C47.3672 137.072 47.5371 136.973 47.6777 136.84C47.8184 136.707 47.9258 136.543 48 136.348C48.0781 136.148 48.1172 135.914 48.1172 135.645C48.1172 135.379 48.0723 135.15 47.9824 134.959C47.8965 134.764 47.7754 134.602 47.6191 134.473C47.459 134.344 47.2656 134.248 47.0391 134.186C46.8164 134.123 46.5703 134.092 46.3008 134.092H45.5273V133.213ZM52.8223 128.25H55.1484V139.828H52.8223V138.938H54.123V129.141H52.8223V128.25ZM60.0293 128.25H62.3555V139.828H60.0293V138.938H61.3301V129.141H60.0293V128.25Z" fill="black"/>
<rect x="169" y="151" width="250" height="18" rx="7" fill="#38B873" stroke="#356F2A" stroke-width="2"/>
<path d="M1.18945 71.6602H4.42969V77.0625H6.49805V78H1.18945V77.0625H3.3457V72.6035H1.18945V71.6602ZM3.20508 69.9961C3.20508 69.9023 3.21875 69.8145 3.24609 69.7324C3.27734 69.6504 3.32422 69.5801 3.38672 69.5215C3.4375 69.4707 3.50195 69.4316 3.58008 69.4043C3.66211 69.373 3.75391 69.3574 3.85547 69.3574C3.95703 69.3574 4.04688 69.373 4.125 69.4043C4.20312 69.4316 4.26758 69.4707 4.31836 69.5215C4.38086 69.5762 4.42773 69.6445 4.45898 69.7266C4.49023 69.8086 4.50586 69.8984 4.50586 69.9961C4.50586 70.1719 4.45117 70.3184 4.3418 70.4355C4.23242 70.5527 4.07031 70.6113 3.85547 70.6113C3.63672 70.6113 3.47266 70.5527 3.36328 70.4355C3.25781 70.3184 3.20508 70.1719 3.20508 69.9961ZM8.22656 78V71.6602H9.19922L9.27539 72.5977C9.36914 72.4648 9.4707 72.3438 9.58008 72.2344C9.69336 72.1211 9.8125 72.0234 9.9375 71.9414C10.125 71.8164 10.3281 71.7207 10.5469 71.6543C10.7695 71.584 11.0039 71.5469 11.25 71.543C11.582 71.543 11.8828 71.5898 12.1523 71.6836C12.4258 71.7773 12.6582 71.9238 12.8496 72.123C13.041 72.3223 13.1875 72.5762 13.2891 72.8848C13.3945 73.1895 13.4473 73.5527 13.4473 73.9746V78H12.3633V73.998C12.3633 73.7168 12.332 73.4785 12.2695 73.2832C12.207 73.0879 12.1152 72.9297 11.9941 72.8086C11.8691 72.6875 11.7168 72.5996 11.5371 72.5449C11.3613 72.4902 11.1582 72.4629 10.9277 72.4629C10.7285 72.4629 10.543 72.4922 10.3711 72.5508C10.1992 72.6055 10.041 72.6816 9.89648 72.7793C9.7793 72.8652 9.66992 72.9648 9.56836 73.0781C9.4707 73.1914 9.38477 73.3164 9.31055 73.4531V78H8.22656ZM18 70.125V71.6602H20.4141V72.498H18V75.9434C18 76.1895 18.0312 76.3926 18.0938 76.5527C18.1562 76.7129 18.2422 76.8398 18.3516 76.9336C18.4609 77.0312 18.5859 77.0996 18.7266 77.1387C18.8711 77.1777 19.0234 77.1973 19.1836 77.1973C19.3008 77.1973 19.4219 77.1914 19.5469 77.1797C19.6719 77.1641 19.7949 77.1465 19.916 77.127C20.0332 77.1074 20.1426 77.0879 20.2441 77.0684C20.3496 77.0449 20.4355 77.0254 20.502 77.0098L20.6543 77.7773C20.5645 77.832 20.4551 77.8809 20.3262 77.9238C20.1973 77.9629 20.0566 77.9961 19.9043 78.0234C19.752 78.0547 19.5898 78.0781 19.418 78.0938C19.25 78.1094 19.082 78.1172 18.9141 78.1172C18.6328 78.1172 18.3691 78.0781 18.123 78C17.8809 77.918 17.6699 77.7891 17.4902 77.6133C17.3105 77.4414 17.168 77.2188 17.0625 76.9453C16.9609 76.668 16.9102 76.334 16.9102 75.9434V72.498H15.2461V71.6602H16.9102V70.125H18ZM26.8535 76.3184C26.8535 76.1895 26.8281 76.0742 26.7773 75.9727C26.7266 75.8672 26.6406 75.7715 26.5195 75.6855C26.3984 75.5996 26.2383 75.5215 26.0391 75.4512C25.8398 75.377 25.5918 75.3105 25.2949 75.252C24.9316 75.1777 24.5996 75.0879 24.2988 74.9824C24.002 74.877 23.748 74.75 23.5371 74.6016C23.3223 74.457 23.1562 74.2871 23.0391 74.0918C22.9219 73.8926 22.8633 73.6621 22.8633 73.4004C22.8633 73.1426 22.9238 72.9023 23.0449 72.6797C23.166 72.4531 23.3359 72.2559 23.5547 72.0879C23.7734 71.9199 24.0332 71.7871 24.334 71.6895C24.6387 71.5918 24.9727 71.543 25.3359 71.543C25.7266 71.543 26.0781 71.5938 26.3906 71.6953C26.7031 71.7969 26.9688 71.9375 27.1875 72.1172C27.4062 72.2969 27.5742 72.5078 27.6914 72.75C27.8125 72.9883 27.873 73.2461 27.873 73.5234H26.7891C26.7891 73.3867 26.7539 73.2539 26.6836 73.125C26.6133 72.9922 26.5156 72.875 26.3906 72.7734C26.2656 72.6719 26.1133 72.5898 25.9336 72.5273C25.7578 72.4648 25.5586 72.4336 25.3359 72.4336C25.1055 72.4336 24.9023 72.459 24.7266 72.5098C24.5547 72.5605 24.4121 72.6289 24.2988 72.7148C24.1816 72.8008 24.0938 72.9004 24.0352 73.0137C23.9766 73.127 23.9473 73.2441 23.9473 73.3652C23.9473 73.4902 23.9707 73.6016 24.0176 73.6992C24.0645 73.7969 24.1465 73.8848 24.2637 73.9629C24.377 74.041 24.5293 74.1113 24.7207 74.1738C24.916 74.2363 25.1621 74.2969 25.459 74.3555C25.8496 74.4375 26.1992 74.5332 26.5078 74.6426C26.8164 74.748 27.0762 74.875 27.2871 75.0234C27.498 75.1758 27.6582 75.3516 27.7676 75.5508C27.8809 75.75 27.9375 75.9805 27.9375 76.2422C27.9375 76.5234 27.873 76.7793 27.7441 77.0098C27.6191 77.2402 27.4434 77.4375 27.2168 77.6016C26.9902 77.7656 26.7188 77.8926 26.4023 77.9824C26.0859 78.0723 25.7402 78.1172 25.3652 78.1172C24.9355 78.1172 24.5527 78.0605 24.2168 77.9473C23.8809 77.8301 23.5977 77.6758 23.3672 77.4844C23.1328 77.2969 22.9531 77.0781 22.8281 76.8281C22.707 76.5781 22.6465 76.3184 22.6465 76.0488H23.7305C23.7461 76.2715 23.8047 76.459 23.9062 76.6113C24.0117 76.7637 24.1426 76.8867 24.2988 76.9805C24.4512 77.0742 24.6211 77.1406 24.8086 77.1797C24.9961 77.2188 25.1816 77.2383 25.3652 77.2383C25.6543 77.2383 25.9062 77.2051 26.1211 77.1387C26.3359 77.0684 26.5039 76.9727 26.625 76.8516C26.6992 76.7773 26.7559 76.6953 26.7949 76.6055C26.834 76.5156 26.8535 76.4199 26.8535 76.3184ZM33.6445 69.1406H32.3496V78.9375H33.6445V79.8281H31.3242V68.25H33.6445V69.1406ZM40.8516 69.1406H39.5566V78.9375H40.8516V79.8281H38.5312V68.25H40.8516V69.1406ZM49.4941 78H43.9043V77.2207L46.6992 74.1152C46.9492 73.8379 47.1582 73.5918 47.3262 73.377C47.4941 73.1621 47.6289 72.9629 47.7305 72.7793C47.832 72.5996 47.9043 72.4297 47.9473 72.2695C47.9902 72.1055 48.0117 71.9375 48.0117 71.7656C48.0117 71.5547 47.9766 71.3574 47.9062 71.1738C47.8398 70.9863 47.7422 70.8242 47.6133 70.6875C47.4805 70.5508 47.3203 70.4434 47.1328 70.3652C46.9492 70.2832 46.7402 70.2422 46.5059 70.2422C46.2207 70.2422 45.9727 70.2832 45.7617 70.3652C45.5547 70.4473 45.3828 70.5625 45.2461 70.7109C45.1055 70.8633 45 71.0469 44.9297 71.2617C44.8633 71.4766 44.8301 71.7168 44.8301 71.9824H43.7402C43.7402 71.623 43.8027 71.2852 43.9277 70.9688C44.0527 70.6484 44.2344 70.3691 44.4727 70.1309C44.707 69.8926 44.9941 69.7031 45.334 69.5625C45.6777 69.4219 46.0684 69.3516 46.5059 69.3516C46.9082 69.3516 47.2695 69.4121 47.5898 69.5332C47.9141 69.6504 48.1875 69.8145 48.4102 70.0254C48.6328 70.2363 48.8027 70.4863 48.9199 70.7754C49.041 71.0645 49.1016 71.3789 49.1016 71.7188C49.1016 71.9727 49.0586 72.2246 48.9727 72.4746C48.8867 72.7207 48.7715 72.9648 48.627 73.207C48.4785 73.4492 48.3066 73.6895 48.1113 73.9277C47.9199 74.1621 47.7168 74.3965 47.502 74.6309L45.2109 77.1152H49.4941V78ZM52.8223 68.25H55.1484V79.8281H52.8223V78.9375H54.123V69.1406H52.8223V68.25ZM60.0293 68.25H62.3555V79.8281H60.0293V78.9375H61.3301V69.1406H60.0293V68.25Z" fill="black"/>
<rect x="119" y="91" width="100" height="18" rx="7" fill="#38B873" stroke="#356F2A" stroke-width="2"/>
<rect x="21" y="31" width="48" height="18" rx="7" fill="#38B873" stroke="#356F2A" stroke-width="2"/>
<path d="M1.18945 11.6602H4.42969V17.0625H6.49805V18H1.18945V17.0625H3.3457V12.6035H1.18945V11.6602ZM3.20508 9.99609C3.20508 9.90234 3.21875 9.81445 3.24609 9.73242C3.27734 9.65039 3.32422 9.58008 3.38672 9.52148C3.4375 9.4707 3.50195 9.43164 3.58008 9.4043C3.66211 9.37305 3.75391 9.35742 3.85547 9.35742C3.95703 9.35742 4.04688 9.37305 4.125 9.4043C4.20312 9.43164 4.26758 9.4707 4.31836 9.52148C4.38086 9.57617 4.42773 9.64453 4.45898 9.72656C4.49023 9.80859 4.50586 9.89844 4.50586 9.99609C4.50586 10.1719 4.45117 10.3184 4.3418 10.4355C4.23242 10.5527 4.07031 10.6113 3.85547 10.6113C3.63672 10.6113 3.47266 10.5527 3.36328 10.4355C3.25781 10.3184 3.20508 10.1719 3.20508 9.99609ZM8.22656 18V11.6602H9.19922L9.27539 12.5977C9.36914 12.4648 9.4707 12.3438 9.58008 12.2344C9.69336 12.1211 9.8125 12.0234 9.9375 11.9414C10.125 11.8164 10.3281 11.7207 10.5469 11.6543C10.7695 11.584 11.0039 11.5469 11.25 11.543C11.582 11.543 11.8828 11.5898 12.1523 11.6836C12.4258 11.7773 12.6582 11.9238 12.8496 12.123C13.041 12.3223 13.1875 12.5762 13.2891 12.8848C13.3945 13.1895 13.4473 13.5527 13.4473 13.9746V18H12.3633V13.998C12.3633 13.7168 12.332 13.4785 12.2695 13.2832C12.207 13.0879 12.1152 12.9297 11.9941 12.8086C11.8691 12.6875 11.7168 12.5996 11.5371 12.5449C11.3613 12.4902 11.1582 12.4629 10.9277 12.4629C10.7285 12.4629 10.543 12.4922 10.3711 12.5508C10.1992 12.6055 10.041 12.6816 9.89648 12.7793C9.7793 12.8652 9.66992 12.9648 9.56836 13.0781C9.4707 13.1914 9.38477 13.3164 9.31055 13.4531V18H8.22656ZM18 10.125V11.6602H20.4141V12.498H18V15.9434C18 16.1895 18.0312 16.3926 18.0938 16.5527C18.1562 16.7129 18.2422 16.8398 18.3516 16.9336C18.4609 17.0312 18.5859 17.0996 18.7266 17.1387C18.8711 17.1777 19.0234 17.1973 19.1836 17.1973C19.3008 17.1973 19.4219 17.1914 19.5469 17.1797C19.6719 17.1641 19.7949 17.1465 19.916 17.127C20.0332 17.1074 20.1426 17.0879 20.2441 17.0684C20.3496 17.0449 20.4355 17.0254 20.502 17.0098L20.6543 17.7773C20.5645 17.832 20.4551 17.8809 20.3262 17.9238C20.1973 17.9629 20.0566 17.9961 19.9043 18.0234C19.752 18.0547 19.5898 18.0781 19.418 18.0938C19.25 18.1094 19.082 18.1172 18.9141 18.1172C18.6328 18.1172 18.3691 18.0781 18.123 18C17.8809 17.918 17.6699 17.7891 17.4902 17.6133C17.3105 17.4414 17.168 17.2188 17.0625 16.9453C16.9609 16.668 16.9102 16.334 16.9102 15.9434V12.498H15.2461V11.6602H16.9102V10.125H18ZM26.8535 16.3184C26.8535 16.1895 26.8281 16.0742 26.7773 15.9727C26.7266 15.8672 26.6406 15.7715 26.5195 15.6855C26.3984 15.5996 26.2383 15.5215 26.0391 15.4512C25.8398 15.377 25.5918 15.3105 25.2949 15.252C24.9316 15.1777 24.5996 15.0879 24.2988 14.9824C24.002 14.877 23.748 14.75 23.5371 14.6016C23.3223 14.457 23.1562 14.2871 23.0391 14.0918C22.9219 13.8926 22.8633 13.6621 22.8633 13.4004C22.8633 13.1426 22.9238 12.9023 23.0449 12.6797C23.166 12.4531 23.3359 12.2559 23.5547 12.0879C23.7734 11.9199 24.0332 11.7871 24.334 11.6895C24.6387 11.5918 24.9727 11.543 25.3359 11.543C25.7266 11.543 26.0781 11.5938 26.3906 11.6953C26.7031 11.7969 26.9688 11.9375 27.1875 12.1172C27.4062 12.2969 27.5742 12.5078 27.6914 12.75C27.8125 12.9883 27.873 13.2461 27.873 13.5234H26.7891C26.7891 13.3867 26.7539 13.2539 26.6836 13.125C26.6133 12.9922 26.5156 12.875 26.3906 12.7734C26.2656 12.6719 26.1133 12.5898 25.9336 12.5273C25.7578 12.4648 25.5586 12.4336 25.3359 12.4336C25.1055 12.4336 24.9023 12.459 24.7266 12.5098C24.5547 12.5605 24.4121 12.6289 24.2988 12.7148C24.1816 12.8008 24.0938 12.9004 24.0352 13.0137C23.9766 13.127 23.9473 13.2441 23.9473 13.3652C23.9473 13.4902 23.9707 13.6016 24.0176 13.6992C24.0645 13.7969 24.1465 13.8848 24.2637 13.9629C24.377 14.041 24.5293 14.1113 24.7207 14.1738C24.916 14.2363 25.1621 14.2969 25.459 14.3555C25.8496 14.4375 26.1992 14.5332 26.5078 14.6426C26.8164 14.748 27.0762 14.875 27.2871 15.0234C27.498 15.1758 27.6582 15.3516 27.7676 15.5508C27.8809 15.75 27.9375 15.9805 27.9375 16.2422C27.9375 16.5234 27.873 16.7793 27.7441 17.0098C27.6191 17.2402 27.4434 17.4375 27.2168 17.6016C26.9902 17.7656 26.7188 17.8926 26.4023 17.9824C26.0859 18.0723 25.7402 18.1172 25.3652 18.1172C24.9355 18.1172 24.5527 18.0605 24.2168 17.9473C23.8809 17.8301 23.5977 17.6758 23.3672 17.4844C23.1328 17.2969 22.9531 17.0781 22.8281 16.8281C22.707 16.5781 22.6465 16.3184 22.6465 16.0488H23.7305C23.7461 16.2715 23.8047 16.459 23.9062 16.6113C24.0117 16.7637 24.1426 16.8867 24.2988 16.9805C24.4512 17.0742 24.6211 17.1406 24.8086 17.1797C24.9961 17.2188 25.1816 17.2383 25.3652 17.2383C25.6543 17.2383 25.9062 17.2051 26.1211 17.1387C26.3359 17.0684 26.5039 16.9727 26.625 16.8516C26.6992 16.7773 26.7559 16.6953 26.7949 16.6055C26.834 16.5156 26.8535 16.4199 26.8535 16.3184ZM33.6445 9.14062H32.3496V18.9375H33.6445V19.8281H31.3242V8.25H33.6445V9.14062ZM40.8516 9.14062H39.5566V18.9375H40.8516V19.8281H38.5312V8.25H40.8516V9.14062ZM47.7773 18H46.6934V10.8516L44.4609 11.7012V10.7109L47.6895 9.46875H47.7773V18ZM52.8223 8.25H55.1484V19.8281H52.8223V18.9375H54.123V9.14062H52.8223V8.25ZM60.0293 8.25H62.3555V19.8281H60.0293V18.9375H61.3301V9.14062H60.0293V8.25Z" fill="black"/>
<line x1="69" y1="262" x2="69" stroke="black" stroke-opacity="0.1" stroke-width="2" stroke-dasharray="5 5"/>
<line x1="21" y1="262" x2="21" stroke="black" stroke-opacity="0.1" stroke-width="2" stroke-dasharray="5 5"/>
<line x1="118" y1="262" x2="118" stroke="black" stroke-opacity="0.1" stroke-width="2" stroke-dasharray="5 5"/>
<line x1="419" y1="262" x2="419" stroke="black" stroke-opacity="0.1" stroke-width="2" stroke-dasharray="5 5"/>
</svg>
