<svg width="521" height="213" viewBox="0 0 521 213" fill="none" xmlns="http://www.w3.org/2000/svg">
<line x1="59" y1="166" x2="459" y2="166" stroke="#EEF5FC" stroke-width="2"/>
<line x1="60" y1="176" x2="60" y2="156" stroke="#EEF5FC" stroke-width="2"/>
<line x1="108" y1="176" x2="108" y2="156" stroke="#EEF5FC" stroke-width="2"/>
<line x1="158" y1="176" x2="158" y2="156" stroke="#EEF5FC" stroke-width="2"/>
<line x1="158" y1="176" x2="158" y2="156" stroke="#EEF5FC" stroke-width="2"/>
<line x1="208" y1="176" x2="208" y2="156" stroke="#EEF5FC" stroke-width="2"/>
<line x1="258" y1="176" x2="258" y2="156" stroke="#EEF5FC" stroke-width="2"/>
<line x1="308" y1="176" x2="308" y2="156" stroke="#EEF5FC" stroke-width="2"/>
<line x1="358" y1="176" x2="358" y2="156" stroke="#EEF5FC" stroke-width="2"/>
<line x1="408" y1="176" x2="408" y2="156" stroke="#EEF5FC" stroke-width="2"/>
<line x1="458" y1="176" x2="458" y2="156" stroke="#EEF5FC" stroke-width="2"/>
<path d="M44.4004 186.469H45.5078V192.404C45.5 192.799 45.4238 193.162 45.2793 193.494C45.1387 193.826 44.9453 194.111 44.6992 194.35C44.4531 194.592 44.1621 194.781 43.8262 194.918C43.4941 195.051 43.1309 195.117 42.7363 195.117C42.3379 195.117 41.9746 195.057 41.6465 194.936C41.3223 194.814 41.041 194.641 40.8027 194.414C40.5605 194.191 40.3672 193.922 40.2227 193.605C40.0781 193.285 39.9883 192.928 39.9531 192.533H41.0547C41.0664 192.771 41.1133 192.992 41.1953 193.195C41.2812 193.398 41.3965 193.574 41.541 193.723C41.6855 193.875 41.8574 193.992 42.0566 194.074C42.2598 194.156 42.4863 194.197 42.7363 194.197C42.9941 194.197 43.2246 194.15 43.4277 194.057C43.6309 193.959 43.8047 193.828 43.9492 193.664C44.0898 193.5 44.1973 193.311 44.2715 193.096C44.3496 192.877 44.3926 192.646 44.4004 192.404V186.469ZM51.7715 195C51.7285 194.918 51.6934 194.816 51.666 194.695C51.6426 194.57 51.625 194.441 51.6133 194.309C51.5039 194.418 51.3809 194.521 51.2441 194.619C51.1113 194.717 50.9648 194.803 50.8047 194.877C50.6406 194.951 50.4668 195.01 50.2832 195.053C50.0996 195.096 49.9043 195.117 49.6973 195.117C49.3613 195.117 49.0566 195.068 48.7832 194.971C48.5137 194.873 48.2852 194.74 48.0977 194.572C47.9062 194.408 47.7578 194.213 47.6523 193.986C47.5508 193.756 47.5 193.508 47.5 193.242C47.5 192.895 47.5684 192.59 47.7051 192.328C47.8457 192.066 48.043 191.848 48.2969 191.672C48.5508 191.5 48.8555 191.371 49.2109 191.285C49.5703 191.199 49.9707 191.156 50.4121 191.156H51.5957V190.658C51.5957 190.467 51.5605 190.295 51.4902 190.143C51.4199 189.99 51.3203 189.859 51.1914 189.75C51.0625 189.645 50.9043 189.562 50.7168 189.504C50.5332 189.445 50.3262 189.416 50.0957 189.416C49.8809 189.416 49.6875 189.443 49.5156 189.498C49.3477 189.553 49.2051 189.625 49.0879 189.715C48.9707 189.805 48.8789 189.912 48.8125 190.037C48.75 190.158 48.7188 190.285 48.7188 190.418H47.6289C47.6328 190.188 47.6914 189.961 47.8047 189.738C47.9219 189.516 48.0898 189.314 48.3086 189.135C48.5234 188.959 48.7852 188.816 49.0938 188.707C49.4062 188.598 49.7598 188.543 50.1543 188.543C50.5137 188.543 50.8477 188.588 51.1562 188.678C51.4648 188.764 51.7324 188.895 51.959 189.07C52.1816 189.25 52.3574 189.473 52.4863 189.738C52.6152 190.004 52.6797 190.314 52.6797 190.67V193.617C52.6797 193.828 52.6992 194.053 52.7383 194.291C52.7773 194.525 52.832 194.73 52.9023 194.906V195H51.7715ZM49.8555 194.174C50.0664 194.174 50.2637 194.146 50.4473 194.092C50.6309 194.037 50.7988 193.965 50.9512 193.875C51.0996 193.785 51.2285 193.684 51.3379 193.57C51.4473 193.453 51.5332 193.332 51.5957 193.207V191.924H50.5879C50.2129 191.924 49.8848 191.957 49.6035 192.023C49.3262 192.086 49.1055 192.184 48.9414 192.316C48.8242 192.41 48.7344 192.521 48.6719 192.65C48.6133 192.779 48.584 192.926 48.584 193.09C48.584 193.246 48.6094 193.391 48.6602 193.523C48.7148 193.656 48.7949 193.77 48.9004 193.863C49.0059 193.961 49.1387 194.037 49.2988 194.092C49.459 194.146 49.6445 194.174 49.8555 194.174ZM54.8125 195V188.66H55.7852L55.8613 189.598C55.9551 189.465 56.0566 189.344 56.166 189.234C56.2793 189.121 56.3984 189.023 56.5234 188.941C56.7109 188.816 56.9141 188.721 57.1328 188.654C57.3555 188.584 57.5898 188.547 57.8359 188.543C58.168 188.543 58.4688 188.59 58.7383 188.684C59.0117 188.777 59.2441 188.924 59.4355 189.123C59.627 189.322 59.7734 189.576 59.875 189.885C59.9805 190.189 60.0332 190.553 60.0332 190.975V195H58.9492V190.998C58.9492 190.717 58.918 190.479 58.8555 190.283C58.793 190.088 58.7012 189.93 58.5801 189.809C58.4551 189.688 58.3027 189.6 58.123 189.545C57.9473 189.49 57.7441 189.463 57.5137 189.463C57.3145 189.463 57.1289 189.492 56.957 189.551C56.7852 189.605 56.627 189.682 56.4824 189.779C56.3652 189.865 56.2559 189.965 56.1543 190.078C56.0566 190.191 55.9707 190.316 55.8965 190.453V195H54.8125ZM74.582 191.736C74.582 192.279 74.5195 192.762 74.3945 193.184C74.2695 193.602 74.0898 193.953 73.8555 194.238C73.6211 194.527 73.334 194.746 72.9941 194.895C72.6543 195.043 72.2656 195.117 71.8281 195.117C71.3945 195.117 71.0059 195.045 70.6621 194.9C70.3184 194.752 70.0273 194.531 69.7891 194.238C69.5508 193.953 69.3691 193.602 69.2441 193.184C69.1191 192.762 69.0566 192.279 69.0566 191.736V189.738C69.0566 189.195 69.1191 188.715 69.2441 188.297C69.3691 187.875 69.5508 187.52 69.7891 187.23C70.0234 186.941 70.3105 186.723 70.6504 186.574C70.9941 186.422 71.3828 186.346 71.8164 186.346C72.2539 186.346 72.6426 186.422 72.9824 186.574C73.3262 186.723 73.6172 186.941 73.8555 187.23C74.0898 187.52 74.2695 187.875 74.3945 188.297C74.5195 188.715 74.582 189.195 74.582 189.738V191.736ZM70.1465 191.52L73.4688 188.971C73.4375 188.689 73.3809 188.441 73.2988 188.227C73.2207 188.008 73.1133 187.826 72.9766 187.682C72.8438 187.533 72.6797 187.422 72.4844 187.348C72.293 187.273 72.0703 187.236 71.8164 187.236C71.5586 187.236 71.3301 187.277 71.1309 187.359C70.9355 187.438 70.7695 187.553 70.6328 187.705C70.4688 187.896 70.3457 188.145 70.2637 188.449C70.1855 188.75 70.1465 189.1 70.1465 189.498V190.928C70.1465 191.025 70.1465 191.123 70.1465 191.221C70.1465 191.318 70.1465 191.418 70.1465 191.52ZM73.4922 191.965V190.758C73.4922 190.699 73.4922 190.588 73.4922 190.424C73.4922 190.256 73.4922 190.117 73.4922 190.008L70.1758 192.545C70.2109 192.83 70.2734 193.082 70.3633 193.301C70.4531 193.516 70.5703 193.693 70.7148 193.834C70.8477 193.967 71.0078 194.068 71.1953 194.139C71.3828 194.205 71.5938 194.238 71.8281 194.238C72.0742 194.238 72.293 194.201 72.4844 194.127C72.6758 194.053 72.8379 193.945 72.9707 193.805C73.1504 193.613 73.2812 193.363 73.3633 193.055C73.4492 192.746 73.4922 192.383 73.4922 191.965ZM79.9492 195H78.8652V187.852L76.6328 188.701V187.711L79.8613 186.469H79.9492V195Z" fill="#EEF5FC"/>
<path d="M141.4 186.469H142.508V192.404C142.5 192.799 142.424 193.162 142.279 193.494C142.139 193.826 141.945 194.111 141.699 194.35C141.453 194.592 141.162 194.781 140.826 194.918C140.494 195.051 140.131 195.117 139.736 195.117C139.338 195.117 138.975 195.057 138.646 194.936C138.322 194.814 138.041 194.641 137.803 194.414C137.561 194.191 137.367 193.922 137.223 193.605C137.078 193.285 136.988 192.928 136.953 192.533H138.055C138.066 192.771 138.113 192.992 138.195 193.195C138.281 193.398 138.396 193.574 138.541 193.723C138.686 193.875 138.857 193.992 139.057 194.074C139.26 194.156 139.486 194.197 139.736 194.197C139.994 194.197 140.225 194.15 140.428 194.057C140.631 193.959 140.805 193.828 140.949 193.664C141.09 193.5 141.197 193.311 141.271 193.096C141.35 192.877 141.393 192.646 141.4 192.404V186.469ZM148.771 195C148.729 194.918 148.693 194.816 148.666 194.695C148.643 194.57 148.625 194.441 148.613 194.309C148.504 194.418 148.381 194.521 148.244 194.619C148.111 194.717 147.965 194.803 147.805 194.877C147.641 194.951 147.467 195.01 147.283 195.053C147.1 195.096 146.904 195.117 146.697 195.117C146.361 195.117 146.057 195.068 145.783 194.971C145.514 194.873 145.285 194.74 145.098 194.572C144.906 194.408 144.758 194.213 144.652 193.986C144.551 193.756 144.5 193.508 144.5 193.242C144.5 192.895 144.568 192.59 144.705 192.328C144.846 192.066 145.043 191.848 145.297 191.672C145.551 191.5 145.855 191.371 146.211 191.285C146.57 191.199 146.971 191.156 147.412 191.156H148.596V190.658C148.596 190.467 148.561 190.295 148.49 190.143C148.42 189.99 148.32 189.859 148.191 189.75C148.062 189.645 147.904 189.562 147.717 189.504C147.533 189.445 147.326 189.416 147.096 189.416C146.881 189.416 146.688 189.443 146.516 189.498C146.348 189.553 146.205 189.625 146.088 189.715C145.971 189.805 145.879 189.912 145.812 190.037C145.75 190.158 145.719 190.285 145.719 190.418H144.629C144.633 190.188 144.691 189.961 144.805 189.738C144.922 189.516 145.09 189.314 145.309 189.135C145.523 188.959 145.785 188.816 146.094 188.707C146.406 188.598 146.76 188.543 147.154 188.543C147.514 188.543 147.848 188.588 148.156 188.678C148.465 188.764 148.732 188.895 148.959 189.07C149.182 189.25 149.357 189.473 149.486 189.738C149.615 190.004 149.68 190.314 149.68 190.67V193.617C149.68 193.828 149.699 194.053 149.738 194.291C149.777 194.525 149.832 194.73 149.902 194.906V195H148.771ZM146.855 194.174C147.066 194.174 147.264 194.146 147.447 194.092C147.631 194.037 147.799 193.965 147.951 193.875C148.1 193.785 148.229 193.684 148.338 193.57C148.447 193.453 148.533 193.332 148.596 193.207V191.924H147.588C147.213 191.924 146.885 191.957 146.604 192.023C146.326 192.086 146.105 192.184 145.941 192.316C145.824 192.41 145.734 192.521 145.672 192.65C145.613 192.779 145.584 192.926 145.584 193.09C145.584 193.246 145.609 193.391 145.66 193.523C145.715 193.656 145.795 193.77 145.9 193.863C146.006 193.961 146.139 194.037 146.299 194.092C146.459 194.146 146.645 194.174 146.855 194.174ZM151.812 195V188.66H152.785L152.861 189.598C152.955 189.465 153.057 189.344 153.166 189.234C153.279 189.121 153.398 189.023 153.523 188.941C153.711 188.816 153.914 188.721 154.133 188.654C154.355 188.584 154.59 188.547 154.836 188.543C155.168 188.543 155.469 188.59 155.738 188.684C156.012 188.777 156.244 188.924 156.436 189.123C156.627 189.322 156.773 189.576 156.875 189.885C156.98 190.189 157.033 190.553 157.033 190.975V195H155.949V190.998C155.949 190.717 155.918 190.479 155.855 190.283C155.793 190.088 155.701 189.93 155.58 189.809C155.455 189.688 155.303 189.6 155.123 189.545C154.947 189.49 154.744 189.463 154.514 189.463C154.314 189.463 154.129 189.492 153.957 189.551C153.785 189.605 153.627 189.682 153.482 189.779C153.365 189.865 153.256 189.965 153.154 190.078C153.057 190.191 152.971 190.316 152.896 190.453V195H151.812ZM171.582 191.736C171.582 192.279 171.52 192.762 171.395 193.184C171.27 193.602 171.09 193.953 170.855 194.238C170.621 194.527 170.334 194.746 169.994 194.895C169.654 195.043 169.266 195.117 168.828 195.117C168.395 195.117 168.006 195.045 167.662 194.9C167.318 194.752 167.027 194.531 166.789 194.238C166.551 193.953 166.369 193.602 166.244 193.184C166.119 192.762 166.057 192.279 166.057 191.736V189.738C166.057 189.195 166.119 188.715 166.244 188.297C166.369 187.875 166.551 187.52 166.789 187.23C167.023 186.941 167.311 186.723 167.65 186.574C167.994 186.422 168.383 186.346 168.816 186.346C169.254 186.346 169.643 186.422 169.982 186.574C170.326 186.723 170.617 186.941 170.855 187.23C171.09 187.52 171.27 187.875 171.395 188.297C171.52 188.715 171.582 189.195 171.582 189.738V191.736ZM167.146 191.52L170.469 188.971C170.438 188.689 170.381 188.441 170.299 188.227C170.221 188.008 170.113 187.826 169.977 187.682C169.844 187.533 169.68 187.422 169.484 187.348C169.293 187.273 169.07 187.236 168.816 187.236C168.559 187.236 168.33 187.277 168.131 187.359C167.936 187.438 167.77 187.553 167.633 187.705C167.469 187.896 167.346 188.145 167.264 188.449C167.186 188.75 167.146 189.1 167.146 189.498V190.928C167.146 191.025 167.146 191.123 167.146 191.221C167.146 191.318 167.146 191.418 167.146 191.52ZM170.492 191.965V190.758C170.492 190.699 170.492 190.588 170.492 190.424C170.492 190.256 170.492 190.117 170.492 190.008L167.176 192.545C167.211 192.83 167.273 193.082 167.363 193.301C167.453 193.516 167.57 193.693 167.715 193.834C167.848 193.967 168.008 194.068 168.195 194.139C168.383 194.205 168.594 194.238 168.828 194.238C169.074 194.238 169.293 194.201 169.484 194.127C169.676 194.053 169.838 193.945 169.971 193.805C170.15 193.613 170.281 193.363 170.363 193.055C170.449 192.746 170.492 192.383 170.492 191.965ZM174.699 190.213H175.473C175.746 190.213 175.986 190.176 176.193 190.102C176.404 190.027 176.582 189.926 176.727 189.797C176.867 189.668 176.975 189.514 177.049 189.334C177.123 189.154 177.16 188.957 177.16 188.742C177.16 188.488 177.127 188.268 177.061 188.08C176.994 187.889 176.896 187.73 176.768 187.605C176.643 187.484 176.486 187.395 176.299 187.336C176.115 187.273 175.904 187.242 175.666 187.242C175.436 187.242 175.225 187.277 175.033 187.348C174.846 187.414 174.686 187.512 174.553 187.641C174.416 187.77 174.311 187.924 174.236 188.104C174.162 188.283 174.125 188.484 174.125 188.707H173.035C173.035 188.383 173.098 188.078 173.223 187.793C173.352 187.504 173.531 187.252 173.762 187.037C173.992 186.826 174.268 186.66 174.588 186.539C174.912 186.414 175.271 186.352 175.666 186.352C176.049 186.352 176.398 186.404 176.715 186.51C177.031 186.611 177.303 186.764 177.529 186.967C177.756 187.17 177.932 187.422 178.057 187.723C178.182 188.023 178.244 188.371 178.244 188.766C178.244 188.93 178.219 189.1 178.168 189.275C178.117 189.451 178.039 189.621 177.934 189.785C177.828 189.953 177.691 190.111 177.523 190.26C177.359 190.404 177.162 190.525 176.932 190.623C177.209 190.713 177.439 190.83 177.623 190.975C177.811 191.119 177.961 191.281 178.074 191.461C178.184 191.641 178.26 191.83 178.303 192.029C178.35 192.229 178.373 192.426 178.373 192.621C178.373 193.02 178.305 193.373 178.168 193.682C178.031 193.99 177.842 194.25 177.6 194.461C177.357 194.676 177.07 194.84 176.738 194.953C176.41 195.062 176.055 195.117 175.672 195.117C175.297 195.117 174.943 195.064 174.611 194.959C174.283 194.854 173.998 194.699 173.756 194.496C173.514 194.293 173.32 194.045 173.176 193.752C173.035 193.459 172.965 193.125 172.965 192.75H174.049C174.049 192.973 174.086 193.176 174.16 193.359C174.238 193.543 174.348 193.699 174.488 193.828C174.629 193.957 174.799 194.057 174.998 194.127C175.201 194.197 175.426 194.232 175.672 194.232C175.918 194.232 176.141 194.201 176.34 194.139C176.539 194.072 176.709 193.973 176.85 193.84C176.99 193.707 177.098 193.543 177.172 193.348C177.25 193.148 177.289 192.914 177.289 192.645C177.289 192.379 177.244 192.15 177.154 191.959C177.068 191.764 176.947 191.602 176.791 191.473C176.631 191.344 176.438 191.248 176.211 191.186C175.988 191.123 175.742 191.092 175.473 191.092H174.699V190.213Z" fill="#EEF5FC"/>
<path d="M242.4 186.469H243.508V192.404C243.5 192.799 243.424 193.162 243.279 193.494C243.139 193.826 242.945 194.111 242.699 194.35C242.453 194.592 242.162 194.781 241.826 194.918C241.494 195.051 241.131 195.117 240.736 195.117C240.338 195.117 239.975 195.057 239.646 194.936C239.322 194.814 239.041 194.641 238.803 194.414C238.561 194.191 238.367 193.922 238.223 193.605C238.078 193.285 237.988 192.928 237.953 192.533H239.055C239.066 192.771 239.113 192.992 239.195 193.195C239.281 193.398 239.396 193.574 239.541 193.723C239.686 193.875 239.857 193.992 240.057 194.074C240.26 194.156 240.486 194.197 240.736 194.197C240.994 194.197 241.225 194.15 241.428 194.057C241.631 193.959 241.805 193.828 241.949 193.664C242.09 193.5 242.197 193.311 242.271 193.096C242.35 192.877 242.393 192.646 242.4 192.404V186.469ZM249.771 195C249.729 194.918 249.693 194.816 249.666 194.695C249.643 194.57 249.625 194.441 249.613 194.309C249.504 194.418 249.381 194.521 249.244 194.619C249.111 194.717 248.965 194.803 248.805 194.877C248.641 194.951 248.467 195.01 248.283 195.053C248.1 195.096 247.904 195.117 247.697 195.117C247.361 195.117 247.057 195.068 246.783 194.971C246.514 194.873 246.285 194.74 246.098 194.572C245.906 194.408 245.758 194.213 245.652 193.986C245.551 193.756 245.5 193.508 245.5 193.242C245.5 192.895 245.568 192.59 245.705 192.328C245.846 192.066 246.043 191.848 246.297 191.672C246.551 191.5 246.855 191.371 247.211 191.285C247.57 191.199 247.971 191.156 248.412 191.156H249.596V190.658C249.596 190.467 249.561 190.295 249.49 190.143C249.42 189.99 249.32 189.859 249.191 189.75C249.062 189.645 248.904 189.562 248.717 189.504C248.533 189.445 248.326 189.416 248.096 189.416C247.881 189.416 247.688 189.443 247.516 189.498C247.348 189.553 247.205 189.625 247.088 189.715C246.971 189.805 246.879 189.912 246.812 190.037C246.75 190.158 246.719 190.285 246.719 190.418H245.629C245.633 190.188 245.691 189.961 245.805 189.738C245.922 189.516 246.09 189.314 246.309 189.135C246.523 188.959 246.785 188.816 247.094 188.707C247.406 188.598 247.76 188.543 248.154 188.543C248.514 188.543 248.848 188.588 249.156 188.678C249.465 188.764 249.732 188.895 249.959 189.07C250.182 189.25 250.357 189.473 250.486 189.738C250.615 190.004 250.68 190.314 250.68 190.67V193.617C250.68 193.828 250.699 194.053 250.738 194.291C250.777 194.525 250.832 194.73 250.902 194.906V195H249.771ZM247.855 194.174C248.066 194.174 248.264 194.146 248.447 194.092C248.631 194.037 248.799 193.965 248.951 193.875C249.1 193.785 249.229 193.684 249.338 193.57C249.447 193.453 249.533 193.332 249.596 193.207V191.924H248.588C248.213 191.924 247.885 191.957 247.604 192.023C247.326 192.086 247.105 192.184 246.941 192.316C246.824 192.41 246.734 192.521 246.672 192.65C246.613 192.779 246.584 192.926 246.584 193.09C246.584 193.246 246.609 193.391 246.66 193.523C246.715 193.656 246.795 193.77 246.9 193.863C247.006 193.961 247.139 194.037 247.299 194.092C247.459 194.146 247.645 194.174 247.855 194.174ZM252.812 195V188.66H253.785L253.861 189.598C253.955 189.465 254.057 189.344 254.166 189.234C254.279 189.121 254.398 189.023 254.523 188.941C254.711 188.816 254.914 188.721 255.133 188.654C255.355 188.584 255.59 188.547 255.836 188.543C256.168 188.543 256.469 188.59 256.738 188.684C257.012 188.777 257.244 188.924 257.436 189.123C257.627 189.322 257.773 189.576 257.875 189.885C257.98 190.189 258.033 190.553 258.033 190.975V195H256.949V190.998C256.949 190.717 256.918 190.479 256.855 190.283C256.793 190.088 256.701 189.93 256.58 189.809C256.455 189.688 256.303 189.6 256.123 189.545C255.947 189.49 255.744 189.463 255.514 189.463C255.314 189.463 255.129 189.492 254.957 189.551C254.785 189.605 254.627 189.682 254.482 189.779C254.365 189.865 254.256 189.965 254.154 190.078C254.057 190.191 253.971 190.316 253.896 190.453V195H252.812ZM272.582 191.736C272.582 192.279 272.52 192.762 272.395 193.184C272.27 193.602 272.09 193.953 271.855 194.238C271.621 194.527 271.334 194.746 270.994 194.895C270.654 195.043 270.266 195.117 269.828 195.117C269.395 195.117 269.006 195.045 268.662 194.9C268.318 194.752 268.027 194.531 267.789 194.238C267.551 193.953 267.369 193.602 267.244 193.184C267.119 192.762 267.057 192.279 267.057 191.736V189.738C267.057 189.195 267.119 188.715 267.244 188.297C267.369 187.875 267.551 187.52 267.789 187.23C268.023 186.941 268.311 186.723 268.65 186.574C268.994 186.422 269.383 186.346 269.816 186.346C270.254 186.346 270.643 186.422 270.982 186.574C271.326 186.723 271.617 186.941 271.855 187.23C272.09 187.52 272.27 187.875 272.395 188.297C272.52 188.715 272.582 189.195 272.582 189.738V191.736ZM268.146 191.52L271.469 188.971C271.438 188.689 271.381 188.441 271.299 188.227C271.221 188.008 271.113 187.826 270.977 187.682C270.844 187.533 270.68 187.422 270.484 187.348C270.293 187.273 270.07 187.236 269.816 187.236C269.559 187.236 269.33 187.277 269.131 187.359C268.936 187.438 268.77 187.553 268.633 187.705C268.469 187.896 268.346 188.145 268.264 188.449C268.186 188.75 268.146 189.1 268.146 189.498V190.928C268.146 191.025 268.146 191.123 268.146 191.221C268.146 191.318 268.146 191.418 268.146 191.52ZM271.492 191.965V190.758C271.492 190.699 271.492 190.588 271.492 190.424C271.492 190.256 271.492 190.117 271.492 190.008L268.176 192.545C268.211 192.83 268.273 193.082 268.363 193.301C268.453 193.516 268.57 193.693 268.715 193.834C268.848 193.967 269.008 194.068 269.195 194.139C269.383 194.205 269.594 194.238 269.828 194.238C270.074 194.238 270.293 194.201 270.484 194.127C270.676 194.053 270.838 193.945 270.971 193.805C271.15 193.613 271.281 193.363 271.363 193.055C271.449 192.746 271.492 192.383 271.492 191.965ZM274.82 190.723L275.248 186.469H279.625V187.523H276.162L275.922 189.797C276.09 189.699 276.291 189.613 276.525 189.539C276.76 189.465 277.031 189.428 277.34 189.428C277.734 189.428 278.088 189.496 278.4 189.633C278.713 189.77 278.979 189.961 279.197 190.207C279.416 190.457 279.584 190.758 279.701 191.109C279.818 191.461 279.877 191.852 279.877 192.281C279.877 192.688 279.822 193.064 279.713 193.412C279.604 193.76 279.439 194.059 279.221 194.309C278.998 194.562 278.719 194.762 278.383 194.906C278.047 195.047 277.652 195.117 277.199 195.117C276.852 195.117 276.523 195.068 276.215 194.971C275.906 194.873 275.633 194.727 275.395 194.531C275.152 194.336 274.953 194.09 274.797 193.793C274.645 193.496 274.549 193.15 274.51 192.756H275.541C275.607 193.24 275.785 193.607 276.074 193.857C276.367 194.107 276.742 194.232 277.199 194.232C277.457 194.232 277.686 194.188 277.885 194.098C278.084 194.004 278.252 193.871 278.389 193.699C278.521 193.531 278.621 193.328 278.688 193.09C278.758 192.852 278.793 192.586 278.793 192.293C278.793 192.027 278.754 191.779 278.676 191.549C278.602 191.318 278.492 191.117 278.348 190.945C278.203 190.777 278.025 190.645 277.814 190.547C277.604 190.449 277.361 190.4 277.088 190.4C276.908 190.4 276.752 190.414 276.619 190.441C276.49 190.465 276.373 190.5 276.268 190.547C276.162 190.594 276.062 190.65 275.969 190.717C275.879 190.783 275.785 190.859 275.688 190.945L274.82 190.723Z" fill="#EEF5FC"/>
<path d="M342.4 186.469H343.508V192.404C343.5 192.799 343.424 193.162 343.279 193.494C343.139 193.826 342.945 194.111 342.699 194.35C342.453 194.592 342.162 194.781 341.826 194.918C341.494 195.051 341.131 195.117 340.736 195.117C340.338 195.117 339.975 195.057 339.646 194.936C339.322 194.814 339.041 194.641 338.803 194.414C338.561 194.191 338.367 193.922 338.223 193.605C338.078 193.285 337.988 192.928 337.953 192.533H339.055C339.066 192.771 339.113 192.992 339.195 193.195C339.281 193.398 339.396 193.574 339.541 193.723C339.686 193.875 339.857 193.992 340.057 194.074C340.26 194.156 340.486 194.197 340.736 194.197C340.994 194.197 341.225 194.15 341.428 194.057C341.631 193.959 341.805 193.828 341.949 193.664C342.09 193.5 342.197 193.311 342.271 193.096C342.35 192.877 342.393 192.646 342.4 192.404V186.469ZM349.771 195C349.729 194.918 349.693 194.816 349.666 194.695C349.643 194.57 349.625 194.441 349.613 194.309C349.504 194.418 349.381 194.521 349.244 194.619C349.111 194.717 348.965 194.803 348.805 194.877C348.641 194.951 348.467 195.01 348.283 195.053C348.1 195.096 347.904 195.117 347.697 195.117C347.361 195.117 347.057 195.068 346.783 194.971C346.514 194.873 346.285 194.74 346.098 194.572C345.906 194.408 345.758 194.213 345.652 193.986C345.551 193.756 345.5 193.508 345.5 193.242C345.5 192.895 345.568 192.59 345.705 192.328C345.846 192.066 346.043 191.848 346.297 191.672C346.551 191.5 346.855 191.371 347.211 191.285C347.57 191.199 347.971 191.156 348.412 191.156H349.596V190.658C349.596 190.467 349.561 190.295 349.49 190.143C349.42 189.99 349.32 189.859 349.191 189.75C349.062 189.645 348.904 189.562 348.717 189.504C348.533 189.445 348.326 189.416 348.096 189.416C347.881 189.416 347.688 189.443 347.516 189.498C347.348 189.553 347.205 189.625 347.088 189.715C346.971 189.805 346.879 189.912 346.812 190.037C346.75 190.158 346.719 190.285 346.719 190.418H345.629C345.633 190.188 345.691 189.961 345.805 189.738C345.922 189.516 346.09 189.314 346.309 189.135C346.523 188.959 346.785 188.816 347.094 188.707C347.406 188.598 347.76 188.543 348.154 188.543C348.514 188.543 348.848 188.588 349.156 188.678C349.465 188.764 349.732 188.895 349.959 189.07C350.182 189.25 350.357 189.473 350.486 189.738C350.615 190.004 350.68 190.314 350.68 190.67V193.617C350.68 193.828 350.699 194.053 350.738 194.291C350.777 194.525 350.832 194.73 350.902 194.906V195H349.771ZM347.855 194.174C348.066 194.174 348.264 194.146 348.447 194.092C348.631 194.037 348.799 193.965 348.951 193.875C349.1 193.785 349.229 193.684 349.338 193.57C349.447 193.453 349.533 193.332 349.596 193.207V191.924H348.588C348.213 191.924 347.885 191.957 347.604 192.023C347.326 192.086 347.105 192.184 346.941 192.316C346.824 192.41 346.734 192.521 346.672 192.65C346.613 192.779 346.584 192.926 346.584 193.09C346.584 193.246 346.609 193.391 346.66 193.523C346.715 193.656 346.795 193.77 346.9 193.863C347.006 193.961 347.139 194.037 347.299 194.092C347.459 194.146 347.645 194.174 347.855 194.174ZM352.812 195V188.66H353.785L353.861 189.598C353.955 189.465 354.057 189.344 354.166 189.234C354.279 189.121 354.398 189.023 354.523 188.941C354.711 188.816 354.914 188.721 355.133 188.654C355.355 188.584 355.59 188.547 355.836 188.543C356.168 188.543 356.469 188.59 356.738 188.684C357.012 188.777 357.244 188.924 357.436 189.123C357.627 189.322 357.773 189.576 357.875 189.885C357.98 190.189 358.033 190.553 358.033 190.975V195H356.949V190.998C356.949 190.717 356.918 190.479 356.855 190.283C356.793 190.088 356.701 189.93 356.58 189.809C356.455 189.688 356.303 189.6 356.123 189.545C355.947 189.49 355.744 189.463 355.514 189.463C355.314 189.463 355.129 189.492 354.957 189.551C354.785 189.605 354.627 189.682 354.482 189.779C354.365 189.865 354.256 189.965 354.154 190.078C354.057 190.191 353.971 190.316 353.896 190.453V195H352.812ZM372.582 191.736C372.582 192.279 372.52 192.762 372.395 193.184C372.27 193.602 372.09 193.953 371.855 194.238C371.621 194.527 371.334 194.746 370.994 194.895C370.654 195.043 370.266 195.117 369.828 195.117C369.395 195.117 369.006 195.045 368.662 194.9C368.318 194.752 368.027 194.531 367.789 194.238C367.551 193.953 367.369 193.602 367.244 193.184C367.119 192.762 367.057 192.279 367.057 191.736V189.738C367.057 189.195 367.119 188.715 367.244 188.297C367.369 187.875 367.551 187.52 367.789 187.23C368.023 186.941 368.311 186.723 368.65 186.574C368.994 186.422 369.383 186.346 369.816 186.346C370.254 186.346 370.643 186.422 370.982 186.574C371.326 186.723 371.617 186.941 371.855 187.23C372.09 187.52 372.27 187.875 372.395 188.297C372.52 188.715 372.582 189.195 372.582 189.738V191.736ZM368.146 191.52L371.469 188.971C371.438 188.689 371.381 188.441 371.299 188.227C371.221 188.008 371.113 187.826 370.977 187.682C370.844 187.533 370.68 187.422 370.484 187.348C370.293 187.273 370.07 187.236 369.816 187.236C369.559 187.236 369.33 187.277 369.131 187.359C368.936 187.438 368.77 187.553 368.633 187.705C368.469 187.896 368.346 188.145 368.264 188.449C368.186 188.75 368.146 189.1 368.146 189.498V190.928C368.146 191.025 368.146 191.123 368.146 191.221C368.146 191.318 368.146 191.418 368.146 191.52ZM371.492 191.965V190.758C371.492 190.699 371.492 190.588 371.492 190.424C371.492 190.256 371.492 190.117 371.492 190.008L368.176 192.545C368.211 192.83 368.273 193.082 368.363 193.301C368.453 193.516 368.57 193.693 368.715 193.834C368.848 193.967 369.008 194.068 369.195 194.139C369.383 194.205 369.594 194.238 369.828 194.238C370.074 194.238 370.293 194.201 370.484 194.127C370.676 194.053 370.838 193.945 370.971 193.805C371.15 193.613 371.281 193.363 371.363 193.055C371.449 192.746 371.492 192.383 371.492 191.965ZM379.836 187.078L376.303 195H375.166L378.688 187.418H374.07V186.469H379.836V187.078Z" fill="#EEF5FC"/>
<path d="M442.4 186.469H443.508V192.404C443.5 192.799 443.424 193.162 443.279 193.494C443.139 193.826 442.945 194.111 442.699 194.35C442.453 194.592 442.162 194.781 441.826 194.918C441.494 195.051 441.131 195.117 440.736 195.117C440.338 195.117 439.975 195.057 439.646 194.936C439.322 194.814 439.041 194.641 438.803 194.414C438.561 194.191 438.367 193.922 438.223 193.605C438.078 193.285 437.988 192.928 437.953 192.533H439.055C439.066 192.771 439.113 192.992 439.195 193.195C439.281 193.398 439.396 193.574 439.541 193.723C439.686 193.875 439.857 193.992 440.057 194.074C440.26 194.156 440.486 194.197 440.736 194.197C440.994 194.197 441.225 194.15 441.428 194.057C441.631 193.959 441.805 193.828 441.949 193.664C442.09 193.5 442.197 193.311 442.271 193.096C442.35 192.877 442.393 192.646 442.4 192.404V186.469ZM449.771 195C449.729 194.918 449.693 194.816 449.666 194.695C449.643 194.57 449.625 194.441 449.613 194.309C449.504 194.418 449.381 194.521 449.244 194.619C449.111 194.717 448.965 194.803 448.805 194.877C448.641 194.951 448.467 195.01 448.283 195.053C448.1 195.096 447.904 195.117 447.697 195.117C447.361 195.117 447.057 195.068 446.783 194.971C446.514 194.873 446.285 194.74 446.098 194.572C445.906 194.408 445.758 194.213 445.652 193.986C445.551 193.756 445.5 193.508 445.5 193.242C445.5 192.895 445.568 192.59 445.705 192.328C445.846 192.066 446.043 191.848 446.297 191.672C446.551 191.5 446.855 191.371 447.211 191.285C447.57 191.199 447.971 191.156 448.412 191.156H449.596V190.658C449.596 190.467 449.561 190.295 449.49 190.143C449.42 189.99 449.32 189.859 449.191 189.75C449.062 189.645 448.904 189.562 448.717 189.504C448.533 189.445 448.326 189.416 448.096 189.416C447.881 189.416 447.688 189.443 447.516 189.498C447.348 189.553 447.205 189.625 447.088 189.715C446.971 189.805 446.879 189.912 446.812 190.037C446.75 190.158 446.719 190.285 446.719 190.418H445.629C445.633 190.188 445.691 189.961 445.805 189.738C445.922 189.516 446.09 189.314 446.309 189.135C446.523 188.959 446.785 188.816 447.094 188.707C447.406 188.598 447.76 188.543 448.154 188.543C448.514 188.543 448.848 188.588 449.156 188.678C449.465 188.764 449.732 188.895 449.959 189.07C450.182 189.25 450.357 189.473 450.486 189.738C450.615 190.004 450.68 190.314 450.68 190.67V193.617C450.68 193.828 450.699 194.053 450.738 194.291C450.777 194.525 450.832 194.73 450.902 194.906V195H449.771ZM447.855 194.174C448.066 194.174 448.264 194.146 448.447 194.092C448.631 194.037 448.799 193.965 448.951 193.875C449.1 193.785 449.229 193.684 449.338 193.57C449.447 193.453 449.533 193.332 449.596 193.207V191.924H448.588C448.213 191.924 447.885 191.957 447.604 192.023C447.326 192.086 447.105 192.184 446.941 192.316C446.824 192.41 446.734 192.521 446.672 192.65C446.613 192.779 446.584 192.926 446.584 193.09C446.584 193.246 446.609 193.391 446.66 193.523C446.715 193.656 446.795 193.77 446.9 193.863C447.006 193.961 447.139 194.037 447.299 194.092C447.459 194.146 447.645 194.174 447.855 194.174ZM452.812 195V188.66H453.785L453.861 189.598C453.955 189.465 454.057 189.344 454.166 189.234C454.279 189.121 454.398 189.023 454.523 188.941C454.711 188.816 454.914 188.721 455.133 188.654C455.355 188.584 455.59 188.547 455.836 188.543C456.168 188.543 456.469 188.59 456.738 188.684C457.012 188.777 457.244 188.924 457.436 189.123C457.627 189.322 457.773 189.576 457.875 189.885C457.98 190.189 458.033 190.553 458.033 190.975V195H456.949V190.998C456.949 190.717 456.918 190.479 456.855 190.283C456.793 190.088 456.701 189.93 456.58 189.809C456.455 189.688 456.303 189.6 456.123 189.545C455.947 189.49 455.744 189.463 455.514 189.463C455.314 189.463 455.129 189.492 454.957 189.551C454.785 189.605 454.627 189.682 454.482 189.779C454.365 189.865 454.256 189.965 454.154 190.078C454.057 190.191 453.971 190.316 453.896 190.453V195H452.812ZM472.582 191.736C472.582 192.279 472.52 192.762 472.395 193.184C472.27 193.602 472.09 193.953 471.855 194.238C471.621 194.527 471.334 194.746 470.994 194.895C470.654 195.043 470.266 195.117 469.828 195.117C469.395 195.117 469.006 195.045 468.662 194.9C468.318 194.752 468.027 194.531 467.789 194.238C467.551 193.953 467.369 193.602 467.244 193.184C467.119 192.762 467.057 192.279 467.057 191.736V189.738C467.057 189.195 467.119 188.715 467.244 188.297C467.369 187.875 467.551 187.52 467.789 187.23C468.023 186.941 468.311 186.723 468.65 186.574C468.994 186.422 469.383 186.346 469.816 186.346C470.254 186.346 470.643 186.422 470.982 186.574C471.326 186.723 471.617 186.941 471.855 187.23C472.09 187.52 472.27 187.875 472.395 188.297C472.52 188.715 472.582 189.195 472.582 189.738V191.736ZM468.146 191.52L471.469 188.971C471.438 188.689 471.381 188.441 471.299 188.227C471.221 188.008 471.113 187.826 470.977 187.682C470.844 187.533 470.68 187.422 470.484 187.348C470.293 187.273 470.07 187.236 469.816 187.236C469.559 187.236 469.33 187.277 469.131 187.359C468.936 187.438 468.77 187.553 468.633 187.705C468.469 187.896 468.346 188.145 468.264 188.449C468.186 188.75 468.146 189.1 468.146 189.498V190.928C468.146 191.025 468.146 191.123 468.146 191.221C468.146 191.318 468.146 191.418 468.146 191.52ZM471.492 191.965V190.758C471.492 190.699 471.492 190.588 471.492 190.424C471.492 190.256 471.492 190.117 471.492 190.008L468.176 192.545C468.211 192.83 468.273 193.082 468.363 193.301C468.453 193.516 468.57 193.693 468.715 193.834C468.848 193.967 469.008 194.068 469.195 194.139C469.383 194.205 469.594 194.238 469.828 194.238C470.074 194.238 470.293 194.201 470.484 194.127C470.676 194.053 470.838 193.945 470.971 193.805C471.15 193.613 471.281 193.363 471.363 193.055C471.449 192.746 471.492 192.383 471.492 191.965ZM475.6 194.039C476.146 194.039 476.602 193.975 476.965 193.846C477.332 193.713 477.627 193.527 477.85 193.289C478.119 192.996 478.301 192.682 478.395 192.346C478.488 192.01 478.545 191.662 478.564 191.303V191.291C478.471 191.408 478.363 191.52 478.242 191.625C478.121 191.727 477.984 191.816 477.832 191.895C477.68 191.973 477.51 192.035 477.322 192.082C477.139 192.125 476.938 192.146 476.719 192.146C476.297 192.146 475.932 192.064 475.623 191.9C475.318 191.732 475.066 191.514 474.867 191.244C474.668 190.975 474.521 190.67 474.428 190.33C474.334 189.99 474.287 189.648 474.287 189.305C474.287 188.902 474.342 188.523 474.451 188.168C474.564 187.809 474.732 187.494 474.955 187.225C475.174 186.959 475.447 186.748 475.775 186.592C476.107 186.432 476.492 186.352 476.93 186.352C477.367 186.352 477.746 186.434 478.066 186.598C478.391 186.758 478.662 186.971 478.881 187.236C479.139 187.549 479.332 187.939 479.461 188.408C479.59 188.873 479.654 189.338 479.654 189.803V190.195C479.654 190.855 479.584 191.52 479.443 192.188C479.303 192.852 479.002 193.441 478.541 193.957C478.264 194.27 477.879 194.523 477.387 194.719C476.898 194.91 476.303 195.006 475.6 195.006H475.488V194.039H475.6ZM476.895 191.25C477.078 191.25 477.256 191.221 477.428 191.162C477.604 191.1 477.766 191.012 477.914 190.898C478.059 190.789 478.188 190.66 478.301 190.512C478.418 190.359 478.51 190.191 478.576 190.008V189.656C478.576 189.277 478.531 188.939 478.441 188.643C478.355 188.346 478.238 188.094 478.09 187.887C477.938 187.684 477.762 187.527 477.562 187.418C477.367 187.309 477.158 187.254 476.936 187.254C476.682 187.254 476.457 187.305 476.262 187.406C476.066 187.508 475.902 187.646 475.77 187.822C475.633 188.002 475.529 188.215 475.459 188.461C475.389 188.703 475.354 188.965 475.354 189.246C475.354 189.496 475.385 189.742 475.447 189.984C475.51 190.223 475.605 190.436 475.734 190.623C475.859 190.811 476.018 190.963 476.209 191.08C476.404 191.193 476.633 191.25 476.895 191.25Z" fill="#EEF5FC"/>
<rect x="60" y="108" width="98" height="18" rx="7" fill="#38B873" stroke="#356F2A" stroke-width="2"/>
<rect x="208" y="108" width="250" height="18" rx="7" fill="#38B873" stroke="#356F2A" stroke-width="2"/>
<path d="M39.8496 37.4375V28.6602H41.3555L41.4141 29.2812C41.5 29.1758 41.5938 29.082 41.6953 29C41.7969 28.9141 41.9062 28.8398 42.0234 28.7773C42.1641 28.7031 42.3184 28.6465 42.4863 28.6074C42.6582 28.5645 42.8418 28.543 43.0371 28.543C43.4395 28.543 43.7949 28.6211 44.1035 28.7773C44.4121 28.9297 44.6719 29.1465 44.8828 29.4277C45.0938 29.7129 45.252 30.0547 45.3574 30.4531C45.4668 30.8477 45.5215 31.2852 45.5215 31.7656V31.8887C45.5215 32.3496 45.4668 32.7773 45.3574 33.1719C45.252 33.5664 45.0957 33.9062 44.8887 34.1914C44.6777 34.4805 44.418 34.707 44.1094 34.8711C43.8008 35.0352 43.4473 35.1172 43.0488 35.1172C42.8379 35.1172 42.6426 35.0938 42.4629 35.0469C42.2871 35.0039 42.123 34.9395 41.9707 34.8535C41.8809 34.7988 41.7949 34.7383 41.7129 34.6719C41.6309 34.6055 41.5527 34.5312 41.4785 34.4492V37.4375H39.8496ZM43.8926 31.7656C43.8926 31.5 43.8672 31.252 43.8164 31.0215C43.7695 30.7871 43.6953 30.584 43.5938 30.4121C43.4883 30.2441 43.3535 30.1113 43.1895 30.0137C43.0293 29.916 42.834 29.8672 42.6035 29.8672C42.4707 29.8672 42.3496 29.8809 42.2402 29.9082C42.1309 29.9316 42.0312 29.9668 41.9414 30.0137C41.8398 30.0684 41.75 30.1367 41.6719 30.2188C41.5977 30.3008 41.5332 30.3965 41.4785 30.5059V33.1543C41.5293 33.2559 41.5898 33.3477 41.6602 33.4297C41.7344 33.5117 41.8184 33.582 41.9121 33.6406C42.002 33.6953 42.1055 33.7383 42.2227 33.7695C42.3398 33.7969 42.4707 33.8105 42.6152 33.8105C42.8457 33.8105 43.041 33.7598 43.2012 33.6582C43.3652 33.5566 43.498 33.418 43.5996 33.2422C43.7012 33.0664 43.7754 32.8633 43.8223 32.6328C43.8691 32.3984 43.8926 32.1504 43.8926 31.8887V31.7656ZM48.6621 29.5332C48.7441 29.4121 48.834 29.3008 48.9316 29.1992C49.0332 29.0938 49.1387 29.002 49.248 28.9238C49.416 28.8027 49.6016 28.709 49.8047 28.6426C50.0078 28.5762 50.2227 28.543 50.4492 28.543C50.7812 28.543 51.0859 28.5938 51.3633 28.6953C51.6406 28.793 51.8789 28.9473 52.0781 29.1582C52.2773 29.3691 52.4316 29.6406 52.541 29.9727C52.6543 30.3008 52.7109 30.6973 52.7109 31.1621V35H51.082V31.1504C51.082 30.9238 51.0527 30.7285 50.9941 30.5645C50.9395 30.4004 50.8594 30.2676 50.7539 30.166C50.6484 30.0645 50.5215 29.9902 50.373 29.9434C50.2246 29.8926 50.0566 29.8672 49.8691 29.8672C49.7246 29.8672 49.5898 29.8809 49.4648 29.9082C49.3398 29.9355 49.2266 29.9766 49.125 30.0312C49.0312 30.0781 48.9453 30.1348 48.8672 30.2012C48.793 30.2676 48.7246 30.3418 48.6621 30.4238V35H47.0332V26H48.6621V29.5332ZM54.6738 28.6602H58.125V33.6758H59.8418V35H54.6738V33.6758H56.4785V29.9902H54.6738V28.6602ZM56.3613 27.0371C56.3613 26.9121 56.3828 26.7969 56.4258 26.6914C56.4727 26.582 56.5371 26.4883 56.6191 26.4102C56.7012 26.3359 56.7988 26.2773 56.9121 26.2344C57.0293 26.1914 57.1582 26.1699 57.2988 26.1699C57.5879 26.1699 57.8164 26.252 57.9844 26.416C58.1562 26.5762 58.2422 26.7832 58.2422 27.0371C58.2422 27.291 58.1562 27.5 57.9844 27.6641C57.8164 27.8242 57.5879 27.9043 57.2988 27.9043C57.1582 27.9043 57.0293 27.8828 56.9121 27.8398C56.7988 27.7969 56.7012 27.7363 56.6191 27.6582C56.5371 27.584 56.4727 27.4941 56.4258 27.3887C56.3828 27.2793 56.3613 27.1621 56.3613 27.0371ZM61.4473 35V28.6602H62.9238L63.0234 29.5391C63.1055 29.4219 63.1953 29.3145 63.293 29.2168C63.3906 29.1191 63.4941 29.0312 63.6035 28.9531C63.791 28.8203 63.9961 28.7188 64.2188 28.6484C64.4414 28.5781 64.6777 28.543 64.9277 28.543C65.248 28.543 65.541 28.5898 65.8066 28.6836C66.0723 28.7773 66.3027 28.9258 66.498 29.1289C66.6895 29.3359 66.8379 29.6016 66.9434 29.9258C67.0527 30.2461 67.1074 30.6367 67.1074 31.0977V35H65.4785V31.1211C65.4785 30.8711 65.4492 30.666 65.3906 30.5059C65.3359 30.3418 65.2559 30.2129 65.1504 30.1191C65.0449 30.0254 64.918 29.9609 64.7695 29.9258C64.6211 29.8867 64.4531 29.8672 64.2656 29.8672C64.1094 29.8672 63.9648 29.8848 63.832 29.9199C63.7031 29.9551 63.5879 30.0078 63.4863 30.0781C63.4043 30.1289 63.3301 30.1895 63.2637 30.2598C63.1973 30.3301 63.1367 30.4082 63.082 30.4941V35H61.4473ZM71.6426 27.1074V28.6602H74.0098V29.8613H71.6426V32.5859C71.6426 32.8164 71.668 33.0098 71.7188 33.166C71.7734 33.3184 71.8496 33.4395 71.9473 33.5293C72.0449 33.623 72.1621 33.6895 72.2988 33.7285C72.4395 33.7676 72.5957 33.7871 72.7676 33.7871C72.8926 33.7871 73.0195 33.7812 73.1484 33.7695C73.2812 33.7578 73.4082 33.7422 73.5293 33.7227C73.6465 33.707 73.7559 33.6895 73.8574 33.6699C73.9629 33.6504 74.0527 33.6309 74.127 33.6113L74.2852 34.7305C74.1719 34.7969 74.0391 34.8555 73.8867 34.9062C73.7344 34.9531 73.5723 34.9922 73.4004 35.0234C73.2285 35.0547 73.0488 35.0781 72.8613 35.0938C72.6777 35.1133 72.4961 35.123 72.3164 35.123C71.9688 35.123 71.6523 35.0781 71.3672 34.9883C71.0859 34.8945 70.8457 34.75 70.6465 34.5547C70.4434 34.3633 70.2871 34.1191 70.1777 33.8223C70.0684 33.5215 70.0137 33.1621 70.0137 32.7441V29.8613H68.5664V28.6602H70.0137V27.1074H71.6426ZM79.998 26.3574H79.002V35.7031H79.998V36.9629H77.3789V25.0977H79.998V26.3574ZM87.2051 26.3574H86.209V35.7031H87.2051V36.9629H84.5859V25.0977H87.2051V26.3574ZM94.2656 35H92.6191V28.4551L90.4629 29.2285V27.8105L94.1777 26.4688H94.2656V35ZM99 25.0977H101.625V36.9629H99V35.7031H100.002V26.3574H99V25.0977ZM106.207 25.0977H108.832V36.9629H106.207V35.7031H107.209V26.3574H106.207V25.0977Z" fill="#EEF5FC"/>
<rect x="108" y="48" width="150" height="18" rx="7" fill="#38B873" stroke="#356F2A" stroke-width="2"/>
<line x1="59" y1="166" x2="459" y2="166" stroke="#EEF5FC" stroke-width="2"/>
<line x1="60" y1="176" x2="60" y2="156" stroke="#EEF5FC" stroke-width="2"/>
<line x1="108" y1="176" x2="108" y2="156" stroke="#EEF5FC" stroke-width="2"/>
<line x1="158" y1="176" x2="158" y2="156" stroke="#EEF5FC" stroke-width="2"/>
<line x1="158" y1="176" x2="158" y2="156" stroke="#EEF5FC" stroke-width="2"/>
<line x1="208" y1="176" x2="208" y2="156" stroke="#EEF5FC" stroke-width="2"/>
<line x1="258" y1="176" x2="258" y2="156" stroke="#EEF5FC" stroke-width="2"/>
<line x1="308" y1="176" x2="308" y2="156" stroke="#EEF5FC" stroke-width="2"/>
<line x1="358" y1="176" x2="358" y2="156" stroke="#EEF5FC" stroke-width="2"/>
<line x1="408" y1="176" x2="408" y2="156" stroke="#EEF5FC" stroke-width="2"/>
<line x1="458" y1="176" x2="458" y2="156" stroke="#EEF5FC" stroke-width="2"/>
<path d="M44.1719 186.469H45.8184L45.8242 192.381C45.8203 192.787 45.7422 193.158 45.5898 193.494C45.4414 193.826 45.2363 194.113 44.9746 194.355C44.7129 194.598 44.4043 194.785 44.0488 194.918C43.6973 195.051 43.3184 195.117 42.9121 195.117C42.4824 195.117 42.0918 195.062 41.7402 194.953C41.3887 194.844 41.0879 194.68 40.8379 194.461C40.584 194.246 40.3867 193.975 40.2461 193.646C40.1055 193.318 40.0332 192.934 40.0293 192.492H41.6816C41.6816 192.695 41.7012 192.873 41.7402 193.025C41.7793 193.178 41.8379 193.307 41.916 193.412C42.0176 193.541 42.1504 193.637 42.3145 193.699C42.4785 193.762 42.6777 193.793 42.9121 193.793C43.0996 193.793 43.2715 193.758 43.4277 193.688C43.584 193.613 43.7168 193.514 43.8262 193.389C43.9355 193.264 44.0195 193.115 44.0781 192.943C44.1406 192.768 44.1719 192.58 44.1719 192.381V186.469ZM51.373 195C51.334 194.922 51.3008 194.832 51.2734 194.73C51.2461 194.629 51.2227 194.521 51.2031 194.408C51.1133 194.506 51.0098 194.598 50.8926 194.684C50.7754 194.77 50.6465 194.844 50.5059 194.906C50.3613 194.973 50.2031 195.023 50.0312 195.059C49.8594 195.098 49.6738 195.117 49.4746 195.117C49.1504 195.117 48.8516 195.07 48.5781 194.977C48.3086 194.883 48.0762 194.752 47.8809 194.584C47.6855 194.416 47.5332 194.217 47.4238 193.986C47.3145 193.752 47.2598 193.498 47.2598 193.225C47.2598 192.873 47.3281 192.562 47.4648 192.293C47.6016 192.02 47.8066 191.795 48.0801 191.619C48.3262 191.459 48.6289 191.338 48.9883 191.256C49.3516 191.17 49.7676 191.127 50.2363 191.127H51.1445V190.752C51.1445 190.604 51.1211 190.471 51.0742 190.354C51.0273 190.232 50.957 190.129 50.8633 190.043C50.7656 189.953 50.6426 189.885 50.4941 189.838C50.3496 189.787 50.1797 189.762 49.9844 189.762C49.8125 189.762 49.6641 189.783 49.5391 189.826C49.4141 189.865 49.3125 189.922 49.2344 189.996C49.1641 190.062 49.1113 190.143 49.0762 190.236C49.0449 190.33 49.0293 190.434 49.0293 190.547H47.4004C47.4004 190.277 47.459 190.021 47.5762 189.779C47.6973 189.537 47.873 189.324 48.1035 189.141C48.3301 188.957 48.6074 188.812 48.9355 188.707C49.2676 188.598 49.6465 188.543 50.0723 188.543C50.4551 188.543 50.8105 188.59 51.1387 188.684C51.4707 188.777 51.7578 188.916 52 189.1C52.2422 189.283 52.4316 189.516 52.5684 189.797C52.7051 190.074 52.7734 190.396 52.7734 190.764V193.482C52.7734 193.822 52.7949 194.104 52.8379 194.326C52.8809 194.549 52.9434 194.74 53.0254 194.9V195H51.373ZM49.8203 193.857C49.9844 193.857 50.1367 193.838 50.2773 193.799C50.418 193.76 50.5449 193.709 50.6582 193.646C50.7715 193.584 50.8691 193.514 50.9512 193.436C51.0332 193.354 51.0977 193.271 51.1445 193.189V192.1H50.3125C50.0586 192.1 49.8418 192.125 49.6621 192.176C49.4824 192.223 49.3359 192.289 49.2227 192.375C49.1094 192.465 49.0254 192.572 48.9707 192.697C48.916 192.818 48.8887 192.951 48.8887 193.096C48.8887 193.209 48.9082 193.314 48.9473 193.412C48.9902 193.506 49.0508 193.586 49.1289 193.652C49.207 193.715 49.3027 193.766 49.416 193.805C49.5332 193.84 49.668 193.857 49.8203 193.857ZM54.6191 195V188.66H56.0957L56.1953 189.539C56.2773 189.422 56.3672 189.314 56.4648 189.217C56.5625 189.119 56.666 189.031 56.7754 188.953C56.9629 188.82 57.168 188.719 57.3906 188.648C57.6133 188.578 57.8496 188.543 58.0996 188.543C58.4199 188.543 58.7129 188.59 58.9785 188.684C59.2441 188.777 59.4746 188.926 59.6699 189.129C59.8613 189.336 60.0098 189.602 60.1152 189.926C60.2246 190.246 60.2793 190.637 60.2793 191.098V195H58.6504V191.121C58.6504 190.871 58.6211 190.666 58.5625 190.506C58.5078 190.342 58.4277 190.213 58.3223 190.119C58.2168 190.025 58.0898 189.961 57.9414 189.926C57.793 189.887 57.625 189.867 57.4375 189.867C57.2812 189.867 57.1367 189.885 57.0039 189.92C56.875 189.955 56.7598 190.008 56.6582 190.078C56.5762 190.129 56.502 190.189 56.4355 190.26C56.3691 190.33 56.3086 190.408 56.2539 190.494V195H54.6191ZM74.5879 191.754C74.5879 192.305 74.5234 192.791 74.3945 193.213C74.2695 193.631 74.0879 193.98 73.8496 194.262C73.6113 194.547 73.3203 194.762 72.9766 194.906C72.6328 195.051 72.2461 195.123 71.8164 195.123C71.3906 195.123 71.0059 195.051 70.6621 194.906C70.3184 194.762 70.0273 194.547 69.7891 194.262C69.5469 193.98 69.3594 193.631 69.2266 193.213C69.0977 192.791 69.0332 192.305 69.0332 191.754V189.715C69.0332 189.164 69.0977 188.68 69.2266 188.262C69.3555 187.84 69.541 187.486 69.7832 187.201C70.0215 186.92 70.3105 186.707 70.6504 186.562C70.9941 186.418 71.3789 186.346 71.8047 186.346C72.2344 186.346 72.6211 186.418 72.9648 186.562C73.3086 186.707 73.6016 186.92 73.8438 187.201C74.082 187.486 74.2656 187.84 74.3945 188.262C74.5234 188.68 74.5879 189.164 74.5879 189.715V191.754ZM70.6738 191.051L72.9473 189.357C72.9395 189.037 72.9043 188.764 72.8418 188.537C72.7832 188.307 72.6953 188.123 72.5781 187.986C72.4883 187.877 72.377 187.797 72.2441 187.746C72.1152 187.691 71.9688 187.664 71.8047 187.664C71.6211 187.664 71.459 187.699 71.3184 187.77C71.1816 187.836 71.0664 187.938 70.9727 188.074C70.8711 188.219 70.7949 188.406 70.7441 188.637C70.6973 188.867 70.6738 189.141 70.6738 189.457V190.4C70.6738 190.588 70.6738 190.713 70.6738 190.775C70.6738 190.838 70.6738 190.93 70.6738 191.051ZM72.9473 192V191.01C72.9473 190.881 72.9473 190.787 72.9473 190.729C72.9473 190.666 72.9473 190.578 72.9473 190.465L70.6738 192.152C70.6816 192.41 70.707 192.639 70.75 192.838C70.7969 193.037 70.8613 193.203 70.9434 193.336C71.0371 193.496 71.1562 193.615 71.3008 193.693C71.4453 193.771 71.6172 193.811 71.8164 193.811C72 193.811 72.1621 193.777 72.3027 193.711C72.4434 193.641 72.5605 193.535 72.6543 193.395C72.752 193.246 72.8242 193.057 72.8711 192.826C72.9219 192.592 72.9473 192.316 72.9473 192ZM80.2305 195H78.584V188.455L76.4277 189.229V187.811L80.1426 186.469H80.2305V195Z" fill="#EEF5FC"/>
<path d="M39.8496 97.4375V88.6602H41.3555L41.4141 89.2812C41.5 89.1758 41.5938 89.082 41.6953 89C41.7969 88.9141 41.9062 88.8398 42.0234 88.7773C42.1641 88.7031 42.3184 88.6465 42.4863 88.6074C42.6582 88.5645 42.8418 88.543 43.0371 88.543C43.4395 88.543 43.7949 88.6211 44.1035 88.7773C44.4121 88.9297 44.6719 89.1465 44.8828 89.4277C45.0938 89.7129 45.252 90.0547 45.3574 90.4531C45.4668 90.8477 45.5215 91.2852 45.5215 91.7656V91.8887C45.5215 92.3496 45.4668 92.7773 45.3574 93.1719C45.252 93.5664 45.0957 93.9062 44.8887 94.1914C44.6777 94.4805 44.418 94.707 44.1094 94.8711C43.8008 95.0352 43.4473 95.1172 43.0488 95.1172C42.8379 95.1172 42.6426 95.0938 42.4629 95.0469C42.2871 95.0039 42.123 94.9395 41.9707 94.8535C41.8809 94.7988 41.7949 94.7383 41.7129 94.6719C41.6309 94.6055 41.5527 94.5312 41.4785 94.4492V97.4375H39.8496ZM43.8926 91.7656C43.8926 91.5 43.8672 91.252 43.8164 91.0215C43.7695 90.7871 43.6953 90.584 43.5938 90.4121C43.4883 90.2441 43.3535 90.1113 43.1895 90.0137C43.0293 89.916 42.834 89.8672 42.6035 89.8672C42.4707 89.8672 42.3496 89.8809 42.2402 89.9082C42.1309 89.9316 42.0312 89.9668 41.9414 90.0137C41.8398 90.0684 41.75 90.1367 41.6719 90.2188C41.5977 90.3008 41.5332 90.3965 41.4785 90.5059V93.1543C41.5293 93.2559 41.5898 93.3477 41.6602 93.4297C41.7344 93.5117 41.8184 93.582 41.9121 93.6406C42.002 93.6953 42.1055 93.7383 42.2227 93.7695C42.3398 93.7969 42.4707 93.8105 42.6152 93.8105C42.8457 93.8105 43.041 93.7598 43.2012 93.6582C43.3652 93.5566 43.498 93.418 43.5996 93.2422C43.7012 93.0664 43.7754 92.8633 43.8223 92.6328C43.8691 92.3984 43.8926 92.1504 43.8926 91.8887V91.7656ZM48.6621 89.5332C48.7441 89.4121 48.834 89.3008 48.9316 89.1992C49.0332 89.0938 49.1387 89.002 49.248 88.9238C49.416 88.8027 49.6016 88.709 49.8047 88.6426C50.0078 88.5762 50.2227 88.543 50.4492 88.543C50.7812 88.543 51.0859 88.5938 51.3633 88.6953C51.6406 88.793 51.8789 88.9473 52.0781 89.1582C52.2773 89.3691 52.4316 89.6406 52.541 89.9727C52.6543 90.3008 52.7109 90.6973 52.7109 91.1621V95H51.082V91.1504C51.082 90.9238 51.0527 90.7285 50.9941 90.5645C50.9395 90.4004 50.8594 90.2676 50.7539 90.166C50.6484 90.0645 50.5215 89.9902 50.373 89.9434C50.2246 89.8926 50.0566 89.8672 49.8691 89.8672C49.7246 89.8672 49.5898 89.8809 49.4648 89.9082C49.3398 89.9355 49.2266 89.9766 49.125 90.0312C49.0312 90.0781 48.9453 90.1348 48.8672 90.2012C48.793 90.2676 48.7246 90.3418 48.6621 90.4238V95H47.0332V86H48.6621V89.5332ZM54.6738 88.6602H58.125V93.6758H59.8418V95H54.6738V93.6758H56.4785V89.9902H54.6738V88.6602ZM56.3613 87.0371C56.3613 86.9121 56.3828 86.7969 56.4258 86.6914C56.4727 86.582 56.5371 86.4883 56.6191 86.4102C56.7012 86.3359 56.7988 86.2773 56.9121 86.2344C57.0293 86.1914 57.1582 86.1699 57.2988 86.1699C57.5879 86.1699 57.8164 86.252 57.9844 86.416C58.1562 86.5762 58.2422 86.7832 58.2422 87.0371C58.2422 87.291 58.1562 87.5 57.9844 87.6641C57.8164 87.8242 57.5879 87.9043 57.2988 87.9043C57.1582 87.9043 57.0293 87.8828 56.9121 87.8398C56.7988 87.7969 56.7012 87.7363 56.6191 87.6582C56.5371 87.584 56.4727 87.4941 56.4258 87.3887C56.3828 87.2793 56.3613 87.1621 56.3613 87.0371ZM61.4473 95V88.6602H62.9238L63.0234 89.5391C63.1055 89.4219 63.1953 89.3145 63.293 89.2168C63.3906 89.1191 63.4941 89.0312 63.6035 88.9531C63.791 88.8203 63.9961 88.7188 64.2188 88.6484C64.4414 88.5781 64.6777 88.543 64.9277 88.543C65.248 88.543 65.541 88.5898 65.8066 88.6836C66.0723 88.7773 66.3027 88.9258 66.498 89.1289C66.6895 89.3359 66.8379 89.6016 66.9434 89.9258C67.0527 90.2461 67.1074 90.6367 67.1074 91.0977V95H65.4785V91.1211C65.4785 90.8711 65.4492 90.666 65.3906 90.5059C65.3359 90.3418 65.2559 90.2129 65.1504 90.1191C65.0449 90.0254 64.918 89.9609 64.7695 89.9258C64.6211 89.8867 64.4531 89.8672 64.2656 89.8672C64.1094 89.8672 63.9648 89.8848 63.832 89.9199C63.7031 89.9551 63.5879 90.0078 63.4863 90.0781C63.4043 90.1289 63.3301 90.1895 63.2637 90.2598C63.1973 90.3301 63.1367 90.4082 63.082 90.4941V95H61.4473ZM71.6426 87.1074V88.6602H74.0098V89.8613H71.6426V92.5859C71.6426 92.8164 71.668 93.0098 71.7188 93.166C71.7734 93.3184 71.8496 93.4395 71.9473 93.5293C72.0449 93.623 72.1621 93.6895 72.2988 93.7285C72.4395 93.7676 72.5957 93.7871 72.7676 93.7871C72.8926 93.7871 73.0195 93.7812 73.1484 93.7695C73.2812 93.7578 73.4082 93.7422 73.5293 93.7227C73.6465 93.707 73.7559 93.6895 73.8574 93.6699C73.9629 93.6504 74.0527 93.6309 74.127 93.6113L74.2852 94.7305C74.1719 94.7969 74.0391 94.8555 73.8867 94.9062C73.7344 94.9531 73.5723 94.9922 73.4004 95.0234C73.2285 95.0547 73.0488 95.0781 72.8613 95.0938C72.6777 95.1133 72.4961 95.123 72.3164 95.123C71.9688 95.123 71.6523 95.0781 71.3672 94.9883C71.0859 94.8945 70.8457 94.75 70.6465 94.5547C70.4434 94.3633 70.2871 94.1191 70.1777 93.8223C70.0684 93.5215 70.0137 93.1621 70.0137 92.7441V89.8613H68.5664V88.6602H70.0137V87.1074H71.6426ZM79.998 86.3574H79.002V95.7031H79.998V96.9629H77.3789V85.0977H79.998V86.3574ZM87.2051 86.3574H86.209V95.7031H87.2051V96.9629H84.5859V85.0977H87.2051V86.3574ZM95.8535 95H90.0352V93.8867L92.7949 90.9219C93.0098 90.6875 93.1914 90.4746 93.3398 90.2832C93.4883 90.0918 93.6094 89.916 93.7031 89.7559C93.793 89.5996 93.8574 89.4531 93.8965 89.3164C93.9395 89.1797 93.9609 89.0469 93.9609 88.918C93.9609 88.7266 93.9336 88.5566 93.8789 88.4082C93.8242 88.2598 93.748 88.1328 93.6504 88.0273C93.5488 87.9258 93.4277 87.8477 93.2871 87.793C93.1504 87.7383 92.998 87.7109 92.8301 87.7109C92.6113 87.7109 92.418 87.7422 92.25 87.8047C92.0859 87.8633 91.9492 87.9512 91.8398 88.0684C91.7266 88.1895 91.6406 88.3398 91.582 88.5195C91.5234 88.6992 91.4941 88.9043 91.4941 89.1348H89.8594C89.8594 88.7559 89.9316 88.3984 90.0762 88.0625C90.2207 87.7227 90.4258 87.4258 90.6914 87.1719C90.9531 86.918 91.2695 86.7188 91.6406 86.5742C92.0156 86.4258 92.4297 86.3516 92.8828 86.3516C93.3164 86.3516 93.6992 86.4121 94.0312 86.5332C94.3672 86.6543 94.6484 86.8242 94.875 87.043C95.0977 87.2617 95.2676 87.5254 95.3848 87.834C95.502 88.1387 95.5605 88.4766 95.5605 88.8477C95.5605 89.1289 95.5156 89.3984 95.4258 89.6562C95.3398 89.9102 95.2168 90.1621 95.0566 90.4121C94.8926 90.6621 94.6973 90.918 94.4707 91.1797C94.2441 91.4375 93.9922 91.709 93.7148 91.9941L92.1094 93.6934H95.8535V95ZM99 85.0977H101.625V96.9629H99V95.7031H100.002V86.3574H99V85.0977ZM106.207 85.0977H108.832V96.9629H106.207V95.7031H107.209V86.3574H106.207V85.0977Z" fill="#EEF5FC"/>
<path d="M141.172 186.469H142.818L142.824 192.381C142.82 192.787 142.742 193.158 142.59 193.494C142.441 193.826 142.236 194.113 141.975 194.355C141.713 194.598 141.404 194.785 141.049 194.918C140.697 195.051 140.318 195.117 139.912 195.117C139.482 195.117 139.092 195.062 138.74 194.953C138.389 194.844 138.088 194.68 137.838 194.461C137.584 194.246 137.387 193.975 137.246 193.646C137.105 193.318 137.033 192.934 137.029 192.492H138.682C138.682 192.695 138.701 192.873 138.74 193.025C138.779 193.178 138.838 193.307 138.916 193.412C139.018 193.541 139.15 193.637 139.314 193.699C139.479 193.762 139.678 193.793 139.912 193.793C140.1 193.793 140.271 193.758 140.428 193.688C140.584 193.613 140.717 193.514 140.826 193.389C140.936 193.264 141.02 193.115 141.078 192.943C141.141 192.768 141.172 192.58 141.172 192.381V186.469ZM148.373 195C148.334 194.922 148.301 194.832 148.273 194.73C148.246 194.629 148.223 194.521 148.203 194.408C148.113 194.506 148.01 194.598 147.893 194.684C147.775 194.77 147.646 194.844 147.506 194.906C147.361 194.973 147.203 195.023 147.031 195.059C146.859 195.098 146.674 195.117 146.475 195.117C146.15 195.117 145.852 195.07 145.578 194.977C145.309 194.883 145.076 194.752 144.881 194.584C144.686 194.416 144.533 194.217 144.424 193.986C144.314 193.752 144.26 193.498 144.26 193.225C144.26 192.873 144.328 192.562 144.465 192.293C144.602 192.02 144.807 191.795 145.08 191.619C145.326 191.459 145.629 191.338 145.988 191.256C146.352 191.17 146.768 191.127 147.236 191.127H148.145V190.752C148.145 190.604 148.121 190.471 148.074 190.354C148.027 190.232 147.957 190.129 147.863 190.043C147.766 189.953 147.643 189.885 147.494 189.838C147.35 189.787 147.18 189.762 146.984 189.762C146.812 189.762 146.664 189.783 146.539 189.826C146.414 189.865 146.312 189.922 146.234 189.996C146.164 190.062 146.111 190.143 146.076 190.236C146.045 190.33 146.029 190.434 146.029 190.547H144.4C144.4 190.277 144.459 190.021 144.576 189.779C144.697 189.537 144.873 189.324 145.104 189.141C145.33 188.957 145.607 188.812 145.936 188.707C146.268 188.598 146.646 188.543 147.072 188.543C147.455 188.543 147.811 188.59 148.139 188.684C148.471 188.777 148.758 188.916 149 189.1C149.242 189.283 149.432 189.516 149.568 189.797C149.705 190.074 149.773 190.396 149.773 190.764V193.482C149.773 193.822 149.795 194.104 149.838 194.326C149.881 194.549 149.943 194.74 150.025 194.9V195H148.373ZM146.82 193.857C146.984 193.857 147.137 193.838 147.277 193.799C147.418 193.76 147.545 193.709 147.658 193.646C147.771 193.584 147.869 193.514 147.951 193.436C148.033 193.354 148.098 193.271 148.145 193.189V192.1H147.312C147.059 192.1 146.842 192.125 146.662 192.176C146.482 192.223 146.336 192.289 146.223 192.375C146.109 192.465 146.025 192.572 145.971 192.697C145.916 192.818 145.889 192.951 145.889 193.096C145.889 193.209 145.908 193.314 145.947 193.412C145.99 193.506 146.051 193.586 146.129 193.652C146.207 193.715 146.303 193.766 146.416 193.805C146.533 193.84 146.668 193.857 146.82 193.857ZM151.619 195V188.66H153.096L153.195 189.539C153.277 189.422 153.367 189.314 153.465 189.217C153.562 189.119 153.666 189.031 153.775 188.953C153.963 188.82 154.168 188.719 154.391 188.648C154.613 188.578 154.85 188.543 155.1 188.543C155.42 188.543 155.713 188.59 155.979 188.684C156.244 188.777 156.475 188.926 156.67 189.129C156.861 189.336 157.01 189.602 157.115 189.926C157.225 190.246 157.279 190.637 157.279 191.098V195H155.65V191.121C155.65 190.871 155.621 190.666 155.562 190.506C155.508 190.342 155.428 190.213 155.322 190.119C155.217 190.025 155.09 189.961 154.941 189.926C154.793 189.887 154.625 189.867 154.438 189.867C154.281 189.867 154.137 189.885 154.004 189.92C153.875 189.955 153.76 190.008 153.658 190.078C153.576 190.129 153.502 190.189 153.436 190.26C153.369 190.33 153.309 190.408 153.254 190.494V195H151.619ZM171.588 191.754C171.588 192.305 171.523 192.791 171.395 193.213C171.27 193.631 171.088 193.98 170.85 194.262C170.611 194.547 170.32 194.762 169.977 194.906C169.633 195.051 169.246 195.123 168.816 195.123C168.391 195.123 168.006 195.051 167.662 194.906C167.318 194.762 167.027 194.547 166.789 194.262C166.547 193.98 166.359 193.631 166.227 193.213C166.098 192.791 166.033 192.305 166.033 191.754V189.715C166.033 189.164 166.098 188.68 166.227 188.262C166.355 187.84 166.541 187.486 166.783 187.201C167.021 186.92 167.311 186.707 167.65 186.562C167.994 186.418 168.379 186.346 168.805 186.346C169.234 186.346 169.621 186.418 169.965 186.562C170.309 186.707 170.602 186.92 170.844 187.201C171.082 187.486 171.266 187.84 171.395 188.262C171.523 188.68 171.588 189.164 171.588 189.715V191.754ZM167.674 191.051L169.947 189.357C169.939 189.037 169.904 188.764 169.842 188.537C169.783 188.307 169.695 188.123 169.578 187.986C169.488 187.877 169.377 187.797 169.244 187.746C169.115 187.691 168.969 187.664 168.805 187.664C168.621 187.664 168.459 187.699 168.318 187.77C168.182 187.836 168.066 187.938 167.973 188.074C167.871 188.219 167.795 188.406 167.744 188.637C167.697 188.867 167.674 189.141 167.674 189.457V190.4C167.674 190.588 167.674 190.713 167.674 190.775C167.674 190.838 167.674 190.93 167.674 191.051ZM169.947 192V191.01C169.947 190.881 169.947 190.787 169.947 190.729C169.947 190.666 169.947 190.578 169.947 190.465L167.674 192.152C167.682 192.41 167.707 192.639 167.75 192.838C167.797 193.037 167.861 193.203 167.943 193.336C168.037 193.496 168.156 193.615 168.301 193.693C168.445 193.771 168.617 193.811 168.816 193.811C169 193.811 169.162 193.777 169.303 193.711C169.443 193.641 169.561 193.535 169.654 193.395C169.752 193.246 169.824 193.057 169.871 192.826C169.922 192.592 169.947 192.316 169.947 192ZM174.881 190.02H175.766C176 190.02 176.201 189.988 176.369 189.926C176.541 189.859 176.68 189.768 176.785 189.65C176.883 189.549 176.955 189.426 177.002 189.281C177.053 189.133 177.078 188.973 177.078 188.801C177.078 188.633 177.053 188.48 177.002 188.344C176.955 188.203 176.883 188.082 176.785 187.98C176.688 187.883 176.562 187.807 176.41 187.752C176.262 187.697 176.088 187.67 175.889 187.67C175.725 187.67 175.57 187.693 175.426 187.74C175.285 187.787 175.162 187.854 175.057 187.939C174.947 188.029 174.861 188.137 174.799 188.262C174.736 188.387 174.705 188.527 174.705 188.684H173.076C173.076 188.336 173.146 188.02 173.287 187.734C173.432 187.449 173.629 187.203 173.879 186.996C174.129 186.793 174.422 186.635 174.758 186.521C175.098 186.408 175.463 186.352 175.854 186.352C176.275 186.352 176.662 186.404 177.014 186.51C177.365 186.611 177.666 186.764 177.916 186.967C178.166 187.174 178.359 187.43 178.496 187.734C178.637 188.035 178.707 188.385 178.707 188.783C178.707 188.967 178.68 189.148 178.625 189.328C178.57 189.504 178.49 189.672 178.385 189.832C178.279 189.992 178.148 190.141 177.992 190.277C177.836 190.41 177.656 190.525 177.453 190.623C177.691 190.709 177.896 190.818 178.068 190.951C178.244 191.084 178.389 191.234 178.502 191.402C178.615 191.574 178.699 191.762 178.754 191.965C178.809 192.168 178.836 192.383 178.836 192.609C178.836 193.008 178.76 193.363 178.607 193.676C178.455 193.988 178.246 194.25 177.98 194.461C177.715 194.676 177.398 194.84 177.031 194.953C176.668 195.062 176.275 195.117 175.854 195.117C175.49 195.117 175.135 195.068 174.787 194.971C174.443 194.869 174.137 194.717 173.867 194.514C173.598 194.314 173.381 194.062 173.217 193.758C173.057 193.453 172.977 193.094 172.977 192.68H174.605C174.605 192.844 174.637 192.996 174.699 193.137C174.762 193.273 174.852 193.391 174.969 193.488C175.082 193.59 175.217 193.67 175.373 193.729C175.529 193.783 175.701 193.811 175.889 193.811C176.1 193.811 176.289 193.781 176.457 193.723C176.625 193.664 176.766 193.578 176.879 193.465C176.988 193.363 177.07 193.238 177.125 193.09C177.184 192.941 177.213 192.775 177.213 192.592C177.213 192.361 177.18 192.164 177.113 192C177.047 191.836 176.951 191.701 176.826 191.596C176.697 191.49 176.543 191.412 176.363 191.361C176.188 191.311 175.988 191.285 175.766 191.285H174.881V190.02Z" fill="#EEF5FC"/>
<path d="M242.172 186.469H243.818L243.824 192.381C243.82 192.787 243.742 193.158 243.59 193.494C243.441 193.826 243.236 194.113 242.975 194.355C242.713 194.598 242.404 194.785 242.049 194.918C241.697 195.051 241.318 195.117 240.912 195.117C240.482 195.117 240.092 195.062 239.74 194.953C239.389 194.844 239.088 194.68 238.838 194.461C238.584 194.246 238.387 193.975 238.246 193.646C238.105 193.318 238.033 192.934 238.029 192.492H239.682C239.682 192.695 239.701 192.873 239.74 193.025C239.779 193.178 239.838 193.307 239.916 193.412C240.018 193.541 240.15 193.637 240.314 193.699C240.479 193.762 240.678 193.793 240.912 193.793C241.1 193.793 241.271 193.758 241.428 193.688C241.584 193.613 241.717 193.514 241.826 193.389C241.936 193.264 242.02 193.115 242.078 192.943C242.141 192.768 242.172 192.58 242.172 192.381V186.469ZM249.373 195C249.334 194.922 249.301 194.832 249.273 194.73C249.246 194.629 249.223 194.521 249.203 194.408C249.113 194.506 249.01 194.598 248.893 194.684C248.775 194.77 248.646 194.844 248.506 194.906C248.361 194.973 248.203 195.023 248.031 195.059C247.859 195.098 247.674 195.117 247.475 195.117C247.15 195.117 246.852 195.07 246.578 194.977C246.309 194.883 246.076 194.752 245.881 194.584C245.686 194.416 245.533 194.217 245.424 193.986C245.314 193.752 245.26 193.498 245.26 193.225C245.26 192.873 245.328 192.562 245.465 192.293C245.602 192.02 245.807 191.795 246.08 191.619C246.326 191.459 246.629 191.338 246.988 191.256C247.352 191.17 247.768 191.127 248.236 191.127H249.145V190.752C249.145 190.604 249.121 190.471 249.074 190.354C249.027 190.232 248.957 190.129 248.863 190.043C248.766 189.953 248.643 189.885 248.494 189.838C248.35 189.787 248.18 189.762 247.984 189.762C247.812 189.762 247.664 189.783 247.539 189.826C247.414 189.865 247.312 189.922 247.234 189.996C247.164 190.062 247.111 190.143 247.076 190.236C247.045 190.33 247.029 190.434 247.029 190.547H245.4C245.4 190.277 245.459 190.021 245.576 189.779C245.697 189.537 245.873 189.324 246.104 189.141C246.33 188.957 246.607 188.812 246.936 188.707C247.268 188.598 247.646 188.543 248.072 188.543C248.455 188.543 248.811 188.59 249.139 188.684C249.471 188.777 249.758 188.916 250 189.1C250.242 189.283 250.432 189.516 250.568 189.797C250.705 190.074 250.773 190.396 250.773 190.764V193.482C250.773 193.822 250.795 194.104 250.838 194.326C250.881 194.549 250.943 194.74 251.025 194.9V195H249.373ZM247.82 193.857C247.984 193.857 248.137 193.838 248.277 193.799C248.418 193.76 248.545 193.709 248.658 193.646C248.771 193.584 248.869 193.514 248.951 193.436C249.033 193.354 249.098 193.271 249.145 193.189V192.1H248.312C248.059 192.1 247.842 192.125 247.662 192.176C247.482 192.223 247.336 192.289 247.223 192.375C247.109 192.465 247.025 192.572 246.971 192.697C246.916 192.818 246.889 192.951 246.889 193.096C246.889 193.209 246.908 193.314 246.947 193.412C246.99 193.506 247.051 193.586 247.129 193.652C247.207 193.715 247.303 193.766 247.416 193.805C247.533 193.84 247.668 193.857 247.82 193.857ZM252.619 195V188.66H254.096L254.195 189.539C254.277 189.422 254.367 189.314 254.465 189.217C254.562 189.119 254.666 189.031 254.775 188.953C254.963 188.82 255.168 188.719 255.391 188.648C255.613 188.578 255.85 188.543 256.1 188.543C256.42 188.543 256.713 188.59 256.979 188.684C257.244 188.777 257.475 188.926 257.67 189.129C257.861 189.336 258.01 189.602 258.115 189.926C258.225 190.246 258.279 190.637 258.279 191.098V195H256.65V191.121C256.65 190.871 256.621 190.666 256.562 190.506C256.508 190.342 256.428 190.213 256.322 190.119C256.217 190.025 256.09 189.961 255.941 189.926C255.793 189.887 255.625 189.867 255.438 189.867C255.281 189.867 255.137 189.885 255.004 189.92C254.875 189.955 254.76 190.008 254.658 190.078C254.576 190.129 254.502 190.189 254.436 190.26C254.369 190.33 254.309 190.408 254.254 190.494V195H252.619ZM272.588 191.754C272.588 192.305 272.523 192.791 272.395 193.213C272.27 193.631 272.088 193.98 271.85 194.262C271.611 194.547 271.32 194.762 270.977 194.906C270.633 195.051 270.246 195.123 269.816 195.123C269.391 195.123 269.006 195.051 268.662 194.906C268.318 194.762 268.027 194.547 267.789 194.262C267.547 193.98 267.359 193.631 267.227 193.213C267.098 192.791 267.033 192.305 267.033 191.754V189.715C267.033 189.164 267.098 188.68 267.227 188.262C267.355 187.84 267.541 187.486 267.783 187.201C268.021 186.92 268.311 186.707 268.65 186.562C268.994 186.418 269.379 186.346 269.805 186.346C270.234 186.346 270.621 186.418 270.965 186.562C271.309 186.707 271.602 186.92 271.844 187.201C272.082 187.486 272.266 187.84 272.395 188.262C272.523 188.68 272.588 189.164 272.588 189.715V191.754ZM268.674 191.051L270.947 189.357C270.939 189.037 270.904 188.764 270.842 188.537C270.783 188.307 270.695 188.123 270.578 187.986C270.488 187.877 270.377 187.797 270.244 187.746C270.115 187.691 269.969 187.664 269.805 187.664C269.621 187.664 269.459 187.699 269.318 187.77C269.182 187.836 269.066 187.938 268.973 188.074C268.871 188.219 268.795 188.406 268.744 188.637C268.697 188.867 268.674 189.141 268.674 189.457V190.4C268.674 190.588 268.674 190.713 268.674 190.775C268.674 190.838 268.674 190.93 268.674 191.051ZM270.947 192V191.01C270.947 190.881 270.947 190.787 270.947 190.729C270.947 190.666 270.947 190.578 270.947 190.465L268.674 192.152C268.682 192.41 268.707 192.639 268.75 192.838C268.797 193.037 268.861 193.203 268.943 193.336C269.037 193.496 269.156 193.615 269.301 193.693C269.445 193.771 269.617 193.811 269.816 193.811C270 193.811 270.162 193.777 270.303 193.711C270.443 193.641 270.561 193.535 270.654 193.395C270.752 193.246 270.824 193.057 270.871 192.826C270.922 192.592 270.947 192.316 270.947 192ZM274.322 190.799L274.809 186.469H279.543V187.852H276.15L275.945 189.727C276.066 189.656 276.238 189.584 276.461 189.51C276.684 189.436 276.939 189.398 277.229 189.398C277.639 189.398 278.004 189.465 278.324 189.598C278.648 189.727 278.922 189.914 279.145 190.16C279.363 190.406 279.531 190.707 279.648 191.062C279.766 191.418 279.824 191.82 279.824 192.27C279.824 192.652 279.768 193.016 279.654 193.359C279.541 193.703 279.367 194.006 279.133 194.268C278.898 194.529 278.604 194.736 278.248 194.889C277.893 195.041 277.473 195.117 276.988 195.117C276.621 195.117 276.266 195.062 275.922 194.953C275.582 194.844 275.279 194.684 275.014 194.473C274.748 194.262 274.531 194.004 274.363 193.699C274.199 193.391 274.111 193.039 274.1 192.645H275.705C275.744 193.016 275.877 193.303 276.104 193.506C276.334 193.709 276.627 193.811 276.982 193.811C277.201 193.811 277.387 193.77 277.539 193.688C277.695 193.605 277.822 193.492 277.92 193.348C278.014 193.203 278.082 193.031 278.125 192.832C278.172 192.633 278.195 192.418 278.195 192.188C278.195 191.961 278.166 191.754 278.107 191.566C278.053 191.375 277.967 191.211 277.85 191.074C277.732 190.938 277.586 190.832 277.41 190.758C277.234 190.684 277.027 190.646 276.789 190.646C276.629 190.646 276.49 190.66 276.373 190.688C276.256 190.715 276.152 190.75 276.062 190.793C275.973 190.836 275.893 190.887 275.822 190.945C275.752 191 275.686 191.059 275.623 191.121L274.322 190.799Z" fill="#EEF5FC"/>
<path d="M342.172 186.469H343.818L343.824 192.381C343.82 192.787 343.742 193.158 343.59 193.494C343.441 193.826 343.236 194.113 342.975 194.355C342.713 194.598 342.404 194.785 342.049 194.918C341.697 195.051 341.318 195.117 340.912 195.117C340.482 195.117 340.092 195.062 339.74 194.953C339.389 194.844 339.088 194.68 338.838 194.461C338.584 194.246 338.387 193.975 338.246 193.646C338.105 193.318 338.033 192.934 338.029 192.492H339.682C339.682 192.695 339.701 192.873 339.74 193.025C339.779 193.178 339.838 193.307 339.916 193.412C340.018 193.541 340.15 193.637 340.314 193.699C340.479 193.762 340.678 193.793 340.912 193.793C341.1 193.793 341.271 193.758 341.428 193.688C341.584 193.613 341.717 193.514 341.826 193.389C341.936 193.264 342.02 193.115 342.078 192.943C342.141 192.768 342.172 192.58 342.172 192.381V186.469ZM349.373 195C349.334 194.922 349.301 194.832 349.273 194.73C349.246 194.629 349.223 194.521 349.203 194.408C349.113 194.506 349.01 194.598 348.893 194.684C348.775 194.77 348.646 194.844 348.506 194.906C348.361 194.973 348.203 195.023 348.031 195.059C347.859 195.098 347.674 195.117 347.475 195.117C347.15 195.117 346.852 195.07 346.578 194.977C346.309 194.883 346.076 194.752 345.881 194.584C345.686 194.416 345.533 194.217 345.424 193.986C345.314 193.752 345.26 193.498 345.26 193.225C345.26 192.873 345.328 192.562 345.465 192.293C345.602 192.02 345.807 191.795 346.08 191.619C346.326 191.459 346.629 191.338 346.988 191.256C347.352 191.17 347.768 191.127 348.236 191.127H349.145V190.752C349.145 190.604 349.121 190.471 349.074 190.354C349.027 190.232 348.957 190.129 348.863 190.043C348.766 189.953 348.643 189.885 348.494 189.838C348.35 189.787 348.18 189.762 347.984 189.762C347.812 189.762 347.664 189.783 347.539 189.826C347.414 189.865 347.312 189.922 347.234 189.996C347.164 190.062 347.111 190.143 347.076 190.236C347.045 190.33 347.029 190.434 347.029 190.547H345.4C345.4 190.277 345.459 190.021 345.576 189.779C345.697 189.537 345.873 189.324 346.104 189.141C346.33 188.957 346.607 188.812 346.936 188.707C347.268 188.598 347.646 188.543 348.072 188.543C348.455 188.543 348.811 188.59 349.139 188.684C349.471 188.777 349.758 188.916 350 189.1C350.242 189.283 350.432 189.516 350.568 189.797C350.705 190.074 350.773 190.396 350.773 190.764V193.482C350.773 193.822 350.795 194.104 350.838 194.326C350.881 194.549 350.943 194.74 351.025 194.9V195H349.373ZM347.82 193.857C347.984 193.857 348.137 193.838 348.277 193.799C348.418 193.76 348.545 193.709 348.658 193.646C348.771 193.584 348.869 193.514 348.951 193.436C349.033 193.354 349.098 193.271 349.145 193.189V192.1H348.312C348.059 192.1 347.842 192.125 347.662 192.176C347.482 192.223 347.336 192.289 347.223 192.375C347.109 192.465 347.025 192.572 346.971 192.697C346.916 192.818 346.889 192.951 346.889 193.096C346.889 193.209 346.908 193.314 346.947 193.412C346.99 193.506 347.051 193.586 347.129 193.652C347.207 193.715 347.303 193.766 347.416 193.805C347.533 193.84 347.668 193.857 347.82 193.857ZM352.619 195V188.66H354.096L354.195 189.539C354.277 189.422 354.367 189.314 354.465 189.217C354.562 189.119 354.666 189.031 354.775 188.953C354.963 188.82 355.168 188.719 355.391 188.648C355.613 188.578 355.85 188.543 356.1 188.543C356.42 188.543 356.713 188.59 356.979 188.684C357.244 188.777 357.475 188.926 357.67 189.129C357.861 189.336 358.01 189.602 358.115 189.926C358.225 190.246 358.279 190.637 358.279 191.098V195H356.65V191.121C356.65 190.871 356.621 190.666 356.562 190.506C356.508 190.342 356.428 190.213 356.322 190.119C356.217 190.025 356.09 189.961 355.941 189.926C355.793 189.887 355.625 189.867 355.438 189.867C355.281 189.867 355.137 189.885 355.004 189.92C354.875 189.955 354.76 190.008 354.658 190.078C354.576 190.129 354.502 190.189 354.436 190.26C354.369 190.33 354.309 190.408 354.254 190.494V195H352.619ZM372.588 191.754C372.588 192.305 372.523 192.791 372.395 193.213C372.27 193.631 372.088 193.98 371.85 194.262C371.611 194.547 371.32 194.762 370.977 194.906C370.633 195.051 370.246 195.123 369.816 195.123C369.391 195.123 369.006 195.051 368.662 194.906C368.318 194.762 368.027 194.547 367.789 194.262C367.547 193.98 367.359 193.631 367.227 193.213C367.098 192.791 367.033 192.305 367.033 191.754V189.715C367.033 189.164 367.098 188.68 367.227 188.262C367.355 187.84 367.541 187.486 367.783 187.201C368.021 186.92 368.311 186.707 368.65 186.562C368.994 186.418 369.379 186.346 369.805 186.346C370.234 186.346 370.621 186.418 370.965 186.562C371.309 186.707 371.602 186.92 371.844 187.201C372.082 187.486 372.266 187.84 372.395 188.262C372.523 188.68 372.588 189.164 372.588 189.715V191.754ZM368.674 191.051L370.947 189.357C370.939 189.037 370.904 188.764 370.842 188.537C370.783 188.307 370.695 188.123 370.578 187.986C370.488 187.877 370.377 187.797 370.244 187.746C370.115 187.691 369.969 187.664 369.805 187.664C369.621 187.664 369.459 187.699 369.318 187.77C369.182 187.836 369.066 187.938 368.973 188.074C368.871 188.219 368.795 188.406 368.744 188.637C368.697 188.867 368.674 189.141 368.674 189.457V190.4C368.674 190.588 368.674 190.713 368.674 190.775C368.674 190.838 368.674 190.93 368.674 191.051ZM370.947 192V191.01C370.947 190.881 370.947 190.787 370.947 190.729C370.947 190.666 370.947 190.578 370.947 190.465L368.674 192.152C368.682 192.41 368.707 192.639 368.75 192.838C368.797 193.037 368.861 193.203 368.943 193.336C369.037 193.496 369.156 193.615 369.301 193.693C369.445 193.771 369.617 193.811 369.816 193.811C370 193.811 370.162 193.777 370.303 193.711C370.443 193.641 370.561 193.535 370.654 193.395C370.752 193.246 370.824 193.057 370.871 192.826C370.922 192.592 370.947 192.316 370.947 192ZM379.812 187.377L376.49 195H374.773L378.102 187.799H373.818V186.469H379.812V187.377Z" fill="#EEF5FC"/>
<path d="M442.172 186.469H443.818L443.824 192.381C443.82 192.787 443.742 193.158 443.59 193.494C443.441 193.826 443.236 194.113 442.975 194.355C442.713 194.598 442.404 194.785 442.049 194.918C441.697 195.051 441.318 195.117 440.912 195.117C440.482 195.117 440.092 195.062 439.74 194.953C439.389 194.844 439.088 194.68 438.838 194.461C438.584 194.246 438.387 193.975 438.246 193.646C438.105 193.318 438.033 192.934 438.029 192.492H439.682C439.682 192.695 439.701 192.873 439.74 193.025C439.779 193.178 439.838 193.307 439.916 193.412C440.018 193.541 440.15 193.637 440.314 193.699C440.479 193.762 440.678 193.793 440.912 193.793C441.1 193.793 441.271 193.758 441.428 193.688C441.584 193.613 441.717 193.514 441.826 193.389C441.936 193.264 442.02 193.115 442.078 192.943C442.141 192.768 442.172 192.58 442.172 192.381V186.469ZM449.373 195C449.334 194.922 449.301 194.832 449.273 194.73C449.246 194.629 449.223 194.521 449.203 194.408C449.113 194.506 449.01 194.598 448.893 194.684C448.775 194.77 448.646 194.844 448.506 194.906C448.361 194.973 448.203 195.023 448.031 195.059C447.859 195.098 447.674 195.117 447.475 195.117C447.15 195.117 446.852 195.07 446.578 194.977C446.309 194.883 446.076 194.752 445.881 194.584C445.686 194.416 445.533 194.217 445.424 193.986C445.314 193.752 445.26 193.498 445.26 193.225C445.26 192.873 445.328 192.562 445.465 192.293C445.602 192.02 445.807 191.795 446.08 191.619C446.326 191.459 446.629 191.338 446.988 191.256C447.352 191.17 447.768 191.127 448.236 191.127H449.145V190.752C449.145 190.604 449.121 190.471 449.074 190.354C449.027 190.232 448.957 190.129 448.863 190.043C448.766 189.953 448.643 189.885 448.494 189.838C448.35 189.787 448.18 189.762 447.984 189.762C447.812 189.762 447.664 189.783 447.539 189.826C447.414 189.865 447.312 189.922 447.234 189.996C447.164 190.062 447.111 190.143 447.076 190.236C447.045 190.33 447.029 190.434 447.029 190.547H445.4C445.4 190.277 445.459 190.021 445.576 189.779C445.697 189.537 445.873 189.324 446.104 189.141C446.33 188.957 446.607 188.812 446.936 188.707C447.268 188.598 447.646 188.543 448.072 188.543C448.455 188.543 448.811 188.59 449.139 188.684C449.471 188.777 449.758 188.916 450 189.1C450.242 189.283 450.432 189.516 450.568 189.797C450.705 190.074 450.773 190.396 450.773 190.764V193.482C450.773 193.822 450.795 194.104 450.838 194.326C450.881 194.549 450.943 194.74 451.025 194.9V195H449.373ZM447.82 193.857C447.984 193.857 448.137 193.838 448.277 193.799C448.418 193.76 448.545 193.709 448.658 193.646C448.771 193.584 448.869 193.514 448.951 193.436C449.033 193.354 449.098 193.271 449.145 193.189V192.1H448.312C448.059 192.1 447.842 192.125 447.662 192.176C447.482 192.223 447.336 192.289 447.223 192.375C447.109 192.465 447.025 192.572 446.971 192.697C446.916 192.818 446.889 192.951 446.889 193.096C446.889 193.209 446.908 193.314 446.947 193.412C446.99 193.506 447.051 193.586 447.129 193.652C447.207 193.715 447.303 193.766 447.416 193.805C447.533 193.84 447.668 193.857 447.82 193.857ZM452.619 195V188.66H454.096L454.195 189.539C454.277 189.422 454.367 189.314 454.465 189.217C454.562 189.119 454.666 189.031 454.775 188.953C454.963 188.82 455.168 188.719 455.391 188.648C455.613 188.578 455.85 188.543 456.1 188.543C456.42 188.543 456.713 188.59 456.979 188.684C457.244 188.777 457.475 188.926 457.67 189.129C457.861 189.336 458.01 189.602 458.115 189.926C458.225 190.246 458.279 190.637 458.279 191.098V195H456.65V191.121C456.65 190.871 456.621 190.666 456.562 190.506C456.508 190.342 456.428 190.213 456.322 190.119C456.217 190.025 456.09 189.961 455.941 189.926C455.793 189.887 455.625 189.867 455.438 189.867C455.281 189.867 455.137 189.885 455.004 189.92C454.875 189.955 454.76 190.008 454.658 190.078C454.576 190.129 454.502 190.189 454.436 190.26C454.369 190.33 454.309 190.408 454.254 190.494V195H452.619ZM472.588 191.754C472.588 192.305 472.523 192.791 472.395 193.213C472.27 193.631 472.088 193.98 471.85 194.262C471.611 194.547 471.32 194.762 470.977 194.906C470.633 195.051 470.246 195.123 469.816 195.123C469.391 195.123 469.006 195.051 468.662 194.906C468.318 194.762 468.027 194.547 467.789 194.262C467.547 193.98 467.359 193.631 467.227 193.213C467.098 192.791 467.033 192.305 467.033 191.754V189.715C467.033 189.164 467.098 188.68 467.227 188.262C467.355 187.84 467.541 187.486 467.783 187.201C468.021 186.92 468.311 186.707 468.65 186.562C468.994 186.418 469.379 186.346 469.805 186.346C470.234 186.346 470.621 186.418 470.965 186.562C471.309 186.707 471.602 186.92 471.844 187.201C472.082 187.486 472.266 187.84 472.395 188.262C472.523 188.68 472.588 189.164 472.588 189.715V191.754ZM468.674 191.051L470.947 189.357C470.939 189.037 470.904 188.764 470.842 188.537C470.783 188.307 470.695 188.123 470.578 187.986C470.488 187.877 470.377 187.797 470.244 187.746C470.115 187.691 469.969 187.664 469.805 187.664C469.621 187.664 469.459 187.699 469.318 187.77C469.182 187.836 469.066 187.938 468.973 188.074C468.871 188.219 468.795 188.406 468.744 188.637C468.697 188.867 468.674 189.141 468.674 189.457V190.4C468.674 190.588 468.674 190.713 468.674 190.775C468.674 190.838 468.674 190.93 468.674 191.051ZM470.947 192V191.01C470.947 190.881 470.947 190.787 470.947 190.729C470.947 190.666 470.947 190.578 470.947 190.465L468.674 192.152C468.682 192.41 468.707 192.639 468.75 192.838C468.797 193.037 468.861 193.203 468.943 193.336C469.037 193.496 469.156 193.615 469.301 193.693C469.445 193.771 469.617 193.811 469.816 193.811C470 193.811 470.162 193.777 470.303 193.711C470.443 193.641 470.561 193.535 470.654 193.395C470.752 193.246 470.824 193.057 470.871 192.826C470.922 192.592 470.947 192.316 470.947 192ZM475.359 193.705C475.797 193.705 476.176 193.658 476.496 193.564C476.816 193.471 477.086 193.334 477.305 193.154C477.516 192.982 477.68 192.771 477.797 192.521C477.918 192.268 477.998 191.984 478.037 191.672V191.637C477.955 191.719 477.863 191.795 477.762 191.865C477.66 191.936 477.549 191.996 477.428 192.047C477.299 192.105 477.154 192.152 476.994 192.188C476.834 192.219 476.658 192.234 476.467 192.234C476.061 192.234 475.703 192.16 475.395 192.012C475.086 191.863 474.828 191.66 474.621 191.402C474.41 191.145 474.25 190.842 474.141 190.494C474.035 190.143 473.982 189.766 473.982 189.363C473.982 188.949 474.047 188.561 474.176 188.197C474.309 187.83 474.498 187.51 474.744 187.236C474.99 186.963 475.287 186.748 475.635 186.592C475.986 186.432 476.381 186.352 476.818 186.352C477.264 186.352 477.664 186.438 478.02 186.609C478.375 186.781 478.678 187.021 478.928 187.33C479.174 187.639 479.361 188.006 479.49 188.432C479.623 188.857 479.689 189.324 479.689 189.832V190.395C479.689 191.074 479.605 191.699 479.438 192.27C479.27 192.84 479.01 193.332 478.658 193.746C478.307 194.164 477.859 194.49 477.316 194.725C476.773 194.955 476.125 195.07 475.371 195.07H475.248V193.705H475.359ZM476.854 190.975C477.002 190.975 477.139 190.953 477.264 190.91C477.393 190.867 477.51 190.807 477.615 190.729C477.717 190.654 477.805 190.566 477.879 190.465C477.957 190.359 478.02 190.246 478.066 190.125V189.545C478.066 189.232 478.033 188.959 477.967 188.725C477.904 188.49 477.816 188.295 477.703 188.139C477.59 187.982 477.457 187.865 477.305 187.787C477.152 187.709 476.988 187.67 476.812 187.67C476.621 187.67 476.449 187.717 476.297 187.811C476.148 187.9 476.023 188.021 475.922 188.174C475.82 188.33 475.742 188.51 475.688 188.713C475.633 188.912 475.605 189.121 475.605 189.34C475.605 189.559 475.631 189.768 475.682 189.967C475.732 190.166 475.811 190.34 475.916 190.488C476.018 190.637 476.146 190.756 476.303 190.846C476.459 190.932 476.643 190.975 476.854 190.975Z" fill="#EEF5FC"/>
<rect x="60" y="108" width="98" height="18" rx="7" fill="#38B873" stroke="#356F2A" stroke-width="2"/>
<rect x="208" y="108" width="250" height="18" rx="7" fill="#38B873" stroke="#356F2A" stroke-width="2"/>
<rect x="108" y="48" width="150" height="18" rx="7" fill="#38B873" stroke="#356F2A" stroke-width="2"/>
</svg>
