<svg width="442" height="176" viewBox="0 0 442 176" fill="none" xmlns="http://www.w3.org/2000/svg">
<line x1="20" y1="144" x2="420" y2="144" stroke="#EEF5FC" stroke-width="2"/>
<line x1="21" y1="154" x2="21" y2="134" stroke="#EEF5FC" stroke-width="2"/>
<line x1="69" y1="154" x2="69" y2="134" stroke="#EEF5FC" stroke-width="2"/>
<line x1="119" y1="154" x2="119" y2="134" stroke="#EEF5FC" stroke-width="2"/>
<line x1="119" y1="154" x2="119" y2="134" stroke="#EEF5FC" stroke-width="2"/>
<line x1="169" y1="154" x2="169" y2="134" stroke="#EEF5FC" stroke-width="2"/>
<line x1="219" y1="154" x2="219" y2="134" stroke="#EEF5FC" stroke-width="2"/>
<line x1="269" y1="154" x2="269" y2="134" stroke="#EEF5FC" stroke-width="2"/>
<line x1="319" y1="154" x2="319" y2="134" stroke="#EEF5FC" stroke-width="2"/>
<line x1="369" y1="154" x2="369" y2="134" stroke="#EEF5FC" stroke-width="2"/>
<line x1="419" y1="154" x2="419" y2="134" stroke="#EEF5FC" stroke-width="2"/>
<path d="M5.40039 164.469H6.50781V170.404C6.5 170.799 6.42383 171.162 6.2793 171.494C6.13867 171.826 5.94531 172.111 5.69922 172.35C5.45312 172.592 5.16211 172.781 4.82617 172.918C4.49414 173.051 4.13086 173.117 3.73633 173.117C3.33789 173.117 2.97461 173.057 2.64648 172.936C2.32227 172.814 2.04102 172.641 1.80273 172.414C1.56055 172.191 1.36719 171.922 1.22266 171.605C1.07812 171.285 0.988281 170.928 0.953125 170.533H2.05469C2.06641 170.771 2.11328 170.992 2.19531 171.195C2.28125 171.398 2.39648 171.574 2.54102 171.723C2.68555 171.875 2.85742 171.992 3.05664 172.074C3.25977 172.156 3.48633 172.197 3.73633 172.197C3.99414 172.197 4.22461 172.15 4.42773 172.057C4.63086 171.959 4.80469 171.828 4.94922 171.664C5.08984 171.5 5.19727 171.311 5.27148 171.096C5.34961 170.877 5.39258 170.646 5.40039 170.404V164.469ZM12.7715 173C12.7285 172.918 12.6934 172.816 12.666 172.695C12.6426 172.57 12.625 172.441 12.6133 172.309C12.5039 172.418 12.3809 172.521 12.2441 172.619C12.1113 172.717 11.9648 172.803 11.8047 172.877C11.6406 172.951 11.4668 173.01 11.2832 173.053C11.0996 173.096 10.9043 173.117 10.6973 173.117C10.3613 173.117 10.0566 173.068 9.7832 172.971C9.51367 172.873 9.28516 172.74 9.09766 172.572C8.90625 172.408 8.75781 172.213 8.65234 171.986C8.55078 171.756 8.5 171.508 8.5 171.242C8.5 170.895 8.56836 170.59 8.70508 170.328C8.8457 170.066 9.04297 169.848 9.29688 169.672C9.55078 169.5 9.85547 169.371 10.2109 169.285C10.5703 169.199 10.9707 169.156 11.4121 169.156H12.5957V168.658C12.5957 168.467 12.5605 168.295 12.4902 168.143C12.4199 167.99 12.3203 167.859 12.1914 167.75C12.0625 167.645 11.9043 167.562 11.7168 167.504C11.5332 167.445 11.3262 167.416 11.0957 167.416C10.8809 167.416 10.6875 167.443 10.5156 167.498C10.3477 167.553 10.2051 167.625 10.0879 167.715C9.9707 167.805 9.87891 167.912 9.8125 168.037C9.75 168.158 9.71875 168.285 9.71875 168.418H8.62891C8.63281 168.188 8.69141 167.961 8.80469 167.738C8.92188 167.516 9.08984 167.314 9.30859 167.135C9.52344 166.959 9.78516 166.816 10.0938 166.707C10.4062 166.598 10.7598 166.543 11.1543 166.543C11.5137 166.543 11.8477 166.588 12.1562 166.678C12.4648 166.764 12.7324 166.895 12.959 167.07C13.1816 167.25 13.3574 167.473 13.4863 167.738C13.6152 168.004 13.6797 168.314 13.6797 168.67V171.617C13.6797 171.828 13.6992 172.053 13.7383 172.291C13.7773 172.525 13.832 172.73 13.9023 172.906V173H12.7715ZM10.8555 172.174C11.0664 172.174 11.2637 172.146 11.4473 172.092C11.6309 172.037 11.7988 171.965 11.9512 171.875C12.0996 171.785 12.2285 171.684 12.3379 171.57C12.4473 171.453 12.5332 171.332 12.5957 171.207V169.924H11.5879C11.2129 169.924 10.8848 169.957 10.6035 170.023C10.3262 170.086 10.1055 170.184 9.94141 170.316C9.82422 170.41 9.73438 170.521 9.67188 170.65C9.61328 170.779 9.58398 170.926 9.58398 171.09C9.58398 171.246 9.60938 171.391 9.66016 171.523C9.71484 171.656 9.79492 171.77 9.90039 171.863C10.0059 171.961 10.1387 172.037 10.2988 172.092C10.459 172.146 10.6445 172.174 10.8555 172.174ZM15.8125 173V166.66H16.7852L16.8613 167.598C16.9551 167.465 17.0566 167.344 17.166 167.234C17.2793 167.121 17.3984 167.023 17.5234 166.941C17.7109 166.816 17.9141 166.721 18.1328 166.654C18.3555 166.584 18.5898 166.547 18.8359 166.543C19.168 166.543 19.4688 166.59 19.7383 166.684C20.0117 166.777 20.2441 166.924 20.4355 167.123C20.627 167.322 20.7734 167.576 20.875 167.885C20.9805 168.189 21.0332 168.553 21.0332 168.975V173H19.9492V168.998C19.9492 168.717 19.918 168.479 19.8555 168.283C19.793 168.088 19.7012 167.93 19.5801 167.809C19.4551 167.688 19.3027 167.6 19.123 167.545C18.9473 167.49 18.7441 167.463 18.5137 167.463C18.3145 167.463 18.1289 167.492 17.957 167.551C17.7852 167.605 17.627 167.682 17.4824 167.779C17.3652 167.865 17.2559 167.965 17.1543 168.078C17.0566 168.191 16.9707 168.316 16.8965 168.453V173H15.8125ZM35.582 169.736C35.582 170.279 35.5195 170.762 35.3945 171.184C35.2695 171.602 35.0898 171.953 34.8555 172.238C34.6211 172.527 34.334 172.746 33.9941 172.895C33.6543 173.043 33.2656 173.117 32.8281 173.117C32.3945 173.117 32.0059 173.045 31.6621 172.9C31.3184 172.752 31.0273 172.531 30.7891 172.238C30.5508 171.953 30.3691 171.602 30.2441 171.184C30.1191 170.762 30.0566 170.279 30.0566 169.736V167.738C30.0566 167.195 30.1191 166.715 30.2441 166.297C30.3691 165.875 30.5508 165.52 30.7891 165.23C31.0234 164.941 31.3105 164.723 31.6504 164.574C31.9941 164.422 32.3828 164.346 32.8164 164.346C33.2539 164.346 33.6426 164.422 33.9824 164.574C34.3262 164.723 34.6172 164.941 34.8555 165.23C35.0898 165.52 35.2695 165.875 35.3945 166.297C35.5195 166.715 35.582 167.195 35.582 167.738V169.736ZM31.1465 169.52L34.4688 166.971C34.4375 166.689 34.3809 166.441 34.2988 166.227C34.2207 166.008 34.1133 165.826 33.9766 165.682C33.8438 165.533 33.6797 165.422 33.4844 165.348C33.293 165.273 33.0703 165.236 32.8164 165.236C32.5586 165.236 32.3301 165.277 32.1309 165.359C31.9355 165.438 31.7695 165.553 31.6328 165.705C31.4688 165.896 31.3457 166.145 31.2637 166.449C31.1855 166.75 31.1465 167.1 31.1465 167.498V168.928C31.1465 169.025 31.1465 169.123 31.1465 169.221C31.1465 169.318 31.1465 169.418 31.1465 169.52ZM34.4922 169.965V168.758C34.4922 168.699 34.4922 168.588 34.4922 168.424C34.4922 168.256 34.4922 168.117 34.4922 168.008L31.1758 170.545C31.2109 170.83 31.2734 171.082 31.3633 171.301C31.4531 171.516 31.5703 171.693 31.7148 171.834C31.8477 171.967 32.0078 172.068 32.1953 172.139C32.3828 172.205 32.5938 172.238 32.8281 172.238C33.0742 172.238 33.293 172.201 33.4844 172.127C33.6758 172.053 33.8379 171.945 33.9707 171.805C34.1504 171.613 34.2812 171.363 34.3633 171.055C34.4492 170.746 34.4922 170.383 34.4922 169.965ZM40.9492 173H39.8652V165.852L37.6328 166.701V165.711L40.8613 164.469H40.9492V173Z" fill="#EEF5FC"/>
<path d="M102.4 164.469H103.508V170.404C103.5 170.799 103.424 171.162 103.279 171.494C103.139 171.826 102.945 172.111 102.699 172.35C102.453 172.592 102.162 172.781 101.826 172.918C101.494 173.051 101.131 173.117 100.736 173.117C100.338 173.117 99.9746 173.057 99.6465 172.936C99.3223 172.814 99.041 172.641 98.8027 172.414C98.5605 172.191 98.3672 171.922 98.2227 171.605C98.0781 171.285 97.9883 170.928 97.9531 170.533H99.0547C99.0664 170.771 99.1133 170.992 99.1953 171.195C99.2812 171.398 99.3965 171.574 99.541 171.723C99.6855 171.875 99.8574 171.992 100.057 172.074C100.26 172.156 100.486 172.197 100.736 172.197C100.994 172.197 101.225 172.15 101.428 172.057C101.631 171.959 101.805 171.828 101.949 171.664C102.09 171.5 102.197 171.311 102.271 171.096C102.35 170.877 102.393 170.646 102.4 170.404V164.469ZM109.771 173C109.729 172.918 109.693 172.816 109.666 172.695C109.643 172.57 109.625 172.441 109.613 172.309C109.504 172.418 109.381 172.521 109.244 172.619C109.111 172.717 108.965 172.803 108.805 172.877C108.641 172.951 108.467 173.01 108.283 173.053C108.1 173.096 107.904 173.117 107.697 173.117C107.361 173.117 107.057 173.068 106.783 172.971C106.514 172.873 106.285 172.74 106.098 172.572C105.906 172.408 105.758 172.213 105.652 171.986C105.551 171.756 105.5 171.508 105.5 171.242C105.5 170.895 105.568 170.59 105.705 170.328C105.846 170.066 106.043 169.848 106.297 169.672C106.551 169.5 106.855 169.371 107.211 169.285C107.57 169.199 107.971 169.156 108.412 169.156H109.596V168.658C109.596 168.467 109.561 168.295 109.49 168.143C109.42 167.99 109.32 167.859 109.191 167.75C109.062 167.645 108.904 167.562 108.717 167.504C108.533 167.445 108.326 167.416 108.096 167.416C107.881 167.416 107.688 167.443 107.516 167.498C107.348 167.553 107.205 167.625 107.088 167.715C106.971 167.805 106.879 167.912 106.812 168.037C106.75 168.158 106.719 168.285 106.719 168.418H105.629C105.633 168.188 105.691 167.961 105.805 167.738C105.922 167.516 106.09 167.314 106.309 167.135C106.523 166.959 106.785 166.816 107.094 166.707C107.406 166.598 107.76 166.543 108.154 166.543C108.514 166.543 108.848 166.588 109.156 166.678C109.465 166.764 109.732 166.895 109.959 167.07C110.182 167.25 110.357 167.473 110.486 167.738C110.615 168.004 110.68 168.314 110.68 168.67V171.617C110.68 171.828 110.699 172.053 110.738 172.291C110.777 172.525 110.832 172.73 110.902 172.906V173H109.771ZM107.855 172.174C108.066 172.174 108.264 172.146 108.447 172.092C108.631 172.037 108.799 171.965 108.951 171.875C109.1 171.785 109.229 171.684 109.338 171.57C109.447 171.453 109.533 171.332 109.596 171.207V169.924H108.588C108.213 169.924 107.885 169.957 107.604 170.023C107.326 170.086 107.105 170.184 106.941 170.316C106.824 170.41 106.734 170.521 106.672 170.65C106.613 170.779 106.584 170.926 106.584 171.09C106.584 171.246 106.609 171.391 106.66 171.523C106.715 171.656 106.795 171.77 106.9 171.863C107.006 171.961 107.139 172.037 107.299 172.092C107.459 172.146 107.645 172.174 107.855 172.174ZM112.812 173V166.66H113.785L113.861 167.598C113.955 167.465 114.057 167.344 114.166 167.234C114.279 167.121 114.398 167.023 114.523 166.941C114.711 166.816 114.914 166.721 115.133 166.654C115.355 166.584 115.59 166.547 115.836 166.543C116.168 166.543 116.469 166.59 116.738 166.684C117.012 166.777 117.244 166.924 117.436 167.123C117.627 167.322 117.773 167.576 117.875 167.885C117.98 168.189 118.033 168.553 118.033 168.975V173H116.949V168.998C116.949 168.717 116.918 168.479 116.855 168.283C116.793 168.088 116.701 167.93 116.58 167.809C116.455 167.688 116.303 167.6 116.123 167.545C115.947 167.49 115.744 167.463 115.514 167.463C115.314 167.463 115.129 167.492 114.957 167.551C114.785 167.605 114.627 167.682 114.482 167.779C114.365 167.865 114.256 167.965 114.154 168.078C114.057 168.191 113.971 168.316 113.896 168.453V173H112.812ZM132.582 169.736C132.582 170.279 132.52 170.762 132.395 171.184C132.27 171.602 132.09 171.953 131.855 172.238C131.621 172.527 131.334 172.746 130.994 172.895C130.654 173.043 130.266 173.117 129.828 173.117C129.395 173.117 129.006 173.045 128.662 172.9C128.318 172.752 128.027 172.531 127.789 172.238C127.551 171.953 127.369 171.602 127.244 171.184C127.119 170.762 127.057 170.279 127.057 169.736V167.738C127.057 167.195 127.119 166.715 127.244 166.297C127.369 165.875 127.551 165.52 127.789 165.23C128.023 164.941 128.311 164.723 128.65 164.574C128.994 164.422 129.383 164.346 129.816 164.346C130.254 164.346 130.643 164.422 130.982 164.574C131.326 164.723 131.617 164.941 131.855 165.23C132.09 165.52 132.27 165.875 132.395 166.297C132.52 166.715 132.582 167.195 132.582 167.738V169.736ZM128.146 169.52L131.469 166.971C131.438 166.689 131.381 166.441 131.299 166.227C131.221 166.008 131.113 165.826 130.977 165.682C130.844 165.533 130.68 165.422 130.484 165.348C130.293 165.273 130.07 165.236 129.816 165.236C129.559 165.236 129.33 165.277 129.131 165.359C128.936 165.438 128.77 165.553 128.633 165.705C128.469 165.896 128.346 166.145 128.264 166.449C128.186 166.75 128.146 167.1 128.146 167.498V168.928C128.146 169.025 128.146 169.123 128.146 169.221C128.146 169.318 128.146 169.418 128.146 169.52ZM131.492 169.965V168.758C131.492 168.699 131.492 168.588 131.492 168.424C131.492 168.256 131.492 168.117 131.492 168.008L128.176 170.545C128.211 170.83 128.273 171.082 128.363 171.301C128.453 171.516 128.57 171.693 128.715 171.834C128.848 171.967 129.008 172.068 129.195 172.139C129.383 172.205 129.594 172.238 129.828 172.238C130.074 172.238 130.293 172.201 130.484 172.127C130.676 172.053 130.838 171.945 130.971 171.805C131.15 171.613 131.281 171.363 131.363 171.055C131.449 170.746 131.492 170.383 131.492 169.965ZM135.699 168.213H136.473C136.746 168.213 136.986 168.176 137.193 168.102C137.404 168.027 137.582 167.926 137.727 167.797C137.867 167.668 137.975 167.514 138.049 167.334C138.123 167.154 138.16 166.957 138.16 166.742C138.16 166.488 138.127 166.268 138.061 166.08C137.994 165.889 137.896 165.73 137.768 165.605C137.643 165.484 137.486 165.395 137.299 165.336C137.115 165.273 136.904 165.242 136.666 165.242C136.436 165.242 136.225 165.277 136.033 165.348C135.846 165.414 135.686 165.512 135.553 165.641C135.416 165.77 135.311 165.924 135.236 166.104C135.162 166.283 135.125 166.484 135.125 166.707H134.035C134.035 166.383 134.098 166.078 134.223 165.793C134.352 165.504 134.531 165.252 134.762 165.037C134.992 164.826 135.268 164.66 135.588 164.539C135.912 164.414 136.271 164.352 136.666 164.352C137.049 164.352 137.398 164.404 137.715 164.51C138.031 164.611 138.303 164.764 138.529 164.967C138.756 165.17 138.932 165.422 139.057 165.723C139.182 166.023 139.244 166.371 139.244 166.766C139.244 166.93 139.219 167.1 139.168 167.275C139.117 167.451 139.039 167.621 138.934 167.785C138.828 167.953 138.691 168.111 138.523 168.26C138.359 168.404 138.162 168.525 137.932 168.623C138.209 168.713 138.439 168.83 138.623 168.975C138.811 169.119 138.961 169.281 139.074 169.461C139.184 169.641 139.26 169.83 139.303 170.029C139.35 170.229 139.373 170.426 139.373 170.621C139.373 171.02 139.305 171.373 139.168 171.682C139.031 171.99 138.842 172.25 138.6 172.461C138.357 172.676 138.07 172.84 137.738 172.953C137.41 173.062 137.055 173.117 136.672 173.117C136.297 173.117 135.943 173.064 135.611 172.959C135.283 172.854 134.998 172.699 134.756 172.496C134.514 172.293 134.32 172.045 134.176 171.752C134.035 171.459 133.965 171.125 133.965 170.75H135.049C135.049 170.973 135.086 171.176 135.16 171.359C135.238 171.543 135.348 171.699 135.488 171.828C135.629 171.957 135.799 172.057 135.998 172.127C136.201 172.197 136.426 172.232 136.672 172.232C136.918 172.232 137.141 172.201 137.34 172.139C137.539 172.072 137.709 171.973 137.85 171.84C137.99 171.707 138.098 171.543 138.172 171.348C138.25 171.148 138.289 170.914 138.289 170.645C138.289 170.379 138.244 170.15 138.154 169.959C138.068 169.764 137.947 169.602 137.791 169.473C137.631 169.344 137.438 169.248 137.211 169.186C136.988 169.123 136.742 169.092 136.473 169.092H135.699V168.213Z" fill="#EEF5FC"/>
<path d="M203.4 164.469H204.508V170.404C204.5 170.799 204.424 171.162 204.279 171.494C204.139 171.826 203.945 172.111 203.699 172.35C203.453 172.592 203.162 172.781 202.826 172.918C202.494 173.051 202.131 173.117 201.736 173.117C201.338 173.117 200.975 173.057 200.646 172.936C200.322 172.814 200.041 172.641 199.803 172.414C199.561 172.191 199.367 171.922 199.223 171.605C199.078 171.285 198.988 170.928 198.953 170.533H200.055C200.066 170.771 200.113 170.992 200.195 171.195C200.281 171.398 200.396 171.574 200.541 171.723C200.686 171.875 200.857 171.992 201.057 172.074C201.26 172.156 201.486 172.197 201.736 172.197C201.994 172.197 202.225 172.15 202.428 172.057C202.631 171.959 202.805 171.828 202.949 171.664C203.09 171.5 203.197 171.311 203.271 171.096C203.35 170.877 203.393 170.646 203.4 170.404V164.469ZM210.771 173C210.729 172.918 210.693 172.816 210.666 172.695C210.643 172.57 210.625 172.441 210.613 172.309C210.504 172.418 210.381 172.521 210.244 172.619C210.111 172.717 209.965 172.803 209.805 172.877C209.641 172.951 209.467 173.01 209.283 173.053C209.1 173.096 208.904 173.117 208.697 173.117C208.361 173.117 208.057 173.068 207.783 172.971C207.514 172.873 207.285 172.74 207.098 172.572C206.906 172.408 206.758 172.213 206.652 171.986C206.551 171.756 206.5 171.508 206.5 171.242C206.5 170.895 206.568 170.59 206.705 170.328C206.846 170.066 207.043 169.848 207.297 169.672C207.551 169.5 207.855 169.371 208.211 169.285C208.57 169.199 208.971 169.156 209.412 169.156H210.596V168.658C210.596 168.467 210.561 168.295 210.49 168.143C210.42 167.99 210.32 167.859 210.191 167.75C210.062 167.645 209.904 167.562 209.717 167.504C209.533 167.445 209.326 167.416 209.096 167.416C208.881 167.416 208.688 167.443 208.516 167.498C208.348 167.553 208.205 167.625 208.088 167.715C207.971 167.805 207.879 167.912 207.812 168.037C207.75 168.158 207.719 168.285 207.719 168.418H206.629C206.633 168.188 206.691 167.961 206.805 167.738C206.922 167.516 207.09 167.314 207.309 167.135C207.523 166.959 207.785 166.816 208.094 166.707C208.406 166.598 208.76 166.543 209.154 166.543C209.514 166.543 209.848 166.588 210.156 166.678C210.465 166.764 210.732 166.895 210.959 167.07C211.182 167.25 211.357 167.473 211.486 167.738C211.615 168.004 211.68 168.314 211.68 168.67V171.617C211.68 171.828 211.699 172.053 211.738 172.291C211.777 172.525 211.832 172.73 211.902 172.906V173H210.771ZM208.855 172.174C209.066 172.174 209.264 172.146 209.447 172.092C209.631 172.037 209.799 171.965 209.951 171.875C210.1 171.785 210.229 171.684 210.338 171.57C210.447 171.453 210.533 171.332 210.596 171.207V169.924H209.588C209.213 169.924 208.885 169.957 208.604 170.023C208.326 170.086 208.105 170.184 207.941 170.316C207.824 170.41 207.734 170.521 207.672 170.65C207.613 170.779 207.584 170.926 207.584 171.09C207.584 171.246 207.609 171.391 207.66 171.523C207.715 171.656 207.795 171.77 207.9 171.863C208.006 171.961 208.139 172.037 208.299 172.092C208.459 172.146 208.645 172.174 208.855 172.174ZM213.812 173V166.66H214.785L214.861 167.598C214.955 167.465 215.057 167.344 215.166 167.234C215.279 167.121 215.398 167.023 215.523 166.941C215.711 166.816 215.914 166.721 216.133 166.654C216.355 166.584 216.59 166.547 216.836 166.543C217.168 166.543 217.469 166.59 217.738 166.684C218.012 166.777 218.244 166.924 218.436 167.123C218.627 167.322 218.773 167.576 218.875 167.885C218.98 168.189 219.033 168.553 219.033 168.975V173H217.949V168.998C217.949 168.717 217.918 168.479 217.855 168.283C217.793 168.088 217.701 167.93 217.58 167.809C217.455 167.688 217.303 167.6 217.123 167.545C216.947 167.49 216.744 167.463 216.514 167.463C216.314 167.463 216.129 167.492 215.957 167.551C215.785 167.605 215.627 167.682 215.482 167.779C215.365 167.865 215.256 167.965 215.154 168.078C215.057 168.191 214.971 168.316 214.896 168.453V173H213.812ZM233.582 169.736C233.582 170.279 233.52 170.762 233.395 171.184C233.27 171.602 233.09 171.953 232.855 172.238C232.621 172.527 232.334 172.746 231.994 172.895C231.654 173.043 231.266 173.117 230.828 173.117C230.395 173.117 230.006 173.045 229.662 172.9C229.318 172.752 229.027 172.531 228.789 172.238C228.551 171.953 228.369 171.602 228.244 171.184C228.119 170.762 228.057 170.279 228.057 169.736V167.738C228.057 167.195 228.119 166.715 228.244 166.297C228.369 165.875 228.551 165.52 228.789 165.23C229.023 164.941 229.311 164.723 229.65 164.574C229.994 164.422 230.383 164.346 230.816 164.346C231.254 164.346 231.643 164.422 231.982 164.574C232.326 164.723 232.617 164.941 232.855 165.23C233.09 165.52 233.27 165.875 233.395 166.297C233.52 166.715 233.582 167.195 233.582 167.738V169.736ZM229.146 169.52L232.469 166.971C232.438 166.689 232.381 166.441 232.299 166.227C232.221 166.008 232.113 165.826 231.977 165.682C231.844 165.533 231.68 165.422 231.484 165.348C231.293 165.273 231.07 165.236 230.816 165.236C230.559 165.236 230.33 165.277 230.131 165.359C229.936 165.438 229.77 165.553 229.633 165.705C229.469 165.896 229.346 166.145 229.264 166.449C229.186 166.75 229.146 167.1 229.146 167.498V168.928C229.146 169.025 229.146 169.123 229.146 169.221C229.146 169.318 229.146 169.418 229.146 169.52ZM232.492 169.965V168.758C232.492 168.699 232.492 168.588 232.492 168.424C232.492 168.256 232.492 168.117 232.492 168.008L229.176 170.545C229.211 170.83 229.273 171.082 229.363 171.301C229.453 171.516 229.57 171.693 229.715 171.834C229.848 171.967 230.008 172.068 230.195 172.139C230.383 172.205 230.594 172.238 230.828 172.238C231.074 172.238 231.293 172.201 231.484 172.127C231.676 172.053 231.838 171.945 231.971 171.805C232.15 171.613 232.281 171.363 232.363 171.055C232.449 170.746 232.492 170.383 232.492 169.965ZM235.82 168.723L236.248 164.469H240.625V165.523H237.162L236.922 167.797C237.09 167.699 237.291 167.613 237.525 167.539C237.76 167.465 238.031 167.428 238.34 167.428C238.734 167.428 239.088 167.496 239.4 167.633C239.713 167.77 239.979 167.961 240.197 168.207C240.416 168.457 240.584 168.758 240.701 169.109C240.818 169.461 240.877 169.852 240.877 170.281C240.877 170.688 240.822 171.064 240.713 171.412C240.604 171.76 240.439 172.059 240.221 172.309C239.998 172.562 239.719 172.762 239.383 172.906C239.047 173.047 238.652 173.117 238.199 173.117C237.852 173.117 237.523 173.068 237.215 172.971C236.906 172.873 236.633 172.727 236.395 172.531C236.152 172.336 235.953 172.09 235.797 171.793C235.645 171.496 235.549 171.15 235.51 170.756H236.541C236.607 171.24 236.785 171.607 237.074 171.857C237.367 172.107 237.742 172.232 238.199 172.232C238.457 172.232 238.686 172.188 238.885 172.098C239.084 172.004 239.252 171.871 239.389 171.699C239.521 171.531 239.621 171.328 239.688 171.09C239.758 170.852 239.793 170.586 239.793 170.293C239.793 170.027 239.754 169.779 239.676 169.549C239.602 169.318 239.492 169.117 239.348 168.945C239.203 168.777 239.025 168.645 238.814 168.547C238.604 168.449 238.361 168.4 238.088 168.4C237.908 168.4 237.752 168.414 237.619 168.441C237.49 168.465 237.373 168.5 237.268 168.547C237.162 168.594 237.062 168.65 236.969 168.717C236.879 168.783 236.785 168.859 236.688 168.945L235.82 168.723Z" fill="#EEF5FC"/>
<path d="M303.4 164.469H304.508V170.404C304.5 170.799 304.424 171.162 304.279 171.494C304.139 171.826 303.945 172.111 303.699 172.35C303.453 172.592 303.162 172.781 302.826 172.918C302.494 173.051 302.131 173.117 301.736 173.117C301.338 173.117 300.975 173.057 300.646 172.936C300.322 172.814 300.041 172.641 299.803 172.414C299.561 172.191 299.367 171.922 299.223 171.605C299.078 171.285 298.988 170.928 298.953 170.533H300.055C300.066 170.771 300.113 170.992 300.195 171.195C300.281 171.398 300.396 171.574 300.541 171.723C300.686 171.875 300.857 171.992 301.057 172.074C301.26 172.156 301.486 172.197 301.736 172.197C301.994 172.197 302.225 172.15 302.428 172.057C302.631 171.959 302.805 171.828 302.949 171.664C303.09 171.5 303.197 171.311 303.271 171.096C303.35 170.877 303.393 170.646 303.4 170.404V164.469ZM310.771 173C310.729 172.918 310.693 172.816 310.666 172.695C310.643 172.57 310.625 172.441 310.613 172.309C310.504 172.418 310.381 172.521 310.244 172.619C310.111 172.717 309.965 172.803 309.805 172.877C309.641 172.951 309.467 173.01 309.283 173.053C309.1 173.096 308.904 173.117 308.697 173.117C308.361 173.117 308.057 173.068 307.783 172.971C307.514 172.873 307.285 172.74 307.098 172.572C306.906 172.408 306.758 172.213 306.652 171.986C306.551 171.756 306.5 171.508 306.5 171.242C306.5 170.895 306.568 170.59 306.705 170.328C306.846 170.066 307.043 169.848 307.297 169.672C307.551 169.5 307.855 169.371 308.211 169.285C308.57 169.199 308.971 169.156 309.412 169.156H310.596V168.658C310.596 168.467 310.561 168.295 310.49 168.143C310.42 167.99 310.32 167.859 310.191 167.75C310.062 167.645 309.904 167.562 309.717 167.504C309.533 167.445 309.326 167.416 309.096 167.416C308.881 167.416 308.688 167.443 308.516 167.498C308.348 167.553 308.205 167.625 308.088 167.715C307.971 167.805 307.879 167.912 307.812 168.037C307.75 168.158 307.719 168.285 307.719 168.418H306.629C306.633 168.188 306.691 167.961 306.805 167.738C306.922 167.516 307.09 167.314 307.309 167.135C307.523 166.959 307.785 166.816 308.094 166.707C308.406 166.598 308.76 166.543 309.154 166.543C309.514 166.543 309.848 166.588 310.156 166.678C310.465 166.764 310.732 166.895 310.959 167.07C311.182 167.25 311.357 167.473 311.486 167.738C311.615 168.004 311.68 168.314 311.68 168.67V171.617C311.68 171.828 311.699 172.053 311.738 172.291C311.777 172.525 311.832 172.73 311.902 172.906V173H310.771ZM308.855 172.174C309.066 172.174 309.264 172.146 309.447 172.092C309.631 172.037 309.799 171.965 309.951 171.875C310.1 171.785 310.229 171.684 310.338 171.57C310.447 171.453 310.533 171.332 310.596 171.207V169.924H309.588C309.213 169.924 308.885 169.957 308.604 170.023C308.326 170.086 308.105 170.184 307.941 170.316C307.824 170.41 307.734 170.521 307.672 170.65C307.613 170.779 307.584 170.926 307.584 171.09C307.584 171.246 307.609 171.391 307.66 171.523C307.715 171.656 307.795 171.77 307.9 171.863C308.006 171.961 308.139 172.037 308.299 172.092C308.459 172.146 308.645 172.174 308.855 172.174ZM313.812 173V166.66H314.785L314.861 167.598C314.955 167.465 315.057 167.344 315.166 167.234C315.279 167.121 315.398 167.023 315.523 166.941C315.711 166.816 315.914 166.721 316.133 166.654C316.355 166.584 316.59 166.547 316.836 166.543C317.168 166.543 317.469 166.59 317.738 166.684C318.012 166.777 318.244 166.924 318.436 167.123C318.627 167.322 318.773 167.576 318.875 167.885C318.98 168.189 319.033 168.553 319.033 168.975V173H317.949V168.998C317.949 168.717 317.918 168.479 317.855 168.283C317.793 168.088 317.701 167.93 317.58 167.809C317.455 167.688 317.303 167.6 317.123 167.545C316.947 167.49 316.744 167.463 316.514 167.463C316.314 167.463 316.129 167.492 315.957 167.551C315.785 167.605 315.627 167.682 315.482 167.779C315.365 167.865 315.256 167.965 315.154 168.078C315.057 168.191 314.971 168.316 314.896 168.453V173H313.812ZM333.582 169.736C333.582 170.279 333.52 170.762 333.395 171.184C333.27 171.602 333.09 171.953 332.855 172.238C332.621 172.527 332.334 172.746 331.994 172.895C331.654 173.043 331.266 173.117 330.828 173.117C330.395 173.117 330.006 173.045 329.662 172.9C329.318 172.752 329.027 172.531 328.789 172.238C328.551 171.953 328.369 171.602 328.244 171.184C328.119 170.762 328.057 170.279 328.057 169.736V167.738C328.057 167.195 328.119 166.715 328.244 166.297C328.369 165.875 328.551 165.52 328.789 165.23C329.023 164.941 329.311 164.723 329.65 164.574C329.994 164.422 330.383 164.346 330.816 164.346C331.254 164.346 331.643 164.422 331.982 164.574C332.326 164.723 332.617 164.941 332.855 165.23C333.09 165.52 333.27 165.875 333.395 166.297C333.52 166.715 333.582 167.195 333.582 167.738V169.736ZM329.146 169.52L332.469 166.971C332.438 166.689 332.381 166.441 332.299 166.227C332.221 166.008 332.113 165.826 331.977 165.682C331.844 165.533 331.68 165.422 331.484 165.348C331.293 165.273 331.07 165.236 330.816 165.236C330.559 165.236 330.33 165.277 330.131 165.359C329.936 165.438 329.77 165.553 329.633 165.705C329.469 165.896 329.346 166.145 329.264 166.449C329.186 166.75 329.146 167.1 329.146 167.498V168.928C329.146 169.025 329.146 169.123 329.146 169.221C329.146 169.318 329.146 169.418 329.146 169.52ZM332.492 169.965V168.758C332.492 168.699 332.492 168.588 332.492 168.424C332.492 168.256 332.492 168.117 332.492 168.008L329.176 170.545C329.211 170.83 329.273 171.082 329.363 171.301C329.453 171.516 329.57 171.693 329.715 171.834C329.848 171.967 330.008 172.068 330.195 172.139C330.383 172.205 330.594 172.238 330.828 172.238C331.074 172.238 331.293 172.201 331.484 172.127C331.676 172.053 331.838 171.945 331.971 171.805C332.15 171.613 332.281 171.363 332.363 171.055C332.449 170.746 332.492 170.383 332.492 169.965ZM340.836 165.078L337.303 173H336.166L339.688 165.418H335.07V164.469H340.836V165.078Z" fill="#EEF5FC"/>
<path d="M403.4 164.469H404.508V170.404C404.5 170.799 404.424 171.162 404.279 171.494C404.139 171.826 403.945 172.111 403.699 172.35C403.453 172.592 403.162 172.781 402.826 172.918C402.494 173.051 402.131 173.117 401.736 173.117C401.338 173.117 400.975 173.057 400.646 172.936C400.322 172.814 400.041 172.641 399.803 172.414C399.561 172.191 399.367 171.922 399.223 171.605C399.078 171.285 398.988 170.928 398.953 170.533H400.055C400.066 170.771 400.113 170.992 400.195 171.195C400.281 171.398 400.396 171.574 400.541 171.723C400.686 171.875 400.857 171.992 401.057 172.074C401.26 172.156 401.486 172.197 401.736 172.197C401.994 172.197 402.225 172.15 402.428 172.057C402.631 171.959 402.805 171.828 402.949 171.664C403.09 171.5 403.197 171.311 403.271 171.096C403.35 170.877 403.393 170.646 403.4 170.404V164.469ZM410.771 173C410.729 172.918 410.693 172.816 410.666 172.695C410.643 172.57 410.625 172.441 410.613 172.309C410.504 172.418 410.381 172.521 410.244 172.619C410.111 172.717 409.965 172.803 409.805 172.877C409.641 172.951 409.467 173.01 409.283 173.053C409.1 173.096 408.904 173.117 408.697 173.117C408.361 173.117 408.057 173.068 407.783 172.971C407.514 172.873 407.285 172.74 407.098 172.572C406.906 172.408 406.758 172.213 406.652 171.986C406.551 171.756 406.5 171.508 406.5 171.242C406.5 170.895 406.568 170.59 406.705 170.328C406.846 170.066 407.043 169.848 407.297 169.672C407.551 169.5 407.855 169.371 408.211 169.285C408.57 169.199 408.971 169.156 409.412 169.156H410.596V168.658C410.596 168.467 410.561 168.295 410.49 168.143C410.42 167.99 410.32 167.859 410.191 167.75C410.062 167.645 409.904 167.562 409.717 167.504C409.533 167.445 409.326 167.416 409.096 167.416C408.881 167.416 408.688 167.443 408.516 167.498C408.348 167.553 408.205 167.625 408.088 167.715C407.971 167.805 407.879 167.912 407.812 168.037C407.75 168.158 407.719 168.285 407.719 168.418H406.629C406.633 168.188 406.691 167.961 406.805 167.738C406.922 167.516 407.09 167.314 407.309 167.135C407.523 166.959 407.785 166.816 408.094 166.707C408.406 166.598 408.76 166.543 409.154 166.543C409.514 166.543 409.848 166.588 410.156 166.678C410.465 166.764 410.732 166.895 410.959 167.07C411.182 167.25 411.357 167.473 411.486 167.738C411.615 168.004 411.68 168.314 411.68 168.67V171.617C411.68 171.828 411.699 172.053 411.738 172.291C411.777 172.525 411.832 172.73 411.902 172.906V173H410.771ZM408.855 172.174C409.066 172.174 409.264 172.146 409.447 172.092C409.631 172.037 409.799 171.965 409.951 171.875C410.1 171.785 410.229 171.684 410.338 171.57C410.447 171.453 410.533 171.332 410.596 171.207V169.924H409.588C409.213 169.924 408.885 169.957 408.604 170.023C408.326 170.086 408.105 170.184 407.941 170.316C407.824 170.41 407.734 170.521 407.672 170.65C407.613 170.779 407.584 170.926 407.584 171.09C407.584 171.246 407.609 171.391 407.66 171.523C407.715 171.656 407.795 171.77 407.9 171.863C408.006 171.961 408.139 172.037 408.299 172.092C408.459 172.146 408.645 172.174 408.855 172.174ZM413.812 173V166.66H414.785L414.861 167.598C414.955 167.465 415.057 167.344 415.166 167.234C415.279 167.121 415.398 167.023 415.523 166.941C415.711 166.816 415.914 166.721 416.133 166.654C416.355 166.584 416.59 166.547 416.836 166.543C417.168 166.543 417.469 166.59 417.738 166.684C418.012 166.777 418.244 166.924 418.436 167.123C418.627 167.322 418.773 167.576 418.875 167.885C418.98 168.189 419.033 168.553 419.033 168.975V173H417.949V168.998C417.949 168.717 417.918 168.479 417.855 168.283C417.793 168.088 417.701 167.93 417.58 167.809C417.455 167.688 417.303 167.6 417.123 167.545C416.947 167.49 416.744 167.463 416.514 167.463C416.314 167.463 416.129 167.492 415.957 167.551C415.785 167.605 415.627 167.682 415.482 167.779C415.365 167.865 415.256 167.965 415.154 168.078C415.057 168.191 414.971 168.316 414.896 168.453V173H413.812ZM433.582 169.736C433.582 170.279 433.52 170.762 433.395 171.184C433.27 171.602 433.09 171.953 432.855 172.238C432.621 172.527 432.334 172.746 431.994 172.895C431.654 173.043 431.266 173.117 430.828 173.117C430.395 173.117 430.006 173.045 429.662 172.9C429.318 172.752 429.027 172.531 428.789 172.238C428.551 171.953 428.369 171.602 428.244 171.184C428.119 170.762 428.057 170.279 428.057 169.736V167.738C428.057 167.195 428.119 166.715 428.244 166.297C428.369 165.875 428.551 165.52 428.789 165.23C429.023 164.941 429.311 164.723 429.65 164.574C429.994 164.422 430.383 164.346 430.816 164.346C431.254 164.346 431.643 164.422 431.982 164.574C432.326 164.723 432.617 164.941 432.855 165.23C433.09 165.52 433.27 165.875 433.395 166.297C433.52 166.715 433.582 167.195 433.582 167.738V169.736ZM429.146 169.52L432.469 166.971C432.438 166.689 432.381 166.441 432.299 166.227C432.221 166.008 432.113 165.826 431.977 165.682C431.844 165.533 431.68 165.422 431.484 165.348C431.293 165.273 431.07 165.236 430.816 165.236C430.559 165.236 430.33 165.277 430.131 165.359C429.936 165.438 429.77 165.553 429.633 165.705C429.469 165.896 429.346 166.145 429.264 166.449C429.186 166.75 429.146 167.1 429.146 167.498V168.928C429.146 169.025 429.146 169.123 429.146 169.221C429.146 169.318 429.146 169.418 429.146 169.52ZM432.492 169.965V168.758C432.492 168.699 432.492 168.588 432.492 168.424C432.492 168.256 432.492 168.117 432.492 168.008L429.176 170.545C429.211 170.83 429.273 171.082 429.363 171.301C429.453 171.516 429.57 171.693 429.715 171.834C429.848 171.967 430.008 172.068 430.195 172.139C430.383 172.205 430.594 172.238 430.828 172.238C431.074 172.238 431.293 172.201 431.484 172.127C431.676 172.053 431.838 171.945 431.971 171.805C432.15 171.613 432.281 171.363 432.363 171.055C432.449 170.746 432.492 170.383 432.492 169.965ZM436.6 172.039C437.146 172.039 437.602 171.975 437.965 171.846C438.332 171.713 438.627 171.527 438.85 171.289C439.119 170.996 439.301 170.682 439.395 170.346C439.488 170.01 439.545 169.662 439.564 169.303V169.291C439.471 169.408 439.363 169.52 439.242 169.625C439.121 169.727 438.984 169.816 438.832 169.895C438.68 169.973 438.51 170.035 438.322 170.082C438.139 170.125 437.938 170.146 437.719 170.146C437.297 170.146 436.932 170.064 436.623 169.9C436.318 169.732 436.066 169.514 435.867 169.244C435.668 168.975 435.521 168.67 435.428 168.33C435.334 167.99 435.287 167.648 435.287 167.305C435.287 166.902 435.342 166.523 435.451 166.168C435.564 165.809 435.732 165.494 435.955 165.225C436.174 164.959 436.447 164.748 436.775 164.592C437.107 164.432 437.492 164.352 437.93 164.352C438.367 164.352 438.746 164.434 439.066 164.598C439.391 164.758 439.662 164.971 439.881 165.236C440.139 165.549 440.332 165.939 440.461 166.408C440.59 166.873 440.654 167.338 440.654 167.803V168.195C440.654 168.855 440.584 169.52 440.443 170.188C440.303 170.852 440.002 171.441 439.541 171.957C439.264 172.27 438.879 172.523 438.387 172.719C437.898 172.91 437.303 173.006 436.6 173.006H436.488V172.039H436.6ZM437.895 169.25C438.078 169.25 438.256 169.221 438.428 169.162C438.604 169.1 438.766 169.012 438.914 168.898C439.059 168.789 439.188 168.66 439.301 168.512C439.418 168.359 439.51 168.191 439.576 168.008V167.656C439.576 167.277 439.531 166.939 439.441 166.643C439.355 166.346 439.238 166.094 439.09 165.887C438.938 165.684 438.762 165.527 438.562 165.418C438.367 165.309 438.158 165.254 437.936 165.254C437.682 165.254 437.457 165.305 437.262 165.406C437.066 165.508 436.902 165.646 436.77 165.822C436.633 166.002 436.529 166.215 436.459 166.461C436.389 166.703 436.354 166.965 436.354 167.246C436.354 167.496 436.385 167.742 436.447 167.984C436.51 168.223 436.605 168.436 436.734 168.623C436.859 168.811 437.018 168.963 437.209 169.08C437.404 169.193 437.633 169.25 437.895 169.25Z" fill="#EEF5FC"/>
<rect x="21" y="86" width="98" height="18" rx="7" fill="#38B873" stroke="#356F2A" stroke-width="2"/>
<rect x="169" y="86" width="250" height="18" rx="7" fill="#38B873" stroke="#356F2A" stroke-width="2"/>
<path d="M1.01367 15.4375V6.66016H2.00391L2.05664 7.35156C2.14258 7.24219 2.23633 7.14453 2.33789 7.05859C2.43945 6.96875 2.54883 6.89258 2.66602 6.83008C2.83008 6.73633 3.01172 6.66602 3.21094 6.61914C3.41406 6.56836 3.63086 6.54297 3.86133 6.54297C4.26758 6.54297 4.62695 6.62305 4.93945 6.7832C5.25195 6.94336 5.51367 7.16602 5.72461 7.45117C5.93555 7.73633 6.0957 8.07812 6.20508 8.47656C6.31445 8.87109 6.36914 9.30469 6.36914 9.77734V9.90039C6.36914 10.3535 6.31445 10.7773 6.20508 11.1719C6.0957 11.5625 5.93555 11.9023 5.72461 12.1914C5.51367 12.4805 5.25195 12.707 4.93945 12.8711C4.63086 13.0352 4.27734 13.1172 3.87891 13.1172C3.63672 13.1172 3.41016 13.0918 3.19922 13.041C2.99219 12.9902 2.80469 12.918 2.63672 12.8242C2.53516 12.7656 2.43945 12.7012 2.34961 12.6309C2.25977 12.5566 2.17578 12.4766 2.09766 12.3906V15.4375H1.01367ZM5.28516 9.77734C5.28516 9.46875 5.25 9.17578 5.17969 8.89844C5.11328 8.61719 5.00977 8.36914 4.86914 8.1543C4.72461 7.94336 4.54297 7.77539 4.32422 7.65039C4.10547 7.52539 3.84375 7.46289 3.53906 7.46289C3.37109 7.46289 3.21484 7.48242 3.07031 7.52148C2.92969 7.56055 2.80273 7.61719 2.68945 7.69141C2.56445 7.76562 2.45312 7.85742 2.35547 7.9668C2.25781 8.07617 2.17188 8.19727 2.09766 8.33008V11.3828C2.16406 11.5 2.24023 11.6094 2.32617 11.7109C2.41211 11.8125 2.50977 11.8984 2.61914 11.9688C2.74414 12.0508 2.88281 12.1152 3.03516 12.1621C3.19141 12.209 3.36328 12.2324 3.55078 12.2324C3.85156 12.2324 4.11133 12.1699 4.33008 12.0449C4.54883 11.916 4.72852 11.7441 4.86914 11.5293C5.00977 11.3145 5.11328 11.0664 5.17969 10.7852C5.25 10.5039 5.28516 10.209 5.28516 9.90039V9.77734ZM9.31055 7.60352C9.39648 7.47461 9.49219 7.35742 9.59766 7.25195C9.70312 7.14258 9.81445 7.04688 9.93164 6.96484C10.1191 6.82812 10.3242 6.72461 10.5469 6.6543C10.7734 6.58398 11.0137 6.54688 11.2676 6.54297C11.5996 6.54297 11.9004 6.5918 12.1699 6.68945C12.4434 6.7832 12.6758 6.93164 12.8672 7.13477C13.0586 7.33789 13.2051 7.5957 13.3066 7.9082C13.4121 8.2168 13.4648 8.58398 13.4648 9.00977V13H12.3809V8.99805C12.3809 8.74805 12.3516 8.5293 12.293 8.3418C12.2344 8.15039 12.1484 7.99219 12.0352 7.86719C11.9141 7.73047 11.7617 7.62891 11.5781 7.5625C11.3945 7.49219 11.1836 7.45898 10.9453 7.46289C10.75 7.46289 10.5645 7.49023 10.3887 7.54492C10.2129 7.59961 10.0508 7.67773 9.90234 7.7793C9.78516 7.85742 9.67578 7.94922 9.57422 8.05469C9.47656 8.15625 9.38867 8.26953 9.31055 8.39453V13H8.22656V4H9.31055V7.60352ZM15.6035 6.66016H18.8438V12.0625H20.9121V13H15.6035V12.0625H17.7598V7.60352H15.6035V6.66016ZM17.6191 4.99609C17.6191 4.90234 17.6328 4.81445 17.6602 4.73242C17.6914 4.65039 17.7383 4.58008 17.8008 4.52148C17.8516 4.4707 17.916 4.43164 17.9941 4.4043C18.0762 4.37305 18.168 4.35742 18.2695 4.35742C18.3711 4.35742 18.4609 4.37305 18.5391 4.4043C18.6172 4.43164 18.6816 4.4707 18.7324 4.52148C18.7949 4.57617 18.8418 4.64453 18.873 4.72656C18.9043 4.80859 18.9199 4.89844 18.9199 4.99609C18.9199 5.17188 18.8652 5.31836 18.7559 5.43555C18.6465 5.55273 18.4844 5.61133 18.2695 5.61133C18.0508 5.61133 17.8867 5.55273 17.7773 5.43555C17.6719 5.31836 17.6191 5.17188 17.6191 4.99609ZM22.6406 13V6.66016H23.6133L23.6895 7.59766C23.7832 7.46484 23.8848 7.34375 23.9941 7.23438C24.1074 7.12109 24.2266 7.02344 24.3516 6.94141C24.5391 6.81641 24.7422 6.7207 24.9609 6.6543C25.1836 6.58398 25.418 6.54688 25.6641 6.54297C25.9961 6.54297 26.2969 6.58984 26.5664 6.68359C26.8398 6.77734 27.0723 6.92383 27.2637 7.12305C27.4551 7.32227 27.6016 7.57617 27.7031 7.88477C27.8086 8.18945 27.8613 8.55273 27.8613 8.97461V13H26.7773V8.99805C26.7773 8.7168 26.7461 8.47852 26.6836 8.2832C26.6211 8.08789 26.5293 7.92969 26.4082 7.80859C26.2832 7.6875 26.1309 7.59961 25.9512 7.54492C25.7754 7.49023 25.5723 7.46289 25.3418 7.46289C25.1426 7.46289 24.957 7.49219 24.7852 7.55078C24.6133 7.60547 24.4551 7.68164 24.3105 7.7793C24.1934 7.86523 24.084 7.96484 23.9824 8.07812C23.8848 8.19141 23.7988 8.31641 23.7246 8.45312V13H22.6406ZM32.4141 5.125V6.66016H34.8281V7.49805H32.4141V10.9434C32.4141 11.1895 32.4453 11.3926 32.5078 11.5527C32.5703 11.7129 32.6562 11.8398 32.7656 11.9336C32.875 12.0312 33 12.0996 33.1406 12.1387C33.2852 12.1777 33.4375 12.1973 33.5977 12.1973C33.7148 12.1973 33.8359 12.1914 33.9609 12.1797C34.0859 12.1641 34.209 12.1465 34.3301 12.127C34.4473 12.1074 34.5566 12.0879 34.6582 12.0684C34.7637 12.0449 34.8496 12.0254 34.916 12.0098L35.0684 12.7773C34.9785 12.832 34.8691 12.8809 34.7402 12.9238C34.6113 12.9629 34.4707 12.9961 34.3184 13.0234C34.166 13.0547 34.0039 13.0781 33.832 13.0938C33.6641 13.1094 33.4961 13.1172 33.3281 13.1172C33.0469 13.1172 32.7832 13.0781 32.5371 13C32.2949 12.918 32.084 12.7891 31.9043 12.6133C31.7246 12.4414 31.582 12.2188 31.4766 11.9453C31.375 11.668 31.3242 11.334 31.3242 10.9434V7.49805H29.6602V6.66016H31.3242V5.125H32.4141ZM40.8516 4.14062H39.5566V13.9375H40.8516V14.8281H38.5312V3.25H40.8516V4.14062ZM48.0586 4.14062H46.7637V13.9375H48.0586V14.8281H45.7383V3.25H48.0586V4.14062ZM54.9844 13H53.9004V5.85156L51.668 6.70117V5.71094L54.8965 4.46875H54.9844V13ZM60.0293 3.25H62.3555V14.8281H60.0293V13.9375H61.3301V4.14062H60.0293V3.25ZM67.2363 3.25H69.5625V14.8281H67.2363V13.9375H68.5371V4.14062H67.2363V3.25Z" fill="#EEF5FC"/>
<rect x="69" y="26" width="150" height="18" rx="7" fill="#38B873" stroke="#356F2A" stroke-width="2"/>
<line x1="20" y1="144" x2="420" y2="144" stroke="#EEF5FC" stroke-width="2"/>
<line x1="21" y1="154" x2="21" y2="134" stroke="#EEF5FC" stroke-width="2"/>
<line x1="69" y1="154" x2="69" y2="134" stroke="#EEF5FC" stroke-width="2"/>
<line x1="119" y1="154" x2="119" y2="134" stroke="#EEF5FC" stroke-width="2"/>
<line x1="119" y1="154" x2="119" y2="134" stroke="#EEF5FC" stroke-width="2"/>
<line x1="169" y1="154" x2="169" y2="134" stroke="#EEF5FC" stroke-width="2"/>
<line x1="219" y1="154" x2="219" y2="134" stroke="#EEF5FC" stroke-width="2"/>
<line x1="269" y1="154" x2="269" y2="134" stroke="#EEF5FC" stroke-width="2"/>
<line x1="319" y1="154" x2="319" y2="134" stroke="#EEF5FC" stroke-width="2"/>
<line x1="369" y1="154" x2="369" y2="134" stroke="#EEF5FC" stroke-width="2"/>
<line x1="419" y1="154" x2="419" y2="134" stroke="#EEF5FC" stroke-width="2"/>
<path d="M5.40039 164.469H6.50781V170.404C6.5 170.799 6.42383 171.162 6.2793 171.494C6.13867 171.826 5.94531 172.111 5.69922 172.35C5.45312 172.592 5.16211 172.781 4.82617 172.918C4.49414 173.051 4.13086 173.117 3.73633 173.117C3.33789 173.117 2.97461 173.057 2.64648 172.936C2.32227 172.814 2.04102 172.641 1.80273 172.414C1.56055 172.191 1.36719 171.922 1.22266 171.605C1.07812 171.285 0.988281 170.928 0.953125 170.533H2.05469C2.06641 170.771 2.11328 170.992 2.19531 171.195C2.28125 171.398 2.39648 171.574 2.54102 171.723C2.68555 171.875 2.85742 171.992 3.05664 172.074C3.25977 172.156 3.48633 172.197 3.73633 172.197C3.99414 172.197 4.22461 172.15 4.42773 172.057C4.63086 171.959 4.80469 171.828 4.94922 171.664C5.08984 171.5 5.19727 171.311 5.27148 171.096C5.34961 170.877 5.39258 170.646 5.40039 170.404V164.469ZM12.7715 173C12.7285 172.918 12.6934 172.816 12.666 172.695C12.6426 172.57 12.625 172.441 12.6133 172.309C12.5039 172.418 12.3809 172.521 12.2441 172.619C12.1113 172.717 11.9648 172.803 11.8047 172.877C11.6406 172.951 11.4668 173.01 11.2832 173.053C11.0996 173.096 10.9043 173.117 10.6973 173.117C10.3613 173.117 10.0566 173.068 9.7832 172.971C9.51367 172.873 9.28516 172.74 9.09766 172.572C8.90625 172.408 8.75781 172.213 8.65234 171.986C8.55078 171.756 8.5 171.508 8.5 171.242C8.5 170.895 8.56836 170.59 8.70508 170.328C8.8457 170.066 9.04297 169.848 9.29688 169.672C9.55078 169.5 9.85547 169.371 10.2109 169.285C10.5703 169.199 10.9707 169.156 11.4121 169.156H12.5957V168.658C12.5957 168.467 12.5605 168.295 12.4902 168.143C12.4199 167.99 12.3203 167.859 12.1914 167.75C12.0625 167.645 11.9043 167.562 11.7168 167.504C11.5332 167.445 11.3262 167.416 11.0957 167.416C10.8809 167.416 10.6875 167.443 10.5156 167.498C10.3477 167.553 10.2051 167.625 10.0879 167.715C9.9707 167.805 9.87891 167.912 9.8125 168.037C9.75 168.158 9.71875 168.285 9.71875 168.418H8.62891C8.63281 168.188 8.69141 167.961 8.80469 167.738C8.92188 167.516 9.08984 167.314 9.30859 167.135C9.52344 166.959 9.78516 166.816 10.0938 166.707C10.4062 166.598 10.7598 166.543 11.1543 166.543C11.5137 166.543 11.8477 166.588 12.1562 166.678C12.4648 166.764 12.7324 166.895 12.959 167.07C13.1816 167.25 13.3574 167.473 13.4863 167.738C13.6152 168.004 13.6797 168.314 13.6797 168.67V171.617C13.6797 171.828 13.6992 172.053 13.7383 172.291C13.7773 172.525 13.832 172.73 13.9023 172.906V173H12.7715ZM10.8555 172.174C11.0664 172.174 11.2637 172.146 11.4473 172.092C11.6309 172.037 11.7988 171.965 11.9512 171.875C12.0996 171.785 12.2285 171.684 12.3379 171.57C12.4473 171.453 12.5332 171.332 12.5957 171.207V169.924H11.5879C11.2129 169.924 10.8848 169.957 10.6035 170.023C10.3262 170.086 10.1055 170.184 9.94141 170.316C9.82422 170.41 9.73438 170.521 9.67188 170.65C9.61328 170.779 9.58398 170.926 9.58398 171.09C9.58398 171.246 9.60938 171.391 9.66016 171.523C9.71484 171.656 9.79492 171.77 9.90039 171.863C10.0059 171.961 10.1387 172.037 10.2988 172.092C10.459 172.146 10.6445 172.174 10.8555 172.174ZM15.8125 173V166.66H16.7852L16.8613 167.598C16.9551 167.465 17.0566 167.344 17.166 167.234C17.2793 167.121 17.3984 167.023 17.5234 166.941C17.7109 166.816 17.9141 166.721 18.1328 166.654C18.3555 166.584 18.5898 166.547 18.8359 166.543C19.168 166.543 19.4688 166.59 19.7383 166.684C20.0117 166.777 20.2441 166.924 20.4355 167.123C20.627 167.322 20.7734 167.576 20.875 167.885C20.9805 168.189 21.0332 168.553 21.0332 168.975V173H19.9492V168.998C19.9492 168.717 19.918 168.479 19.8555 168.283C19.793 168.088 19.7012 167.93 19.5801 167.809C19.4551 167.688 19.3027 167.6 19.123 167.545C18.9473 167.49 18.7441 167.463 18.5137 167.463C18.3145 167.463 18.1289 167.492 17.957 167.551C17.7852 167.605 17.627 167.682 17.4824 167.779C17.3652 167.865 17.2559 167.965 17.1543 168.078C17.0566 168.191 16.9707 168.316 16.8965 168.453V173H15.8125ZM35.582 169.736C35.582 170.279 35.5195 170.762 35.3945 171.184C35.2695 171.602 35.0898 171.953 34.8555 172.238C34.6211 172.527 34.334 172.746 33.9941 172.895C33.6543 173.043 33.2656 173.117 32.8281 173.117C32.3945 173.117 32.0059 173.045 31.6621 172.9C31.3184 172.752 31.0273 172.531 30.7891 172.238C30.5508 171.953 30.3691 171.602 30.2441 171.184C30.1191 170.762 30.0566 170.279 30.0566 169.736V167.738C30.0566 167.195 30.1191 166.715 30.2441 166.297C30.3691 165.875 30.5508 165.52 30.7891 165.23C31.0234 164.941 31.3105 164.723 31.6504 164.574C31.9941 164.422 32.3828 164.346 32.8164 164.346C33.2539 164.346 33.6426 164.422 33.9824 164.574C34.3262 164.723 34.6172 164.941 34.8555 165.23C35.0898 165.52 35.2695 165.875 35.3945 166.297C35.5195 166.715 35.582 167.195 35.582 167.738V169.736ZM31.1465 169.52L34.4688 166.971C34.4375 166.689 34.3809 166.441 34.2988 166.227C34.2207 166.008 34.1133 165.826 33.9766 165.682C33.8438 165.533 33.6797 165.422 33.4844 165.348C33.293 165.273 33.0703 165.236 32.8164 165.236C32.5586 165.236 32.3301 165.277 32.1309 165.359C31.9355 165.438 31.7695 165.553 31.6328 165.705C31.4688 165.896 31.3457 166.145 31.2637 166.449C31.1855 166.75 31.1465 167.1 31.1465 167.498V168.928C31.1465 169.025 31.1465 169.123 31.1465 169.221C31.1465 169.318 31.1465 169.418 31.1465 169.52ZM34.4922 169.965V168.758C34.4922 168.699 34.4922 168.588 34.4922 168.424C34.4922 168.256 34.4922 168.117 34.4922 168.008L31.1758 170.545C31.2109 170.83 31.2734 171.082 31.3633 171.301C31.4531 171.516 31.5703 171.693 31.7148 171.834C31.8477 171.967 32.0078 172.068 32.1953 172.139C32.3828 172.205 32.5938 172.238 32.8281 172.238C33.0742 172.238 33.293 172.201 33.4844 172.127C33.6758 172.053 33.8379 171.945 33.9707 171.805C34.1504 171.613 34.2812 171.363 34.3633 171.055C34.4492 170.746 34.4922 170.383 34.4922 169.965ZM40.9492 173H39.8652V165.852L37.6328 166.701V165.711L40.8613 164.469H40.9492V173Z" fill="#EEF5FC"/>
<path d="M1.01367 75.4375V66.6602H2.00391L2.05664 67.3516C2.14258 67.2422 2.23633 67.1445 2.33789 67.0586C2.43945 66.9688 2.54883 66.8926 2.66602 66.8301C2.83008 66.7363 3.01172 66.666 3.21094 66.6191C3.41406 66.5684 3.63086 66.543 3.86133 66.543C4.26758 66.543 4.62695 66.623 4.93945 66.7832C5.25195 66.9434 5.51367 67.166 5.72461 67.4512C5.93555 67.7363 6.0957 68.0781 6.20508 68.4766C6.31445 68.8711 6.36914 69.3047 6.36914 69.7773V69.9004C6.36914 70.3535 6.31445 70.7773 6.20508 71.1719C6.0957 71.5625 5.93555 71.9023 5.72461 72.1914C5.51367 72.4805 5.25195 72.707 4.93945 72.8711C4.63086 73.0352 4.27734 73.1172 3.87891 73.1172C3.63672 73.1172 3.41016 73.0918 3.19922 73.041C2.99219 72.9902 2.80469 72.918 2.63672 72.8242C2.53516 72.7656 2.43945 72.7012 2.34961 72.6309C2.25977 72.5566 2.17578 72.4766 2.09766 72.3906V75.4375H1.01367ZM5.28516 69.7773C5.28516 69.4688 5.25 69.1758 5.17969 68.8984C5.11328 68.6172 5.00977 68.3691 4.86914 68.1543C4.72461 67.9434 4.54297 67.7754 4.32422 67.6504C4.10547 67.5254 3.84375 67.4629 3.53906 67.4629C3.37109 67.4629 3.21484 67.4824 3.07031 67.5215C2.92969 67.5605 2.80273 67.6172 2.68945 67.6914C2.56445 67.7656 2.45312 67.8574 2.35547 67.9668C2.25781 68.0762 2.17188 68.1973 2.09766 68.3301V71.3828C2.16406 71.5 2.24023 71.6094 2.32617 71.7109C2.41211 71.8125 2.50977 71.8984 2.61914 71.9688C2.74414 72.0508 2.88281 72.1152 3.03516 72.1621C3.19141 72.209 3.36328 72.2324 3.55078 72.2324C3.85156 72.2324 4.11133 72.1699 4.33008 72.0449C4.54883 71.916 4.72852 71.7441 4.86914 71.5293C5.00977 71.3145 5.11328 71.0664 5.17969 70.7852C5.25 70.5039 5.28516 70.209 5.28516 69.9004V69.7773ZM9.31055 67.6035C9.39648 67.4746 9.49219 67.3574 9.59766 67.252C9.70312 67.1426 9.81445 67.0469 9.93164 66.9648C10.1191 66.8281 10.3242 66.7246 10.5469 66.6543C10.7734 66.584 11.0137 66.5469 11.2676 66.543C11.5996 66.543 11.9004 66.5918 12.1699 66.6895C12.4434 66.7832 12.6758 66.9316 12.8672 67.1348C13.0586 67.3379 13.2051 67.5957 13.3066 67.9082C13.4121 68.2168 13.4648 68.584 13.4648 69.0098V73H12.3809V68.998C12.3809 68.748 12.3516 68.5293 12.293 68.3418C12.2344 68.1504 12.1484 67.9922 12.0352 67.8672C11.9141 67.7305 11.7617 67.6289 11.5781 67.5625C11.3945 67.4922 11.1836 67.459 10.9453 67.4629C10.75 67.4629 10.5645 67.4902 10.3887 67.5449C10.2129 67.5996 10.0508 67.6777 9.90234 67.7793C9.78516 67.8574 9.67578 67.9492 9.57422 68.0547C9.47656 68.1562 9.38867 68.2695 9.31055 68.3945V73H8.22656V64H9.31055V67.6035ZM15.6035 66.6602H18.8438V72.0625H20.9121V73H15.6035V72.0625H17.7598V67.6035H15.6035V66.6602ZM17.6191 64.9961C17.6191 64.9023 17.6328 64.8145 17.6602 64.7324C17.6914 64.6504 17.7383 64.5801 17.8008 64.5215C17.8516 64.4707 17.916 64.4316 17.9941 64.4043C18.0762 64.373 18.168 64.3574 18.2695 64.3574C18.3711 64.3574 18.4609 64.373 18.5391 64.4043C18.6172 64.4316 18.6816 64.4707 18.7324 64.5215C18.7949 64.5762 18.8418 64.6445 18.873 64.7266C18.9043 64.8086 18.9199 64.8984 18.9199 64.9961C18.9199 65.1719 18.8652 65.3184 18.7559 65.4355C18.6465 65.5527 18.4844 65.6113 18.2695 65.6113C18.0508 65.6113 17.8867 65.5527 17.7773 65.4355C17.6719 65.3184 17.6191 65.1719 17.6191 64.9961ZM22.6406 73V66.6602H23.6133L23.6895 67.5977C23.7832 67.4648 23.8848 67.3438 23.9941 67.2344C24.1074 67.1211 24.2266 67.0234 24.3516 66.9414C24.5391 66.8164 24.7422 66.7207 24.9609 66.6543C25.1836 66.584 25.418 66.5469 25.6641 66.543C25.9961 66.543 26.2969 66.5898 26.5664 66.6836C26.8398 66.7773 27.0723 66.9238 27.2637 67.123C27.4551 67.3223 27.6016 67.5762 27.7031 67.8848C27.8086 68.1895 27.8613 68.5527 27.8613 68.9746V73H26.7773V68.998C26.7773 68.7168 26.7461 68.4785 26.6836 68.2832C26.6211 68.0879 26.5293 67.9297 26.4082 67.8086C26.2832 67.6875 26.1309 67.5996 25.9512 67.5449C25.7754 67.4902 25.5723 67.4629 25.3418 67.4629C25.1426 67.4629 24.957 67.4922 24.7852 67.5508C24.6133 67.6055 24.4551 67.6816 24.3105 67.7793C24.1934 67.8652 24.084 67.9648 23.9824 68.0781C23.8848 68.1914 23.7988 68.3164 23.7246 68.4531V73H22.6406ZM32.4141 65.125V66.6602H34.8281V67.498H32.4141V70.9434C32.4141 71.1895 32.4453 71.3926 32.5078 71.5527C32.5703 71.7129 32.6562 71.8398 32.7656 71.9336C32.875 72.0312 33 72.0996 33.1406 72.1387C33.2852 72.1777 33.4375 72.1973 33.5977 72.1973C33.7148 72.1973 33.8359 72.1914 33.9609 72.1797C34.0859 72.1641 34.209 72.1465 34.3301 72.127C34.4473 72.1074 34.5566 72.0879 34.6582 72.0684C34.7637 72.0449 34.8496 72.0254 34.916 72.0098L35.0684 72.7773C34.9785 72.832 34.8691 72.8809 34.7402 72.9238C34.6113 72.9629 34.4707 72.9961 34.3184 73.0234C34.166 73.0547 34.0039 73.0781 33.832 73.0938C33.6641 73.1094 33.4961 73.1172 33.3281 73.1172C33.0469 73.1172 32.7832 73.0781 32.5371 73C32.2949 72.918 32.084 72.7891 31.9043 72.6133C31.7246 72.4414 31.582 72.2188 31.4766 71.9453C31.375 71.668 31.3242 71.334 31.3242 70.9434V67.498H29.6602V66.6602H31.3242V65.125H32.4141ZM40.8516 64.1406H39.5566V73.9375H40.8516V74.8281H38.5312V63.25H40.8516V64.1406ZM48.0586 64.1406H46.7637V73.9375H48.0586V74.8281H45.7383V63.25H48.0586V64.1406ZM56.7012 73H51.1113V72.2207L53.9062 69.1152C54.1562 68.8379 54.3652 68.5918 54.5332 68.377C54.7012 68.1621 54.8359 67.9629 54.9375 67.7793C55.0391 67.5996 55.1113 67.4297 55.1543 67.2695C55.1973 67.1055 55.2188 66.9375 55.2188 66.7656C55.2188 66.5547 55.1836 66.3574 55.1133 66.1738C55.0469 65.9863 54.9492 65.8242 54.8203 65.6875C54.6875 65.5508 54.5273 65.4434 54.3398 65.3652C54.1562 65.2832 53.9473 65.2422 53.7129 65.2422C53.4277 65.2422 53.1797 65.2832 52.9688 65.3652C52.7617 65.4473 52.5898 65.5625 52.4531 65.7109C52.3125 65.8633 52.207 66.0469 52.1367 66.2617C52.0703 66.4766 52.0371 66.7168 52.0371 66.9824H50.9473C50.9473 66.623 51.0098 66.2852 51.1348 65.9688C51.2598 65.6484 51.4414 65.3691 51.6797 65.1309C51.9141 64.8926 52.2012 64.7031 52.541 64.5625C52.8848 64.4219 53.2754 64.3516 53.7129 64.3516C54.1152 64.3516 54.4766 64.4121 54.7969 64.5332C55.1211 64.6504 55.3945 64.8145 55.6172 65.0254C55.8398 65.2363 56.0098 65.4863 56.127 65.7754C56.248 66.0645 56.3086 66.3789 56.3086 66.7188C56.3086 66.9727 56.2656 67.2246 56.1797 67.4746C56.0938 67.7207 55.9785 67.9648 55.834 68.207C55.6855 68.4492 55.5137 68.6895 55.3184 68.9277C55.127 69.1621 54.9238 69.3965 54.709 69.6309L52.418 72.1152H56.7012V73ZM60.0293 63.25H62.3555V74.8281H60.0293V73.9375H61.3301V64.1406H60.0293V63.25ZM67.2363 63.25H69.5625V74.8281H67.2363V73.9375H68.5371V64.1406H67.2363V63.25Z" fill="#EEF5FC"/>
<path d="M102.4 164.469H103.508V170.404C103.5 170.799 103.424 171.162 103.279 171.494C103.139 171.826 102.945 172.111 102.699 172.35C102.453 172.592 102.162 172.781 101.826 172.918C101.494 173.051 101.131 173.117 100.736 173.117C100.338 173.117 99.9746 173.057 99.6465 172.936C99.3223 172.814 99.041 172.641 98.8027 172.414C98.5605 172.191 98.3672 171.922 98.2227 171.605C98.0781 171.285 97.9883 170.928 97.9531 170.533H99.0547C99.0664 170.771 99.1133 170.992 99.1953 171.195C99.2812 171.398 99.3965 171.574 99.541 171.723C99.6855 171.875 99.8574 171.992 100.057 172.074C100.26 172.156 100.486 172.197 100.736 172.197C100.994 172.197 101.225 172.15 101.428 172.057C101.631 171.959 101.805 171.828 101.949 171.664C102.09 171.5 102.197 171.311 102.271 171.096C102.35 170.877 102.393 170.646 102.4 170.404V164.469ZM109.771 173C109.729 172.918 109.693 172.816 109.666 172.695C109.643 172.57 109.625 172.441 109.613 172.309C109.504 172.418 109.381 172.521 109.244 172.619C109.111 172.717 108.965 172.803 108.805 172.877C108.641 172.951 108.467 173.01 108.283 173.053C108.1 173.096 107.904 173.117 107.697 173.117C107.361 173.117 107.057 173.068 106.783 172.971C106.514 172.873 106.285 172.74 106.098 172.572C105.906 172.408 105.758 172.213 105.652 171.986C105.551 171.756 105.5 171.508 105.5 171.242C105.5 170.895 105.568 170.59 105.705 170.328C105.846 170.066 106.043 169.848 106.297 169.672C106.551 169.5 106.855 169.371 107.211 169.285C107.57 169.199 107.971 169.156 108.412 169.156H109.596V168.658C109.596 168.467 109.561 168.295 109.49 168.143C109.42 167.99 109.32 167.859 109.191 167.75C109.062 167.645 108.904 167.562 108.717 167.504C108.533 167.445 108.326 167.416 108.096 167.416C107.881 167.416 107.688 167.443 107.516 167.498C107.348 167.553 107.205 167.625 107.088 167.715C106.971 167.805 106.879 167.912 106.812 168.037C106.75 168.158 106.719 168.285 106.719 168.418H105.629C105.633 168.188 105.691 167.961 105.805 167.738C105.922 167.516 106.09 167.314 106.309 167.135C106.523 166.959 106.785 166.816 107.094 166.707C107.406 166.598 107.76 166.543 108.154 166.543C108.514 166.543 108.848 166.588 109.156 166.678C109.465 166.764 109.732 166.895 109.959 167.07C110.182 167.25 110.357 167.473 110.486 167.738C110.615 168.004 110.68 168.314 110.68 168.67V171.617C110.68 171.828 110.699 172.053 110.738 172.291C110.777 172.525 110.832 172.73 110.902 172.906V173H109.771ZM107.855 172.174C108.066 172.174 108.264 172.146 108.447 172.092C108.631 172.037 108.799 171.965 108.951 171.875C109.1 171.785 109.229 171.684 109.338 171.57C109.447 171.453 109.533 171.332 109.596 171.207V169.924H108.588C108.213 169.924 107.885 169.957 107.604 170.023C107.326 170.086 107.105 170.184 106.941 170.316C106.824 170.41 106.734 170.521 106.672 170.65C106.613 170.779 106.584 170.926 106.584 171.09C106.584 171.246 106.609 171.391 106.66 171.523C106.715 171.656 106.795 171.77 106.9 171.863C107.006 171.961 107.139 172.037 107.299 172.092C107.459 172.146 107.645 172.174 107.855 172.174ZM112.812 173V166.66H113.785L113.861 167.598C113.955 167.465 114.057 167.344 114.166 167.234C114.279 167.121 114.398 167.023 114.523 166.941C114.711 166.816 114.914 166.721 115.133 166.654C115.355 166.584 115.59 166.547 115.836 166.543C116.168 166.543 116.469 166.59 116.738 166.684C117.012 166.777 117.244 166.924 117.436 167.123C117.627 167.322 117.773 167.576 117.875 167.885C117.98 168.189 118.033 168.553 118.033 168.975V173H116.949V168.998C116.949 168.717 116.918 168.479 116.855 168.283C116.793 168.088 116.701 167.93 116.58 167.809C116.455 167.688 116.303 167.6 116.123 167.545C115.947 167.49 115.744 167.463 115.514 167.463C115.314 167.463 115.129 167.492 114.957 167.551C114.785 167.605 114.627 167.682 114.482 167.779C114.365 167.865 114.256 167.965 114.154 168.078C114.057 168.191 113.971 168.316 113.896 168.453V173H112.812ZM132.582 169.736C132.582 170.279 132.52 170.762 132.395 171.184C132.27 171.602 132.09 171.953 131.855 172.238C131.621 172.527 131.334 172.746 130.994 172.895C130.654 173.043 130.266 173.117 129.828 173.117C129.395 173.117 129.006 173.045 128.662 172.9C128.318 172.752 128.027 172.531 127.789 172.238C127.551 171.953 127.369 171.602 127.244 171.184C127.119 170.762 127.057 170.279 127.057 169.736V167.738C127.057 167.195 127.119 166.715 127.244 166.297C127.369 165.875 127.551 165.52 127.789 165.23C128.023 164.941 128.311 164.723 128.65 164.574C128.994 164.422 129.383 164.346 129.816 164.346C130.254 164.346 130.643 164.422 130.982 164.574C131.326 164.723 131.617 164.941 131.855 165.23C132.09 165.52 132.27 165.875 132.395 166.297C132.52 166.715 132.582 167.195 132.582 167.738V169.736ZM128.146 169.52L131.469 166.971C131.438 166.689 131.381 166.441 131.299 166.227C131.221 166.008 131.113 165.826 130.977 165.682C130.844 165.533 130.68 165.422 130.484 165.348C130.293 165.273 130.07 165.236 129.816 165.236C129.559 165.236 129.33 165.277 129.131 165.359C128.936 165.438 128.77 165.553 128.633 165.705C128.469 165.896 128.346 166.145 128.264 166.449C128.186 166.75 128.146 167.1 128.146 167.498V168.928C128.146 169.025 128.146 169.123 128.146 169.221C128.146 169.318 128.146 169.418 128.146 169.52ZM131.492 169.965V168.758C131.492 168.699 131.492 168.588 131.492 168.424C131.492 168.256 131.492 168.117 131.492 168.008L128.176 170.545C128.211 170.83 128.273 171.082 128.363 171.301C128.453 171.516 128.57 171.693 128.715 171.834C128.848 171.967 129.008 172.068 129.195 172.139C129.383 172.205 129.594 172.238 129.828 172.238C130.074 172.238 130.293 172.201 130.484 172.127C130.676 172.053 130.838 171.945 130.971 171.805C131.15 171.613 131.281 171.363 131.363 171.055C131.449 170.746 131.492 170.383 131.492 169.965ZM135.699 168.213H136.473C136.746 168.213 136.986 168.176 137.193 168.102C137.404 168.027 137.582 167.926 137.727 167.797C137.867 167.668 137.975 167.514 138.049 167.334C138.123 167.154 138.16 166.957 138.16 166.742C138.16 166.488 138.127 166.268 138.061 166.08C137.994 165.889 137.896 165.73 137.768 165.605C137.643 165.484 137.486 165.395 137.299 165.336C137.115 165.273 136.904 165.242 136.666 165.242C136.436 165.242 136.225 165.277 136.033 165.348C135.846 165.414 135.686 165.512 135.553 165.641C135.416 165.77 135.311 165.924 135.236 166.104C135.162 166.283 135.125 166.484 135.125 166.707H134.035C134.035 166.383 134.098 166.078 134.223 165.793C134.352 165.504 134.531 165.252 134.762 165.037C134.992 164.826 135.268 164.66 135.588 164.539C135.912 164.414 136.271 164.352 136.666 164.352C137.049 164.352 137.398 164.404 137.715 164.51C138.031 164.611 138.303 164.764 138.529 164.967C138.756 165.17 138.932 165.422 139.057 165.723C139.182 166.023 139.244 166.371 139.244 166.766C139.244 166.93 139.219 167.1 139.168 167.275C139.117 167.451 139.039 167.621 138.934 167.785C138.828 167.953 138.691 168.111 138.523 168.26C138.359 168.404 138.162 168.525 137.932 168.623C138.209 168.713 138.439 168.83 138.623 168.975C138.811 169.119 138.961 169.281 139.074 169.461C139.184 169.641 139.26 169.83 139.303 170.029C139.35 170.229 139.373 170.426 139.373 170.621C139.373 171.02 139.305 171.373 139.168 171.682C139.031 171.99 138.842 172.25 138.6 172.461C138.357 172.676 138.07 172.84 137.738 172.953C137.41 173.062 137.055 173.117 136.672 173.117C136.297 173.117 135.943 173.064 135.611 172.959C135.283 172.854 134.998 172.699 134.756 172.496C134.514 172.293 134.32 172.045 134.176 171.752C134.035 171.459 133.965 171.125 133.965 170.75H135.049C135.049 170.973 135.086 171.176 135.16 171.359C135.238 171.543 135.348 171.699 135.488 171.828C135.629 171.957 135.799 172.057 135.998 172.127C136.201 172.197 136.426 172.232 136.672 172.232C136.918 172.232 137.141 172.201 137.34 172.139C137.539 172.072 137.709 171.973 137.85 171.84C137.99 171.707 138.098 171.543 138.172 171.348C138.25 171.148 138.289 170.914 138.289 170.645C138.289 170.379 138.244 170.15 138.154 169.959C138.068 169.764 137.947 169.602 137.791 169.473C137.631 169.344 137.438 169.248 137.211 169.186C136.988 169.123 136.742 169.092 136.473 169.092H135.699V168.213Z" fill="#EEF5FC"/>
<path d="M203.4 164.469H204.508V170.404C204.5 170.799 204.424 171.162 204.279 171.494C204.139 171.826 203.945 172.111 203.699 172.35C203.453 172.592 203.162 172.781 202.826 172.918C202.494 173.051 202.131 173.117 201.736 173.117C201.338 173.117 200.975 173.057 200.646 172.936C200.322 172.814 200.041 172.641 199.803 172.414C199.561 172.191 199.367 171.922 199.223 171.605C199.078 171.285 198.988 170.928 198.953 170.533H200.055C200.066 170.771 200.113 170.992 200.195 171.195C200.281 171.398 200.396 171.574 200.541 171.723C200.686 171.875 200.857 171.992 201.057 172.074C201.26 172.156 201.486 172.197 201.736 172.197C201.994 172.197 202.225 172.15 202.428 172.057C202.631 171.959 202.805 171.828 202.949 171.664C203.09 171.5 203.197 171.311 203.271 171.096C203.35 170.877 203.393 170.646 203.4 170.404V164.469ZM210.771 173C210.729 172.918 210.693 172.816 210.666 172.695C210.643 172.57 210.625 172.441 210.613 172.309C210.504 172.418 210.381 172.521 210.244 172.619C210.111 172.717 209.965 172.803 209.805 172.877C209.641 172.951 209.467 173.01 209.283 173.053C209.1 173.096 208.904 173.117 208.697 173.117C208.361 173.117 208.057 173.068 207.783 172.971C207.514 172.873 207.285 172.74 207.098 172.572C206.906 172.408 206.758 172.213 206.652 171.986C206.551 171.756 206.5 171.508 206.5 171.242C206.5 170.895 206.568 170.59 206.705 170.328C206.846 170.066 207.043 169.848 207.297 169.672C207.551 169.5 207.855 169.371 208.211 169.285C208.57 169.199 208.971 169.156 209.412 169.156H210.596V168.658C210.596 168.467 210.561 168.295 210.49 168.143C210.42 167.99 210.32 167.859 210.191 167.75C210.062 167.645 209.904 167.562 209.717 167.504C209.533 167.445 209.326 167.416 209.096 167.416C208.881 167.416 208.688 167.443 208.516 167.498C208.348 167.553 208.205 167.625 208.088 167.715C207.971 167.805 207.879 167.912 207.812 168.037C207.75 168.158 207.719 168.285 207.719 168.418H206.629C206.633 168.188 206.691 167.961 206.805 167.738C206.922 167.516 207.09 167.314 207.309 167.135C207.523 166.959 207.785 166.816 208.094 166.707C208.406 166.598 208.76 166.543 209.154 166.543C209.514 166.543 209.848 166.588 210.156 166.678C210.465 166.764 210.732 166.895 210.959 167.07C211.182 167.25 211.357 167.473 211.486 167.738C211.615 168.004 211.68 168.314 211.68 168.67V171.617C211.68 171.828 211.699 172.053 211.738 172.291C211.777 172.525 211.832 172.73 211.902 172.906V173H210.771ZM208.855 172.174C209.066 172.174 209.264 172.146 209.447 172.092C209.631 172.037 209.799 171.965 209.951 171.875C210.1 171.785 210.229 171.684 210.338 171.57C210.447 171.453 210.533 171.332 210.596 171.207V169.924H209.588C209.213 169.924 208.885 169.957 208.604 170.023C208.326 170.086 208.105 170.184 207.941 170.316C207.824 170.41 207.734 170.521 207.672 170.65C207.613 170.779 207.584 170.926 207.584 171.09C207.584 171.246 207.609 171.391 207.66 171.523C207.715 171.656 207.795 171.77 207.9 171.863C208.006 171.961 208.139 172.037 208.299 172.092C208.459 172.146 208.645 172.174 208.855 172.174ZM213.812 173V166.66H214.785L214.861 167.598C214.955 167.465 215.057 167.344 215.166 167.234C215.279 167.121 215.398 167.023 215.523 166.941C215.711 166.816 215.914 166.721 216.133 166.654C216.355 166.584 216.59 166.547 216.836 166.543C217.168 166.543 217.469 166.59 217.738 166.684C218.012 166.777 218.244 166.924 218.436 167.123C218.627 167.322 218.773 167.576 218.875 167.885C218.98 168.189 219.033 168.553 219.033 168.975V173H217.949V168.998C217.949 168.717 217.918 168.479 217.855 168.283C217.793 168.088 217.701 167.93 217.58 167.809C217.455 167.688 217.303 167.6 217.123 167.545C216.947 167.49 216.744 167.463 216.514 167.463C216.314 167.463 216.129 167.492 215.957 167.551C215.785 167.605 215.627 167.682 215.482 167.779C215.365 167.865 215.256 167.965 215.154 168.078C215.057 168.191 214.971 168.316 214.896 168.453V173H213.812ZM233.582 169.736C233.582 170.279 233.52 170.762 233.395 171.184C233.27 171.602 233.09 171.953 232.855 172.238C232.621 172.527 232.334 172.746 231.994 172.895C231.654 173.043 231.266 173.117 230.828 173.117C230.395 173.117 230.006 173.045 229.662 172.9C229.318 172.752 229.027 172.531 228.789 172.238C228.551 171.953 228.369 171.602 228.244 171.184C228.119 170.762 228.057 170.279 228.057 169.736V167.738C228.057 167.195 228.119 166.715 228.244 166.297C228.369 165.875 228.551 165.52 228.789 165.23C229.023 164.941 229.311 164.723 229.65 164.574C229.994 164.422 230.383 164.346 230.816 164.346C231.254 164.346 231.643 164.422 231.982 164.574C232.326 164.723 232.617 164.941 232.855 165.23C233.09 165.52 233.27 165.875 233.395 166.297C233.52 166.715 233.582 167.195 233.582 167.738V169.736ZM229.146 169.52L232.469 166.971C232.438 166.689 232.381 166.441 232.299 166.227C232.221 166.008 232.113 165.826 231.977 165.682C231.844 165.533 231.68 165.422 231.484 165.348C231.293 165.273 231.07 165.236 230.816 165.236C230.559 165.236 230.33 165.277 230.131 165.359C229.936 165.438 229.77 165.553 229.633 165.705C229.469 165.896 229.346 166.145 229.264 166.449C229.186 166.75 229.146 167.1 229.146 167.498V168.928C229.146 169.025 229.146 169.123 229.146 169.221C229.146 169.318 229.146 169.418 229.146 169.52ZM232.492 169.965V168.758C232.492 168.699 232.492 168.588 232.492 168.424C232.492 168.256 232.492 168.117 232.492 168.008L229.176 170.545C229.211 170.83 229.273 171.082 229.363 171.301C229.453 171.516 229.57 171.693 229.715 171.834C229.848 171.967 230.008 172.068 230.195 172.139C230.383 172.205 230.594 172.238 230.828 172.238C231.074 172.238 231.293 172.201 231.484 172.127C231.676 172.053 231.838 171.945 231.971 171.805C232.15 171.613 232.281 171.363 232.363 171.055C232.449 170.746 232.492 170.383 232.492 169.965ZM235.82 168.723L236.248 164.469H240.625V165.523H237.162L236.922 167.797C237.09 167.699 237.291 167.613 237.525 167.539C237.76 167.465 238.031 167.428 238.34 167.428C238.734 167.428 239.088 167.496 239.4 167.633C239.713 167.77 239.979 167.961 240.197 168.207C240.416 168.457 240.584 168.758 240.701 169.109C240.818 169.461 240.877 169.852 240.877 170.281C240.877 170.688 240.822 171.064 240.713 171.412C240.604 171.76 240.439 172.059 240.221 172.309C239.998 172.562 239.719 172.762 239.383 172.906C239.047 173.047 238.652 173.117 238.199 173.117C237.852 173.117 237.523 173.068 237.215 172.971C236.906 172.873 236.633 172.727 236.395 172.531C236.152 172.336 235.953 172.09 235.797 171.793C235.645 171.496 235.549 171.15 235.51 170.756H236.541C236.607 171.24 236.785 171.607 237.074 171.857C237.367 172.107 237.742 172.232 238.199 172.232C238.457 172.232 238.686 172.188 238.885 172.098C239.084 172.004 239.252 171.871 239.389 171.699C239.521 171.531 239.621 171.328 239.688 171.09C239.758 170.852 239.793 170.586 239.793 170.293C239.793 170.027 239.754 169.779 239.676 169.549C239.602 169.318 239.492 169.117 239.348 168.945C239.203 168.777 239.025 168.645 238.814 168.547C238.604 168.449 238.361 168.4 238.088 168.4C237.908 168.4 237.752 168.414 237.619 168.441C237.49 168.465 237.373 168.5 237.268 168.547C237.162 168.594 237.062 168.65 236.969 168.717C236.879 168.783 236.785 168.859 236.688 168.945L235.82 168.723Z" fill="#EEF5FC"/>
<path d="M303.4 164.469H304.508V170.404C304.5 170.799 304.424 171.162 304.279 171.494C304.139 171.826 303.945 172.111 303.699 172.35C303.453 172.592 303.162 172.781 302.826 172.918C302.494 173.051 302.131 173.117 301.736 173.117C301.338 173.117 300.975 173.057 300.646 172.936C300.322 172.814 300.041 172.641 299.803 172.414C299.561 172.191 299.367 171.922 299.223 171.605C299.078 171.285 298.988 170.928 298.953 170.533H300.055C300.066 170.771 300.113 170.992 300.195 171.195C300.281 171.398 300.396 171.574 300.541 171.723C300.686 171.875 300.857 171.992 301.057 172.074C301.26 172.156 301.486 172.197 301.736 172.197C301.994 172.197 302.225 172.15 302.428 172.057C302.631 171.959 302.805 171.828 302.949 171.664C303.09 171.5 303.197 171.311 303.271 171.096C303.35 170.877 303.393 170.646 303.4 170.404V164.469ZM310.771 173C310.729 172.918 310.693 172.816 310.666 172.695C310.643 172.57 310.625 172.441 310.613 172.309C310.504 172.418 310.381 172.521 310.244 172.619C310.111 172.717 309.965 172.803 309.805 172.877C309.641 172.951 309.467 173.01 309.283 173.053C309.1 173.096 308.904 173.117 308.697 173.117C308.361 173.117 308.057 173.068 307.783 172.971C307.514 172.873 307.285 172.74 307.098 172.572C306.906 172.408 306.758 172.213 306.652 171.986C306.551 171.756 306.5 171.508 306.5 171.242C306.5 170.895 306.568 170.59 306.705 170.328C306.846 170.066 307.043 169.848 307.297 169.672C307.551 169.5 307.855 169.371 308.211 169.285C308.57 169.199 308.971 169.156 309.412 169.156H310.596V168.658C310.596 168.467 310.561 168.295 310.49 168.143C310.42 167.99 310.32 167.859 310.191 167.75C310.062 167.645 309.904 167.562 309.717 167.504C309.533 167.445 309.326 167.416 309.096 167.416C308.881 167.416 308.688 167.443 308.516 167.498C308.348 167.553 308.205 167.625 308.088 167.715C307.971 167.805 307.879 167.912 307.812 168.037C307.75 168.158 307.719 168.285 307.719 168.418H306.629C306.633 168.188 306.691 167.961 306.805 167.738C306.922 167.516 307.09 167.314 307.309 167.135C307.523 166.959 307.785 166.816 308.094 166.707C308.406 166.598 308.76 166.543 309.154 166.543C309.514 166.543 309.848 166.588 310.156 166.678C310.465 166.764 310.732 166.895 310.959 167.07C311.182 167.25 311.357 167.473 311.486 167.738C311.615 168.004 311.68 168.314 311.68 168.67V171.617C311.68 171.828 311.699 172.053 311.738 172.291C311.777 172.525 311.832 172.73 311.902 172.906V173H310.771ZM308.855 172.174C309.066 172.174 309.264 172.146 309.447 172.092C309.631 172.037 309.799 171.965 309.951 171.875C310.1 171.785 310.229 171.684 310.338 171.57C310.447 171.453 310.533 171.332 310.596 171.207V169.924H309.588C309.213 169.924 308.885 169.957 308.604 170.023C308.326 170.086 308.105 170.184 307.941 170.316C307.824 170.41 307.734 170.521 307.672 170.65C307.613 170.779 307.584 170.926 307.584 171.09C307.584 171.246 307.609 171.391 307.66 171.523C307.715 171.656 307.795 171.77 307.9 171.863C308.006 171.961 308.139 172.037 308.299 172.092C308.459 172.146 308.645 172.174 308.855 172.174ZM313.812 173V166.66H314.785L314.861 167.598C314.955 167.465 315.057 167.344 315.166 167.234C315.279 167.121 315.398 167.023 315.523 166.941C315.711 166.816 315.914 166.721 316.133 166.654C316.355 166.584 316.59 166.547 316.836 166.543C317.168 166.543 317.469 166.59 317.738 166.684C318.012 166.777 318.244 166.924 318.436 167.123C318.627 167.322 318.773 167.576 318.875 167.885C318.98 168.189 319.033 168.553 319.033 168.975V173H317.949V168.998C317.949 168.717 317.918 168.479 317.855 168.283C317.793 168.088 317.701 167.93 317.58 167.809C317.455 167.688 317.303 167.6 317.123 167.545C316.947 167.49 316.744 167.463 316.514 167.463C316.314 167.463 316.129 167.492 315.957 167.551C315.785 167.605 315.627 167.682 315.482 167.779C315.365 167.865 315.256 167.965 315.154 168.078C315.057 168.191 314.971 168.316 314.896 168.453V173H313.812ZM333.582 169.736C333.582 170.279 333.52 170.762 333.395 171.184C333.27 171.602 333.09 171.953 332.855 172.238C332.621 172.527 332.334 172.746 331.994 172.895C331.654 173.043 331.266 173.117 330.828 173.117C330.395 173.117 330.006 173.045 329.662 172.9C329.318 172.752 329.027 172.531 328.789 172.238C328.551 171.953 328.369 171.602 328.244 171.184C328.119 170.762 328.057 170.279 328.057 169.736V167.738C328.057 167.195 328.119 166.715 328.244 166.297C328.369 165.875 328.551 165.52 328.789 165.23C329.023 164.941 329.311 164.723 329.65 164.574C329.994 164.422 330.383 164.346 330.816 164.346C331.254 164.346 331.643 164.422 331.982 164.574C332.326 164.723 332.617 164.941 332.855 165.23C333.09 165.52 333.27 165.875 333.395 166.297C333.52 166.715 333.582 167.195 333.582 167.738V169.736ZM329.146 169.52L332.469 166.971C332.438 166.689 332.381 166.441 332.299 166.227C332.221 166.008 332.113 165.826 331.977 165.682C331.844 165.533 331.68 165.422 331.484 165.348C331.293 165.273 331.07 165.236 330.816 165.236C330.559 165.236 330.33 165.277 330.131 165.359C329.936 165.438 329.77 165.553 329.633 165.705C329.469 165.896 329.346 166.145 329.264 166.449C329.186 166.75 329.146 167.1 329.146 167.498V168.928C329.146 169.025 329.146 169.123 329.146 169.221C329.146 169.318 329.146 169.418 329.146 169.52ZM332.492 169.965V168.758C332.492 168.699 332.492 168.588 332.492 168.424C332.492 168.256 332.492 168.117 332.492 168.008L329.176 170.545C329.211 170.83 329.273 171.082 329.363 171.301C329.453 171.516 329.57 171.693 329.715 171.834C329.848 171.967 330.008 172.068 330.195 172.139C330.383 172.205 330.594 172.238 330.828 172.238C331.074 172.238 331.293 172.201 331.484 172.127C331.676 172.053 331.838 171.945 331.971 171.805C332.15 171.613 332.281 171.363 332.363 171.055C332.449 170.746 332.492 170.383 332.492 169.965ZM340.836 165.078L337.303 173H336.166L339.688 165.418H335.07V164.469H340.836V165.078Z" fill="#EEF5FC"/>
<path d="M403.4 164.469H404.508V170.404C404.5 170.799 404.424 171.162 404.279 171.494C404.139 171.826 403.945 172.111 403.699 172.35C403.453 172.592 403.162 172.781 402.826 172.918C402.494 173.051 402.131 173.117 401.736 173.117C401.338 173.117 400.975 173.057 400.646 172.936C400.322 172.814 400.041 172.641 399.803 172.414C399.561 172.191 399.367 171.922 399.223 171.605C399.078 171.285 398.988 170.928 398.953 170.533H400.055C400.066 170.771 400.113 170.992 400.195 171.195C400.281 171.398 400.396 171.574 400.541 171.723C400.686 171.875 400.857 171.992 401.057 172.074C401.26 172.156 401.486 172.197 401.736 172.197C401.994 172.197 402.225 172.15 402.428 172.057C402.631 171.959 402.805 171.828 402.949 171.664C403.09 171.5 403.197 171.311 403.271 171.096C403.35 170.877 403.393 170.646 403.4 170.404V164.469ZM410.771 173C410.729 172.918 410.693 172.816 410.666 172.695C410.643 172.57 410.625 172.441 410.613 172.309C410.504 172.418 410.381 172.521 410.244 172.619C410.111 172.717 409.965 172.803 409.805 172.877C409.641 172.951 409.467 173.01 409.283 173.053C409.1 173.096 408.904 173.117 408.697 173.117C408.361 173.117 408.057 173.068 407.783 172.971C407.514 172.873 407.285 172.74 407.098 172.572C406.906 172.408 406.758 172.213 406.652 171.986C406.551 171.756 406.5 171.508 406.5 171.242C406.5 170.895 406.568 170.59 406.705 170.328C406.846 170.066 407.043 169.848 407.297 169.672C407.551 169.5 407.855 169.371 408.211 169.285C408.57 169.199 408.971 169.156 409.412 169.156H410.596V168.658C410.596 168.467 410.561 168.295 410.49 168.143C410.42 167.99 410.32 167.859 410.191 167.75C410.062 167.645 409.904 167.562 409.717 167.504C409.533 167.445 409.326 167.416 409.096 167.416C408.881 167.416 408.688 167.443 408.516 167.498C408.348 167.553 408.205 167.625 408.088 167.715C407.971 167.805 407.879 167.912 407.812 168.037C407.75 168.158 407.719 168.285 407.719 168.418H406.629C406.633 168.188 406.691 167.961 406.805 167.738C406.922 167.516 407.09 167.314 407.309 167.135C407.523 166.959 407.785 166.816 408.094 166.707C408.406 166.598 408.76 166.543 409.154 166.543C409.514 166.543 409.848 166.588 410.156 166.678C410.465 166.764 410.732 166.895 410.959 167.07C411.182 167.25 411.357 167.473 411.486 167.738C411.615 168.004 411.68 168.314 411.68 168.67V171.617C411.68 171.828 411.699 172.053 411.738 172.291C411.777 172.525 411.832 172.73 411.902 172.906V173H410.771ZM408.855 172.174C409.066 172.174 409.264 172.146 409.447 172.092C409.631 172.037 409.799 171.965 409.951 171.875C410.1 171.785 410.229 171.684 410.338 171.57C410.447 171.453 410.533 171.332 410.596 171.207V169.924H409.588C409.213 169.924 408.885 169.957 408.604 170.023C408.326 170.086 408.105 170.184 407.941 170.316C407.824 170.41 407.734 170.521 407.672 170.65C407.613 170.779 407.584 170.926 407.584 171.09C407.584 171.246 407.609 171.391 407.66 171.523C407.715 171.656 407.795 171.77 407.9 171.863C408.006 171.961 408.139 172.037 408.299 172.092C408.459 172.146 408.645 172.174 408.855 172.174ZM413.812 173V166.66H414.785L414.861 167.598C414.955 167.465 415.057 167.344 415.166 167.234C415.279 167.121 415.398 167.023 415.523 166.941C415.711 166.816 415.914 166.721 416.133 166.654C416.355 166.584 416.59 166.547 416.836 166.543C417.168 166.543 417.469 166.59 417.738 166.684C418.012 166.777 418.244 166.924 418.436 167.123C418.627 167.322 418.773 167.576 418.875 167.885C418.98 168.189 419.033 168.553 419.033 168.975V173H417.949V168.998C417.949 168.717 417.918 168.479 417.855 168.283C417.793 168.088 417.701 167.93 417.58 167.809C417.455 167.688 417.303 167.6 417.123 167.545C416.947 167.49 416.744 167.463 416.514 167.463C416.314 167.463 416.129 167.492 415.957 167.551C415.785 167.605 415.627 167.682 415.482 167.779C415.365 167.865 415.256 167.965 415.154 168.078C415.057 168.191 414.971 168.316 414.896 168.453V173H413.812ZM433.582 169.736C433.582 170.279 433.52 170.762 433.395 171.184C433.27 171.602 433.09 171.953 432.855 172.238C432.621 172.527 432.334 172.746 431.994 172.895C431.654 173.043 431.266 173.117 430.828 173.117C430.395 173.117 430.006 173.045 429.662 172.9C429.318 172.752 429.027 172.531 428.789 172.238C428.551 171.953 428.369 171.602 428.244 171.184C428.119 170.762 428.057 170.279 428.057 169.736V167.738C428.057 167.195 428.119 166.715 428.244 166.297C428.369 165.875 428.551 165.52 428.789 165.23C429.023 164.941 429.311 164.723 429.65 164.574C429.994 164.422 430.383 164.346 430.816 164.346C431.254 164.346 431.643 164.422 431.982 164.574C432.326 164.723 432.617 164.941 432.855 165.23C433.09 165.52 433.27 165.875 433.395 166.297C433.52 166.715 433.582 167.195 433.582 167.738V169.736ZM429.146 169.52L432.469 166.971C432.438 166.689 432.381 166.441 432.299 166.227C432.221 166.008 432.113 165.826 431.977 165.682C431.844 165.533 431.68 165.422 431.484 165.348C431.293 165.273 431.07 165.236 430.816 165.236C430.559 165.236 430.33 165.277 430.131 165.359C429.936 165.438 429.77 165.553 429.633 165.705C429.469 165.896 429.346 166.145 429.264 166.449C429.186 166.75 429.146 167.1 429.146 167.498V168.928C429.146 169.025 429.146 169.123 429.146 169.221C429.146 169.318 429.146 169.418 429.146 169.52ZM432.492 169.965V168.758C432.492 168.699 432.492 168.588 432.492 168.424C432.492 168.256 432.492 168.117 432.492 168.008L429.176 170.545C429.211 170.83 429.273 171.082 429.363 171.301C429.453 171.516 429.57 171.693 429.715 171.834C429.848 171.967 430.008 172.068 430.195 172.139C430.383 172.205 430.594 172.238 430.828 172.238C431.074 172.238 431.293 172.201 431.484 172.127C431.676 172.053 431.838 171.945 431.971 171.805C432.15 171.613 432.281 171.363 432.363 171.055C432.449 170.746 432.492 170.383 432.492 169.965ZM436.6 172.039C437.146 172.039 437.602 171.975 437.965 171.846C438.332 171.713 438.627 171.527 438.85 171.289C439.119 170.996 439.301 170.682 439.395 170.346C439.488 170.01 439.545 169.662 439.564 169.303V169.291C439.471 169.408 439.363 169.52 439.242 169.625C439.121 169.727 438.984 169.816 438.832 169.895C438.68 169.973 438.51 170.035 438.322 170.082C438.139 170.125 437.938 170.146 437.719 170.146C437.297 170.146 436.932 170.064 436.623 169.9C436.318 169.732 436.066 169.514 435.867 169.244C435.668 168.975 435.521 168.67 435.428 168.33C435.334 167.99 435.287 167.648 435.287 167.305C435.287 166.902 435.342 166.523 435.451 166.168C435.564 165.809 435.732 165.494 435.955 165.225C436.174 164.959 436.447 164.748 436.775 164.592C437.107 164.432 437.492 164.352 437.93 164.352C438.367 164.352 438.746 164.434 439.066 164.598C439.391 164.758 439.662 164.971 439.881 165.236C440.139 165.549 440.332 165.939 440.461 166.408C440.59 166.873 440.654 167.338 440.654 167.803V168.195C440.654 168.855 440.584 169.52 440.443 170.188C440.303 170.852 440.002 171.441 439.541 171.957C439.264 172.27 438.879 172.523 438.387 172.719C437.898 172.91 437.303 173.006 436.6 173.006H436.488V172.039H436.6ZM437.895 169.25C438.078 169.25 438.256 169.221 438.428 169.162C438.604 169.1 438.766 169.012 438.914 168.898C439.059 168.789 439.188 168.66 439.301 168.512C439.418 168.359 439.51 168.191 439.576 168.008V167.656C439.576 167.277 439.531 166.939 439.441 166.643C439.355 166.346 439.238 166.094 439.09 165.887C438.938 165.684 438.762 165.527 438.562 165.418C438.367 165.309 438.158 165.254 437.936 165.254C437.682 165.254 437.457 165.305 437.262 165.406C437.066 165.508 436.902 165.646 436.77 165.822C436.633 166.002 436.529 166.215 436.459 166.461C436.389 166.703 436.354 166.965 436.354 167.246C436.354 167.496 436.385 167.742 436.447 167.984C436.51 168.223 436.605 168.436 436.734 168.623C436.859 168.811 437.018 168.963 437.209 169.08C437.404 169.193 437.633 169.25 437.895 169.25Z" fill="#EEF5FC"/>
<rect x="21" y="86" width="98" height="18" rx="7" fill="#38B873" stroke="#356F2A" stroke-width="2"/>
<rect x="169" y="86" width="250" height="18" rx="7" fill="#38B873" stroke="#356F2A" stroke-width="2"/>
<rect x="69" y="26" width="150" height="18" rx="7" fill="#38B873" stroke="#356F2A" stroke-width="2"/>
</svg>
