<svg width="521" height="283" viewBox="0 0 521 283" fill="none" xmlns="http://www.w3.org/2000/svg">
<line x1="59" y1="234" x2="459" y2="234" stroke="#EEF5FC" stroke-width="2"/>
<line x1="60" y1="244" x2="60" y2="224" stroke="#EEF5FC" stroke-width="2"/>
<line x1="108" y1="244" x2="108" y2="224" stroke="#EEF5FC" stroke-width="2"/>
<line x1="158" y1="244" x2="158" y2="224" stroke="#EEF5FC" stroke-width="2"/>
<line x1="158" y1="244" x2="158" y2="224" stroke="#EEF5FC" stroke-width="2"/>
<line x1="208" y1="244" x2="208" y2="224" stroke="#EEF5FC" stroke-width="2"/>
<line x1="258" y1="244" x2="258" y2="224" stroke="#EEF5FC" stroke-width="2"/>
<line x1="308" y1="244" x2="308" y2="224" stroke="#EEF5FC" stroke-width="2"/>
<line x1="358" y1="244" x2="358" y2="224" stroke="#EEF5FC" stroke-width="2"/>
<line x1="408" y1="244" x2="408" y2="224" stroke="#EEF5FC" stroke-width="2"/>
<line x1="458" y1="244" x2="458" y2="224" stroke="#EEF5FC" stroke-width="2"/>
<path d="M44.1719 254.469H45.8184L45.8242 260.381C45.8203 260.787 45.7422 261.158 45.5898 261.494C45.4414 261.826 45.2363 262.113 44.9746 262.355C44.7129 262.598 44.4043 262.785 44.0488 262.918C43.6973 263.051 43.3184 263.117 42.9121 263.117C42.4824 263.117 42.0918 263.062 41.7402 262.953C41.3887 262.844 41.0879 262.68 40.8379 262.461C40.584 262.246 40.3867 261.975 40.2461 261.646C40.1055 261.318 40.0332 260.934 40.0293 260.492H41.6816C41.6816 260.695 41.7012 260.873 41.7402 261.025C41.7793 261.178 41.8379 261.307 41.916 261.412C42.0176 261.541 42.1504 261.637 42.3145 261.699C42.4785 261.762 42.6777 261.793 42.9121 261.793C43.0996 261.793 43.2715 261.758 43.4277 261.688C43.584 261.613 43.7168 261.514 43.8262 261.389C43.9355 261.264 44.0195 261.115 44.0781 260.943C44.1406 260.768 44.1719 260.58 44.1719 260.381V254.469ZM51.373 263C51.334 262.922 51.3008 262.832 51.2734 262.73C51.2461 262.629 51.2227 262.521 51.2031 262.408C51.1133 262.506 51.0098 262.598 50.8926 262.684C50.7754 262.77 50.6465 262.844 50.5059 262.906C50.3613 262.973 50.2031 263.023 50.0312 263.059C49.8594 263.098 49.6738 263.117 49.4746 263.117C49.1504 263.117 48.8516 263.07 48.5781 262.977C48.3086 262.883 48.0762 262.752 47.8809 262.584C47.6855 262.416 47.5332 262.217 47.4238 261.986C47.3145 261.752 47.2598 261.498 47.2598 261.225C47.2598 260.873 47.3281 260.562 47.4648 260.293C47.6016 260.02 47.8066 259.795 48.0801 259.619C48.3262 259.459 48.6289 259.338 48.9883 259.256C49.3516 259.17 49.7676 259.127 50.2363 259.127H51.1445V258.752C51.1445 258.604 51.1211 258.471 51.0742 258.354C51.0273 258.232 50.957 258.129 50.8633 258.043C50.7656 257.953 50.6426 257.885 50.4941 257.838C50.3496 257.787 50.1797 257.762 49.9844 257.762C49.8125 257.762 49.6641 257.783 49.5391 257.826C49.4141 257.865 49.3125 257.922 49.2344 257.996C49.1641 258.062 49.1113 258.143 49.0762 258.236C49.0449 258.33 49.0293 258.434 49.0293 258.547H47.4004C47.4004 258.277 47.459 258.021 47.5762 257.779C47.6973 257.537 47.873 257.324 48.1035 257.141C48.3301 256.957 48.6074 256.812 48.9355 256.707C49.2676 256.598 49.6465 256.543 50.0723 256.543C50.4551 256.543 50.8105 256.59 51.1387 256.684C51.4707 256.777 51.7578 256.916 52 257.1C52.2422 257.283 52.4316 257.516 52.5684 257.797C52.7051 258.074 52.7734 258.396 52.7734 258.764V261.482C52.7734 261.822 52.7949 262.104 52.8379 262.326C52.8809 262.549 52.9434 262.74 53.0254 262.9V263H51.373ZM49.8203 261.857C49.9844 261.857 50.1367 261.838 50.2773 261.799C50.418 261.76 50.5449 261.709 50.6582 261.646C50.7715 261.584 50.8691 261.514 50.9512 261.436C51.0332 261.354 51.0977 261.271 51.1445 261.189V260.1H50.3125C50.0586 260.1 49.8418 260.125 49.6621 260.176C49.4824 260.223 49.3359 260.289 49.2227 260.375C49.1094 260.465 49.0254 260.572 48.9707 260.697C48.916 260.818 48.8887 260.951 48.8887 261.096C48.8887 261.209 48.9082 261.314 48.9473 261.412C48.9902 261.506 49.0508 261.586 49.1289 261.652C49.207 261.715 49.3027 261.766 49.416 261.805C49.5332 261.84 49.668 261.857 49.8203 261.857ZM54.6191 263V256.66H56.0957L56.1953 257.539C56.2773 257.422 56.3672 257.314 56.4648 257.217C56.5625 257.119 56.666 257.031 56.7754 256.953C56.9629 256.82 57.168 256.719 57.3906 256.648C57.6133 256.578 57.8496 256.543 58.0996 256.543C58.4199 256.543 58.7129 256.59 58.9785 256.684C59.2441 256.777 59.4746 256.926 59.6699 257.129C59.8613 257.336 60.0098 257.602 60.1152 257.926C60.2246 258.246 60.2793 258.637 60.2793 259.098V263H58.6504V259.121C58.6504 258.871 58.6211 258.666 58.5625 258.506C58.5078 258.342 58.4277 258.213 58.3223 258.119C58.2168 258.025 58.0898 257.961 57.9414 257.926C57.793 257.887 57.625 257.867 57.4375 257.867C57.2812 257.867 57.1367 257.885 57.0039 257.92C56.875 257.955 56.7598 258.008 56.6582 258.078C56.5762 258.129 56.502 258.189 56.4355 258.26C56.3691 258.33 56.3086 258.408 56.2539 258.494V263H54.6191ZM74.5879 259.754C74.5879 260.305 74.5234 260.791 74.3945 261.213C74.2695 261.631 74.0879 261.98 73.8496 262.262C73.6113 262.547 73.3203 262.762 72.9766 262.906C72.6328 263.051 72.2461 263.123 71.8164 263.123C71.3906 263.123 71.0059 263.051 70.6621 262.906C70.3184 262.762 70.0273 262.547 69.7891 262.262C69.5469 261.98 69.3594 261.631 69.2266 261.213C69.0977 260.791 69.0332 260.305 69.0332 259.754V257.715C69.0332 257.164 69.0977 256.68 69.2266 256.262C69.3555 255.84 69.541 255.486 69.7832 255.201C70.0215 254.92 70.3105 254.707 70.6504 254.562C70.9941 254.418 71.3789 254.346 71.8047 254.346C72.2344 254.346 72.6211 254.418 72.9648 254.562C73.3086 254.707 73.6016 254.92 73.8438 255.201C74.082 255.486 74.2656 255.84 74.3945 256.262C74.5234 256.68 74.5879 257.164 74.5879 257.715V259.754ZM70.6738 259.051L72.9473 257.357C72.9395 257.037 72.9043 256.764 72.8418 256.537C72.7832 256.307 72.6953 256.123 72.5781 255.986C72.4883 255.877 72.377 255.797 72.2441 255.746C72.1152 255.691 71.9688 255.664 71.8047 255.664C71.6211 255.664 71.459 255.699 71.3184 255.77C71.1816 255.836 71.0664 255.938 70.9727 256.074C70.8711 256.219 70.7949 256.406 70.7441 256.637C70.6973 256.867 70.6738 257.141 70.6738 257.457V258.4C70.6738 258.588 70.6738 258.713 70.6738 258.775C70.6738 258.838 70.6738 258.93 70.6738 259.051ZM72.9473 260V259.01C72.9473 258.881 72.9473 258.787 72.9473 258.729C72.9473 258.666 72.9473 258.578 72.9473 258.465L70.6738 260.152C70.6816 260.41 70.707 260.639 70.75 260.838C70.7969 261.037 70.8613 261.203 70.9434 261.336C71.0371 261.496 71.1562 261.615 71.3008 261.693C71.4453 261.771 71.6172 261.811 71.8164 261.811C72 261.811 72.1621 261.777 72.3027 261.711C72.4434 261.641 72.5605 261.535 72.6543 261.395C72.752 261.246 72.8242 261.057 72.8711 260.826C72.9219 260.592 72.9473 260.316 72.9473 260ZM80.2305 263H78.584V256.455L76.4277 257.229V255.811L80.1426 254.469H80.2305V263Z" fill="#EEF5FC"/>
<path d="M39.8496 169.438V160.66H41.3555L41.4141 161.281C41.5 161.176 41.5938 161.082 41.6953 161C41.7969 160.914 41.9062 160.84 42.0234 160.777C42.1641 160.703 42.3184 160.646 42.4863 160.607C42.6582 160.564 42.8418 160.543 43.0371 160.543C43.4395 160.543 43.7949 160.621 44.1035 160.777C44.4121 160.93 44.6719 161.146 44.8828 161.428C45.0938 161.713 45.252 162.055 45.3574 162.453C45.4668 162.848 45.5215 163.285 45.5215 163.766V163.889C45.5215 164.35 45.4668 164.777 45.3574 165.172C45.252 165.566 45.0957 165.906 44.8887 166.191C44.6777 166.48 44.418 166.707 44.1094 166.871C43.8008 167.035 43.4473 167.117 43.0488 167.117C42.8379 167.117 42.6426 167.094 42.4629 167.047C42.2871 167.004 42.123 166.939 41.9707 166.854C41.8809 166.799 41.7949 166.738 41.7129 166.672C41.6309 166.605 41.5527 166.531 41.4785 166.449V169.438H39.8496ZM43.8926 163.766C43.8926 163.5 43.8672 163.252 43.8164 163.021C43.7695 162.787 43.6953 162.584 43.5938 162.412C43.4883 162.244 43.3535 162.111 43.1895 162.014C43.0293 161.916 42.834 161.867 42.6035 161.867C42.4707 161.867 42.3496 161.881 42.2402 161.908C42.1309 161.932 42.0312 161.967 41.9414 162.014C41.8398 162.068 41.75 162.137 41.6719 162.219C41.5977 162.301 41.5332 162.396 41.4785 162.506V165.154C41.5293 165.256 41.5898 165.348 41.6602 165.43C41.7344 165.512 41.8184 165.582 41.9121 165.641C42.002 165.695 42.1055 165.738 42.2227 165.77C42.3398 165.797 42.4707 165.811 42.6152 165.811C42.8457 165.811 43.041 165.76 43.2012 165.658C43.3652 165.557 43.498 165.418 43.5996 165.242C43.7012 165.066 43.7754 164.863 43.8223 164.633C43.8691 164.398 43.8926 164.15 43.8926 163.889V163.766ZM48.6621 161.533C48.7441 161.412 48.834 161.301 48.9316 161.199C49.0332 161.094 49.1387 161.002 49.248 160.924C49.416 160.803 49.6016 160.709 49.8047 160.643C50.0078 160.576 50.2227 160.543 50.4492 160.543C50.7812 160.543 51.0859 160.594 51.3633 160.695C51.6406 160.793 51.8789 160.947 52.0781 161.158C52.2773 161.369 52.4316 161.641 52.541 161.973C52.6543 162.301 52.7109 162.697 52.7109 163.162V167H51.082V163.15C51.082 162.924 51.0527 162.729 50.9941 162.564C50.9395 162.4 50.8594 162.268 50.7539 162.166C50.6484 162.064 50.5215 161.99 50.373 161.943C50.2246 161.893 50.0566 161.867 49.8691 161.867C49.7246 161.867 49.5898 161.881 49.4648 161.908C49.3398 161.936 49.2266 161.977 49.125 162.031C49.0312 162.078 48.9453 162.135 48.8672 162.201C48.793 162.268 48.7246 162.342 48.6621 162.424V167H47.0332V158H48.6621V161.533ZM54.6738 160.66H58.125V165.676H59.8418V167H54.6738V165.676H56.4785V161.99H54.6738V160.66ZM56.3613 159.037C56.3613 158.912 56.3828 158.797 56.4258 158.691C56.4727 158.582 56.5371 158.488 56.6191 158.41C56.7012 158.336 56.7988 158.277 56.9121 158.234C57.0293 158.191 57.1582 158.17 57.2988 158.17C57.5879 158.17 57.8164 158.252 57.9844 158.416C58.1562 158.576 58.2422 158.783 58.2422 159.037C58.2422 159.291 58.1562 159.5 57.9844 159.664C57.8164 159.824 57.5879 159.904 57.2988 159.904C57.1582 159.904 57.0293 159.883 56.9121 159.84C56.7988 159.797 56.7012 159.736 56.6191 159.658C56.5371 159.584 56.4727 159.494 56.4258 159.389C56.3828 159.279 56.3613 159.162 56.3613 159.037ZM61.4473 167V160.66H62.9238L63.0234 161.539C63.1055 161.422 63.1953 161.314 63.293 161.217C63.3906 161.119 63.4941 161.031 63.6035 160.953C63.791 160.82 63.9961 160.719 64.2188 160.648C64.4414 160.578 64.6777 160.543 64.9277 160.543C65.248 160.543 65.541 160.59 65.8066 160.684C66.0723 160.777 66.3027 160.926 66.498 161.129C66.6895 161.336 66.8379 161.602 66.9434 161.926C67.0527 162.246 67.1074 162.637 67.1074 163.098V167H65.4785V163.121C65.4785 162.871 65.4492 162.666 65.3906 162.506C65.3359 162.342 65.2559 162.213 65.1504 162.119C65.0449 162.025 64.918 161.961 64.7695 161.926C64.6211 161.887 64.4531 161.867 64.2656 161.867C64.1094 161.867 63.9648 161.885 63.832 161.92C63.7031 161.955 63.5879 162.008 63.4863 162.078C63.4043 162.129 63.3301 162.189 63.2637 162.26C63.1973 162.33 63.1367 162.408 63.082 162.494V167H61.4473ZM71.6426 159.107V160.66H74.0098V161.861H71.6426V164.586C71.6426 164.816 71.668 165.01 71.7188 165.166C71.7734 165.318 71.8496 165.439 71.9473 165.529C72.0449 165.623 72.1621 165.689 72.2988 165.729C72.4395 165.768 72.5957 165.787 72.7676 165.787C72.8926 165.787 73.0195 165.781 73.1484 165.77C73.2812 165.758 73.4082 165.742 73.5293 165.723C73.6465 165.707 73.7559 165.689 73.8574 165.67C73.9629 165.65 74.0527 165.631 74.127 165.611L74.2852 166.73C74.1719 166.797 74.0391 166.855 73.8867 166.906C73.7344 166.953 73.5723 166.992 73.4004 167.023C73.2285 167.055 73.0488 167.078 72.8613 167.094C72.6777 167.113 72.4961 167.123 72.3164 167.123C71.9688 167.123 71.6523 167.078 71.3672 166.988C71.0859 166.895 70.8457 166.75 70.6465 166.555C70.4434 166.363 70.2871 166.119 70.1777 165.822C70.0684 165.521 70.0137 165.162 70.0137 164.744V161.861H68.5664V160.66H70.0137V159.107H71.6426ZM81.2461 168.271H75.9023V167H81.2461V168.271ZM87.1582 165.26C87.1582 165.162 87.1348 165.076 87.0879 165.002C87.0449 164.928 86.9668 164.857 86.8535 164.791C86.7363 164.729 86.582 164.67 86.3906 164.615C86.1992 164.561 85.957 164.506 85.6641 164.451C85.293 164.377 84.9531 164.285 84.6445 164.176C84.3398 164.062 84.0781 163.926 83.8594 163.766C83.6406 163.609 83.4688 163.428 83.3438 163.221C83.2227 163.014 83.1621 162.775 83.1621 162.506C83.1621 162.244 83.2246 161.994 83.3496 161.756C83.4746 161.518 83.6543 161.309 83.8887 161.129C84.123 160.949 84.4082 160.807 84.7441 160.701C85.0801 160.596 85.459 160.543 85.8809 160.543C86.3223 160.543 86.7188 160.596 87.0703 160.701C87.4219 160.803 87.7207 160.943 87.9668 161.123C88.209 161.307 88.3945 161.523 88.5234 161.773C88.6523 162.023 88.7168 162.295 88.7168 162.588H87.0879C87.0879 162.482 87.0703 162.385 87.0352 162.295C87 162.201 86.9473 162.117 86.877 162.043C86.7793 161.945 86.6465 161.867 86.4785 161.809C86.3145 161.75 86.1152 161.721 85.8809 161.721C85.6816 161.721 85.5078 161.74 85.3594 161.779C85.2109 161.818 85.0898 161.873 84.9961 161.943C84.9102 162.006 84.8438 162.08 84.7969 162.166C84.7539 162.248 84.7324 162.336 84.7324 162.43C84.7324 162.523 84.752 162.611 84.791 162.693C84.8301 162.771 84.9004 162.842 85.002 162.904C85.0996 162.971 85.2344 163.031 85.4062 163.086C85.5781 163.137 85.7969 163.182 86.0625 163.221C86.4453 163.283 86.8008 163.363 87.1289 163.461C87.457 163.559 87.7402 163.684 87.9785 163.836C88.2168 163.992 88.4023 164.182 88.5352 164.404C88.6719 164.623 88.7402 164.885 88.7402 165.189C88.7402 165.471 88.6719 165.73 88.5352 165.969C88.4023 166.203 88.2129 166.406 87.9668 166.578C87.7168 166.75 87.416 166.885 87.0645 166.982C86.7129 167.076 86.3203 167.123 85.8867 167.123C85.4102 167.123 84.9883 167.061 84.6211 166.936C84.2578 166.811 83.9531 166.646 83.707 166.443C83.4609 166.244 83.2734 166.018 83.1445 165.764C83.0195 165.506 82.957 165.248 82.957 164.99H84.5098C84.5215 165.162 84.5684 165.311 84.6504 165.436C84.7324 165.557 84.8379 165.654 84.9668 165.729C85.0957 165.807 85.2422 165.863 85.4062 165.898C85.5742 165.934 85.7461 165.951 85.9219 165.951C86.1328 165.951 86.3164 165.934 86.4727 165.898C86.6328 165.859 86.7637 165.809 86.8652 165.746C86.9629 165.684 87.0352 165.611 87.082 165.529C87.1328 165.447 87.1582 165.357 87.1582 165.26ZM90.1113 163.777C90.1113 163.297 90.166 162.857 90.2754 162.459C90.3848 162.061 90.5469 161.719 90.7617 161.434C90.9727 161.152 91.2324 160.934 91.541 160.777C91.8535 160.621 92.2109 160.543 92.6133 160.543C92.8242 160.543 93.0176 160.566 93.1934 160.613C93.373 160.66 93.5371 160.727 93.6855 160.812C93.791 160.875 93.8906 160.947 93.9844 161.029C94.0781 161.111 94.166 161.203 94.248 161.305L94.3477 160.66H95.7832V169.438H94.1484V166.461C94.0664 166.555 93.9766 166.639 93.8789 166.713C93.7812 166.787 93.6797 166.852 93.5742 166.906C93.4375 166.973 93.2871 167.023 93.123 167.059C92.9629 167.098 92.7891 167.117 92.6016 167.117C92.2031 167.117 91.8496 167.037 91.541 166.877C91.2324 166.713 90.9727 166.486 90.7617 166.197C90.5508 165.912 90.3887 165.574 90.2754 165.184C90.166 164.789 90.1113 164.361 90.1113 163.9V163.777ZM91.7402 163.9C91.7402 164.162 91.7637 164.408 91.8105 164.639C91.8574 164.869 91.9316 165.07 92.0332 165.242C92.1348 165.418 92.2656 165.557 92.4258 165.658C92.5898 165.76 92.7871 165.811 93.0176 165.811C93.1582 165.811 93.2852 165.797 93.3984 165.77C93.5156 165.738 93.6211 165.697 93.7148 165.646C93.8086 165.592 93.8906 165.525 93.9609 165.447C94.0312 165.365 94.0938 165.273 94.1484 165.172V162.477C94.0938 162.379 94.0312 162.293 93.9609 162.219C93.8906 162.141 93.8086 162.074 93.7148 162.02C93.625 161.969 93.5215 161.93 93.4043 161.902C93.291 161.875 93.166 161.861 93.0293 161.861C92.7988 161.861 92.6016 161.912 92.4375 162.014C92.2773 162.111 92.1465 162.246 92.0449 162.418C91.9395 162.59 91.8613 162.793 91.8105 163.027C91.7637 163.258 91.7402 163.508 91.7402 163.777V163.9ZM101.619 167L101.525 166.109C101.311 166.426 101.051 166.674 100.746 166.854C100.445 167.033 100.115 167.123 99.7559 167.123C99.4277 167.123 99.127 167.072 98.8535 166.971C98.5801 166.869 98.3457 166.707 98.1504 166.484C97.9551 166.266 97.8027 165.986 97.6934 165.646C97.5879 165.303 97.5352 164.891 97.5352 164.41V160.66H99.1641V164.422C99.1641 164.68 99.1816 164.896 99.2168 165.072C99.2559 165.248 99.3164 165.389 99.3984 165.494C99.4805 165.604 99.5879 165.682 99.7207 165.729C99.8535 165.775 100.016 165.799 100.207 165.799C100.379 165.799 100.533 165.781 100.67 165.746C100.811 165.711 100.934 165.66 101.039 165.594C101.129 165.535 101.209 165.465 101.279 165.383C101.35 165.301 101.41 165.209 101.461 165.107V160.66H103.096V167H101.619ZM108.65 167C108.611 166.922 108.578 166.832 108.551 166.73C108.523 166.629 108.5 166.521 108.48 166.408C108.391 166.506 108.287 166.598 108.17 166.684C108.053 166.77 107.924 166.844 107.783 166.906C107.639 166.973 107.48 167.023 107.309 167.059C107.137 167.098 106.951 167.117 106.752 167.117C106.428 167.117 106.129 167.07 105.855 166.977C105.586 166.883 105.354 166.752 105.158 166.584C104.963 166.416 104.811 166.217 104.701 165.986C104.592 165.752 104.537 165.498 104.537 165.225C104.537 164.873 104.605 164.562 104.742 164.293C104.879 164.02 105.084 163.795 105.357 163.619C105.604 163.459 105.906 163.338 106.266 163.256C106.629 163.17 107.045 163.127 107.514 163.127H108.422V162.752C108.422 162.604 108.398 162.471 108.352 162.354C108.305 162.232 108.234 162.129 108.141 162.043C108.043 161.953 107.92 161.885 107.771 161.838C107.627 161.787 107.457 161.762 107.262 161.762C107.09 161.762 106.941 161.783 106.816 161.826C106.691 161.865 106.59 161.922 106.512 161.996C106.441 162.062 106.389 162.143 106.354 162.236C106.322 162.33 106.307 162.434 106.307 162.547H104.678C104.678 162.277 104.736 162.021 104.854 161.779C104.975 161.537 105.15 161.324 105.381 161.141C105.607 160.957 105.885 160.812 106.213 160.707C106.545 160.598 106.924 160.543 107.35 160.543C107.732 160.543 108.088 160.59 108.416 160.684C108.748 160.777 109.035 160.916 109.277 161.1C109.52 161.283 109.709 161.516 109.846 161.797C109.982 162.074 110.051 162.396 110.051 162.764V165.482C110.051 165.822 110.072 166.104 110.115 166.326C110.158 166.549 110.221 166.74 110.303 166.9V167H108.65ZM107.098 165.857C107.262 165.857 107.414 165.838 107.555 165.799C107.695 165.76 107.822 165.709 107.936 165.646C108.049 165.584 108.146 165.514 108.229 165.436C108.311 165.354 108.375 165.271 108.422 165.189V164.1H107.59C107.336 164.1 107.119 164.125 106.939 164.176C106.76 164.223 106.613 164.289 106.5 164.375C106.387 164.465 106.303 164.572 106.248 164.697C106.193 164.818 106.166 164.951 106.166 165.096C106.166 165.209 106.186 165.314 106.225 165.412C106.268 165.506 106.328 165.586 106.406 165.652C106.484 165.715 106.58 165.766 106.693 165.805C106.811 165.84 106.945 165.857 107.098 165.857ZM115.986 165.26C115.986 165.162 115.963 165.076 115.916 165.002C115.873 164.928 115.795 164.857 115.682 164.791C115.564 164.729 115.41 164.67 115.219 164.615C115.027 164.561 114.785 164.506 114.492 164.451C114.121 164.377 113.781 164.285 113.473 164.176C113.168 164.062 112.906 163.926 112.688 163.766C112.469 163.609 112.297 163.428 112.172 163.221C112.051 163.014 111.99 162.775 111.99 162.506C111.99 162.244 112.053 161.994 112.178 161.756C112.303 161.518 112.482 161.309 112.717 161.129C112.951 160.949 113.236 160.807 113.572 160.701C113.908 160.596 114.287 160.543 114.709 160.543C115.15 160.543 115.547 160.596 115.898 160.701C116.25 160.803 116.549 160.943 116.795 161.123C117.037 161.307 117.223 161.523 117.352 161.773C117.48 162.023 117.545 162.295 117.545 162.588H115.916C115.916 162.482 115.898 162.385 115.863 162.295C115.828 162.201 115.775 162.117 115.705 162.043C115.607 161.945 115.475 161.867 115.307 161.809C115.143 161.75 114.943 161.721 114.709 161.721C114.51 161.721 114.336 161.74 114.188 161.779C114.039 161.818 113.918 161.873 113.824 161.943C113.738 162.006 113.672 162.08 113.625 162.166C113.582 162.248 113.561 162.336 113.561 162.43C113.561 162.523 113.58 162.611 113.619 162.693C113.658 162.771 113.729 162.842 113.83 162.904C113.928 162.971 114.062 163.031 114.234 163.086C114.406 163.137 114.625 163.182 114.891 163.221C115.273 163.283 115.629 163.363 115.957 163.461C116.285 163.559 116.568 163.684 116.807 163.836C117.045 163.992 117.23 164.182 117.363 164.404C117.5 164.623 117.568 164.885 117.568 165.189C117.568 165.471 117.5 165.73 117.363 165.969C117.23 166.203 117.041 166.406 116.795 166.578C116.545 166.75 116.244 166.885 115.893 166.982C115.541 167.076 115.148 167.123 114.715 167.123C114.238 167.123 113.816 167.061 113.449 166.936C113.086 166.811 112.781 166.646 112.535 166.443C112.289 166.244 112.102 166.018 111.973 165.764C111.848 165.506 111.785 165.248 111.785 164.99H113.338C113.35 165.162 113.396 165.311 113.479 165.436C113.561 165.557 113.666 165.654 113.795 165.729C113.924 165.807 114.07 165.863 114.234 165.898C114.402 165.934 114.574 165.951 114.75 165.951C114.961 165.951 115.145 165.934 115.301 165.898C115.461 165.859 115.592 165.809 115.693 165.746C115.791 165.684 115.863 165.611 115.91 165.529C115.961 165.447 115.986 165.357 115.986 165.26ZM120.732 161.533C120.814 161.412 120.904 161.301 121.002 161.199C121.104 161.094 121.209 161.002 121.318 160.924C121.486 160.803 121.672 160.709 121.875 160.643C122.078 160.576 122.293 160.543 122.52 160.543C122.852 160.543 123.156 160.594 123.434 160.695C123.711 160.793 123.949 160.947 124.148 161.158C124.348 161.369 124.502 161.641 124.611 161.973C124.725 162.301 124.781 162.697 124.781 163.162V167H123.152V163.15C123.152 162.924 123.123 162.729 123.064 162.564C123.01 162.4 122.93 162.268 122.824 162.166C122.719 162.064 122.592 161.99 122.443 161.943C122.295 161.893 122.127 161.867 121.939 161.867C121.795 161.867 121.66 161.881 121.535 161.908C121.41 161.936 121.297 161.977 121.195 162.031C121.102 162.078 121.016 162.135 120.938 162.201C120.863 162.268 120.795 162.342 120.732 162.424V167H119.104V158H120.732V161.533ZM127.506 163.531C127.506 162.98 127.547 162.463 127.629 161.979C127.715 161.49 127.83 161.039 127.975 160.625C128.119 160.215 128.287 159.84 128.479 159.5C128.674 159.16 128.879 158.859 129.094 158.598C129.309 158.336 129.529 158.115 129.756 157.936C129.986 157.752 130.209 157.611 130.424 157.514L130.74 158.404C130.615 158.498 130.49 158.611 130.365 158.744C130.24 158.877 130.117 159.029 129.996 159.201C129.84 159.424 129.693 159.688 129.557 159.992C129.424 160.297 129.307 160.629 129.205 160.988C129.115 161.336 129.043 161.721 128.988 162.143C128.934 162.564 128.906 163.023 128.906 163.52V163.672C128.906 164.16 128.932 164.611 128.982 165.025C129.037 165.439 129.096 165.77 129.158 166.016C129.244 166.359 129.344 166.678 129.457 166.971C129.574 167.264 129.699 167.52 129.832 167.738C129.973 167.977 130.121 168.184 130.277 168.359C130.434 168.535 130.588 168.682 130.74 168.799L130.424 169.678C130.209 169.58 129.986 169.439 129.756 169.256C129.529 169.072 129.309 168.85 129.094 168.588C128.879 168.33 128.674 168.031 128.479 167.691C128.287 167.352 128.119 166.975 127.975 166.561C127.83 166.15 127.715 165.703 127.629 165.219C127.547 164.734 127.506 164.215 127.506 163.66V163.531ZM133.951 160.66H137.402V165.676H139.119V167H133.951V165.676H135.756V161.99H133.951V160.66ZM135.639 159.037C135.639 158.912 135.66 158.797 135.703 158.691C135.75 158.582 135.814 158.488 135.896 158.41C135.979 158.336 136.076 158.277 136.189 158.234C136.307 158.191 136.436 158.17 136.576 158.17C136.865 158.17 137.094 158.252 137.262 158.416C137.434 158.576 137.52 158.783 137.52 159.037C137.52 159.291 137.434 159.5 137.262 159.664C137.094 159.824 136.865 159.904 136.576 159.904C136.436 159.904 136.307 159.883 136.189 159.84C136.076 159.797 135.979 159.736 135.896 159.658C135.814 159.584 135.75 159.494 135.703 159.389C135.66 159.279 135.639 159.162 135.639 159.037ZM140.725 167V160.66H142.201L142.301 161.539C142.383 161.422 142.473 161.314 142.57 161.217C142.668 161.119 142.771 161.031 142.881 160.953C143.068 160.82 143.273 160.719 143.496 160.648C143.719 160.578 143.955 160.543 144.205 160.543C144.525 160.543 144.818 160.59 145.084 160.684C145.35 160.777 145.58 160.926 145.775 161.129C145.967 161.336 146.115 161.602 146.221 161.926C146.33 162.246 146.385 162.637 146.385 163.098V167H144.756V163.121C144.756 162.871 144.727 162.666 144.668 162.506C144.613 162.342 144.533 162.213 144.428 162.119C144.322 162.025 144.195 161.961 144.047 161.926C143.898 161.887 143.73 161.867 143.543 161.867C143.387 161.867 143.242 161.885 143.109 161.92C142.98 161.955 142.865 162.008 142.764 162.078C142.682 162.129 142.607 162.189 142.541 162.26C142.475 162.33 142.414 162.408 142.359 162.494V167H140.725ZM150.92 159.107V160.66H153.287V161.861H150.92V164.586C150.92 164.816 150.945 165.01 150.996 165.166C151.051 165.318 151.127 165.439 151.225 165.529C151.322 165.623 151.439 165.689 151.576 165.729C151.717 165.768 151.873 165.787 152.045 165.787C152.17 165.787 152.297 165.781 152.426 165.77C152.559 165.758 152.686 165.742 152.807 165.723C152.924 165.707 153.033 165.689 153.135 165.67C153.24 165.65 153.33 165.631 153.404 165.611L153.562 166.73C153.449 166.797 153.316 166.855 153.164 166.906C153.012 166.953 152.85 166.992 152.678 167.023C152.506 167.055 152.326 167.078 152.139 167.094C151.955 167.113 151.773 167.123 151.594 167.123C151.246 167.123 150.93 167.078 150.645 166.988C150.363 166.895 150.123 166.75 149.924 166.555C149.721 166.363 149.564 166.119 149.455 165.822C149.346 165.521 149.291 165.162 149.291 164.744V161.861H147.844V160.66H149.291V159.107H150.92ZM159.229 165.26C159.229 165.162 159.205 165.076 159.158 165.002C159.115 164.928 159.037 164.857 158.924 164.791C158.807 164.729 158.652 164.67 158.461 164.615C158.27 164.561 158.027 164.506 157.734 164.451C157.363 164.377 157.023 164.285 156.715 164.176C156.41 164.062 156.148 163.926 155.93 163.766C155.711 163.609 155.539 163.428 155.414 163.221C155.293 163.014 155.232 162.775 155.232 162.506C155.232 162.244 155.295 161.994 155.42 161.756C155.545 161.518 155.725 161.309 155.959 161.129C156.193 160.949 156.479 160.807 156.814 160.701C157.15 160.596 157.529 160.543 157.951 160.543C158.393 160.543 158.789 160.596 159.141 160.701C159.492 160.803 159.791 160.943 160.037 161.123C160.279 161.307 160.465 161.523 160.594 161.773C160.723 162.023 160.787 162.295 160.787 162.588H159.158C159.158 162.482 159.141 162.385 159.105 162.295C159.07 162.201 159.018 162.117 158.947 162.043C158.85 161.945 158.717 161.867 158.549 161.809C158.385 161.75 158.186 161.721 157.951 161.721C157.752 161.721 157.578 161.74 157.43 161.779C157.281 161.818 157.16 161.873 157.066 161.943C156.98 162.006 156.914 162.08 156.867 162.166C156.824 162.248 156.803 162.336 156.803 162.43C156.803 162.523 156.822 162.611 156.861 162.693C156.9 162.771 156.971 162.842 157.072 162.904C157.17 162.971 157.305 163.031 157.477 163.086C157.648 163.137 157.867 163.182 158.133 163.221C158.516 163.283 158.871 163.363 159.199 163.461C159.527 163.559 159.811 163.684 160.049 163.836C160.287 163.992 160.473 164.182 160.605 164.404C160.742 164.623 160.811 164.885 160.811 165.189C160.811 165.471 160.742 165.73 160.605 165.969C160.473 166.203 160.283 166.406 160.037 166.578C159.787 166.75 159.486 166.885 159.135 166.982C158.783 167.076 158.391 167.123 157.957 167.123C157.48 167.123 157.059 167.061 156.691 166.936C156.328 166.811 156.023 166.646 155.777 166.443C155.531 166.244 155.344 166.018 155.215 165.764C155.09 165.506 155.027 165.248 155.027 164.99H156.58C156.592 165.162 156.639 165.311 156.721 165.436C156.803 165.557 156.908 165.654 157.037 165.729C157.166 165.807 157.312 165.863 157.477 165.898C157.645 165.934 157.816 165.951 157.992 165.951C158.203 165.951 158.387 165.934 158.543 165.898C158.703 165.859 158.834 165.809 158.936 165.746C159.033 165.684 159.105 165.611 159.152 165.529C159.203 165.447 159.229 165.357 159.229 165.26ZM166.682 163.66C166.682 164.195 166.639 164.703 166.553 165.184C166.467 165.66 166.35 166.105 166.201 166.52C166.053 166.934 165.879 167.311 165.68 167.65C165.484 167.994 165.275 168.299 165.053 168.564C164.83 168.834 164.602 169.062 164.367 169.25C164.133 169.438 163.904 169.58 163.682 169.678L163.371 168.799C163.508 168.697 163.645 168.57 163.781 168.418C163.918 168.27 164.051 168.096 164.18 167.896C164.332 167.662 164.471 167.396 164.596 167.1C164.725 166.803 164.838 166.471 164.936 166.104C165.018 165.768 165.082 165.396 165.129 164.99C165.18 164.584 165.205 164.145 165.205 163.672V163.52C165.205 163.059 165.18 162.629 165.129 162.23C165.082 161.832 165.018 161.465 164.936 161.129C164.83 160.711 164.701 160.336 164.549 160.004C164.4 159.672 164.242 159.385 164.074 159.143C163.961 158.982 163.844 158.84 163.723 158.715C163.605 158.586 163.488 158.477 163.371 158.387L163.682 157.514C163.904 157.611 164.133 157.754 164.367 157.941C164.602 158.129 164.83 158.355 165.053 158.621C165.275 158.891 165.484 159.197 165.68 159.541C165.879 159.881 166.053 160.258 166.201 160.672C166.35 161.086 166.467 161.533 166.553 162.014C166.639 162.49 166.682 162.996 166.682 163.531V163.66Z" fill="#EEF5FC"/>
<path d="M141.172 254.469H142.818L142.824 260.381C142.82 260.787 142.742 261.158 142.59 261.494C142.441 261.826 142.236 262.113 141.975 262.355C141.713 262.598 141.404 262.785 141.049 262.918C140.697 263.051 140.318 263.117 139.912 263.117C139.482 263.117 139.092 263.062 138.74 262.953C138.389 262.844 138.088 262.68 137.838 262.461C137.584 262.246 137.387 261.975 137.246 261.646C137.105 261.318 137.033 260.934 137.029 260.492H138.682C138.682 260.695 138.701 260.873 138.74 261.025C138.779 261.178 138.838 261.307 138.916 261.412C139.018 261.541 139.15 261.637 139.314 261.699C139.479 261.762 139.678 261.793 139.912 261.793C140.1 261.793 140.271 261.758 140.428 261.688C140.584 261.613 140.717 261.514 140.826 261.389C140.936 261.264 141.02 261.115 141.078 260.943C141.141 260.768 141.172 260.58 141.172 260.381V254.469ZM148.373 263C148.334 262.922 148.301 262.832 148.273 262.73C148.246 262.629 148.223 262.521 148.203 262.408C148.113 262.506 148.01 262.598 147.893 262.684C147.775 262.77 147.646 262.844 147.506 262.906C147.361 262.973 147.203 263.023 147.031 263.059C146.859 263.098 146.674 263.117 146.475 263.117C146.15 263.117 145.852 263.07 145.578 262.977C145.309 262.883 145.076 262.752 144.881 262.584C144.686 262.416 144.533 262.217 144.424 261.986C144.314 261.752 144.26 261.498 144.26 261.225C144.26 260.873 144.328 260.562 144.465 260.293C144.602 260.02 144.807 259.795 145.08 259.619C145.326 259.459 145.629 259.338 145.988 259.256C146.352 259.17 146.768 259.127 147.236 259.127H148.145V258.752C148.145 258.604 148.121 258.471 148.074 258.354C148.027 258.232 147.957 258.129 147.863 258.043C147.766 257.953 147.643 257.885 147.494 257.838C147.35 257.787 147.18 257.762 146.984 257.762C146.812 257.762 146.664 257.783 146.539 257.826C146.414 257.865 146.312 257.922 146.234 257.996C146.164 258.062 146.111 258.143 146.076 258.236C146.045 258.33 146.029 258.434 146.029 258.547H144.4C144.4 258.277 144.459 258.021 144.576 257.779C144.697 257.537 144.873 257.324 145.104 257.141C145.33 256.957 145.607 256.812 145.936 256.707C146.268 256.598 146.646 256.543 147.072 256.543C147.455 256.543 147.811 256.59 148.139 256.684C148.471 256.777 148.758 256.916 149 257.1C149.242 257.283 149.432 257.516 149.568 257.797C149.705 258.074 149.773 258.396 149.773 258.764V261.482C149.773 261.822 149.795 262.104 149.838 262.326C149.881 262.549 149.943 262.74 150.025 262.9V263H148.373ZM146.82 261.857C146.984 261.857 147.137 261.838 147.277 261.799C147.418 261.76 147.545 261.709 147.658 261.646C147.771 261.584 147.869 261.514 147.951 261.436C148.033 261.354 148.098 261.271 148.145 261.189V260.1H147.312C147.059 260.1 146.842 260.125 146.662 260.176C146.482 260.223 146.336 260.289 146.223 260.375C146.109 260.465 146.025 260.572 145.971 260.697C145.916 260.818 145.889 260.951 145.889 261.096C145.889 261.209 145.908 261.314 145.947 261.412C145.99 261.506 146.051 261.586 146.129 261.652C146.207 261.715 146.303 261.766 146.416 261.805C146.533 261.84 146.668 261.857 146.82 261.857ZM151.619 263V256.66H153.096L153.195 257.539C153.277 257.422 153.367 257.314 153.465 257.217C153.562 257.119 153.666 257.031 153.775 256.953C153.963 256.82 154.168 256.719 154.391 256.648C154.613 256.578 154.85 256.543 155.1 256.543C155.42 256.543 155.713 256.59 155.979 256.684C156.244 256.777 156.475 256.926 156.67 257.129C156.861 257.336 157.01 257.602 157.115 257.926C157.225 258.246 157.279 258.637 157.279 259.098V263H155.65V259.121C155.65 258.871 155.621 258.666 155.562 258.506C155.508 258.342 155.428 258.213 155.322 258.119C155.217 258.025 155.09 257.961 154.941 257.926C154.793 257.887 154.625 257.867 154.438 257.867C154.281 257.867 154.137 257.885 154.004 257.92C153.875 257.955 153.76 258.008 153.658 258.078C153.576 258.129 153.502 258.189 153.436 258.26C153.369 258.33 153.309 258.408 153.254 258.494V263H151.619ZM171.588 259.754C171.588 260.305 171.523 260.791 171.395 261.213C171.27 261.631 171.088 261.98 170.85 262.262C170.611 262.547 170.32 262.762 169.977 262.906C169.633 263.051 169.246 263.123 168.816 263.123C168.391 263.123 168.006 263.051 167.662 262.906C167.318 262.762 167.027 262.547 166.789 262.262C166.547 261.98 166.359 261.631 166.227 261.213C166.098 260.791 166.033 260.305 166.033 259.754V257.715C166.033 257.164 166.098 256.68 166.227 256.262C166.355 255.84 166.541 255.486 166.783 255.201C167.021 254.92 167.311 254.707 167.65 254.562C167.994 254.418 168.379 254.346 168.805 254.346C169.234 254.346 169.621 254.418 169.965 254.562C170.309 254.707 170.602 254.92 170.844 255.201C171.082 255.486 171.266 255.84 171.395 256.262C171.523 256.68 171.588 257.164 171.588 257.715V259.754ZM167.674 259.051L169.947 257.357C169.939 257.037 169.904 256.764 169.842 256.537C169.783 256.307 169.695 256.123 169.578 255.986C169.488 255.877 169.377 255.797 169.244 255.746C169.115 255.691 168.969 255.664 168.805 255.664C168.621 255.664 168.459 255.699 168.318 255.77C168.182 255.836 168.066 255.938 167.973 256.074C167.871 256.219 167.795 256.406 167.744 256.637C167.697 256.867 167.674 257.141 167.674 257.457V258.4C167.674 258.588 167.674 258.713 167.674 258.775C167.674 258.838 167.674 258.93 167.674 259.051ZM169.947 260V259.01C169.947 258.881 169.947 258.787 169.947 258.729C169.947 258.666 169.947 258.578 169.947 258.465L167.674 260.152C167.682 260.41 167.707 260.639 167.75 260.838C167.797 261.037 167.861 261.203 167.943 261.336C168.037 261.496 168.156 261.615 168.301 261.693C168.445 261.771 168.617 261.811 168.816 261.811C169 261.811 169.162 261.777 169.303 261.711C169.443 261.641 169.561 261.535 169.654 261.395C169.752 261.246 169.824 261.057 169.871 260.826C169.922 260.592 169.947 260.316 169.947 260ZM174.881 258.02H175.766C176 258.02 176.201 257.988 176.369 257.926C176.541 257.859 176.68 257.768 176.785 257.65C176.883 257.549 176.955 257.426 177.002 257.281C177.053 257.133 177.078 256.973 177.078 256.801C177.078 256.633 177.053 256.48 177.002 256.344C176.955 256.203 176.883 256.082 176.785 255.98C176.688 255.883 176.562 255.807 176.41 255.752C176.262 255.697 176.088 255.67 175.889 255.67C175.725 255.67 175.57 255.693 175.426 255.74C175.285 255.787 175.162 255.854 175.057 255.939C174.947 256.029 174.861 256.137 174.799 256.262C174.736 256.387 174.705 256.527 174.705 256.684H173.076C173.076 256.336 173.146 256.02 173.287 255.734C173.432 255.449 173.629 255.203 173.879 254.996C174.129 254.793 174.422 254.635 174.758 254.521C175.098 254.408 175.463 254.352 175.854 254.352C176.275 254.352 176.662 254.404 177.014 254.51C177.365 254.611 177.666 254.764 177.916 254.967C178.166 255.174 178.359 255.43 178.496 255.734C178.637 256.035 178.707 256.385 178.707 256.783C178.707 256.967 178.68 257.148 178.625 257.328C178.57 257.504 178.49 257.672 178.385 257.832C178.279 257.992 178.148 258.141 177.992 258.277C177.836 258.41 177.656 258.525 177.453 258.623C177.691 258.709 177.896 258.818 178.068 258.951C178.244 259.084 178.389 259.234 178.502 259.402C178.615 259.574 178.699 259.762 178.754 259.965C178.809 260.168 178.836 260.383 178.836 260.609C178.836 261.008 178.76 261.363 178.607 261.676C178.455 261.988 178.246 262.25 177.98 262.461C177.715 262.676 177.398 262.84 177.031 262.953C176.668 263.062 176.275 263.117 175.854 263.117C175.49 263.117 175.135 263.068 174.787 262.971C174.443 262.869 174.137 262.717 173.867 262.514C173.598 262.314 173.381 262.062 173.217 261.758C173.057 261.453 172.977 261.094 172.977 260.68H174.605C174.605 260.844 174.637 260.996 174.699 261.137C174.762 261.273 174.852 261.391 174.969 261.488C175.082 261.59 175.217 261.67 175.373 261.729C175.529 261.783 175.701 261.811 175.889 261.811C176.1 261.811 176.289 261.781 176.457 261.723C176.625 261.664 176.766 261.578 176.879 261.465C176.988 261.363 177.07 261.238 177.125 261.09C177.184 260.941 177.213 260.775 177.213 260.592C177.213 260.361 177.18 260.164 177.113 260C177.047 259.836 176.951 259.701 176.826 259.596C176.697 259.49 176.543 259.412 176.363 259.361C176.188 259.311 175.988 259.285 175.766 259.285H174.881V258.02Z" fill="#EEF5FC"/>
<path d="M242.172 254.469H243.818L243.824 260.381C243.82 260.787 243.742 261.158 243.59 261.494C243.441 261.826 243.236 262.113 242.975 262.355C242.713 262.598 242.404 262.785 242.049 262.918C241.697 263.051 241.318 263.117 240.912 263.117C240.482 263.117 240.092 263.062 239.74 262.953C239.389 262.844 239.088 262.68 238.838 262.461C238.584 262.246 238.387 261.975 238.246 261.646C238.105 261.318 238.033 260.934 238.029 260.492H239.682C239.682 260.695 239.701 260.873 239.74 261.025C239.779 261.178 239.838 261.307 239.916 261.412C240.018 261.541 240.15 261.637 240.314 261.699C240.479 261.762 240.678 261.793 240.912 261.793C241.1 261.793 241.271 261.758 241.428 261.688C241.584 261.613 241.717 261.514 241.826 261.389C241.936 261.264 242.02 261.115 242.078 260.943C242.141 260.768 242.172 260.58 242.172 260.381V254.469ZM249.373 263C249.334 262.922 249.301 262.832 249.273 262.73C249.246 262.629 249.223 262.521 249.203 262.408C249.113 262.506 249.01 262.598 248.893 262.684C248.775 262.77 248.646 262.844 248.506 262.906C248.361 262.973 248.203 263.023 248.031 263.059C247.859 263.098 247.674 263.117 247.475 263.117C247.15 263.117 246.852 263.07 246.578 262.977C246.309 262.883 246.076 262.752 245.881 262.584C245.686 262.416 245.533 262.217 245.424 261.986C245.314 261.752 245.26 261.498 245.26 261.225C245.26 260.873 245.328 260.562 245.465 260.293C245.602 260.02 245.807 259.795 246.08 259.619C246.326 259.459 246.629 259.338 246.988 259.256C247.352 259.17 247.768 259.127 248.236 259.127H249.145V258.752C249.145 258.604 249.121 258.471 249.074 258.354C249.027 258.232 248.957 258.129 248.863 258.043C248.766 257.953 248.643 257.885 248.494 257.838C248.35 257.787 248.18 257.762 247.984 257.762C247.812 257.762 247.664 257.783 247.539 257.826C247.414 257.865 247.312 257.922 247.234 257.996C247.164 258.062 247.111 258.143 247.076 258.236C247.045 258.33 247.029 258.434 247.029 258.547H245.4C245.4 258.277 245.459 258.021 245.576 257.779C245.697 257.537 245.873 257.324 246.104 257.141C246.33 256.957 246.607 256.812 246.936 256.707C247.268 256.598 247.646 256.543 248.072 256.543C248.455 256.543 248.811 256.59 249.139 256.684C249.471 256.777 249.758 256.916 250 257.1C250.242 257.283 250.432 257.516 250.568 257.797C250.705 258.074 250.773 258.396 250.773 258.764V261.482C250.773 261.822 250.795 262.104 250.838 262.326C250.881 262.549 250.943 262.74 251.025 262.9V263H249.373ZM247.82 261.857C247.984 261.857 248.137 261.838 248.277 261.799C248.418 261.76 248.545 261.709 248.658 261.646C248.771 261.584 248.869 261.514 248.951 261.436C249.033 261.354 249.098 261.271 249.145 261.189V260.1H248.312C248.059 260.1 247.842 260.125 247.662 260.176C247.482 260.223 247.336 260.289 247.223 260.375C247.109 260.465 247.025 260.572 246.971 260.697C246.916 260.818 246.889 260.951 246.889 261.096C246.889 261.209 246.908 261.314 246.947 261.412C246.99 261.506 247.051 261.586 247.129 261.652C247.207 261.715 247.303 261.766 247.416 261.805C247.533 261.84 247.668 261.857 247.82 261.857ZM252.619 263V256.66H254.096L254.195 257.539C254.277 257.422 254.367 257.314 254.465 257.217C254.562 257.119 254.666 257.031 254.775 256.953C254.963 256.82 255.168 256.719 255.391 256.648C255.613 256.578 255.85 256.543 256.1 256.543C256.42 256.543 256.713 256.59 256.979 256.684C257.244 256.777 257.475 256.926 257.67 257.129C257.861 257.336 258.01 257.602 258.115 257.926C258.225 258.246 258.279 258.637 258.279 259.098V263H256.65V259.121C256.65 258.871 256.621 258.666 256.562 258.506C256.508 258.342 256.428 258.213 256.322 258.119C256.217 258.025 256.09 257.961 255.941 257.926C255.793 257.887 255.625 257.867 255.438 257.867C255.281 257.867 255.137 257.885 255.004 257.92C254.875 257.955 254.76 258.008 254.658 258.078C254.576 258.129 254.502 258.189 254.436 258.26C254.369 258.33 254.309 258.408 254.254 258.494V263H252.619ZM272.588 259.754C272.588 260.305 272.523 260.791 272.395 261.213C272.27 261.631 272.088 261.98 271.85 262.262C271.611 262.547 271.32 262.762 270.977 262.906C270.633 263.051 270.246 263.123 269.816 263.123C269.391 263.123 269.006 263.051 268.662 262.906C268.318 262.762 268.027 262.547 267.789 262.262C267.547 261.98 267.359 261.631 267.227 261.213C267.098 260.791 267.033 260.305 267.033 259.754V257.715C267.033 257.164 267.098 256.68 267.227 256.262C267.355 255.84 267.541 255.486 267.783 255.201C268.021 254.92 268.311 254.707 268.65 254.562C268.994 254.418 269.379 254.346 269.805 254.346C270.234 254.346 270.621 254.418 270.965 254.562C271.309 254.707 271.602 254.92 271.844 255.201C272.082 255.486 272.266 255.84 272.395 256.262C272.523 256.68 272.588 257.164 272.588 257.715V259.754ZM268.674 259.051L270.947 257.357C270.939 257.037 270.904 256.764 270.842 256.537C270.783 256.307 270.695 256.123 270.578 255.986C270.488 255.877 270.377 255.797 270.244 255.746C270.115 255.691 269.969 255.664 269.805 255.664C269.621 255.664 269.459 255.699 269.318 255.77C269.182 255.836 269.066 255.938 268.973 256.074C268.871 256.219 268.795 256.406 268.744 256.637C268.697 256.867 268.674 257.141 268.674 257.457V258.4C268.674 258.588 268.674 258.713 268.674 258.775C268.674 258.838 268.674 258.93 268.674 259.051ZM270.947 260V259.01C270.947 258.881 270.947 258.787 270.947 258.729C270.947 258.666 270.947 258.578 270.947 258.465L268.674 260.152C268.682 260.41 268.707 260.639 268.75 260.838C268.797 261.037 268.861 261.203 268.943 261.336C269.037 261.496 269.156 261.615 269.301 261.693C269.445 261.771 269.617 261.811 269.816 261.811C270 261.811 270.162 261.777 270.303 261.711C270.443 261.641 270.561 261.535 270.654 261.395C270.752 261.246 270.824 261.057 270.871 260.826C270.922 260.592 270.947 260.316 270.947 260ZM274.322 258.799L274.809 254.469H279.543V255.852H276.15L275.945 257.727C276.066 257.656 276.238 257.584 276.461 257.51C276.684 257.436 276.939 257.398 277.229 257.398C277.639 257.398 278.004 257.465 278.324 257.598C278.648 257.727 278.922 257.914 279.145 258.16C279.363 258.406 279.531 258.707 279.648 259.062C279.766 259.418 279.824 259.82 279.824 260.27C279.824 260.652 279.768 261.016 279.654 261.359C279.541 261.703 279.367 262.006 279.133 262.268C278.898 262.529 278.604 262.736 278.248 262.889C277.893 263.041 277.473 263.117 276.988 263.117C276.621 263.117 276.266 263.062 275.922 262.953C275.582 262.844 275.279 262.684 275.014 262.473C274.748 262.262 274.531 262.004 274.363 261.699C274.199 261.391 274.111 261.039 274.1 260.645H275.705C275.744 261.016 275.877 261.303 276.104 261.506C276.334 261.709 276.627 261.811 276.982 261.811C277.201 261.811 277.387 261.77 277.539 261.688C277.695 261.605 277.822 261.492 277.92 261.348C278.014 261.203 278.082 261.031 278.125 260.832C278.172 260.633 278.195 260.418 278.195 260.188C278.195 259.961 278.166 259.754 278.107 259.566C278.053 259.375 277.967 259.211 277.85 259.074C277.732 258.938 277.586 258.832 277.41 258.758C277.234 258.684 277.027 258.646 276.789 258.646C276.629 258.646 276.49 258.66 276.373 258.688C276.256 258.715 276.152 258.75 276.062 258.793C275.973 258.836 275.893 258.887 275.822 258.945C275.752 259 275.686 259.059 275.623 259.121L274.322 258.799Z" fill="#EEF5FC"/>
<path d="M342.172 254.469H343.818L343.824 260.381C343.82 260.787 343.742 261.158 343.59 261.494C343.441 261.826 343.236 262.113 342.975 262.355C342.713 262.598 342.404 262.785 342.049 262.918C341.697 263.051 341.318 263.117 340.912 263.117C340.482 263.117 340.092 263.062 339.74 262.953C339.389 262.844 339.088 262.68 338.838 262.461C338.584 262.246 338.387 261.975 338.246 261.646C338.105 261.318 338.033 260.934 338.029 260.492H339.682C339.682 260.695 339.701 260.873 339.74 261.025C339.779 261.178 339.838 261.307 339.916 261.412C340.018 261.541 340.15 261.637 340.314 261.699C340.479 261.762 340.678 261.793 340.912 261.793C341.1 261.793 341.271 261.758 341.428 261.688C341.584 261.613 341.717 261.514 341.826 261.389C341.936 261.264 342.02 261.115 342.078 260.943C342.141 260.768 342.172 260.58 342.172 260.381V254.469ZM349.373 263C349.334 262.922 349.301 262.832 349.273 262.73C349.246 262.629 349.223 262.521 349.203 262.408C349.113 262.506 349.01 262.598 348.893 262.684C348.775 262.77 348.646 262.844 348.506 262.906C348.361 262.973 348.203 263.023 348.031 263.059C347.859 263.098 347.674 263.117 347.475 263.117C347.15 263.117 346.852 263.07 346.578 262.977C346.309 262.883 346.076 262.752 345.881 262.584C345.686 262.416 345.533 262.217 345.424 261.986C345.314 261.752 345.26 261.498 345.26 261.225C345.26 260.873 345.328 260.562 345.465 260.293C345.602 260.02 345.807 259.795 346.08 259.619C346.326 259.459 346.629 259.338 346.988 259.256C347.352 259.17 347.768 259.127 348.236 259.127H349.145V258.752C349.145 258.604 349.121 258.471 349.074 258.354C349.027 258.232 348.957 258.129 348.863 258.043C348.766 257.953 348.643 257.885 348.494 257.838C348.35 257.787 348.18 257.762 347.984 257.762C347.812 257.762 347.664 257.783 347.539 257.826C347.414 257.865 347.312 257.922 347.234 257.996C347.164 258.062 347.111 258.143 347.076 258.236C347.045 258.33 347.029 258.434 347.029 258.547H345.4C345.4 258.277 345.459 258.021 345.576 257.779C345.697 257.537 345.873 257.324 346.104 257.141C346.33 256.957 346.607 256.812 346.936 256.707C347.268 256.598 347.646 256.543 348.072 256.543C348.455 256.543 348.811 256.59 349.139 256.684C349.471 256.777 349.758 256.916 350 257.1C350.242 257.283 350.432 257.516 350.568 257.797C350.705 258.074 350.773 258.396 350.773 258.764V261.482C350.773 261.822 350.795 262.104 350.838 262.326C350.881 262.549 350.943 262.74 351.025 262.9V263H349.373ZM347.82 261.857C347.984 261.857 348.137 261.838 348.277 261.799C348.418 261.76 348.545 261.709 348.658 261.646C348.771 261.584 348.869 261.514 348.951 261.436C349.033 261.354 349.098 261.271 349.145 261.189V260.1H348.312C348.059 260.1 347.842 260.125 347.662 260.176C347.482 260.223 347.336 260.289 347.223 260.375C347.109 260.465 347.025 260.572 346.971 260.697C346.916 260.818 346.889 260.951 346.889 261.096C346.889 261.209 346.908 261.314 346.947 261.412C346.99 261.506 347.051 261.586 347.129 261.652C347.207 261.715 347.303 261.766 347.416 261.805C347.533 261.84 347.668 261.857 347.82 261.857ZM352.619 263V256.66H354.096L354.195 257.539C354.277 257.422 354.367 257.314 354.465 257.217C354.562 257.119 354.666 257.031 354.775 256.953C354.963 256.82 355.168 256.719 355.391 256.648C355.613 256.578 355.85 256.543 356.1 256.543C356.42 256.543 356.713 256.59 356.979 256.684C357.244 256.777 357.475 256.926 357.67 257.129C357.861 257.336 358.01 257.602 358.115 257.926C358.225 258.246 358.279 258.637 358.279 259.098V263H356.65V259.121C356.65 258.871 356.621 258.666 356.562 258.506C356.508 258.342 356.428 258.213 356.322 258.119C356.217 258.025 356.09 257.961 355.941 257.926C355.793 257.887 355.625 257.867 355.438 257.867C355.281 257.867 355.137 257.885 355.004 257.92C354.875 257.955 354.76 258.008 354.658 258.078C354.576 258.129 354.502 258.189 354.436 258.26C354.369 258.33 354.309 258.408 354.254 258.494V263H352.619ZM372.588 259.754C372.588 260.305 372.523 260.791 372.395 261.213C372.27 261.631 372.088 261.98 371.85 262.262C371.611 262.547 371.32 262.762 370.977 262.906C370.633 263.051 370.246 263.123 369.816 263.123C369.391 263.123 369.006 263.051 368.662 262.906C368.318 262.762 368.027 262.547 367.789 262.262C367.547 261.98 367.359 261.631 367.227 261.213C367.098 260.791 367.033 260.305 367.033 259.754V257.715C367.033 257.164 367.098 256.68 367.227 256.262C367.355 255.84 367.541 255.486 367.783 255.201C368.021 254.92 368.311 254.707 368.65 254.562C368.994 254.418 369.379 254.346 369.805 254.346C370.234 254.346 370.621 254.418 370.965 254.562C371.309 254.707 371.602 254.92 371.844 255.201C372.082 255.486 372.266 255.84 372.395 256.262C372.523 256.68 372.588 257.164 372.588 257.715V259.754ZM368.674 259.051L370.947 257.357C370.939 257.037 370.904 256.764 370.842 256.537C370.783 256.307 370.695 256.123 370.578 255.986C370.488 255.877 370.377 255.797 370.244 255.746C370.115 255.691 369.969 255.664 369.805 255.664C369.621 255.664 369.459 255.699 369.318 255.77C369.182 255.836 369.066 255.938 368.973 256.074C368.871 256.219 368.795 256.406 368.744 256.637C368.697 256.867 368.674 257.141 368.674 257.457V258.4C368.674 258.588 368.674 258.713 368.674 258.775C368.674 258.838 368.674 258.93 368.674 259.051ZM370.947 260V259.01C370.947 258.881 370.947 258.787 370.947 258.729C370.947 258.666 370.947 258.578 370.947 258.465L368.674 260.152C368.682 260.41 368.707 260.639 368.75 260.838C368.797 261.037 368.861 261.203 368.943 261.336C369.037 261.496 369.156 261.615 369.301 261.693C369.445 261.771 369.617 261.811 369.816 261.811C370 261.811 370.162 261.777 370.303 261.711C370.443 261.641 370.561 261.535 370.654 261.395C370.752 261.246 370.824 261.057 370.871 260.826C370.922 260.592 370.947 260.316 370.947 260ZM379.812 255.377L376.49 263H374.773L378.102 255.799H373.818V254.469H379.812V255.377Z" fill="#EEF5FC"/>
<path d="M442.172 254.469H443.818L443.824 260.381C443.82 260.787 443.742 261.158 443.59 261.494C443.441 261.826 443.236 262.113 442.975 262.355C442.713 262.598 442.404 262.785 442.049 262.918C441.697 263.051 441.318 263.117 440.912 263.117C440.482 263.117 440.092 263.062 439.74 262.953C439.389 262.844 439.088 262.68 438.838 262.461C438.584 262.246 438.387 261.975 438.246 261.646C438.105 261.318 438.033 260.934 438.029 260.492H439.682C439.682 260.695 439.701 260.873 439.74 261.025C439.779 261.178 439.838 261.307 439.916 261.412C440.018 261.541 440.15 261.637 440.314 261.699C440.479 261.762 440.678 261.793 440.912 261.793C441.1 261.793 441.271 261.758 441.428 261.688C441.584 261.613 441.717 261.514 441.826 261.389C441.936 261.264 442.02 261.115 442.078 260.943C442.141 260.768 442.172 260.58 442.172 260.381V254.469ZM449.373 263C449.334 262.922 449.301 262.832 449.273 262.73C449.246 262.629 449.223 262.521 449.203 262.408C449.113 262.506 449.01 262.598 448.893 262.684C448.775 262.77 448.646 262.844 448.506 262.906C448.361 262.973 448.203 263.023 448.031 263.059C447.859 263.098 447.674 263.117 447.475 263.117C447.15 263.117 446.852 263.07 446.578 262.977C446.309 262.883 446.076 262.752 445.881 262.584C445.686 262.416 445.533 262.217 445.424 261.986C445.314 261.752 445.26 261.498 445.26 261.225C445.26 260.873 445.328 260.562 445.465 260.293C445.602 260.02 445.807 259.795 446.08 259.619C446.326 259.459 446.629 259.338 446.988 259.256C447.352 259.17 447.768 259.127 448.236 259.127H449.145V258.752C449.145 258.604 449.121 258.471 449.074 258.354C449.027 258.232 448.957 258.129 448.863 258.043C448.766 257.953 448.643 257.885 448.494 257.838C448.35 257.787 448.18 257.762 447.984 257.762C447.812 257.762 447.664 257.783 447.539 257.826C447.414 257.865 447.312 257.922 447.234 257.996C447.164 258.062 447.111 258.143 447.076 258.236C447.045 258.33 447.029 258.434 447.029 258.547H445.4C445.4 258.277 445.459 258.021 445.576 257.779C445.697 257.537 445.873 257.324 446.104 257.141C446.33 256.957 446.607 256.812 446.936 256.707C447.268 256.598 447.646 256.543 448.072 256.543C448.455 256.543 448.811 256.59 449.139 256.684C449.471 256.777 449.758 256.916 450 257.1C450.242 257.283 450.432 257.516 450.568 257.797C450.705 258.074 450.773 258.396 450.773 258.764V261.482C450.773 261.822 450.795 262.104 450.838 262.326C450.881 262.549 450.943 262.74 451.025 262.9V263H449.373ZM447.82 261.857C447.984 261.857 448.137 261.838 448.277 261.799C448.418 261.76 448.545 261.709 448.658 261.646C448.771 261.584 448.869 261.514 448.951 261.436C449.033 261.354 449.098 261.271 449.145 261.189V260.1H448.312C448.059 260.1 447.842 260.125 447.662 260.176C447.482 260.223 447.336 260.289 447.223 260.375C447.109 260.465 447.025 260.572 446.971 260.697C446.916 260.818 446.889 260.951 446.889 261.096C446.889 261.209 446.908 261.314 446.947 261.412C446.99 261.506 447.051 261.586 447.129 261.652C447.207 261.715 447.303 261.766 447.416 261.805C447.533 261.84 447.668 261.857 447.82 261.857ZM452.619 263V256.66H454.096L454.195 257.539C454.277 257.422 454.367 257.314 454.465 257.217C454.562 257.119 454.666 257.031 454.775 256.953C454.963 256.82 455.168 256.719 455.391 256.648C455.613 256.578 455.85 256.543 456.1 256.543C456.42 256.543 456.713 256.59 456.979 256.684C457.244 256.777 457.475 256.926 457.67 257.129C457.861 257.336 458.01 257.602 458.115 257.926C458.225 258.246 458.279 258.637 458.279 259.098V263H456.65V259.121C456.65 258.871 456.621 258.666 456.562 258.506C456.508 258.342 456.428 258.213 456.322 258.119C456.217 258.025 456.09 257.961 455.941 257.926C455.793 257.887 455.625 257.867 455.438 257.867C455.281 257.867 455.137 257.885 455.004 257.92C454.875 257.955 454.76 258.008 454.658 258.078C454.576 258.129 454.502 258.189 454.436 258.26C454.369 258.33 454.309 258.408 454.254 258.494V263H452.619ZM472.588 259.754C472.588 260.305 472.523 260.791 472.395 261.213C472.27 261.631 472.088 261.98 471.85 262.262C471.611 262.547 471.32 262.762 470.977 262.906C470.633 263.051 470.246 263.123 469.816 263.123C469.391 263.123 469.006 263.051 468.662 262.906C468.318 262.762 468.027 262.547 467.789 262.262C467.547 261.98 467.359 261.631 467.227 261.213C467.098 260.791 467.033 260.305 467.033 259.754V257.715C467.033 257.164 467.098 256.68 467.227 256.262C467.355 255.84 467.541 255.486 467.783 255.201C468.021 254.92 468.311 254.707 468.65 254.562C468.994 254.418 469.379 254.346 469.805 254.346C470.234 254.346 470.621 254.418 470.965 254.562C471.309 254.707 471.602 254.92 471.844 255.201C472.082 255.486 472.266 255.84 472.395 256.262C472.523 256.68 472.588 257.164 472.588 257.715V259.754ZM468.674 259.051L470.947 257.357C470.939 257.037 470.904 256.764 470.842 256.537C470.783 256.307 470.695 256.123 470.578 255.986C470.488 255.877 470.377 255.797 470.244 255.746C470.115 255.691 469.969 255.664 469.805 255.664C469.621 255.664 469.459 255.699 469.318 255.77C469.182 255.836 469.066 255.938 468.973 256.074C468.871 256.219 468.795 256.406 468.744 256.637C468.697 256.867 468.674 257.141 468.674 257.457V258.4C468.674 258.588 468.674 258.713 468.674 258.775C468.674 258.838 468.674 258.93 468.674 259.051ZM470.947 260V259.01C470.947 258.881 470.947 258.787 470.947 258.729C470.947 258.666 470.947 258.578 470.947 258.465L468.674 260.152C468.682 260.41 468.707 260.639 468.75 260.838C468.797 261.037 468.861 261.203 468.943 261.336C469.037 261.496 469.156 261.615 469.301 261.693C469.445 261.771 469.617 261.811 469.816 261.811C470 261.811 470.162 261.777 470.303 261.711C470.443 261.641 470.561 261.535 470.654 261.395C470.752 261.246 470.824 261.057 470.871 260.826C470.922 260.592 470.947 260.316 470.947 260ZM475.359 261.705C475.797 261.705 476.176 261.658 476.496 261.564C476.816 261.471 477.086 261.334 477.305 261.154C477.516 260.982 477.68 260.771 477.797 260.521C477.918 260.268 477.998 259.984 478.037 259.672V259.637C477.955 259.719 477.863 259.795 477.762 259.865C477.66 259.936 477.549 259.996 477.428 260.047C477.299 260.105 477.154 260.152 476.994 260.188C476.834 260.219 476.658 260.234 476.467 260.234C476.061 260.234 475.703 260.16 475.395 260.012C475.086 259.863 474.828 259.66 474.621 259.402C474.41 259.145 474.25 258.842 474.141 258.494C474.035 258.143 473.982 257.766 473.982 257.363C473.982 256.949 474.047 256.561 474.176 256.197C474.309 255.83 474.498 255.51 474.744 255.236C474.99 254.963 475.287 254.748 475.635 254.592C475.986 254.432 476.381 254.352 476.818 254.352C477.264 254.352 477.664 254.438 478.02 254.609C478.375 254.781 478.678 255.021 478.928 255.33C479.174 255.639 479.361 256.006 479.49 256.432C479.623 256.857 479.689 257.324 479.689 257.832V258.395C479.689 259.074 479.605 259.699 479.438 260.27C479.27 260.84 479.01 261.332 478.658 261.746C478.307 262.164 477.859 262.49 477.316 262.725C476.773 262.955 476.125 263.07 475.371 263.07H475.248V261.705H475.359ZM476.854 258.975C477.002 258.975 477.139 258.953 477.264 258.91C477.393 258.867 477.51 258.807 477.615 258.729C477.717 258.654 477.805 258.566 477.879 258.465C477.957 258.359 478.02 258.246 478.066 258.125V257.545C478.066 257.232 478.033 256.959 477.967 256.725C477.904 256.49 477.816 256.295 477.703 256.139C477.59 255.982 477.457 255.865 477.305 255.787C477.152 255.709 476.988 255.67 476.812 255.67C476.621 255.67 476.449 255.717 476.297 255.811C476.148 255.9 476.023 256.021 475.922 256.174C475.82 256.33 475.742 256.51 475.688 256.713C475.633 256.912 475.605 257.121 475.605 257.34C475.605 257.559 475.631 257.768 475.682 257.967C475.732 258.166 475.811 258.34 475.916 258.488C476.018 258.637 476.146 258.756 476.303 258.846C476.459 258.932 476.643 258.975 476.854 258.975Z" fill="#EEF5FC"/>
<path d="M40.2598 40.6602H43.7109V45.6758H45.4277V47H40.2598V45.6758H42.0645V41.9902H40.2598V40.6602ZM41.9473 39.0371C41.9473 38.9121 41.9688 38.7969 42.0117 38.6914C42.0586 38.582 42.123 38.4883 42.2051 38.4102C42.2871 38.3359 42.3848 38.2773 42.498 38.2344C42.6152 38.1914 42.7441 38.1699 42.8848 38.1699C43.1738 38.1699 43.4023 38.252 43.5703 38.416C43.7422 38.5762 43.8281 38.7832 43.8281 39.0371C43.8281 39.291 43.7422 39.5 43.5703 39.6641C43.4023 39.8242 43.1738 39.9043 42.8848 39.9043C42.7441 39.9043 42.6152 39.8828 42.498 39.8398C42.3848 39.7969 42.2871 39.7363 42.2051 39.6582C42.123 39.584 42.0586 39.4941 42.0117 39.3887C41.9688 39.2793 41.9473 39.1621 41.9473 39.0371ZM47.0332 47V40.6602H48.5098L48.6094 41.5391C48.6914 41.4219 48.7812 41.3145 48.8789 41.2168C48.9766 41.1191 49.0801 41.0312 49.1895 40.9531C49.377 40.8203 49.582 40.7188 49.8047 40.6484C50.0273 40.5781 50.2637 40.543 50.5137 40.543C50.834 40.543 51.127 40.5898 51.3926 40.6836C51.6582 40.7773 51.8887 40.9258 52.084 41.1289C52.2754 41.3359 52.4238 41.6016 52.5293 41.9258C52.6387 42.2461 52.6934 42.6367 52.6934 43.0977V47H51.0645V43.1211C51.0645 42.8711 51.0352 42.666 50.9766 42.5059C50.9219 42.3418 50.8418 42.2129 50.7363 42.1191C50.6309 42.0254 50.5039 41.9609 50.3555 41.9258C50.207 41.8867 50.0391 41.8672 49.8516 41.8672C49.6953 41.8672 49.5508 41.8848 49.418 41.9199C49.2891 41.9551 49.1738 42.0078 49.0723 42.0781C48.9902 42.1289 48.916 42.1895 48.8496 42.2598C48.7832 42.3301 48.7227 42.4082 48.668 42.4941V47H47.0332ZM57.2285 39.1074V40.6602H59.5957V41.8613H57.2285V44.5859C57.2285 44.8164 57.2539 45.0098 57.3047 45.166C57.3594 45.3184 57.4355 45.4395 57.5332 45.5293C57.6309 45.623 57.748 45.6895 57.8848 45.7285C58.0254 45.7676 58.1816 45.7871 58.3535 45.7871C58.4785 45.7871 58.6055 45.7812 58.7344 45.7695C58.8672 45.7578 58.9941 45.7422 59.1152 45.7227C59.2324 45.707 59.3418 45.6895 59.4434 45.6699C59.5488 45.6504 59.6387 45.6309 59.7129 45.6113L59.8711 46.7305C59.7578 46.7969 59.625 46.8555 59.4727 46.9062C59.3203 46.9531 59.1582 46.9922 58.9863 47.0234C58.8145 47.0547 58.6348 47.0781 58.4473 47.0938C58.2637 47.1133 58.082 47.123 57.9023 47.123C57.5547 47.123 57.2383 47.0781 56.9531 46.9883C56.6719 46.8945 56.4316 46.75 56.2324 46.5547C56.0293 46.3633 55.873 46.1191 55.7637 45.8223C55.6543 45.5215 55.5996 45.1621 55.5996 44.7441V41.8613H54.1523V40.6602H55.5996V39.1074H57.2285ZM65.5371 45.2598C65.5371 45.1621 65.5137 45.0762 65.4668 45.002C65.4238 44.9277 65.3457 44.8574 65.2324 44.791C65.1152 44.7285 64.9609 44.6699 64.7695 44.6152C64.5781 44.5605 64.3359 44.5059 64.043 44.4512C63.6719 44.377 63.332 44.2852 63.0234 44.1758C62.7188 44.0625 62.457 43.9258 62.2383 43.7656C62.0195 43.6094 61.8477 43.4277 61.7227 43.2207C61.6016 43.0137 61.541 42.7754 61.541 42.5059C61.541 42.2441 61.6035 41.9941 61.7285 41.7559C61.8535 41.5176 62.0332 41.3086 62.2676 41.1289C62.502 40.9492 62.7871 40.8066 63.123 40.7012C63.459 40.5957 63.8379 40.543 64.2598 40.543C64.7012 40.543 65.0977 40.5957 65.4492 40.7012C65.8008 40.8027 66.0996 40.9434 66.3457 41.123C66.5879 41.3066 66.7734 41.5234 66.9023 41.7734C67.0312 42.0234 67.0957 42.2949 67.0957 42.5879H65.4668C65.4668 42.4824 65.4492 42.3848 65.4141 42.2949C65.3789 42.2012 65.3262 42.1172 65.2559 42.043C65.1582 41.9453 65.0254 41.8672 64.8574 41.8086C64.6934 41.75 64.4941 41.7207 64.2598 41.7207C64.0605 41.7207 63.8867 41.7402 63.7383 41.7793C63.5898 41.8184 63.4688 41.873 63.375 41.9434C63.2891 42.0059 63.2227 42.0801 63.1758 42.166C63.1328 42.248 63.1113 42.3359 63.1113 42.4297C63.1113 42.5234 63.1309 42.6113 63.1699 42.6934C63.209 42.7715 63.2793 42.8418 63.3809 42.9043C63.4785 42.9707 63.6133 43.0312 63.7852 43.0859C63.957 43.1367 64.1758 43.1816 64.4414 43.2207C64.8242 43.2832 65.1797 43.3633 65.5078 43.4609C65.8359 43.5586 66.1191 43.6836 66.3574 43.8359C66.5957 43.9922 66.7812 44.1816 66.9141 44.4043C67.0508 44.623 67.1191 44.8848 67.1191 45.1895C67.1191 45.4707 67.0508 45.7305 66.9141 45.9688C66.7812 46.2031 66.5918 46.4062 66.3457 46.5781C66.0957 46.75 65.7949 46.8848 65.4434 46.9824C65.0918 47.0762 64.6992 47.123 64.2656 47.123C63.7891 47.123 63.3672 47.0605 63 46.9355C62.6367 46.8105 62.332 46.6465 62.0859 46.4434C61.8398 46.2441 61.6523 46.0176 61.5234 45.7637C61.3984 45.5059 61.3359 45.248 61.3359 44.9902H62.8887C62.9004 45.1621 62.9473 45.3105 63.0293 45.4355C63.1113 45.5566 63.2168 45.6543 63.3457 45.7285C63.4746 45.8066 63.6211 45.8633 63.7852 45.8984C63.9531 45.9336 64.125 45.9512 64.3008 45.9512C64.5117 45.9512 64.6953 45.9336 64.8516 45.8984C65.0117 45.8594 65.1426 45.8086 65.2441 45.7461C65.3418 45.6836 65.4141 45.6113 65.4609 45.5293C65.5117 45.4473 65.5371 45.3574 65.5371 45.2598Z" fill="#EEF5FC"/>
<line x1="108" y1="154" x2="108" y2="20" stroke="#EEF5FC" stroke-opacity="0.3" stroke-width="2" stroke-dasharray="5 5"/>
<line x1="60" y1="154" x2="60" y2="50" stroke="#EEF5FC" stroke-opacity="0.3" stroke-width="2" stroke-dasharray="5 5"/>
<line x1="60" y1="34" x2="60" y2="20" stroke="#EEF5FC" stroke-opacity="0.3" stroke-width="2" stroke-dasharray="5 5"/>
<line x1="60" y1="227" x2="60" y2="170" stroke="#EEF5FC" stroke-opacity="0.3" stroke-width="2" stroke-dasharray="5 5"/>
<line x1="108" y1="227" x2="108" y2="170" stroke="#EEF5FC" stroke-opacity="0.3" stroke-width="2" stroke-dasharray="5 5"/>
<line x1="158" y1="227" x2="158" y2="170" stroke="#EEF5FC" stroke-opacity="0.3" stroke-width="2" stroke-dasharray="5 5"/>
<line x1="158" y1="154" x2="158" y2="20" stroke="#EEF5FC" stroke-opacity="0.3" stroke-width="2" stroke-dasharray="5 5"/>
<line x1="458" y1="227" x2="458" y2="20" stroke="#EEF5FC" stroke-opacity="0.3" stroke-width="2" stroke-dasharray="5 5"/>
<rect x="158" y="180" width="300" height="18" rx="7" fill="#EEE957" stroke="#C7C117" stroke-width="2"/>
<rect x="60" y="180" width="48" height="18" rx="7" fill="#EEE957" stroke="#C7C117" stroke-width="2"/>
<rect x="208" y="120" width="250" height="18" rx="7" fill="#38B873" stroke="#356F2A" stroke-width="2"/>
<rect x="158" y="90" width="100" height="18" rx="7" fill="#38B873" stroke="#356F2A" stroke-width="2"/>
<rect x="60" y="60" width="48" height="18" rx="7" fill="#38B873" stroke="#356F2A" stroke-width="2"/>
</svg>
