<svg width="521" height="298" viewBox="0 0 521 298" fill="none" xmlns="http://www.w3.org/2000/svg">
<line x1="59" y1="249" x2="459" y2="249" stroke="#EEF5FC" stroke-width="2"/>
<line x1="60" y1="259" x2="60" y2="239" stroke="#EEF5FC" stroke-width="2"/>
<line x1="108" y1="259" x2="108" y2="239" stroke="#EEF5FC" stroke-width="2"/>
<line x1="158" y1="259" x2="158" y2="239" stroke="#EEF5FC" stroke-width="2"/>
<line x1="158" y1="259" x2="158" y2="239" stroke="#EEF5FC" stroke-width="2"/>
<line x1="208" y1="259" x2="208" y2="239" stroke="#EEF5FC" stroke-width="2"/>
<line x1="258" y1="259" x2="258" y2="239" stroke="#EEF5FC" stroke-width="2"/>
<line x1="308" y1="259" x2="308" y2="239" stroke="#EEF5FC" stroke-width="2"/>
<line x1="358" y1="259" x2="358" y2="239" stroke="#EEF5FC" stroke-width="2"/>
<line x1="408" y1="259" x2="408" y2="239" stroke="#EEF5FC" stroke-width="2"/>
<line x1="458" y1="259" x2="458" y2="239" stroke="#EEF5FC" stroke-width="2"/>
<path d="M44.1719 269.469H45.8184L45.8242 275.381C45.8203 275.787 45.7422 276.158 45.5898 276.494C45.4414 276.826 45.2363 277.113 44.9746 277.355C44.7129 277.598 44.4043 277.785 44.0488 277.918C43.6973 278.051 43.3184 278.117 42.9121 278.117C42.4824 278.117 42.0918 278.062 41.7402 277.953C41.3887 277.844 41.0879 277.68 40.8379 277.461C40.584 277.246 40.3867 276.975 40.2461 276.646C40.1055 276.318 40.0332 275.934 40.0293 275.492H41.6816C41.6816 275.695 41.7012 275.873 41.7402 276.025C41.7793 276.178 41.8379 276.307 41.916 276.412C42.0176 276.541 42.1504 276.637 42.3145 276.699C42.4785 276.762 42.6777 276.793 42.9121 276.793C43.0996 276.793 43.2715 276.758 43.4277 276.688C43.584 276.613 43.7168 276.514 43.8262 276.389C43.9355 276.264 44.0195 276.115 44.0781 275.943C44.1406 275.768 44.1719 275.58 44.1719 275.381V269.469ZM51.373 278C51.334 277.922 51.3008 277.832 51.2734 277.73C51.2461 277.629 51.2227 277.521 51.2031 277.408C51.1133 277.506 51.0098 277.598 50.8926 277.684C50.7754 277.77 50.6465 277.844 50.5059 277.906C50.3613 277.973 50.2031 278.023 50.0312 278.059C49.8594 278.098 49.6738 278.117 49.4746 278.117C49.1504 278.117 48.8516 278.07 48.5781 277.977C48.3086 277.883 48.0762 277.752 47.8809 277.584C47.6855 277.416 47.5332 277.217 47.4238 276.986C47.3145 276.752 47.2598 276.498 47.2598 276.225C47.2598 275.873 47.3281 275.562 47.4648 275.293C47.6016 275.02 47.8066 274.795 48.0801 274.619C48.3262 274.459 48.6289 274.338 48.9883 274.256C49.3516 274.17 49.7676 274.127 50.2363 274.127H51.1445V273.752C51.1445 273.604 51.1211 273.471 51.0742 273.354C51.0273 273.232 50.957 273.129 50.8633 273.043C50.7656 272.953 50.6426 272.885 50.4941 272.838C50.3496 272.787 50.1797 272.762 49.9844 272.762C49.8125 272.762 49.6641 272.783 49.5391 272.826C49.4141 272.865 49.3125 272.922 49.2344 272.996C49.1641 273.062 49.1113 273.143 49.0762 273.236C49.0449 273.33 49.0293 273.434 49.0293 273.547H47.4004C47.4004 273.277 47.459 273.021 47.5762 272.779C47.6973 272.537 47.873 272.324 48.1035 272.141C48.3301 271.957 48.6074 271.812 48.9355 271.707C49.2676 271.598 49.6465 271.543 50.0723 271.543C50.4551 271.543 50.8105 271.59 51.1387 271.684C51.4707 271.777 51.7578 271.916 52 272.1C52.2422 272.283 52.4316 272.516 52.5684 272.797C52.7051 273.074 52.7734 273.396 52.7734 273.764V276.482C52.7734 276.822 52.7949 277.104 52.8379 277.326C52.8809 277.549 52.9434 277.74 53.0254 277.9V278H51.373ZM49.8203 276.857C49.9844 276.857 50.1367 276.838 50.2773 276.799C50.418 276.76 50.5449 276.709 50.6582 276.646C50.7715 276.584 50.8691 276.514 50.9512 276.436C51.0332 276.354 51.0977 276.271 51.1445 276.189V275.1H50.3125C50.0586 275.1 49.8418 275.125 49.6621 275.176C49.4824 275.223 49.3359 275.289 49.2227 275.375C49.1094 275.465 49.0254 275.572 48.9707 275.697C48.916 275.818 48.8887 275.951 48.8887 276.096C48.8887 276.209 48.9082 276.314 48.9473 276.412C48.9902 276.506 49.0508 276.586 49.1289 276.652C49.207 276.715 49.3027 276.766 49.416 276.805C49.5332 276.84 49.668 276.857 49.8203 276.857ZM54.6191 278V271.66H56.0957L56.1953 272.539C56.2773 272.422 56.3672 272.314 56.4648 272.217C56.5625 272.119 56.666 272.031 56.7754 271.953C56.9629 271.82 57.168 271.719 57.3906 271.648C57.6133 271.578 57.8496 271.543 58.0996 271.543C58.4199 271.543 58.7129 271.59 58.9785 271.684C59.2441 271.777 59.4746 271.926 59.6699 272.129C59.8613 272.336 60.0098 272.602 60.1152 272.926C60.2246 273.246 60.2793 273.637 60.2793 274.098V278H58.6504V274.121C58.6504 273.871 58.6211 273.666 58.5625 273.506C58.5078 273.342 58.4277 273.213 58.3223 273.119C58.2168 273.025 58.0898 272.961 57.9414 272.926C57.793 272.887 57.625 272.867 57.4375 272.867C57.2812 272.867 57.1367 272.885 57.0039 272.92C56.875 272.955 56.7598 273.008 56.6582 273.078C56.5762 273.129 56.502 273.189 56.4355 273.26C56.3691 273.33 56.3086 273.408 56.2539 273.494V278H54.6191ZM74.5879 274.754C74.5879 275.305 74.5234 275.791 74.3945 276.213C74.2695 276.631 74.0879 276.98 73.8496 277.262C73.6113 277.547 73.3203 277.762 72.9766 277.906C72.6328 278.051 72.2461 278.123 71.8164 278.123C71.3906 278.123 71.0059 278.051 70.6621 277.906C70.3184 277.762 70.0273 277.547 69.7891 277.262C69.5469 276.98 69.3594 276.631 69.2266 276.213C69.0977 275.791 69.0332 275.305 69.0332 274.754V272.715C69.0332 272.164 69.0977 271.68 69.2266 271.262C69.3555 270.84 69.541 270.486 69.7832 270.201C70.0215 269.92 70.3105 269.707 70.6504 269.562C70.9941 269.418 71.3789 269.346 71.8047 269.346C72.2344 269.346 72.6211 269.418 72.9648 269.562C73.3086 269.707 73.6016 269.92 73.8438 270.201C74.082 270.486 74.2656 270.84 74.3945 271.262C74.5234 271.68 74.5879 272.164 74.5879 272.715V274.754ZM70.6738 274.051L72.9473 272.357C72.9395 272.037 72.9043 271.764 72.8418 271.537C72.7832 271.307 72.6953 271.123 72.5781 270.986C72.4883 270.877 72.377 270.797 72.2441 270.746C72.1152 270.691 71.9688 270.664 71.8047 270.664C71.6211 270.664 71.459 270.699 71.3184 270.77C71.1816 270.836 71.0664 270.938 70.9727 271.074C70.8711 271.219 70.7949 271.406 70.7441 271.637C70.6973 271.867 70.6738 272.141 70.6738 272.457V273.4C70.6738 273.588 70.6738 273.713 70.6738 273.775C70.6738 273.838 70.6738 273.93 70.6738 274.051ZM72.9473 275V274.01C72.9473 273.881 72.9473 273.787 72.9473 273.729C72.9473 273.666 72.9473 273.578 72.9473 273.465L70.6738 275.152C70.6816 275.41 70.707 275.639 70.75 275.838C70.7969 276.037 70.8613 276.203 70.9434 276.336C71.0371 276.496 71.1562 276.615 71.3008 276.693C71.4453 276.771 71.6172 276.811 71.8164 276.811C72 276.811 72.1621 276.777 72.3027 276.711C72.4434 276.641 72.5605 276.535 72.6543 276.395C72.752 276.246 72.8242 276.057 72.8711 275.826C72.9219 275.592 72.9473 275.316 72.9473 275ZM80.2305 278H78.584V271.455L76.4277 272.229V270.811L80.1426 269.469H80.2305V278Z" fill="#EEF5FC"/>
<path d="M39.8496 179.438V170.66H41.3555L41.4141 171.281C41.5 171.176 41.5938 171.082 41.6953 171C41.7969 170.914 41.9062 170.84 42.0234 170.777C42.1641 170.703 42.3184 170.646 42.4863 170.607C42.6582 170.564 42.8418 170.543 43.0371 170.543C43.4395 170.543 43.7949 170.621 44.1035 170.777C44.4121 170.93 44.6719 171.146 44.8828 171.428C45.0938 171.713 45.252 172.055 45.3574 172.453C45.4668 172.848 45.5215 173.285 45.5215 173.766V173.889C45.5215 174.35 45.4668 174.777 45.3574 175.172C45.252 175.566 45.0957 175.906 44.8887 176.191C44.6777 176.48 44.418 176.707 44.1094 176.871C43.8008 177.035 43.4473 177.117 43.0488 177.117C42.8379 177.117 42.6426 177.094 42.4629 177.047C42.2871 177.004 42.123 176.939 41.9707 176.854C41.8809 176.799 41.7949 176.738 41.7129 176.672C41.6309 176.605 41.5527 176.531 41.4785 176.449V179.438H39.8496ZM43.8926 173.766C43.8926 173.5 43.8672 173.252 43.8164 173.021C43.7695 172.787 43.6953 172.584 43.5938 172.412C43.4883 172.244 43.3535 172.111 43.1895 172.014C43.0293 171.916 42.834 171.867 42.6035 171.867C42.4707 171.867 42.3496 171.881 42.2402 171.908C42.1309 171.932 42.0312 171.967 41.9414 172.014C41.8398 172.068 41.75 172.137 41.6719 172.219C41.5977 172.301 41.5332 172.396 41.4785 172.506V175.154C41.5293 175.256 41.5898 175.348 41.6602 175.43C41.7344 175.512 41.8184 175.582 41.9121 175.641C42.002 175.695 42.1055 175.738 42.2227 175.77C42.3398 175.797 42.4707 175.811 42.6152 175.811C42.8457 175.811 43.041 175.76 43.2012 175.658C43.3652 175.557 43.498 175.418 43.5996 175.242C43.7012 175.066 43.7754 174.863 43.8223 174.633C43.8691 174.398 43.8926 174.15 43.8926 173.889V173.766ZM48.6621 171.533C48.7441 171.412 48.834 171.301 48.9316 171.199C49.0332 171.094 49.1387 171.002 49.248 170.924C49.416 170.803 49.6016 170.709 49.8047 170.643C50.0078 170.576 50.2227 170.543 50.4492 170.543C50.7812 170.543 51.0859 170.594 51.3633 170.695C51.6406 170.793 51.8789 170.947 52.0781 171.158C52.2773 171.369 52.4316 171.641 52.541 171.973C52.6543 172.301 52.7109 172.697 52.7109 173.162V177H51.082V173.15C51.082 172.924 51.0527 172.729 50.9941 172.564C50.9395 172.4 50.8594 172.268 50.7539 172.166C50.6484 172.064 50.5215 171.99 50.373 171.943C50.2246 171.893 50.0566 171.867 49.8691 171.867C49.7246 171.867 49.5898 171.881 49.4648 171.908C49.3398 171.936 49.2266 171.977 49.125 172.031C49.0312 172.078 48.9453 172.135 48.8672 172.201C48.793 172.268 48.7246 172.342 48.6621 172.424V177H47.0332V168H48.6621V171.533ZM54.6738 170.66H58.125V175.676H59.8418V177H54.6738V175.676H56.4785V171.99H54.6738V170.66ZM56.3613 169.037C56.3613 168.912 56.3828 168.797 56.4258 168.691C56.4727 168.582 56.5371 168.488 56.6191 168.41C56.7012 168.336 56.7988 168.277 56.9121 168.234C57.0293 168.191 57.1582 168.17 57.2988 168.17C57.5879 168.17 57.8164 168.252 57.9844 168.416C58.1562 168.576 58.2422 168.783 58.2422 169.037C58.2422 169.291 58.1562 169.5 57.9844 169.664C57.8164 169.824 57.5879 169.904 57.2988 169.904C57.1582 169.904 57.0293 169.883 56.9121 169.84C56.7988 169.797 56.7012 169.736 56.6191 169.658C56.5371 169.584 56.4727 169.494 56.4258 169.389C56.3828 169.279 56.3613 169.162 56.3613 169.037ZM61.4473 177V170.66H62.9238L63.0234 171.539C63.1055 171.422 63.1953 171.314 63.293 171.217C63.3906 171.119 63.4941 171.031 63.6035 170.953C63.791 170.82 63.9961 170.719 64.2188 170.648C64.4414 170.578 64.6777 170.543 64.9277 170.543C65.248 170.543 65.541 170.59 65.8066 170.684C66.0723 170.777 66.3027 170.926 66.498 171.129C66.6895 171.336 66.8379 171.602 66.9434 171.926C67.0527 172.246 67.1074 172.637 67.1074 173.098V177H65.4785V173.121C65.4785 172.871 65.4492 172.666 65.3906 172.506C65.3359 172.342 65.2559 172.213 65.1504 172.119C65.0449 172.025 64.918 171.961 64.7695 171.926C64.6211 171.887 64.4531 171.867 64.2656 171.867C64.1094 171.867 63.9648 171.885 63.832 171.92C63.7031 171.955 63.5879 172.008 63.4863 172.078C63.4043 172.129 63.3301 172.189 63.2637 172.26C63.1973 172.33 63.1367 172.408 63.082 172.494V177H61.4473ZM71.6426 169.107V170.66H74.0098V171.861H71.6426V174.586C71.6426 174.816 71.668 175.01 71.7188 175.166C71.7734 175.318 71.8496 175.439 71.9473 175.529C72.0449 175.623 72.1621 175.689 72.2988 175.729C72.4395 175.768 72.5957 175.787 72.7676 175.787C72.8926 175.787 73.0195 175.781 73.1484 175.77C73.2812 175.758 73.4082 175.742 73.5293 175.723C73.6465 175.707 73.7559 175.689 73.8574 175.67C73.9629 175.65 74.0527 175.631 74.127 175.611L74.2852 176.73C74.1719 176.797 74.0391 176.855 73.8867 176.906C73.7344 176.953 73.5723 176.992 73.4004 177.023C73.2285 177.055 73.0488 177.078 72.8613 177.094C72.6777 177.113 72.4961 177.123 72.3164 177.123C71.9688 177.123 71.6523 177.078 71.3672 176.988C71.0859 176.895 70.8457 176.75 70.6465 176.555C70.4434 176.363 70.2871 176.119 70.1777 175.822C70.0684 175.521 70.0137 175.162 70.0137 174.744V171.861H68.5664V170.66H70.0137V169.107H71.6426ZM81.2461 178.271H75.9023V177H81.2461V178.271ZM87.1582 175.26C87.1582 175.162 87.1348 175.076 87.0879 175.002C87.0449 174.928 86.9668 174.857 86.8535 174.791C86.7363 174.729 86.582 174.67 86.3906 174.615C86.1992 174.561 85.957 174.506 85.6641 174.451C85.293 174.377 84.9531 174.285 84.6445 174.176C84.3398 174.062 84.0781 173.926 83.8594 173.766C83.6406 173.609 83.4688 173.428 83.3438 173.221C83.2227 173.014 83.1621 172.775 83.1621 172.506C83.1621 172.244 83.2246 171.994 83.3496 171.756C83.4746 171.518 83.6543 171.309 83.8887 171.129C84.123 170.949 84.4082 170.807 84.7441 170.701C85.0801 170.596 85.459 170.543 85.8809 170.543C86.3223 170.543 86.7188 170.596 87.0703 170.701C87.4219 170.803 87.7207 170.943 87.9668 171.123C88.209 171.307 88.3945 171.523 88.5234 171.773C88.6523 172.023 88.7168 172.295 88.7168 172.588H87.0879C87.0879 172.482 87.0703 172.385 87.0352 172.295C87 172.201 86.9473 172.117 86.877 172.043C86.7793 171.945 86.6465 171.867 86.4785 171.809C86.3145 171.75 86.1152 171.721 85.8809 171.721C85.6816 171.721 85.5078 171.74 85.3594 171.779C85.2109 171.818 85.0898 171.873 84.9961 171.943C84.9102 172.006 84.8438 172.08 84.7969 172.166C84.7539 172.248 84.7324 172.336 84.7324 172.43C84.7324 172.523 84.752 172.611 84.791 172.693C84.8301 172.771 84.9004 172.842 85.002 172.904C85.0996 172.971 85.2344 173.031 85.4062 173.086C85.5781 173.137 85.7969 173.182 86.0625 173.221C86.4453 173.283 86.8008 173.363 87.1289 173.461C87.457 173.559 87.7402 173.684 87.9785 173.836C88.2168 173.992 88.4023 174.182 88.5352 174.404C88.6719 174.623 88.7402 174.885 88.7402 175.189C88.7402 175.471 88.6719 175.73 88.5352 175.969C88.4023 176.203 88.2129 176.406 87.9668 176.578C87.7168 176.75 87.416 176.885 87.0645 176.982C86.7129 177.076 86.3203 177.123 85.8867 177.123C85.4102 177.123 84.9883 177.061 84.6211 176.936C84.2578 176.811 83.9531 176.646 83.707 176.443C83.4609 176.244 83.2734 176.018 83.1445 175.764C83.0195 175.506 82.957 175.248 82.957 174.99H84.5098C84.5215 175.162 84.5684 175.311 84.6504 175.436C84.7324 175.557 84.8379 175.654 84.9668 175.729C85.0957 175.807 85.2422 175.863 85.4062 175.898C85.5742 175.934 85.7461 175.951 85.9219 175.951C86.1328 175.951 86.3164 175.934 86.4727 175.898C86.6328 175.859 86.7637 175.809 86.8652 175.746C86.9629 175.684 87.0352 175.611 87.082 175.529C87.1328 175.447 87.1582 175.357 87.1582 175.26ZM90.1113 173.777C90.1113 173.297 90.166 172.857 90.2754 172.459C90.3848 172.061 90.5469 171.719 90.7617 171.434C90.9727 171.152 91.2324 170.934 91.541 170.777C91.8535 170.621 92.2109 170.543 92.6133 170.543C92.8242 170.543 93.0176 170.566 93.1934 170.613C93.373 170.66 93.5371 170.727 93.6855 170.812C93.791 170.875 93.8906 170.947 93.9844 171.029C94.0781 171.111 94.166 171.203 94.248 171.305L94.3477 170.66H95.7832V179.438H94.1484V176.461C94.0664 176.555 93.9766 176.639 93.8789 176.713C93.7812 176.787 93.6797 176.852 93.5742 176.906C93.4375 176.973 93.2871 177.023 93.123 177.059C92.9629 177.098 92.7891 177.117 92.6016 177.117C92.2031 177.117 91.8496 177.037 91.541 176.877C91.2324 176.713 90.9727 176.486 90.7617 176.197C90.5508 175.912 90.3887 175.574 90.2754 175.184C90.166 174.789 90.1113 174.361 90.1113 173.9V173.777ZM91.7402 173.9C91.7402 174.162 91.7637 174.408 91.8105 174.639C91.8574 174.869 91.9316 175.07 92.0332 175.242C92.1348 175.418 92.2656 175.557 92.4258 175.658C92.5898 175.76 92.7871 175.811 93.0176 175.811C93.1582 175.811 93.2852 175.797 93.3984 175.77C93.5156 175.738 93.6211 175.697 93.7148 175.646C93.8086 175.592 93.8906 175.525 93.9609 175.447C94.0312 175.365 94.0938 175.273 94.1484 175.172V172.477C94.0938 172.379 94.0312 172.293 93.9609 172.219C93.8906 172.141 93.8086 172.074 93.7148 172.02C93.625 171.969 93.5215 171.93 93.4043 171.902C93.291 171.875 93.166 171.861 93.0293 171.861C92.7988 171.861 92.6016 171.912 92.4375 172.014C92.2773 172.111 92.1465 172.246 92.0449 172.418C91.9395 172.59 91.8613 172.793 91.8105 173.027C91.7637 173.258 91.7402 173.508 91.7402 173.777V173.9ZM101.619 177L101.525 176.109C101.311 176.426 101.051 176.674 100.746 176.854C100.445 177.033 100.115 177.123 99.7559 177.123C99.4277 177.123 99.127 177.072 98.8535 176.971C98.5801 176.869 98.3457 176.707 98.1504 176.484C97.9551 176.266 97.8027 175.986 97.6934 175.646C97.5879 175.303 97.5352 174.891 97.5352 174.41V170.66H99.1641V174.422C99.1641 174.68 99.1816 174.896 99.2168 175.072C99.2559 175.248 99.3164 175.389 99.3984 175.494C99.4805 175.604 99.5879 175.682 99.7207 175.729C99.8535 175.775 100.016 175.799 100.207 175.799C100.379 175.799 100.533 175.781 100.67 175.746C100.811 175.711 100.934 175.66 101.039 175.594C101.129 175.535 101.209 175.465 101.279 175.383C101.35 175.301 101.41 175.209 101.461 175.107V170.66H103.096V177H101.619ZM108.65 177C108.611 176.922 108.578 176.832 108.551 176.73C108.523 176.629 108.5 176.521 108.48 176.408C108.391 176.506 108.287 176.598 108.17 176.684C108.053 176.77 107.924 176.844 107.783 176.906C107.639 176.973 107.48 177.023 107.309 177.059C107.137 177.098 106.951 177.117 106.752 177.117C106.428 177.117 106.129 177.07 105.855 176.977C105.586 176.883 105.354 176.752 105.158 176.584C104.963 176.416 104.811 176.217 104.701 175.986C104.592 175.752 104.537 175.498 104.537 175.225C104.537 174.873 104.605 174.562 104.742 174.293C104.879 174.02 105.084 173.795 105.357 173.619C105.604 173.459 105.906 173.338 106.266 173.256C106.629 173.17 107.045 173.127 107.514 173.127H108.422V172.752C108.422 172.604 108.398 172.471 108.352 172.354C108.305 172.232 108.234 172.129 108.141 172.043C108.043 171.953 107.92 171.885 107.771 171.838C107.627 171.787 107.457 171.762 107.262 171.762C107.09 171.762 106.941 171.783 106.816 171.826C106.691 171.865 106.59 171.922 106.512 171.996C106.441 172.062 106.389 172.143 106.354 172.236C106.322 172.33 106.307 172.434 106.307 172.547H104.678C104.678 172.277 104.736 172.021 104.854 171.779C104.975 171.537 105.15 171.324 105.381 171.141C105.607 170.957 105.885 170.812 106.213 170.707C106.545 170.598 106.924 170.543 107.35 170.543C107.732 170.543 108.088 170.59 108.416 170.684C108.748 170.777 109.035 170.916 109.277 171.1C109.52 171.283 109.709 171.516 109.846 171.797C109.982 172.074 110.051 172.396 110.051 172.764V175.482C110.051 175.822 110.072 176.104 110.115 176.326C110.158 176.549 110.221 176.74 110.303 176.9V177H108.65ZM107.098 175.857C107.262 175.857 107.414 175.838 107.555 175.799C107.695 175.76 107.822 175.709 107.936 175.646C108.049 175.584 108.146 175.514 108.229 175.436C108.311 175.354 108.375 175.271 108.422 175.189V174.1H107.59C107.336 174.1 107.119 174.125 106.939 174.176C106.76 174.223 106.613 174.289 106.5 174.375C106.387 174.465 106.303 174.572 106.248 174.697C106.193 174.818 106.166 174.951 106.166 175.096C106.166 175.209 106.186 175.314 106.225 175.412C106.268 175.506 106.328 175.586 106.406 175.652C106.484 175.715 106.58 175.766 106.693 175.805C106.811 175.84 106.945 175.857 107.098 175.857ZM115.986 175.26C115.986 175.162 115.963 175.076 115.916 175.002C115.873 174.928 115.795 174.857 115.682 174.791C115.564 174.729 115.41 174.67 115.219 174.615C115.027 174.561 114.785 174.506 114.492 174.451C114.121 174.377 113.781 174.285 113.473 174.176C113.168 174.062 112.906 173.926 112.688 173.766C112.469 173.609 112.297 173.428 112.172 173.221C112.051 173.014 111.99 172.775 111.99 172.506C111.99 172.244 112.053 171.994 112.178 171.756C112.303 171.518 112.482 171.309 112.717 171.129C112.951 170.949 113.236 170.807 113.572 170.701C113.908 170.596 114.287 170.543 114.709 170.543C115.15 170.543 115.547 170.596 115.898 170.701C116.25 170.803 116.549 170.943 116.795 171.123C117.037 171.307 117.223 171.523 117.352 171.773C117.48 172.023 117.545 172.295 117.545 172.588H115.916C115.916 172.482 115.898 172.385 115.863 172.295C115.828 172.201 115.775 172.117 115.705 172.043C115.607 171.945 115.475 171.867 115.307 171.809C115.143 171.75 114.943 171.721 114.709 171.721C114.51 171.721 114.336 171.74 114.188 171.779C114.039 171.818 113.918 171.873 113.824 171.943C113.738 172.006 113.672 172.08 113.625 172.166C113.582 172.248 113.561 172.336 113.561 172.43C113.561 172.523 113.58 172.611 113.619 172.693C113.658 172.771 113.729 172.842 113.83 172.904C113.928 172.971 114.062 173.031 114.234 173.086C114.406 173.137 114.625 173.182 114.891 173.221C115.273 173.283 115.629 173.363 115.957 173.461C116.285 173.559 116.568 173.684 116.807 173.836C117.045 173.992 117.23 174.182 117.363 174.404C117.5 174.623 117.568 174.885 117.568 175.189C117.568 175.471 117.5 175.73 117.363 175.969C117.23 176.203 117.041 176.406 116.795 176.578C116.545 176.75 116.244 176.885 115.893 176.982C115.541 177.076 115.148 177.123 114.715 177.123C114.238 177.123 113.816 177.061 113.449 176.936C113.086 176.811 112.781 176.646 112.535 176.443C112.289 176.244 112.102 176.018 111.973 175.764C111.848 175.506 111.785 175.248 111.785 174.99H113.338C113.35 175.162 113.396 175.311 113.479 175.436C113.561 175.557 113.666 175.654 113.795 175.729C113.924 175.807 114.07 175.863 114.234 175.898C114.402 175.934 114.574 175.951 114.75 175.951C114.961 175.951 115.145 175.934 115.301 175.898C115.461 175.859 115.592 175.809 115.693 175.746C115.791 175.684 115.863 175.611 115.91 175.529C115.961 175.447 115.986 175.357 115.986 175.26ZM120.732 171.533C120.814 171.412 120.904 171.301 121.002 171.199C121.104 171.094 121.209 171.002 121.318 170.924C121.486 170.803 121.672 170.709 121.875 170.643C122.078 170.576 122.293 170.543 122.52 170.543C122.852 170.543 123.156 170.594 123.434 170.695C123.711 170.793 123.949 170.947 124.148 171.158C124.348 171.369 124.502 171.641 124.611 171.973C124.725 172.301 124.781 172.697 124.781 173.162V177H123.152V173.15C123.152 172.924 123.123 172.729 123.064 172.564C123.01 172.4 122.93 172.268 122.824 172.166C122.719 172.064 122.592 171.99 122.443 171.943C122.295 171.893 122.127 171.867 121.939 171.867C121.795 171.867 121.66 171.881 121.535 171.908C121.41 171.936 121.297 171.977 121.195 172.031C121.102 172.078 121.016 172.135 120.938 172.201C120.863 172.268 120.795 172.342 120.732 172.424V177H119.104V168H120.732V171.533ZM127.506 173.531C127.506 172.98 127.547 172.463 127.629 171.979C127.715 171.49 127.83 171.039 127.975 170.625C128.119 170.215 128.287 169.84 128.479 169.5C128.674 169.16 128.879 168.859 129.094 168.598C129.309 168.336 129.529 168.115 129.756 167.936C129.986 167.752 130.209 167.611 130.424 167.514L130.74 168.404C130.615 168.498 130.49 168.611 130.365 168.744C130.24 168.877 130.117 169.029 129.996 169.201C129.84 169.424 129.693 169.688 129.557 169.992C129.424 170.297 129.307 170.629 129.205 170.988C129.115 171.336 129.043 171.721 128.988 172.143C128.934 172.564 128.906 173.023 128.906 173.52V173.672C128.906 174.16 128.932 174.611 128.982 175.025C129.037 175.439 129.096 175.77 129.158 176.016C129.244 176.359 129.344 176.678 129.457 176.971C129.574 177.264 129.699 177.52 129.832 177.738C129.973 177.977 130.121 178.184 130.277 178.359C130.434 178.535 130.588 178.682 130.74 178.799L130.424 179.678C130.209 179.58 129.986 179.439 129.756 179.256C129.529 179.072 129.309 178.85 129.094 178.588C128.879 178.33 128.674 178.031 128.479 177.691C128.287 177.352 128.119 176.975 127.975 176.561C127.83 176.15 127.715 175.703 127.629 175.219C127.547 174.734 127.506 174.215 127.506 173.66V173.531ZM133.951 170.66H137.402V175.676H139.119V177H133.951V175.676H135.756V171.99H133.951V170.66ZM135.639 169.037C135.639 168.912 135.66 168.797 135.703 168.691C135.75 168.582 135.814 168.488 135.896 168.41C135.979 168.336 136.076 168.277 136.189 168.234C136.307 168.191 136.436 168.17 136.576 168.17C136.865 168.17 137.094 168.252 137.262 168.416C137.434 168.576 137.52 168.783 137.52 169.037C137.52 169.291 137.434 169.5 137.262 169.664C137.094 169.824 136.865 169.904 136.576 169.904C136.436 169.904 136.307 169.883 136.189 169.84C136.076 169.797 135.979 169.736 135.896 169.658C135.814 169.584 135.75 169.494 135.703 169.389C135.66 169.279 135.639 169.162 135.639 169.037ZM140.725 177V170.66H142.201L142.301 171.539C142.383 171.422 142.473 171.314 142.57 171.217C142.668 171.119 142.771 171.031 142.881 170.953C143.068 170.82 143.273 170.719 143.496 170.648C143.719 170.578 143.955 170.543 144.205 170.543C144.525 170.543 144.818 170.59 145.084 170.684C145.35 170.777 145.58 170.926 145.775 171.129C145.967 171.336 146.115 171.602 146.221 171.926C146.33 172.246 146.385 172.637 146.385 173.098V177H144.756V173.121C144.756 172.871 144.727 172.666 144.668 172.506C144.613 172.342 144.533 172.213 144.428 172.119C144.322 172.025 144.195 171.961 144.047 171.926C143.898 171.887 143.73 171.867 143.543 171.867C143.387 171.867 143.242 171.885 143.109 171.92C142.98 171.955 142.865 172.008 142.764 172.078C142.682 172.129 142.607 172.189 142.541 172.26C142.475 172.33 142.414 172.408 142.359 172.494V177H140.725ZM150.92 169.107V170.66H153.287V171.861H150.92V174.586C150.92 174.816 150.945 175.01 150.996 175.166C151.051 175.318 151.127 175.439 151.225 175.529C151.322 175.623 151.439 175.689 151.576 175.729C151.717 175.768 151.873 175.787 152.045 175.787C152.17 175.787 152.297 175.781 152.426 175.77C152.559 175.758 152.686 175.742 152.807 175.723C152.924 175.707 153.033 175.689 153.135 175.67C153.24 175.65 153.33 175.631 153.404 175.611L153.562 176.73C153.449 176.797 153.316 176.855 153.164 176.906C153.012 176.953 152.85 176.992 152.678 177.023C152.506 177.055 152.326 177.078 152.139 177.094C151.955 177.113 151.773 177.123 151.594 177.123C151.246 177.123 150.93 177.078 150.645 176.988C150.363 176.895 150.123 176.75 149.924 176.555C149.721 176.363 149.564 176.119 149.455 175.822C149.346 175.521 149.291 175.162 149.291 174.744V171.861H147.844V170.66H149.291V169.107H150.92ZM159.229 175.26C159.229 175.162 159.205 175.076 159.158 175.002C159.115 174.928 159.037 174.857 158.924 174.791C158.807 174.729 158.652 174.67 158.461 174.615C158.27 174.561 158.027 174.506 157.734 174.451C157.363 174.377 157.023 174.285 156.715 174.176C156.41 174.062 156.148 173.926 155.93 173.766C155.711 173.609 155.539 173.428 155.414 173.221C155.293 173.014 155.232 172.775 155.232 172.506C155.232 172.244 155.295 171.994 155.42 171.756C155.545 171.518 155.725 171.309 155.959 171.129C156.193 170.949 156.479 170.807 156.814 170.701C157.15 170.596 157.529 170.543 157.951 170.543C158.393 170.543 158.789 170.596 159.141 170.701C159.492 170.803 159.791 170.943 160.037 171.123C160.279 171.307 160.465 171.523 160.594 171.773C160.723 172.023 160.787 172.295 160.787 172.588H159.158C159.158 172.482 159.141 172.385 159.105 172.295C159.07 172.201 159.018 172.117 158.947 172.043C158.85 171.945 158.717 171.867 158.549 171.809C158.385 171.75 158.186 171.721 157.951 171.721C157.752 171.721 157.578 171.74 157.43 171.779C157.281 171.818 157.16 171.873 157.066 171.943C156.98 172.006 156.914 172.08 156.867 172.166C156.824 172.248 156.803 172.336 156.803 172.43C156.803 172.523 156.822 172.611 156.861 172.693C156.9 172.771 156.971 172.842 157.072 172.904C157.17 172.971 157.305 173.031 157.477 173.086C157.648 173.137 157.867 173.182 158.133 173.221C158.516 173.283 158.871 173.363 159.199 173.461C159.527 173.559 159.811 173.684 160.049 173.836C160.287 173.992 160.473 174.182 160.605 174.404C160.742 174.623 160.811 174.885 160.811 175.189C160.811 175.471 160.742 175.73 160.605 175.969C160.473 176.203 160.283 176.406 160.037 176.578C159.787 176.75 159.486 176.885 159.135 176.982C158.783 177.076 158.391 177.123 157.957 177.123C157.48 177.123 157.059 177.061 156.691 176.936C156.328 176.811 156.023 176.646 155.777 176.443C155.531 176.244 155.344 176.018 155.215 175.764C155.09 175.506 155.027 175.248 155.027 174.99H156.58C156.592 175.162 156.639 175.311 156.721 175.436C156.803 175.557 156.908 175.654 157.037 175.729C157.166 175.807 157.312 175.863 157.477 175.898C157.645 175.934 157.816 175.951 157.992 175.951C158.203 175.951 158.387 175.934 158.543 175.898C158.703 175.859 158.834 175.809 158.936 175.746C159.033 175.684 159.105 175.611 159.152 175.529C159.203 175.447 159.229 175.357 159.229 175.26ZM166.682 173.66C166.682 174.195 166.639 174.703 166.553 175.184C166.467 175.66 166.35 176.105 166.201 176.52C166.053 176.934 165.879 177.311 165.68 177.65C165.484 177.994 165.275 178.299 165.053 178.564C164.83 178.834 164.602 179.062 164.367 179.25C164.133 179.438 163.904 179.58 163.682 179.678L163.371 178.799C163.508 178.697 163.645 178.57 163.781 178.418C163.918 178.27 164.051 178.096 164.18 177.896C164.332 177.662 164.471 177.396 164.596 177.1C164.725 176.803 164.838 176.471 164.936 176.104C165.018 175.768 165.082 175.396 165.129 174.99C165.18 174.584 165.205 174.145 165.205 173.672V173.52C165.205 173.059 165.18 172.629 165.129 172.23C165.082 171.832 165.018 171.465 164.936 171.129C164.83 170.711 164.701 170.336 164.549 170.004C164.4 169.672 164.242 169.385 164.074 169.143C163.961 168.982 163.844 168.84 163.723 168.715C163.605 168.586 163.488 168.477 163.371 168.387L163.682 167.514C163.904 167.611 164.133 167.754 164.367 167.941C164.602 168.129 164.83 168.355 165.053 168.621C165.275 168.891 165.484 169.197 165.68 169.541C165.879 169.881 166.053 170.258 166.201 170.672C166.35 171.086 166.467 171.533 166.553 172.014C166.639 172.49 166.682 172.996 166.682 173.531V173.66Z" fill="#EEF5FC"/>
<path d="M141.172 269.469H142.818L142.824 275.381C142.82 275.787 142.742 276.158 142.59 276.494C142.441 276.826 142.236 277.113 141.975 277.355C141.713 277.598 141.404 277.785 141.049 277.918C140.697 278.051 140.318 278.117 139.912 278.117C139.482 278.117 139.092 278.062 138.74 277.953C138.389 277.844 138.088 277.68 137.838 277.461C137.584 277.246 137.387 276.975 137.246 276.646C137.105 276.318 137.033 275.934 137.029 275.492H138.682C138.682 275.695 138.701 275.873 138.74 276.025C138.779 276.178 138.838 276.307 138.916 276.412C139.018 276.541 139.15 276.637 139.314 276.699C139.479 276.762 139.678 276.793 139.912 276.793C140.1 276.793 140.271 276.758 140.428 276.688C140.584 276.613 140.717 276.514 140.826 276.389C140.936 276.264 141.02 276.115 141.078 275.943C141.141 275.768 141.172 275.58 141.172 275.381V269.469ZM148.373 278C148.334 277.922 148.301 277.832 148.273 277.73C148.246 277.629 148.223 277.521 148.203 277.408C148.113 277.506 148.01 277.598 147.893 277.684C147.775 277.77 147.646 277.844 147.506 277.906C147.361 277.973 147.203 278.023 147.031 278.059C146.859 278.098 146.674 278.117 146.475 278.117C146.15 278.117 145.852 278.07 145.578 277.977C145.309 277.883 145.076 277.752 144.881 277.584C144.686 277.416 144.533 277.217 144.424 276.986C144.314 276.752 144.26 276.498 144.26 276.225C144.26 275.873 144.328 275.562 144.465 275.293C144.602 275.02 144.807 274.795 145.08 274.619C145.326 274.459 145.629 274.338 145.988 274.256C146.352 274.17 146.768 274.127 147.236 274.127H148.145V273.752C148.145 273.604 148.121 273.471 148.074 273.354C148.027 273.232 147.957 273.129 147.863 273.043C147.766 272.953 147.643 272.885 147.494 272.838C147.35 272.787 147.18 272.762 146.984 272.762C146.812 272.762 146.664 272.783 146.539 272.826C146.414 272.865 146.312 272.922 146.234 272.996C146.164 273.062 146.111 273.143 146.076 273.236C146.045 273.33 146.029 273.434 146.029 273.547H144.4C144.4 273.277 144.459 273.021 144.576 272.779C144.697 272.537 144.873 272.324 145.104 272.141C145.33 271.957 145.607 271.812 145.936 271.707C146.268 271.598 146.646 271.543 147.072 271.543C147.455 271.543 147.811 271.59 148.139 271.684C148.471 271.777 148.758 271.916 149 272.1C149.242 272.283 149.432 272.516 149.568 272.797C149.705 273.074 149.773 273.396 149.773 273.764V276.482C149.773 276.822 149.795 277.104 149.838 277.326C149.881 277.549 149.943 277.74 150.025 277.9V278H148.373ZM146.82 276.857C146.984 276.857 147.137 276.838 147.277 276.799C147.418 276.76 147.545 276.709 147.658 276.646C147.771 276.584 147.869 276.514 147.951 276.436C148.033 276.354 148.098 276.271 148.145 276.189V275.1H147.312C147.059 275.1 146.842 275.125 146.662 275.176C146.482 275.223 146.336 275.289 146.223 275.375C146.109 275.465 146.025 275.572 145.971 275.697C145.916 275.818 145.889 275.951 145.889 276.096C145.889 276.209 145.908 276.314 145.947 276.412C145.99 276.506 146.051 276.586 146.129 276.652C146.207 276.715 146.303 276.766 146.416 276.805C146.533 276.84 146.668 276.857 146.82 276.857ZM151.619 278V271.66H153.096L153.195 272.539C153.277 272.422 153.367 272.314 153.465 272.217C153.562 272.119 153.666 272.031 153.775 271.953C153.963 271.82 154.168 271.719 154.391 271.648C154.613 271.578 154.85 271.543 155.1 271.543C155.42 271.543 155.713 271.59 155.979 271.684C156.244 271.777 156.475 271.926 156.67 272.129C156.861 272.336 157.01 272.602 157.115 272.926C157.225 273.246 157.279 273.637 157.279 274.098V278H155.65V274.121C155.65 273.871 155.621 273.666 155.562 273.506C155.508 273.342 155.428 273.213 155.322 273.119C155.217 273.025 155.09 272.961 154.941 272.926C154.793 272.887 154.625 272.867 154.438 272.867C154.281 272.867 154.137 272.885 154.004 272.92C153.875 272.955 153.76 273.008 153.658 273.078C153.576 273.129 153.502 273.189 153.436 273.26C153.369 273.33 153.309 273.408 153.254 273.494V278H151.619ZM171.588 274.754C171.588 275.305 171.523 275.791 171.395 276.213C171.27 276.631 171.088 276.98 170.85 277.262C170.611 277.547 170.32 277.762 169.977 277.906C169.633 278.051 169.246 278.123 168.816 278.123C168.391 278.123 168.006 278.051 167.662 277.906C167.318 277.762 167.027 277.547 166.789 277.262C166.547 276.98 166.359 276.631 166.227 276.213C166.098 275.791 166.033 275.305 166.033 274.754V272.715C166.033 272.164 166.098 271.68 166.227 271.262C166.355 270.84 166.541 270.486 166.783 270.201C167.021 269.92 167.311 269.707 167.65 269.562C167.994 269.418 168.379 269.346 168.805 269.346C169.234 269.346 169.621 269.418 169.965 269.562C170.309 269.707 170.602 269.92 170.844 270.201C171.082 270.486 171.266 270.84 171.395 271.262C171.523 271.68 171.588 272.164 171.588 272.715V274.754ZM167.674 274.051L169.947 272.357C169.939 272.037 169.904 271.764 169.842 271.537C169.783 271.307 169.695 271.123 169.578 270.986C169.488 270.877 169.377 270.797 169.244 270.746C169.115 270.691 168.969 270.664 168.805 270.664C168.621 270.664 168.459 270.699 168.318 270.77C168.182 270.836 168.066 270.938 167.973 271.074C167.871 271.219 167.795 271.406 167.744 271.637C167.697 271.867 167.674 272.141 167.674 272.457V273.4C167.674 273.588 167.674 273.713 167.674 273.775C167.674 273.838 167.674 273.93 167.674 274.051ZM169.947 275V274.01C169.947 273.881 169.947 273.787 169.947 273.729C169.947 273.666 169.947 273.578 169.947 273.465L167.674 275.152C167.682 275.41 167.707 275.639 167.75 275.838C167.797 276.037 167.861 276.203 167.943 276.336C168.037 276.496 168.156 276.615 168.301 276.693C168.445 276.771 168.617 276.811 168.816 276.811C169 276.811 169.162 276.777 169.303 276.711C169.443 276.641 169.561 276.535 169.654 276.395C169.752 276.246 169.824 276.057 169.871 275.826C169.922 275.592 169.947 275.316 169.947 275ZM174.881 273.02H175.766C176 273.02 176.201 272.988 176.369 272.926C176.541 272.859 176.68 272.768 176.785 272.65C176.883 272.549 176.955 272.426 177.002 272.281C177.053 272.133 177.078 271.973 177.078 271.801C177.078 271.633 177.053 271.48 177.002 271.344C176.955 271.203 176.883 271.082 176.785 270.98C176.688 270.883 176.562 270.807 176.41 270.752C176.262 270.697 176.088 270.67 175.889 270.67C175.725 270.67 175.57 270.693 175.426 270.74C175.285 270.787 175.162 270.854 175.057 270.939C174.947 271.029 174.861 271.137 174.799 271.262C174.736 271.387 174.705 271.527 174.705 271.684H173.076C173.076 271.336 173.146 271.02 173.287 270.734C173.432 270.449 173.629 270.203 173.879 269.996C174.129 269.793 174.422 269.635 174.758 269.521C175.098 269.408 175.463 269.352 175.854 269.352C176.275 269.352 176.662 269.404 177.014 269.51C177.365 269.611 177.666 269.764 177.916 269.967C178.166 270.174 178.359 270.43 178.496 270.734C178.637 271.035 178.707 271.385 178.707 271.783C178.707 271.967 178.68 272.148 178.625 272.328C178.57 272.504 178.49 272.672 178.385 272.832C178.279 272.992 178.148 273.141 177.992 273.277C177.836 273.41 177.656 273.525 177.453 273.623C177.691 273.709 177.896 273.818 178.068 273.951C178.244 274.084 178.389 274.234 178.502 274.402C178.615 274.574 178.699 274.762 178.754 274.965C178.809 275.168 178.836 275.383 178.836 275.609C178.836 276.008 178.76 276.363 178.607 276.676C178.455 276.988 178.246 277.25 177.98 277.461C177.715 277.676 177.398 277.84 177.031 277.953C176.668 278.062 176.275 278.117 175.854 278.117C175.49 278.117 175.135 278.068 174.787 277.971C174.443 277.869 174.137 277.717 173.867 277.514C173.598 277.314 173.381 277.062 173.217 276.758C173.057 276.453 172.977 276.094 172.977 275.68H174.605C174.605 275.844 174.637 275.996 174.699 276.137C174.762 276.273 174.852 276.391 174.969 276.488C175.082 276.59 175.217 276.67 175.373 276.729C175.529 276.783 175.701 276.811 175.889 276.811C176.1 276.811 176.289 276.781 176.457 276.723C176.625 276.664 176.766 276.578 176.879 276.465C176.988 276.363 177.07 276.238 177.125 276.09C177.184 275.941 177.213 275.775 177.213 275.592C177.213 275.361 177.18 275.164 177.113 275C177.047 274.836 176.951 274.701 176.826 274.596C176.697 274.49 176.543 274.412 176.363 274.361C176.188 274.311 175.988 274.285 175.766 274.285H174.881V273.02Z" fill="#EEF5FC"/>
<path d="M242.172 269.469H243.818L243.824 275.381C243.82 275.787 243.742 276.158 243.59 276.494C243.441 276.826 243.236 277.113 242.975 277.355C242.713 277.598 242.404 277.785 242.049 277.918C241.697 278.051 241.318 278.117 240.912 278.117C240.482 278.117 240.092 278.062 239.74 277.953C239.389 277.844 239.088 277.68 238.838 277.461C238.584 277.246 238.387 276.975 238.246 276.646C238.105 276.318 238.033 275.934 238.029 275.492H239.682C239.682 275.695 239.701 275.873 239.74 276.025C239.779 276.178 239.838 276.307 239.916 276.412C240.018 276.541 240.15 276.637 240.314 276.699C240.479 276.762 240.678 276.793 240.912 276.793C241.1 276.793 241.271 276.758 241.428 276.688C241.584 276.613 241.717 276.514 241.826 276.389C241.936 276.264 242.02 276.115 242.078 275.943C242.141 275.768 242.172 275.58 242.172 275.381V269.469ZM249.373 278C249.334 277.922 249.301 277.832 249.273 277.73C249.246 277.629 249.223 277.521 249.203 277.408C249.113 277.506 249.01 277.598 248.893 277.684C248.775 277.77 248.646 277.844 248.506 277.906C248.361 277.973 248.203 278.023 248.031 278.059C247.859 278.098 247.674 278.117 247.475 278.117C247.15 278.117 246.852 278.07 246.578 277.977C246.309 277.883 246.076 277.752 245.881 277.584C245.686 277.416 245.533 277.217 245.424 276.986C245.314 276.752 245.26 276.498 245.26 276.225C245.26 275.873 245.328 275.562 245.465 275.293C245.602 275.02 245.807 274.795 246.08 274.619C246.326 274.459 246.629 274.338 246.988 274.256C247.352 274.17 247.768 274.127 248.236 274.127H249.145V273.752C249.145 273.604 249.121 273.471 249.074 273.354C249.027 273.232 248.957 273.129 248.863 273.043C248.766 272.953 248.643 272.885 248.494 272.838C248.35 272.787 248.18 272.762 247.984 272.762C247.812 272.762 247.664 272.783 247.539 272.826C247.414 272.865 247.312 272.922 247.234 272.996C247.164 273.062 247.111 273.143 247.076 273.236C247.045 273.33 247.029 273.434 247.029 273.547H245.4C245.4 273.277 245.459 273.021 245.576 272.779C245.697 272.537 245.873 272.324 246.104 272.141C246.33 271.957 246.607 271.812 246.936 271.707C247.268 271.598 247.646 271.543 248.072 271.543C248.455 271.543 248.811 271.59 249.139 271.684C249.471 271.777 249.758 271.916 250 272.1C250.242 272.283 250.432 272.516 250.568 272.797C250.705 273.074 250.773 273.396 250.773 273.764V276.482C250.773 276.822 250.795 277.104 250.838 277.326C250.881 277.549 250.943 277.74 251.025 277.9V278H249.373ZM247.82 276.857C247.984 276.857 248.137 276.838 248.277 276.799C248.418 276.76 248.545 276.709 248.658 276.646C248.771 276.584 248.869 276.514 248.951 276.436C249.033 276.354 249.098 276.271 249.145 276.189V275.1H248.312C248.059 275.1 247.842 275.125 247.662 275.176C247.482 275.223 247.336 275.289 247.223 275.375C247.109 275.465 247.025 275.572 246.971 275.697C246.916 275.818 246.889 275.951 246.889 276.096C246.889 276.209 246.908 276.314 246.947 276.412C246.99 276.506 247.051 276.586 247.129 276.652C247.207 276.715 247.303 276.766 247.416 276.805C247.533 276.84 247.668 276.857 247.82 276.857ZM252.619 278V271.66H254.096L254.195 272.539C254.277 272.422 254.367 272.314 254.465 272.217C254.562 272.119 254.666 272.031 254.775 271.953C254.963 271.82 255.168 271.719 255.391 271.648C255.613 271.578 255.85 271.543 256.1 271.543C256.42 271.543 256.713 271.59 256.979 271.684C257.244 271.777 257.475 271.926 257.67 272.129C257.861 272.336 258.01 272.602 258.115 272.926C258.225 273.246 258.279 273.637 258.279 274.098V278H256.65V274.121C256.65 273.871 256.621 273.666 256.562 273.506C256.508 273.342 256.428 273.213 256.322 273.119C256.217 273.025 256.09 272.961 255.941 272.926C255.793 272.887 255.625 272.867 255.438 272.867C255.281 272.867 255.137 272.885 255.004 272.92C254.875 272.955 254.76 273.008 254.658 273.078C254.576 273.129 254.502 273.189 254.436 273.26C254.369 273.33 254.309 273.408 254.254 273.494V278H252.619ZM272.588 274.754C272.588 275.305 272.523 275.791 272.395 276.213C272.27 276.631 272.088 276.98 271.85 277.262C271.611 277.547 271.32 277.762 270.977 277.906C270.633 278.051 270.246 278.123 269.816 278.123C269.391 278.123 269.006 278.051 268.662 277.906C268.318 277.762 268.027 277.547 267.789 277.262C267.547 276.98 267.359 276.631 267.227 276.213C267.098 275.791 267.033 275.305 267.033 274.754V272.715C267.033 272.164 267.098 271.68 267.227 271.262C267.355 270.84 267.541 270.486 267.783 270.201C268.021 269.92 268.311 269.707 268.65 269.562C268.994 269.418 269.379 269.346 269.805 269.346C270.234 269.346 270.621 269.418 270.965 269.562C271.309 269.707 271.602 269.92 271.844 270.201C272.082 270.486 272.266 270.84 272.395 271.262C272.523 271.68 272.588 272.164 272.588 272.715V274.754ZM268.674 274.051L270.947 272.357C270.939 272.037 270.904 271.764 270.842 271.537C270.783 271.307 270.695 271.123 270.578 270.986C270.488 270.877 270.377 270.797 270.244 270.746C270.115 270.691 269.969 270.664 269.805 270.664C269.621 270.664 269.459 270.699 269.318 270.77C269.182 270.836 269.066 270.938 268.973 271.074C268.871 271.219 268.795 271.406 268.744 271.637C268.697 271.867 268.674 272.141 268.674 272.457V273.4C268.674 273.588 268.674 273.713 268.674 273.775C268.674 273.838 268.674 273.93 268.674 274.051ZM270.947 275V274.01C270.947 273.881 270.947 273.787 270.947 273.729C270.947 273.666 270.947 273.578 270.947 273.465L268.674 275.152C268.682 275.41 268.707 275.639 268.75 275.838C268.797 276.037 268.861 276.203 268.943 276.336C269.037 276.496 269.156 276.615 269.301 276.693C269.445 276.771 269.617 276.811 269.816 276.811C270 276.811 270.162 276.777 270.303 276.711C270.443 276.641 270.561 276.535 270.654 276.395C270.752 276.246 270.824 276.057 270.871 275.826C270.922 275.592 270.947 275.316 270.947 275ZM274.322 273.799L274.809 269.469H279.543V270.852H276.15L275.945 272.727C276.066 272.656 276.238 272.584 276.461 272.51C276.684 272.436 276.939 272.398 277.229 272.398C277.639 272.398 278.004 272.465 278.324 272.598C278.648 272.727 278.922 272.914 279.145 273.16C279.363 273.406 279.531 273.707 279.648 274.062C279.766 274.418 279.824 274.82 279.824 275.27C279.824 275.652 279.768 276.016 279.654 276.359C279.541 276.703 279.367 277.006 279.133 277.268C278.898 277.529 278.604 277.736 278.248 277.889C277.893 278.041 277.473 278.117 276.988 278.117C276.621 278.117 276.266 278.062 275.922 277.953C275.582 277.844 275.279 277.684 275.014 277.473C274.748 277.262 274.531 277.004 274.363 276.699C274.199 276.391 274.111 276.039 274.1 275.645H275.705C275.744 276.016 275.877 276.303 276.104 276.506C276.334 276.709 276.627 276.811 276.982 276.811C277.201 276.811 277.387 276.77 277.539 276.688C277.695 276.605 277.822 276.492 277.92 276.348C278.014 276.203 278.082 276.031 278.125 275.832C278.172 275.633 278.195 275.418 278.195 275.188C278.195 274.961 278.166 274.754 278.107 274.566C278.053 274.375 277.967 274.211 277.85 274.074C277.732 273.938 277.586 273.832 277.41 273.758C277.234 273.684 277.027 273.646 276.789 273.646C276.629 273.646 276.49 273.66 276.373 273.688C276.256 273.715 276.152 273.75 276.062 273.793C275.973 273.836 275.893 273.887 275.822 273.945C275.752 274 275.686 274.059 275.623 274.121L274.322 273.799Z" fill="#EEF5FC"/>
<path d="M342.172 269.469H343.818L343.824 275.381C343.82 275.787 343.742 276.158 343.59 276.494C343.441 276.826 343.236 277.113 342.975 277.355C342.713 277.598 342.404 277.785 342.049 277.918C341.697 278.051 341.318 278.117 340.912 278.117C340.482 278.117 340.092 278.062 339.74 277.953C339.389 277.844 339.088 277.68 338.838 277.461C338.584 277.246 338.387 276.975 338.246 276.646C338.105 276.318 338.033 275.934 338.029 275.492H339.682C339.682 275.695 339.701 275.873 339.74 276.025C339.779 276.178 339.838 276.307 339.916 276.412C340.018 276.541 340.15 276.637 340.314 276.699C340.479 276.762 340.678 276.793 340.912 276.793C341.1 276.793 341.271 276.758 341.428 276.688C341.584 276.613 341.717 276.514 341.826 276.389C341.936 276.264 342.02 276.115 342.078 275.943C342.141 275.768 342.172 275.58 342.172 275.381V269.469ZM349.373 278C349.334 277.922 349.301 277.832 349.273 277.73C349.246 277.629 349.223 277.521 349.203 277.408C349.113 277.506 349.01 277.598 348.893 277.684C348.775 277.77 348.646 277.844 348.506 277.906C348.361 277.973 348.203 278.023 348.031 278.059C347.859 278.098 347.674 278.117 347.475 278.117C347.15 278.117 346.852 278.07 346.578 277.977C346.309 277.883 346.076 277.752 345.881 277.584C345.686 277.416 345.533 277.217 345.424 276.986C345.314 276.752 345.26 276.498 345.26 276.225C345.26 275.873 345.328 275.562 345.465 275.293C345.602 275.02 345.807 274.795 346.08 274.619C346.326 274.459 346.629 274.338 346.988 274.256C347.352 274.17 347.768 274.127 348.236 274.127H349.145V273.752C349.145 273.604 349.121 273.471 349.074 273.354C349.027 273.232 348.957 273.129 348.863 273.043C348.766 272.953 348.643 272.885 348.494 272.838C348.35 272.787 348.18 272.762 347.984 272.762C347.812 272.762 347.664 272.783 347.539 272.826C347.414 272.865 347.312 272.922 347.234 272.996C347.164 273.062 347.111 273.143 347.076 273.236C347.045 273.33 347.029 273.434 347.029 273.547H345.4C345.4 273.277 345.459 273.021 345.576 272.779C345.697 272.537 345.873 272.324 346.104 272.141C346.33 271.957 346.607 271.812 346.936 271.707C347.268 271.598 347.646 271.543 348.072 271.543C348.455 271.543 348.811 271.59 349.139 271.684C349.471 271.777 349.758 271.916 350 272.1C350.242 272.283 350.432 272.516 350.568 272.797C350.705 273.074 350.773 273.396 350.773 273.764V276.482C350.773 276.822 350.795 277.104 350.838 277.326C350.881 277.549 350.943 277.74 351.025 277.9V278H349.373ZM347.82 276.857C347.984 276.857 348.137 276.838 348.277 276.799C348.418 276.76 348.545 276.709 348.658 276.646C348.771 276.584 348.869 276.514 348.951 276.436C349.033 276.354 349.098 276.271 349.145 276.189V275.1H348.312C348.059 275.1 347.842 275.125 347.662 275.176C347.482 275.223 347.336 275.289 347.223 275.375C347.109 275.465 347.025 275.572 346.971 275.697C346.916 275.818 346.889 275.951 346.889 276.096C346.889 276.209 346.908 276.314 346.947 276.412C346.99 276.506 347.051 276.586 347.129 276.652C347.207 276.715 347.303 276.766 347.416 276.805C347.533 276.84 347.668 276.857 347.82 276.857ZM352.619 278V271.66H354.096L354.195 272.539C354.277 272.422 354.367 272.314 354.465 272.217C354.562 272.119 354.666 272.031 354.775 271.953C354.963 271.82 355.168 271.719 355.391 271.648C355.613 271.578 355.85 271.543 356.1 271.543C356.42 271.543 356.713 271.59 356.979 271.684C357.244 271.777 357.475 271.926 357.67 272.129C357.861 272.336 358.01 272.602 358.115 272.926C358.225 273.246 358.279 273.637 358.279 274.098V278H356.65V274.121C356.65 273.871 356.621 273.666 356.562 273.506C356.508 273.342 356.428 273.213 356.322 273.119C356.217 273.025 356.09 272.961 355.941 272.926C355.793 272.887 355.625 272.867 355.438 272.867C355.281 272.867 355.137 272.885 355.004 272.92C354.875 272.955 354.76 273.008 354.658 273.078C354.576 273.129 354.502 273.189 354.436 273.26C354.369 273.33 354.309 273.408 354.254 273.494V278H352.619ZM372.588 274.754C372.588 275.305 372.523 275.791 372.395 276.213C372.27 276.631 372.088 276.98 371.85 277.262C371.611 277.547 371.32 277.762 370.977 277.906C370.633 278.051 370.246 278.123 369.816 278.123C369.391 278.123 369.006 278.051 368.662 277.906C368.318 277.762 368.027 277.547 367.789 277.262C367.547 276.98 367.359 276.631 367.227 276.213C367.098 275.791 367.033 275.305 367.033 274.754V272.715C367.033 272.164 367.098 271.68 367.227 271.262C367.355 270.84 367.541 270.486 367.783 270.201C368.021 269.92 368.311 269.707 368.65 269.562C368.994 269.418 369.379 269.346 369.805 269.346C370.234 269.346 370.621 269.418 370.965 269.562C371.309 269.707 371.602 269.92 371.844 270.201C372.082 270.486 372.266 270.84 372.395 271.262C372.523 271.68 372.588 272.164 372.588 272.715V274.754ZM368.674 274.051L370.947 272.357C370.939 272.037 370.904 271.764 370.842 271.537C370.783 271.307 370.695 271.123 370.578 270.986C370.488 270.877 370.377 270.797 370.244 270.746C370.115 270.691 369.969 270.664 369.805 270.664C369.621 270.664 369.459 270.699 369.318 270.77C369.182 270.836 369.066 270.938 368.973 271.074C368.871 271.219 368.795 271.406 368.744 271.637C368.697 271.867 368.674 272.141 368.674 272.457V273.4C368.674 273.588 368.674 273.713 368.674 273.775C368.674 273.838 368.674 273.93 368.674 274.051ZM370.947 275V274.01C370.947 273.881 370.947 273.787 370.947 273.729C370.947 273.666 370.947 273.578 370.947 273.465L368.674 275.152C368.682 275.41 368.707 275.639 368.75 275.838C368.797 276.037 368.861 276.203 368.943 276.336C369.037 276.496 369.156 276.615 369.301 276.693C369.445 276.771 369.617 276.811 369.816 276.811C370 276.811 370.162 276.777 370.303 276.711C370.443 276.641 370.561 276.535 370.654 276.395C370.752 276.246 370.824 276.057 370.871 275.826C370.922 275.592 370.947 275.316 370.947 275ZM379.812 270.377L376.49 278H374.773L378.102 270.799H373.818V269.469H379.812V270.377Z" fill="#EEF5FC"/>
<path d="M442.172 269.469H443.818L443.824 275.381C443.82 275.787 443.742 276.158 443.59 276.494C443.441 276.826 443.236 277.113 442.975 277.355C442.713 277.598 442.404 277.785 442.049 277.918C441.697 278.051 441.318 278.117 440.912 278.117C440.482 278.117 440.092 278.062 439.74 277.953C439.389 277.844 439.088 277.68 438.838 277.461C438.584 277.246 438.387 276.975 438.246 276.646C438.105 276.318 438.033 275.934 438.029 275.492H439.682C439.682 275.695 439.701 275.873 439.74 276.025C439.779 276.178 439.838 276.307 439.916 276.412C440.018 276.541 440.15 276.637 440.314 276.699C440.479 276.762 440.678 276.793 440.912 276.793C441.1 276.793 441.271 276.758 441.428 276.688C441.584 276.613 441.717 276.514 441.826 276.389C441.936 276.264 442.02 276.115 442.078 275.943C442.141 275.768 442.172 275.58 442.172 275.381V269.469ZM449.373 278C449.334 277.922 449.301 277.832 449.273 277.73C449.246 277.629 449.223 277.521 449.203 277.408C449.113 277.506 449.01 277.598 448.893 277.684C448.775 277.77 448.646 277.844 448.506 277.906C448.361 277.973 448.203 278.023 448.031 278.059C447.859 278.098 447.674 278.117 447.475 278.117C447.15 278.117 446.852 278.07 446.578 277.977C446.309 277.883 446.076 277.752 445.881 277.584C445.686 277.416 445.533 277.217 445.424 276.986C445.314 276.752 445.26 276.498 445.26 276.225C445.26 275.873 445.328 275.562 445.465 275.293C445.602 275.02 445.807 274.795 446.08 274.619C446.326 274.459 446.629 274.338 446.988 274.256C447.352 274.17 447.768 274.127 448.236 274.127H449.145V273.752C449.145 273.604 449.121 273.471 449.074 273.354C449.027 273.232 448.957 273.129 448.863 273.043C448.766 272.953 448.643 272.885 448.494 272.838C448.35 272.787 448.18 272.762 447.984 272.762C447.812 272.762 447.664 272.783 447.539 272.826C447.414 272.865 447.312 272.922 447.234 272.996C447.164 273.062 447.111 273.143 447.076 273.236C447.045 273.33 447.029 273.434 447.029 273.547H445.4C445.4 273.277 445.459 273.021 445.576 272.779C445.697 272.537 445.873 272.324 446.104 272.141C446.33 271.957 446.607 271.812 446.936 271.707C447.268 271.598 447.646 271.543 448.072 271.543C448.455 271.543 448.811 271.59 449.139 271.684C449.471 271.777 449.758 271.916 450 272.1C450.242 272.283 450.432 272.516 450.568 272.797C450.705 273.074 450.773 273.396 450.773 273.764V276.482C450.773 276.822 450.795 277.104 450.838 277.326C450.881 277.549 450.943 277.74 451.025 277.9V278H449.373ZM447.82 276.857C447.984 276.857 448.137 276.838 448.277 276.799C448.418 276.76 448.545 276.709 448.658 276.646C448.771 276.584 448.869 276.514 448.951 276.436C449.033 276.354 449.098 276.271 449.145 276.189V275.1H448.312C448.059 275.1 447.842 275.125 447.662 275.176C447.482 275.223 447.336 275.289 447.223 275.375C447.109 275.465 447.025 275.572 446.971 275.697C446.916 275.818 446.889 275.951 446.889 276.096C446.889 276.209 446.908 276.314 446.947 276.412C446.99 276.506 447.051 276.586 447.129 276.652C447.207 276.715 447.303 276.766 447.416 276.805C447.533 276.84 447.668 276.857 447.82 276.857ZM452.619 278V271.66H454.096L454.195 272.539C454.277 272.422 454.367 272.314 454.465 272.217C454.562 272.119 454.666 272.031 454.775 271.953C454.963 271.82 455.168 271.719 455.391 271.648C455.613 271.578 455.85 271.543 456.1 271.543C456.42 271.543 456.713 271.59 456.979 271.684C457.244 271.777 457.475 271.926 457.67 272.129C457.861 272.336 458.01 272.602 458.115 272.926C458.225 273.246 458.279 273.637 458.279 274.098V278H456.65V274.121C456.65 273.871 456.621 273.666 456.562 273.506C456.508 273.342 456.428 273.213 456.322 273.119C456.217 273.025 456.09 272.961 455.941 272.926C455.793 272.887 455.625 272.867 455.438 272.867C455.281 272.867 455.137 272.885 455.004 272.92C454.875 272.955 454.76 273.008 454.658 273.078C454.576 273.129 454.502 273.189 454.436 273.26C454.369 273.33 454.309 273.408 454.254 273.494V278H452.619ZM472.588 274.754C472.588 275.305 472.523 275.791 472.395 276.213C472.27 276.631 472.088 276.98 471.85 277.262C471.611 277.547 471.32 277.762 470.977 277.906C470.633 278.051 470.246 278.123 469.816 278.123C469.391 278.123 469.006 278.051 468.662 277.906C468.318 277.762 468.027 277.547 467.789 277.262C467.547 276.98 467.359 276.631 467.227 276.213C467.098 275.791 467.033 275.305 467.033 274.754V272.715C467.033 272.164 467.098 271.68 467.227 271.262C467.355 270.84 467.541 270.486 467.783 270.201C468.021 269.92 468.311 269.707 468.65 269.562C468.994 269.418 469.379 269.346 469.805 269.346C470.234 269.346 470.621 269.418 470.965 269.562C471.309 269.707 471.602 269.92 471.844 270.201C472.082 270.486 472.266 270.84 472.395 271.262C472.523 271.68 472.588 272.164 472.588 272.715V274.754ZM468.674 274.051L470.947 272.357C470.939 272.037 470.904 271.764 470.842 271.537C470.783 271.307 470.695 271.123 470.578 270.986C470.488 270.877 470.377 270.797 470.244 270.746C470.115 270.691 469.969 270.664 469.805 270.664C469.621 270.664 469.459 270.699 469.318 270.77C469.182 270.836 469.066 270.938 468.973 271.074C468.871 271.219 468.795 271.406 468.744 271.637C468.697 271.867 468.674 272.141 468.674 272.457V273.4C468.674 273.588 468.674 273.713 468.674 273.775C468.674 273.838 468.674 273.93 468.674 274.051ZM470.947 275V274.01C470.947 273.881 470.947 273.787 470.947 273.729C470.947 273.666 470.947 273.578 470.947 273.465L468.674 275.152C468.682 275.41 468.707 275.639 468.75 275.838C468.797 276.037 468.861 276.203 468.943 276.336C469.037 276.496 469.156 276.615 469.301 276.693C469.445 276.771 469.617 276.811 469.816 276.811C470 276.811 470.162 276.777 470.303 276.711C470.443 276.641 470.561 276.535 470.654 276.395C470.752 276.246 470.824 276.057 470.871 275.826C470.922 275.592 470.947 275.316 470.947 275ZM475.359 276.705C475.797 276.705 476.176 276.658 476.496 276.564C476.816 276.471 477.086 276.334 477.305 276.154C477.516 275.982 477.68 275.771 477.797 275.521C477.918 275.268 477.998 274.984 478.037 274.672V274.637C477.955 274.719 477.863 274.795 477.762 274.865C477.66 274.936 477.549 274.996 477.428 275.047C477.299 275.105 477.154 275.152 476.994 275.188C476.834 275.219 476.658 275.234 476.467 275.234C476.061 275.234 475.703 275.16 475.395 275.012C475.086 274.863 474.828 274.66 474.621 274.402C474.41 274.145 474.25 273.842 474.141 273.494C474.035 273.143 473.982 272.766 473.982 272.363C473.982 271.949 474.047 271.561 474.176 271.197C474.309 270.83 474.498 270.51 474.744 270.236C474.99 269.963 475.287 269.748 475.635 269.592C475.986 269.432 476.381 269.352 476.818 269.352C477.264 269.352 477.664 269.438 478.02 269.609C478.375 269.781 478.678 270.021 478.928 270.33C479.174 270.639 479.361 271.006 479.49 271.432C479.623 271.857 479.689 272.324 479.689 272.832V273.395C479.689 274.074 479.605 274.699 479.438 275.27C479.27 275.84 479.01 276.332 478.658 276.746C478.307 277.164 477.859 277.49 477.316 277.725C476.773 277.955 476.125 278.07 475.371 278.07H475.248V276.705H475.359ZM476.854 273.975C477.002 273.975 477.139 273.953 477.264 273.91C477.393 273.867 477.51 273.807 477.615 273.729C477.717 273.654 477.805 273.566 477.879 273.465C477.957 273.359 478.02 273.246 478.066 273.125V272.545C478.066 272.232 478.033 271.959 477.967 271.725C477.904 271.49 477.816 271.295 477.703 271.139C477.59 270.982 477.457 270.865 477.305 270.787C477.152 270.709 476.988 270.67 476.812 270.67C476.621 270.67 476.449 270.717 476.297 270.811C476.148 270.9 476.023 271.021 475.922 271.174C475.82 271.33 475.742 271.51 475.688 271.713C475.633 271.912 475.605 272.121 475.605 272.34C475.605 272.559 475.631 272.768 475.682 272.967C475.732 273.166 475.811 273.34 475.916 273.488C476.018 273.637 476.146 273.756 476.303 273.846C476.459 273.932 476.643 273.975 476.854 273.975Z" fill="#EEF5FC"/>
<path d="M40.2598 40.6602H43.7109V45.6758H45.4277V47H40.2598V45.6758H42.0645V41.9902H40.2598V40.6602ZM41.9473 39.0371C41.9473 38.9121 41.9688 38.7969 42.0117 38.6914C42.0586 38.582 42.123 38.4883 42.2051 38.4102C42.2871 38.3359 42.3848 38.2773 42.498 38.2344C42.6152 38.1914 42.7441 38.1699 42.8848 38.1699C43.1738 38.1699 43.4023 38.252 43.5703 38.416C43.7422 38.5762 43.8281 38.7832 43.8281 39.0371C43.8281 39.291 43.7422 39.5 43.5703 39.6641C43.4023 39.8242 43.1738 39.9043 42.8848 39.9043C42.7441 39.9043 42.6152 39.8828 42.498 39.8398C42.3848 39.7969 42.2871 39.7363 42.2051 39.6582C42.123 39.584 42.0586 39.4941 42.0117 39.3887C41.9688 39.2793 41.9473 39.1621 41.9473 39.0371ZM47.0332 47V40.6602H48.5098L48.6094 41.5391C48.6914 41.4219 48.7812 41.3145 48.8789 41.2168C48.9766 41.1191 49.0801 41.0312 49.1895 40.9531C49.377 40.8203 49.582 40.7188 49.8047 40.6484C50.0273 40.5781 50.2637 40.543 50.5137 40.543C50.834 40.543 51.127 40.5898 51.3926 40.6836C51.6582 40.7773 51.8887 40.9258 52.084 41.1289C52.2754 41.3359 52.4238 41.6016 52.5293 41.9258C52.6387 42.2461 52.6934 42.6367 52.6934 43.0977V47H51.0645V43.1211C51.0645 42.8711 51.0352 42.666 50.9766 42.5059C50.9219 42.3418 50.8418 42.2129 50.7363 42.1191C50.6309 42.0254 50.5039 41.9609 50.3555 41.9258C50.207 41.8867 50.0391 41.8672 49.8516 41.8672C49.6953 41.8672 49.5508 41.8848 49.418 41.9199C49.2891 41.9551 49.1738 42.0078 49.0723 42.0781C48.9902 42.1289 48.916 42.1895 48.8496 42.2598C48.7832 42.3301 48.7227 42.4082 48.668 42.4941V47H47.0332ZM57.2285 39.1074V40.6602H59.5957V41.8613H57.2285V44.5859C57.2285 44.8164 57.2539 45.0098 57.3047 45.166C57.3594 45.3184 57.4355 45.4395 57.5332 45.5293C57.6309 45.623 57.748 45.6895 57.8848 45.7285C58.0254 45.7676 58.1816 45.7871 58.3535 45.7871C58.4785 45.7871 58.6055 45.7812 58.7344 45.7695C58.8672 45.7578 58.9941 45.7422 59.1152 45.7227C59.2324 45.707 59.3418 45.6895 59.4434 45.6699C59.5488 45.6504 59.6387 45.6309 59.7129 45.6113L59.8711 46.7305C59.7578 46.7969 59.625 46.8555 59.4727 46.9062C59.3203 46.9531 59.1582 46.9922 58.9863 47.0234C58.8145 47.0547 58.6348 47.0781 58.4473 47.0938C58.2637 47.1133 58.082 47.123 57.9023 47.123C57.5547 47.123 57.2383 47.0781 56.9531 46.9883C56.6719 46.8945 56.4316 46.75 56.2324 46.5547C56.0293 46.3633 55.873 46.1191 55.7637 45.8223C55.6543 45.5215 55.5996 45.1621 55.5996 44.7441V41.8613H54.1523V40.6602H55.5996V39.1074H57.2285ZM65.5371 45.2598C65.5371 45.1621 65.5137 45.0762 65.4668 45.002C65.4238 44.9277 65.3457 44.8574 65.2324 44.791C65.1152 44.7285 64.9609 44.6699 64.7695 44.6152C64.5781 44.5605 64.3359 44.5059 64.043 44.4512C63.6719 44.377 63.332 44.2852 63.0234 44.1758C62.7188 44.0625 62.457 43.9258 62.2383 43.7656C62.0195 43.6094 61.8477 43.4277 61.7227 43.2207C61.6016 43.0137 61.541 42.7754 61.541 42.5059C61.541 42.2441 61.6035 41.9941 61.7285 41.7559C61.8535 41.5176 62.0332 41.3086 62.2676 41.1289C62.502 40.9492 62.7871 40.8066 63.123 40.7012C63.459 40.5957 63.8379 40.543 64.2598 40.543C64.7012 40.543 65.0977 40.5957 65.4492 40.7012C65.8008 40.8027 66.0996 40.9434 66.3457 41.123C66.5879 41.3066 66.7734 41.5234 66.9023 41.7734C67.0312 42.0234 67.0957 42.2949 67.0957 42.5879H65.4668C65.4668 42.4824 65.4492 42.3848 65.4141 42.2949C65.3789 42.2012 65.3262 42.1172 65.2559 42.043C65.1582 41.9453 65.0254 41.8672 64.8574 41.8086C64.6934 41.75 64.4941 41.7207 64.2598 41.7207C64.0605 41.7207 63.8867 41.7402 63.7383 41.7793C63.5898 41.8184 63.4688 41.873 63.375 41.9434C63.2891 42.0059 63.2227 42.0801 63.1758 42.166C63.1328 42.248 63.1113 42.3359 63.1113 42.4297C63.1113 42.5234 63.1309 42.6113 63.1699 42.6934C63.209 42.7715 63.2793 42.8418 63.3809 42.9043C63.4785 42.9707 63.6133 43.0312 63.7852 43.0859C63.957 43.1367 64.1758 43.1816 64.4414 43.2207C64.8242 43.2832 65.1797 43.3633 65.5078 43.4609C65.8359 43.5586 66.1191 43.6836 66.3574 43.8359C66.5957 43.9922 66.7812 44.1816 66.9141 44.4043C67.0508 44.623 67.1191 44.8848 67.1191 45.1895C67.1191 45.4707 67.0508 45.7305 66.9141 45.9688C66.7812 46.2031 66.5918 46.4062 66.3457 46.5781C66.0957 46.75 65.7949 46.8848 65.4434 46.9824C65.0918 47.0762 64.6992 47.123 64.2656 47.123C63.7891 47.123 63.3672 47.0605 63 46.9355C62.6367 46.8105 62.332 46.6465 62.0859 46.4434C61.8398 46.2441 61.6523 46.0176 61.5234 45.7637C61.3984 45.5059 61.3359 45.248 61.3359 44.9902H62.8887C62.9004 45.1621 62.9473 45.3105 63.0293 45.4355C63.1113 45.5566 63.2168 45.6543 63.3457 45.7285C63.4746 45.8066 63.6211 45.8633 63.7852 45.8984C63.9531 45.9336 64.125 45.9512 64.3008 45.9512C64.5117 45.9512 64.6953 45.9336 64.8516 45.8984C65.0117 45.8594 65.1426 45.8086 65.2441 45.7461C65.3418 45.6836 65.4141 45.6113 65.4609 45.5293C65.5117 45.4473 65.5371 45.3574 65.5371 45.2598Z" fill="#EEF5FC"/>
<line x1="108" y1="164" x2="108" y2="20" stroke="#EEF5FC" stroke-opacity="0.3" stroke-width="2" stroke-dasharray="5 5"/>
<line x1="60" y1="164" x2="60" y2="50" stroke="#EEF5FC" stroke-opacity="0.3" stroke-width="2" stroke-dasharray="5 5"/>
<line x1="60" y1="34" x2="60" y2="20" stroke="#EEF5FC" stroke-opacity="0.3" stroke-width="2" stroke-dasharray="5 5"/>
<line x1="60" y1="242" x2="60" y2="180" stroke="#EEF5FC" stroke-opacity="0.3" stroke-width="2" stroke-dasharray="5 5"/>
<line x1="108" y1="242" x2="108" y2="180" stroke="#EEF5FC" stroke-opacity="0.3" stroke-width="2" stroke-dasharray="5 5"/>
<line x1="158" y1="242" x2="158" y2="180" stroke="#EEF5FC" stroke-opacity="0.3" stroke-width="2" stroke-dasharray="5 5"/>
<line x1="158" y1="164" x2="158" y2="20" stroke="#EEF5FC" stroke-opacity="0.3" stroke-width="2" stroke-dasharray="5 5"/>
<line x1="458" y1="242" x2="458" y2="20" stroke="#EEF5FC" stroke-opacity="0.3" stroke-width="2" stroke-dasharray="5 5"/>
<rect x="158" y="191" width="300" height="18" rx="7" fill="#EEE957" stroke="#C7C117" stroke-width="2"/>
<rect x="60" y="191" width="48" height="18" rx="7" fill="#EEE957" stroke="#C7C117" stroke-width="2"/>
<rect x="208" y="131" width="250" height="18" rx="7" fill="#38B873" stroke="#356F2A" stroke-width="2"/>
<rect x="158" y="96" width="100" height="18" rx="7" fill="#38B873" stroke="#356F2A" stroke-width="2"/>
<rect x="60" y="61" width="48" height="18" rx="7" fill="#38B873" stroke="#356F2A" stroke-width="2"/>
</svg>
