<svg width="521" height="213" viewBox="0 0 521 213" fill="none" xmlns="http://www.w3.org/2000/svg">
<rect width="521" height="213" fill="white"/>
<path d="M60 164H458" stroke="black" stroke-width="2"/>
<line x1="60" y1="174" x2="60" y2="154" stroke="black" stroke-width="2"/>
<line x1="108" y1="174" x2="108" y2="154" stroke="black" stroke-width="2"/>
<line x1="158" y1="174" x2="158" y2="154" stroke="black" stroke-width="2"/>
<line x1="158" y1="174" x2="158" y2="154" stroke="black" stroke-width="2"/>
<line x1="208" y1="174" x2="208" y2="154" stroke="black" stroke-width="2"/>
<line x1="258" y1="174" x2="258" y2="154" stroke="black" stroke-width="2"/>
<line x1="308" y1="174" x2="308" y2="154" stroke="black" stroke-width="2"/>
<line x1="358" y1="174" x2="358" y2="154" stroke="black" stroke-width="2"/>
<line x1="408" y1="174" x2="408" y2="154" stroke="black" stroke-width="2"/>
<line x1="458" y1="174" x2="458" y2="154" stroke="black" stroke-width="2"/>
<path d="M44.1719 184.469H45.8184L45.8242 190.381C45.8203 190.787 45.7422 191.158 45.5898 191.494C45.4414 191.826 45.2363 192.113 44.9746 192.355C44.7129 192.598 44.4043 192.785 44.0488 192.918C43.6973 193.051 43.3184 193.117 42.9121 193.117C42.4824 193.117 42.0918 193.062 41.7402 192.953C41.3887 192.844 41.0879 192.68 40.8379 192.461C40.584 192.246 40.3867 191.975 40.2461 191.646C40.1055 191.318 40.0332 190.934 40.0293 190.492H41.6816C41.6816 190.695 41.7012 190.873 41.7402 191.025C41.7793 191.178 41.8379 191.307 41.916 191.412C42.0176 191.541 42.1504 191.637 42.3145 191.699C42.4785 191.762 42.6777 191.793 42.9121 191.793C43.0996 191.793 43.2715 191.758 43.4277 191.688C43.584 191.613 43.7168 191.514 43.8262 191.389C43.9355 191.264 44.0195 191.115 44.0781 190.943C44.1406 190.768 44.1719 190.58 44.1719 190.381V184.469ZM51.373 193C51.334 192.922 51.3008 192.832 51.2734 192.73C51.2461 192.629 51.2227 192.521 51.2031 192.408C51.1133 192.506 51.0098 192.598 50.8926 192.684C50.7754 192.77 50.6465 192.844 50.5059 192.906C50.3613 192.973 50.2031 193.023 50.0312 193.059C49.8594 193.098 49.6738 193.117 49.4746 193.117C49.1504 193.117 48.8516 193.07 48.5781 192.977C48.3086 192.883 48.0762 192.752 47.8809 192.584C47.6855 192.416 47.5332 192.217 47.4238 191.986C47.3145 191.752 47.2598 191.498 47.2598 191.225C47.2598 190.873 47.3281 190.562 47.4648 190.293C47.6016 190.02 47.8066 189.795 48.0801 189.619C48.3262 189.459 48.6289 189.338 48.9883 189.256C49.3516 189.17 49.7676 189.127 50.2363 189.127H51.1445V188.752C51.1445 188.604 51.1211 188.471 51.0742 188.354C51.0273 188.232 50.957 188.129 50.8633 188.043C50.7656 187.953 50.6426 187.885 50.4941 187.838C50.3496 187.787 50.1797 187.762 49.9844 187.762C49.8125 187.762 49.6641 187.783 49.5391 187.826C49.4141 187.865 49.3125 187.922 49.2344 187.996C49.1641 188.062 49.1113 188.143 49.0762 188.236C49.0449 188.33 49.0293 188.434 49.0293 188.547H47.4004C47.4004 188.277 47.459 188.021 47.5762 187.779C47.6973 187.537 47.873 187.324 48.1035 187.141C48.3301 186.957 48.6074 186.812 48.9355 186.707C49.2676 186.598 49.6465 186.543 50.0723 186.543C50.4551 186.543 50.8105 186.59 51.1387 186.684C51.4707 186.777 51.7578 186.916 52 187.1C52.2422 187.283 52.4316 187.516 52.5684 187.797C52.7051 188.074 52.7734 188.396 52.7734 188.764V191.482C52.7734 191.822 52.7949 192.104 52.8379 192.326C52.8809 192.549 52.9434 192.74 53.0254 192.9V193H51.373ZM49.8203 191.857C49.9844 191.857 50.1367 191.838 50.2773 191.799C50.418 191.76 50.5449 191.709 50.6582 191.646C50.7715 191.584 50.8691 191.514 50.9512 191.436C51.0332 191.354 51.0977 191.271 51.1445 191.189V190.1H50.3125C50.0586 190.1 49.8418 190.125 49.6621 190.176C49.4824 190.223 49.3359 190.289 49.2227 190.375C49.1094 190.465 49.0254 190.572 48.9707 190.697C48.916 190.818 48.8887 190.951 48.8887 191.096C48.8887 191.209 48.9082 191.314 48.9473 191.412C48.9902 191.506 49.0508 191.586 49.1289 191.652C49.207 191.715 49.3027 191.766 49.416 191.805C49.5332 191.84 49.668 191.857 49.8203 191.857ZM54.6191 193V186.66H56.0957L56.1953 187.539C56.2773 187.422 56.3672 187.314 56.4648 187.217C56.5625 187.119 56.666 187.031 56.7754 186.953C56.9629 186.82 57.168 186.719 57.3906 186.648C57.6133 186.578 57.8496 186.543 58.0996 186.543C58.4199 186.543 58.7129 186.59 58.9785 186.684C59.2441 186.777 59.4746 186.926 59.6699 187.129C59.8613 187.336 60.0098 187.602 60.1152 187.926C60.2246 188.246 60.2793 188.637 60.2793 189.098V193H58.6504V189.121C58.6504 188.871 58.6211 188.666 58.5625 188.506C58.5078 188.342 58.4277 188.213 58.3223 188.119C58.2168 188.025 58.0898 187.961 57.9414 187.926C57.793 187.887 57.625 187.867 57.4375 187.867C57.2812 187.867 57.1367 187.885 57.0039 187.92C56.875 187.955 56.7598 188.008 56.6582 188.078C56.5762 188.129 56.502 188.189 56.4355 188.26C56.3691 188.33 56.3086 188.408 56.2539 188.494V193H54.6191ZM74.5879 189.754C74.5879 190.305 74.5234 190.791 74.3945 191.213C74.2695 191.631 74.0879 191.98 73.8496 192.262C73.6113 192.547 73.3203 192.762 72.9766 192.906C72.6328 193.051 72.2461 193.123 71.8164 193.123C71.3906 193.123 71.0059 193.051 70.6621 192.906C70.3184 192.762 70.0273 192.547 69.7891 192.262C69.5469 191.98 69.3594 191.631 69.2266 191.213C69.0977 190.791 69.0332 190.305 69.0332 189.754V187.715C69.0332 187.164 69.0977 186.68 69.2266 186.262C69.3555 185.84 69.541 185.486 69.7832 185.201C70.0215 184.92 70.3105 184.707 70.6504 184.562C70.9941 184.418 71.3789 184.346 71.8047 184.346C72.2344 184.346 72.6211 184.418 72.9648 184.562C73.3086 184.707 73.6016 184.92 73.8438 185.201C74.082 185.486 74.2656 185.84 74.3945 186.262C74.5234 186.68 74.5879 187.164 74.5879 187.715V189.754ZM70.6738 189.051L72.9473 187.357C72.9395 187.037 72.9043 186.764 72.8418 186.537C72.7832 186.307 72.6953 186.123 72.5781 185.986C72.4883 185.877 72.377 185.797 72.2441 185.746C72.1152 185.691 71.9688 185.664 71.8047 185.664C71.6211 185.664 71.459 185.699 71.3184 185.77C71.1816 185.836 71.0664 185.938 70.9727 186.074C70.8711 186.219 70.7949 186.406 70.7441 186.637C70.6973 186.867 70.6738 187.141 70.6738 187.457V188.4C70.6738 188.588 70.6738 188.713 70.6738 188.775C70.6738 188.838 70.6738 188.93 70.6738 189.051ZM72.9473 190V189.01C72.9473 188.881 72.9473 188.787 72.9473 188.729C72.9473 188.666 72.9473 188.578 72.9473 188.465L70.6738 190.152C70.6816 190.41 70.707 190.639 70.75 190.838C70.7969 191.037 70.8613 191.203 70.9434 191.336C71.0371 191.496 71.1562 191.615 71.3008 191.693C71.4453 191.771 71.6172 191.811 71.8164 191.811C72 191.811 72.1621 191.777 72.3027 191.711C72.4434 191.641 72.5605 191.535 72.6543 191.395C72.752 191.246 72.8242 191.057 72.8711 190.826C72.9219 190.592 72.9473 190.316 72.9473 190ZM80.2305 193H78.584V186.455L76.4277 187.229V185.811L80.1426 184.469H80.2305V193Z" fill="black"/>
<path d="M39.8496 95.4375V86.6602H41.3555L41.4141 87.2812C41.5 87.1758 41.5938 87.082 41.6953 87C41.7969 86.9141 41.9062 86.8398 42.0234 86.7773C42.1641 86.7031 42.3184 86.6465 42.4863 86.6074C42.6582 86.5645 42.8418 86.543 43.0371 86.543C43.4395 86.543 43.7949 86.6211 44.1035 86.7773C44.4121 86.9297 44.6719 87.1465 44.8828 87.4277C45.0938 87.7129 45.252 88.0547 45.3574 88.4531C45.4668 88.8477 45.5215 89.2852 45.5215 89.7656V89.8887C45.5215 90.3496 45.4668 90.7773 45.3574 91.1719C45.252 91.5664 45.0957 91.9062 44.8887 92.1914C44.6777 92.4805 44.418 92.707 44.1094 92.8711C43.8008 93.0352 43.4473 93.1172 43.0488 93.1172C42.8379 93.1172 42.6426 93.0938 42.4629 93.0469C42.2871 93.0039 42.123 92.9395 41.9707 92.8535C41.8809 92.7988 41.7949 92.7383 41.7129 92.6719C41.6309 92.6055 41.5527 92.5312 41.4785 92.4492V95.4375H39.8496ZM43.8926 89.7656C43.8926 89.5 43.8672 89.252 43.8164 89.0215C43.7695 88.7871 43.6953 88.584 43.5938 88.4121C43.4883 88.2441 43.3535 88.1113 43.1895 88.0137C43.0293 87.916 42.834 87.8672 42.6035 87.8672C42.4707 87.8672 42.3496 87.8809 42.2402 87.9082C42.1309 87.9316 42.0312 87.9668 41.9414 88.0137C41.8398 88.0684 41.75 88.1367 41.6719 88.2188C41.5977 88.3008 41.5332 88.3965 41.4785 88.5059V91.1543C41.5293 91.2559 41.5898 91.3477 41.6602 91.4297C41.7344 91.5117 41.8184 91.582 41.9121 91.6406C42.002 91.6953 42.1055 91.7383 42.2227 91.7695C42.3398 91.7969 42.4707 91.8105 42.6152 91.8105C42.8457 91.8105 43.041 91.7598 43.2012 91.6582C43.3652 91.5566 43.498 91.418 43.5996 91.2422C43.7012 91.0664 43.7754 90.8633 43.8223 90.6328C43.8691 90.3984 43.8926 90.1504 43.8926 89.8887V89.7656ZM48.6621 87.5332C48.7441 87.4121 48.834 87.3008 48.9316 87.1992C49.0332 87.0938 49.1387 87.002 49.248 86.9238C49.416 86.8027 49.6016 86.709 49.8047 86.6426C50.0078 86.5762 50.2227 86.543 50.4492 86.543C50.7812 86.543 51.0859 86.5938 51.3633 86.6953C51.6406 86.793 51.8789 86.9473 52.0781 87.1582C52.2773 87.3691 52.4316 87.6406 52.541 87.9727C52.6543 88.3008 52.7109 88.6973 52.7109 89.1621V93H51.082V89.1504C51.082 88.9238 51.0527 88.7285 50.9941 88.5645C50.9395 88.4004 50.8594 88.2676 50.7539 88.166C50.6484 88.0645 50.5215 87.9902 50.373 87.9434C50.2246 87.8926 50.0566 87.8672 49.8691 87.8672C49.7246 87.8672 49.5898 87.8809 49.4648 87.9082C49.3398 87.9355 49.2266 87.9766 49.125 88.0312C49.0312 88.0781 48.9453 88.1348 48.8672 88.2012C48.793 88.2676 48.7246 88.3418 48.6621 88.4238V93H47.0332V84H48.6621V87.5332ZM54.6738 86.6602H58.125V91.6758H59.8418V93H54.6738V91.6758H56.4785V87.9902H54.6738V86.6602ZM56.3613 85.0371C56.3613 84.9121 56.3828 84.7969 56.4258 84.6914C56.4727 84.582 56.5371 84.4883 56.6191 84.4102C56.7012 84.3359 56.7988 84.2773 56.9121 84.2344C57.0293 84.1914 57.1582 84.1699 57.2988 84.1699C57.5879 84.1699 57.8164 84.252 57.9844 84.416C58.1562 84.5762 58.2422 84.7832 58.2422 85.0371C58.2422 85.291 58.1562 85.5 57.9844 85.6641C57.8164 85.8242 57.5879 85.9043 57.2988 85.9043C57.1582 85.9043 57.0293 85.8828 56.9121 85.8398C56.7988 85.7969 56.7012 85.7363 56.6191 85.6582C56.5371 85.584 56.4727 85.4941 56.4258 85.3887C56.3828 85.2793 56.3613 85.1621 56.3613 85.0371ZM61.4473 93V86.6602H62.9238L63.0234 87.5391C63.1055 87.4219 63.1953 87.3145 63.293 87.2168C63.3906 87.1191 63.4941 87.0312 63.6035 86.9531C63.791 86.8203 63.9961 86.7188 64.2188 86.6484C64.4414 86.5781 64.6777 86.543 64.9277 86.543C65.248 86.543 65.541 86.5898 65.8066 86.6836C66.0723 86.7773 66.3027 86.9258 66.498 87.1289C66.6895 87.3359 66.8379 87.6016 66.9434 87.9258C67.0527 88.2461 67.1074 88.6367 67.1074 89.0977V93H65.4785V89.1211C65.4785 88.8711 65.4492 88.666 65.3906 88.5059C65.3359 88.3418 65.2559 88.2129 65.1504 88.1191C65.0449 88.0254 64.918 87.9609 64.7695 87.9258C64.6211 87.8867 64.4531 87.8672 64.2656 87.8672C64.1094 87.8672 63.9648 87.8848 63.832 87.9199C63.7031 87.9551 63.5879 88.0078 63.4863 88.0781C63.4043 88.1289 63.3301 88.1895 63.2637 88.2598C63.1973 88.3301 63.1367 88.4082 63.082 88.4941V93H61.4473ZM71.6426 85.1074V86.6602H74.0098V87.8613H71.6426V90.5859C71.6426 90.8164 71.668 91.0098 71.7188 91.166C71.7734 91.3184 71.8496 91.4395 71.9473 91.5293C72.0449 91.623 72.1621 91.6895 72.2988 91.7285C72.4395 91.7676 72.5957 91.7871 72.7676 91.7871C72.8926 91.7871 73.0195 91.7812 73.1484 91.7695C73.2812 91.7578 73.4082 91.7422 73.5293 91.7227C73.6465 91.707 73.7559 91.6895 73.8574 91.6699C73.9629 91.6504 74.0527 91.6309 74.127 91.6113L74.2852 92.7305C74.1719 92.7969 74.0391 92.8555 73.8867 92.9062C73.7344 92.9531 73.5723 92.9922 73.4004 93.0234C73.2285 93.0547 73.0488 93.0781 72.8613 93.0938C72.6777 93.1133 72.4961 93.123 72.3164 93.123C71.9688 93.123 71.6523 93.0781 71.3672 92.9883C71.0859 92.8945 70.8457 92.75 70.6465 92.5547C70.4434 92.3633 70.2871 92.1191 70.1777 91.8223C70.0684 91.5215 70.0137 91.1621 70.0137 90.7441V87.8613H68.5664V86.6602H70.0137V85.1074H71.6426ZM79.998 84.3574H79.002V93.7031H79.998V94.9629H77.3789V83.0977H79.998V84.3574ZM87.2051 84.3574H86.209V93.7031H87.2051V94.9629H84.5859V83.0977H87.2051V84.3574ZM95.8535 93H90.0352V91.8867L92.7949 88.9219C93.0098 88.6875 93.1914 88.4746 93.3398 88.2832C93.4883 88.0918 93.6094 87.916 93.7031 87.7559C93.793 87.5996 93.8574 87.4531 93.8965 87.3164C93.9395 87.1797 93.9609 87.0469 93.9609 86.918C93.9609 86.7266 93.9336 86.5566 93.8789 86.4082C93.8242 86.2598 93.748 86.1328 93.6504 86.0273C93.5488 85.9258 93.4277 85.8477 93.2871 85.793C93.1504 85.7383 92.998 85.7109 92.8301 85.7109C92.6113 85.7109 92.418 85.7422 92.25 85.8047C92.0859 85.8633 91.9492 85.9512 91.8398 86.0684C91.7266 86.1895 91.6406 86.3398 91.582 86.5195C91.5234 86.6992 91.4941 86.9043 91.4941 87.1348H89.8594C89.8594 86.7559 89.9316 86.3984 90.0762 86.0625C90.2207 85.7227 90.4258 85.4258 90.6914 85.1719C90.9531 84.918 91.2695 84.7188 91.6406 84.5742C92.0156 84.4258 92.4297 84.3516 92.8828 84.3516C93.3164 84.3516 93.6992 84.4121 94.0312 84.5332C94.3672 84.6543 94.6484 84.8242 94.875 85.043C95.0977 85.2617 95.2676 85.5254 95.3848 85.834C95.502 86.1387 95.5605 86.4766 95.5605 86.8477C95.5605 87.1289 95.5156 87.3984 95.4258 87.6562C95.3398 87.9102 95.2168 88.1621 95.0566 88.4121C94.8926 88.6621 94.6973 88.918 94.4707 89.1797C94.2441 89.4375 93.9922 89.709 93.7148 89.9941L92.1094 91.6934H95.8535V93ZM99 83.0977H101.625V94.9629H99V93.7031H100.002V84.3574H99V83.0977ZM106.207 83.0977H108.832V94.9629H106.207V93.7031H107.209V84.3574H106.207V83.0977Z" fill="black"/>
<path d="M39.8496 35.4375V26.6602H41.3555L41.4141 27.2812C41.5 27.1758 41.5938 27.082 41.6953 27C41.7969 26.9141 41.9062 26.8398 42.0234 26.7773C42.1641 26.7031 42.3184 26.6465 42.4863 26.6074C42.6582 26.5645 42.8418 26.543 43.0371 26.543C43.4395 26.543 43.7949 26.6211 44.1035 26.7773C44.4121 26.9297 44.6719 27.1465 44.8828 27.4277C45.0938 27.7129 45.252 28.0547 45.3574 28.4531C45.4668 28.8477 45.5215 29.2852 45.5215 29.7656V29.8887C45.5215 30.3496 45.4668 30.7773 45.3574 31.1719C45.252 31.5664 45.0957 31.9062 44.8887 32.1914C44.6777 32.4805 44.418 32.707 44.1094 32.8711C43.8008 33.0352 43.4473 33.1172 43.0488 33.1172C42.8379 33.1172 42.6426 33.0938 42.4629 33.0469C42.2871 33.0039 42.123 32.9395 41.9707 32.8535C41.8809 32.7988 41.7949 32.7383 41.7129 32.6719C41.6309 32.6055 41.5527 32.5312 41.4785 32.4492V35.4375H39.8496ZM43.8926 29.7656C43.8926 29.5 43.8672 29.252 43.8164 29.0215C43.7695 28.7871 43.6953 28.584 43.5938 28.4121C43.4883 28.2441 43.3535 28.1113 43.1895 28.0137C43.0293 27.916 42.834 27.8672 42.6035 27.8672C42.4707 27.8672 42.3496 27.8809 42.2402 27.9082C42.1309 27.9316 42.0312 27.9668 41.9414 28.0137C41.8398 28.0684 41.75 28.1367 41.6719 28.2188C41.5977 28.3008 41.5332 28.3965 41.4785 28.5059V31.1543C41.5293 31.2559 41.5898 31.3477 41.6602 31.4297C41.7344 31.5117 41.8184 31.582 41.9121 31.6406C42.002 31.6953 42.1055 31.7383 42.2227 31.7695C42.3398 31.7969 42.4707 31.8105 42.6152 31.8105C42.8457 31.8105 43.041 31.7598 43.2012 31.6582C43.3652 31.5566 43.498 31.418 43.5996 31.2422C43.7012 31.0664 43.7754 30.8633 43.8223 30.6328C43.8691 30.3984 43.8926 30.1504 43.8926 29.8887V29.7656ZM48.6621 27.5332C48.7441 27.4121 48.834 27.3008 48.9316 27.1992C49.0332 27.0938 49.1387 27.002 49.248 26.9238C49.416 26.8027 49.6016 26.709 49.8047 26.6426C50.0078 26.5762 50.2227 26.543 50.4492 26.543C50.7812 26.543 51.0859 26.5938 51.3633 26.6953C51.6406 26.793 51.8789 26.9473 52.0781 27.1582C52.2773 27.3691 52.4316 27.6406 52.541 27.9727C52.6543 28.3008 52.7109 28.6973 52.7109 29.1621V33H51.082V29.1504C51.082 28.9238 51.0527 28.7285 50.9941 28.5645C50.9395 28.4004 50.8594 28.2676 50.7539 28.166C50.6484 28.0645 50.5215 27.9902 50.373 27.9434C50.2246 27.8926 50.0566 27.8672 49.8691 27.8672C49.7246 27.8672 49.5898 27.8809 49.4648 27.9082C49.3398 27.9355 49.2266 27.9766 49.125 28.0312C49.0312 28.0781 48.9453 28.1348 48.8672 28.2012C48.793 28.2676 48.7246 28.3418 48.6621 28.4238V33H47.0332V24H48.6621V27.5332ZM54.6738 26.6602H58.125V31.6758H59.8418V33H54.6738V31.6758H56.4785V27.9902H54.6738V26.6602ZM56.3613 25.0371C56.3613 24.9121 56.3828 24.7969 56.4258 24.6914C56.4727 24.582 56.5371 24.4883 56.6191 24.4102C56.7012 24.3359 56.7988 24.2773 56.9121 24.2344C57.0293 24.1914 57.1582 24.1699 57.2988 24.1699C57.5879 24.1699 57.8164 24.252 57.9844 24.416C58.1562 24.5762 58.2422 24.7832 58.2422 25.0371C58.2422 25.291 58.1562 25.5 57.9844 25.6641C57.8164 25.8242 57.5879 25.9043 57.2988 25.9043C57.1582 25.9043 57.0293 25.8828 56.9121 25.8398C56.7988 25.7969 56.7012 25.7363 56.6191 25.6582C56.5371 25.584 56.4727 25.4941 56.4258 25.3887C56.3828 25.2793 56.3613 25.1621 56.3613 25.0371ZM61.4473 33V26.6602H62.9238L63.0234 27.5391C63.1055 27.4219 63.1953 27.3145 63.293 27.2168C63.3906 27.1191 63.4941 27.0312 63.6035 26.9531C63.791 26.8203 63.9961 26.7188 64.2188 26.6484C64.4414 26.5781 64.6777 26.543 64.9277 26.543C65.248 26.543 65.541 26.5898 65.8066 26.6836C66.0723 26.7773 66.3027 26.9258 66.498 27.1289C66.6895 27.3359 66.8379 27.6016 66.9434 27.9258C67.0527 28.2461 67.1074 28.6367 67.1074 29.0977V33H65.4785V29.1211C65.4785 28.8711 65.4492 28.666 65.3906 28.5059C65.3359 28.3418 65.2559 28.2129 65.1504 28.1191C65.0449 28.0254 64.918 27.9609 64.7695 27.9258C64.6211 27.8867 64.4531 27.8672 64.2656 27.8672C64.1094 27.8672 63.9648 27.8848 63.832 27.9199C63.7031 27.9551 63.5879 28.0078 63.4863 28.0781C63.4043 28.1289 63.3301 28.1895 63.2637 28.2598C63.1973 28.3301 63.1367 28.4082 63.082 28.4941V33H61.4473ZM71.6426 25.1074V26.6602H74.0098V27.8613H71.6426V30.5859C71.6426 30.8164 71.668 31.0098 71.7188 31.166C71.7734 31.3184 71.8496 31.4395 71.9473 31.5293C72.0449 31.623 72.1621 31.6895 72.2988 31.7285C72.4395 31.7676 72.5957 31.7871 72.7676 31.7871C72.8926 31.7871 73.0195 31.7812 73.1484 31.7695C73.2812 31.7578 73.4082 31.7422 73.5293 31.7227C73.6465 31.707 73.7559 31.6895 73.8574 31.6699C73.9629 31.6504 74.0527 31.6309 74.127 31.6113L74.2852 32.7305C74.1719 32.7969 74.0391 32.8555 73.8867 32.9062C73.7344 32.9531 73.5723 32.9922 73.4004 33.0234C73.2285 33.0547 73.0488 33.0781 72.8613 33.0938C72.6777 33.1133 72.4961 33.123 72.3164 33.123C71.9688 33.123 71.6523 33.0781 71.3672 32.9883C71.0859 32.8945 70.8457 32.75 70.6465 32.5547C70.4434 32.3633 70.2871 32.1191 70.1777 31.8223C70.0684 31.5215 70.0137 31.1621 70.0137 30.7441V27.8613H68.5664V26.6602H70.0137V25.1074H71.6426ZM79.998 24.3574H79.002V33.7031H79.998V34.9629H77.3789V23.0977H79.998V24.3574ZM87.2051 24.3574H86.209V33.7031H87.2051V34.9629H84.5859V23.0977H87.2051V24.3574ZM94.2656 33H92.6191V26.4551L90.4629 27.2285V25.8105L94.1777 24.4688H94.2656V33ZM99 23.0977H101.625V34.9629H99V33.7031H100.002V24.3574H99V23.0977ZM106.207 23.0977H108.832V34.9629H106.207V33.7031H107.209V24.3574H106.207V23.0977Z" fill="black"/>
<path d="M141.172 184.469H142.818L142.824 190.381C142.82 190.787 142.742 191.158 142.59 191.494C142.441 191.826 142.236 192.113 141.975 192.355C141.713 192.598 141.404 192.785 141.049 192.918C140.697 193.051 140.318 193.117 139.912 193.117C139.482 193.117 139.092 193.062 138.74 192.953C138.389 192.844 138.088 192.68 137.838 192.461C137.584 192.246 137.387 191.975 137.246 191.646C137.105 191.318 137.033 190.934 137.029 190.492H138.682C138.682 190.695 138.701 190.873 138.74 191.025C138.779 191.178 138.838 191.307 138.916 191.412C139.018 191.541 139.15 191.637 139.314 191.699C139.479 191.762 139.678 191.793 139.912 191.793C140.1 191.793 140.271 191.758 140.428 191.688C140.584 191.613 140.717 191.514 140.826 191.389C140.936 191.264 141.02 191.115 141.078 190.943C141.141 190.768 141.172 190.58 141.172 190.381V184.469ZM148.373 193C148.334 192.922 148.301 192.832 148.273 192.73C148.246 192.629 148.223 192.521 148.203 192.408C148.113 192.506 148.01 192.598 147.893 192.684C147.775 192.77 147.646 192.844 147.506 192.906C147.361 192.973 147.203 193.023 147.031 193.059C146.859 193.098 146.674 193.117 146.475 193.117C146.15 193.117 145.852 193.07 145.578 192.977C145.309 192.883 145.076 192.752 144.881 192.584C144.686 192.416 144.533 192.217 144.424 191.986C144.314 191.752 144.26 191.498 144.26 191.225C144.26 190.873 144.328 190.562 144.465 190.293C144.602 190.02 144.807 189.795 145.08 189.619C145.326 189.459 145.629 189.338 145.988 189.256C146.352 189.17 146.768 189.127 147.236 189.127H148.145V188.752C148.145 188.604 148.121 188.471 148.074 188.354C148.027 188.232 147.957 188.129 147.863 188.043C147.766 187.953 147.643 187.885 147.494 187.838C147.35 187.787 147.18 187.762 146.984 187.762C146.812 187.762 146.664 187.783 146.539 187.826C146.414 187.865 146.312 187.922 146.234 187.996C146.164 188.062 146.111 188.143 146.076 188.236C146.045 188.33 146.029 188.434 146.029 188.547H144.4C144.4 188.277 144.459 188.021 144.576 187.779C144.697 187.537 144.873 187.324 145.104 187.141C145.33 186.957 145.607 186.812 145.936 186.707C146.268 186.598 146.646 186.543 147.072 186.543C147.455 186.543 147.811 186.59 148.139 186.684C148.471 186.777 148.758 186.916 149 187.1C149.242 187.283 149.432 187.516 149.568 187.797C149.705 188.074 149.773 188.396 149.773 188.764V191.482C149.773 191.822 149.795 192.104 149.838 192.326C149.881 192.549 149.943 192.74 150.025 192.9V193H148.373ZM146.82 191.857C146.984 191.857 147.137 191.838 147.277 191.799C147.418 191.76 147.545 191.709 147.658 191.646C147.771 191.584 147.869 191.514 147.951 191.436C148.033 191.354 148.098 191.271 148.145 191.189V190.1H147.312C147.059 190.1 146.842 190.125 146.662 190.176C146.482 190.223 146.336 190.289 146.223 190.375C146.109 190.465 146.025 190.572 145.971 190.697C145.916 190.818 145.889 190.951 145.889 191.096C145.889 191.209 145.908 191.314 145.947 191.412C145.99 191.506 146.051 191.586 146.129 191.652C146.207 191.715 146.303 191.766 146.416 191.805C146.533 191.84 146.668 191.857 146.82 191.857ZM151.619 193V186.66H153.096L153.195 187.539C153.277 187.422 153.367 187.314 153.465 187.217C153.562 187.119 153.666 187.031 153.775 186.953C153.963 186.82 154.168 186.719 154.391 186.648C154.613 186.578 154.85 186.543 155.1 186.543C155.42 186.543 155.713 186.59 155.979 186.684C156.244 186.777 156.475 186.926 156.67 187.129C156.861 187.336 157.01 187.602 157.115 187.926C157.225 188.246 157.279 188.637 157.279 189.098V193H155.65V189.121C155.65 188.871 155.621 188.666 155.562 188.506C155.508 188.342 155.428 188.213 155.322 188.119C155.217 188.025 155.09 187.961 154.941 187.926C154.793 187.887 154.625 187.867 154.438 187.867C154.281 187.867 154.137 187.885 154.004 187.92C153.875 187.955 153.76 188.008 153.658 188.078C153.576 188.129 153.502 188.189 153.436 188.26C153.369 188.33 153.309 188.408 153.254 188.494V193H151.619ZM171.588 189.754C171.588 190.305 171.523 190.791 171.395 191.213C171.27 191.631 171.088 191.98 170.85 192.262C170.611 192.547 170.32 192.762 169.977 192.906C169.633 193.051 169.246 193.123 168.816 193.123C168.391 193.123 168.006 193.051 167.662 192.906C167.318 192.762 167.027 192.547 166.789 192.262C166.547 191.98 166.359 191.631 166.227 191.213C166.098 190.791 166.033 190.305 166.033 189.754V187.715C166.033 187.164 166.098 186.68 166.227 186.262C166.355 185.84 166.541 185.486 166.783 185.201C167.021 184.92 167.311 184.707 167.65 184.562C167.994 184.418 168.379 184.346 168.805 184.346C169.234 184.346 169.621 184.418 169.965 184.562C170.309 184.707 170.602 184.92 170.844 185.201C171.082 185.486 171.266 185.84 171.395 186.262C171.523 186.68 171.588 187.164 171.588 187.715V189.754ZM167.674 189.051L169.947 187.357C169.939 187.037 169.904 186.764 169.842 186.537C169.783 186.307 169.695 186.123 169.578 185.986C169.488 185.877 169.377 185.797 169.244 185.746C169.115 185.691 168.969 185.664 168.805 185.664C168.621 185.664 168.459 185.699 168.318 185.77C168.182 185.836 168.066 185.938 167.973 186.074C167.871 186.219 167.795 186.406 167.744 186.637C167.697 186.867 167.674 187.141 167.674 187.457V188.4C167.674 188.588 167.674 188.713 167.674 188.775C167.674 188.838 167.674 188.93 167.674 189.051ZM169.947 190V189.01C169.947 188.881 169.947 188.787 169.947 188.729C169.947 188.666 169.947 188.578 169.947 188.465L167.674 190.152C167.682 190.41 167.707 190.639 167.75 190.838C167.797 191.037 167.861 191.203 167.943 191.336C168.037 191.496 168.156 191.615 168.301 191.693C168.445 191.771 168.617 191.811 168.816 191.811C169 191.811 169.162 191.777 169.303 191.711C169.443 191.641 169.561 191.535 169.654 191.395C169.752 191.246 169.824 191.057 169.871 190.826C169.922 190.592 169.947 190.316 169.947 190ZM174.881 188.02H175.766C176 188.02 176.201 187.988 176.369 187.926C176.541 187.859 176.68 187.768 176.785 187.65C176.883 187.549 176.955 187.426 177.002 187.281C177.053 187.133 177.078 186.973 177.078 186.801C177.078 186.633 177.053 186.48 177.002 186.344C176.955 186.203 176.883 186.082 176.785 185.98C176.688 185.883 176.562 185.807 176.41 185.752C176.262 185.697 176.088 185.67 175.889 185.67C175.725 185.67 175.57 185.693 175.426 185.74C175.285 185.787 175.162 185.854 175.057 185.939C174.947 186.029 174.861 186.137 174.799 186.262C174.736 186.387 174.705 186.527 174.705 186.684H173.076C173.076 186.336 173.146 186.02 173.287 185.734C173.432 185.449 173.629 185.203 173.879 184.996C174.129 184.793 174.422 184.635 174.758 184.521C175.098 184.408 175.463 184.352 175.854 184.352C176.275 184.352 176.662 184.404 177.014 184.51C177.365 184.611 177.666 184.764 177.916 184.967C178.166 185.174 178.359 185.43 178.496 185.734C178.637 186.035 178.707 186.385 178.707 186.783C178.707 186.967 178.68 187.148 178.625 187.328C178.57 187.504 178.49 187.672 178.385 187.832C178.279 187.992 178.148 188.141 177.992 188.277C177.836 188.41 177.656 188.525 177.453 188.623C177.691 188.709 177.896 188.818 178.068 188.951C178.244 189.084 178.389 189.234 178.502 189.402C178.615 189.574 178.699 189.762 178.754 189.965C178.809 190.168 178.836 190.383 178.836 190.609C178.836 191.008 178.76 191.363 178.607 191.676C178.455 191.988 178.246 192.25 177.98 192.461C177.715 192.676 177.398 192.84 177.031 192.953C176.668 193.062 176.275 193.117 175.854 193.117C175.49 193.117 175.135 193.068 174.787 192.971C174.443 192.869 174.137 192.717 173.867 192.514C173.598 192.314 173.381 192.062 173.217 191.758C173.057 191.453 172.977 191.094 172.977 190.68H174.605C174.605 190.844 174.637 190.996 174.699 191.137C174.762 191.273 174.852 191.391 174.969 191.488C175.082 191.59 175.217 191.67 175.373 191.729C175.529 191.783 175.701 191.811 175.889 191.811C176.1 191.811 176.289 191.781 176.457 191.723C176.625 191.664 176.766 191.578 176.879 191.465C176.988 191.363 177.07 191.238 177.125 191.09C177.184 190.941 177.213 190.775 177.213 190.592C177.213 190.361 177.18 190.164 177.113 190C177.047 189.836 176.951 189.701 176.826 189.596C176.697 189.49 176.543 189.412 176.363 189.361C176.188 189.311 175.988 189.285 175.766 189.285H174.881V188.02Z" fill="black"/>
<path d="M242.172 184.469H243.818L243.824 190.381C243.82 190.787 243.742 191.158 243.59 191.494C243.441 191.826 243.236 192.113 242.975 192.355C242.713 192.598 242.404 192.785 242.049 192.918C241.697 193.051 241.318 193.117 240.912 193.117C240.482 193.117 240.092 193.062 239.74 192.953C239.389 192.844 239.088 192.68 238.838 192.461C238.584 192.246 238.387 191.975 238.246 191.646C238.105 191.318 238.033 190.934 238.029 190.492H239.682C239.682 190.695 239.701 190.873 239.74 191.025C239.779 191.178 239.838 191.307 239.916 191.412C240.018 191.541 240.15 191.637 240.314 191.699C240.479 191.762 240.678 191.793 240.912 191.793C241.1 191.793 241.271 191.758 241.428 191.688C241.584 191.613 241.717 191.514 241.826 191.389C241.936 191.264 242.02 191.115 242.078 190.943C242.141 190.768 242.172 190.58 242.172 190.381V184.469ZM249.373 193C249.334 192.922 249.301 192.832 249.273 192.73C249.246 192.629 249.223 192.521 249.203 192.408C249.113 192.506 249.01 192.598 248.893 192.684C248.775 192.77 248.646 192.844 248.506 192.906C248.361 192.973 248.203 193.023 248.031 193.059C247.859 193.098 247.674 193.117 247.475 193.117C247.15 193.117 246.852 193.07 246.578 192.977C246.309 192.883 246.076 192.752 245.881 192.584C245.686 192.416 245.533 192.217 245.424 191.986C245.314 191.752 245.26 191.498 245.26 191.225C245.26 190.873 245.328 190.562 245.465 190.293C245.602 190.02 245.807 189.795 246.08 189.619C246.326 189.459 246.629 189.338 246.988 189.256C247.352 189.17 247.768 189.127 248.236 189.127H249.145V188.752C249.145 188.604 249.121 188.471 249.074 188.354C249.027 188.232 248.957 188.129 248.863 188.043C248.766 187.953 248.643 187.885 248.494 187.838C248.35 187.787 248.18 187.762 247.984 187.762C247.812 187.762 247.664 187.783 247.539 187.826C247.414 187.865 247.312 187.922 247.234 187.996C247.164 188.062 247.111 188.143 247.076 188.236C247.045 188.33 247.029 188.434 247.029 188.547H245.4C245.4 188.277 245.459 188.021 245.576 187.779C245.697 187.537 245.873 187.324 246.104 187.141C246.33 186.957 246.607 186.812 246.936 186.707C247.268 186.598 247.646 186.543 248.072 186.543C248.455 186.543 248.811 186.59 249.139 186.684C249.471 186.777 249.758 186.916 250 187.1C250.242 187.283 250.432 187.516 250.568 187.797C250.705 188.074 250.773 188.396 250.773 188.764V191.482C250.773 191.822 250.795 192.104 250.838 192.326C250.881 192.549 250.943 192.74 251.025 192.9V193H249.373ZM247.82 191.857C247.984 191.857 248.137 191.838 248.277 191.799C248.418 191.76 248.545 191.709 248.658 191.646C248.771 191.584 248.869 191.514 248.951 191.436C249.033 191.354 249.098 191.271 249.145 191.189V190.1H248.312C248.059 190.1 247.842 190.125 247.662 190.176C247.482 190.223 247.336 190.289 247.223 190.375C247.109 190.465 247.025 190.572 246.971 190.697C246.916 190.818 246.889 190.951 246.889 191.096C246.889 191.209 246.908 191.314 246.947 191.412C246.99 191.506 247.051 191.586 247.129 191.652C247.207 191.715 247.303 191.766 247.416 191.805C247.533 191.84 247.668 191.857 247.82 191.857ZM252.619 193V186.66H254.096L254.195 187.539C254.277 187.422 254.367 187.314 254.465 187.217C254.562 187.119 254.666 187.031 254.775 186.953C254.963 186.82 255.168 186.719 255.391 186.648C255.613 186.578 255.85 186.543 256.1 186.543C256.42 186.543 256.713 186.59 256.979 186.684C257.244 186.777 257.475 186.926 257.67 187.129C257.861 187.336 258.01 187.602 258.115 187.926C258.225 188.246 258.279 188.637 258.279 189.098V193H256.65V189.121C256.65 188.871 256.621 188.666 256.562 188.506C256.508 188.342 256.428 188.213 256.322 188.119C256.217 188.025 256.09 187.961 255.941 187.926C255.793 187.887 255.625 187.867 255.438 187.867C255.281 187.867 255.137 187.885 255.004 187.92C254.875 187.955 254.76 188.008 254.658 188.078C254.576 188.129 254.502 188.189 254.436 188.26C254.369 188.33 254.309 188.408 254.254 188.494V193H252.619ZM272.588 189.754C272.588 190.305 272.523 190.791 272.395 191.213C272.27 191.631 272.088 191.98 271.85 192.262C271.611 192.547 271.32 192.762 270.977 192.906C270.633 193.051 270.246 193.123 269.816 193.123C269.391 193.123 269.006 193.051 268.662 192.906C268.318 192.762 268.027 192.547 267.789 192.262C267.547 191.98 267.359 191.631 267.227 191.213C267.098 190.791 267.033 190.305 267.033 189.754V187.715C267.033 187.164 267.098 186.68 267.227 186.262C267.355 185.84 267.541 185.486 267.783 185.201C268.021 184.92 268.311 184.707 268.65 184.562C268.994 184.418 269.379 184.346 269.805 184.346C270.234 184.346 270.621 184.418 270.965 184.562C271.309 184.707 271.602 184.92 271.844 185.201C272.082 185.486 272.266 185.84 272.395 186.262C272.523 186.68 272.588 187.164 272.588 187.715V189.754ZM268.674 189.051L270.947 187.357C270.939 187.037 270.904 186.764 270.842 186.537C270.783 186.307 270.695 186.123 270.578 185.986C270.488 185.877 270.377 185.797 270.244 185.746C270.115 185.691 269.969 185.664 269.805 185.664C269.621 185.664 269.459 185.699 269.318 185.77C269.182 185.836 269.066 185.938 268.973 186.074C268.871 186.219 268.795 186.406 268.744 186.637C268.697 186.867 268.674 187.141 268.674 187.457V188.4C268.674 188.588 268.674 188.713 268.674 188.775C268.674 188.838 268.674 188.93 268.674 189.051ZM270.947 190V189.01C270.947 188.881 270.947 188.787 270.947 188.729C270.947 188.666 270.947 188.578 270.947 188.465L268.674 190.152C268.682 190.41 268.707 190.639 268.75 190.838C268.797 191.037 268.861 191.203 268.943 191.336C269.037 191.496 269.156 191.615 269.301 191.693C269.445 191.771 269.617 191.811 269.816 191.811C270 191.811 270.162 191.777 270.303 191.711C270.443 191.641 270.561 191.535 270.654 191.395C270.752 191.246 270.824 191.057 270.871 190.826C270.922 190.592 270.947 190.316 270.947 190ZM274.322 188.799L274.809 184.469H279.543V185.852H276.15L275.945 187.727C276.066 187.656 276.238 187.584 276.461 187.51C276.684 187.436 276.939 187.398 277.229 187.398C277.639 187.398 278.004 187.465 278.324 187.598C278.648 187.727 278.922 187.914 279.145 188.16C279.363 188.406 279.531 188.707 279.648 189.062C279.766 189.418 279.824 189.82 279.824 190.27C279.824 190.652 279.768 191.016 279.654 191.359C279.541 191.703 279.367 192.006 279.133 192.268C278.898 192.529 278.604 192.736 278.248 192.889C277.893 193.041 277.473 193.117 276.988 193.117C276.621 193.117 276.266 193.062 275.922 192.953C275.582 192.844 275.279 192.684 275.014 192.473C274.748 192.262 274.531 192.004 274.363 191.699C274.199 191.391 274.111 191.039 274.1 190.645H275.705C275.744 191.016 275.877 191.303 276.104 191.506C276.334 191.709 276.627 191.811 276.982 191.811C277.201 191.811 277.387 191.77 277.539 191.688C277.695 191.605 277.822 191.492 277.92 191.348C278.014 191.203 278.082 191.031 278.125 190.832C278.172 190.633 278.195 190.418 278.195 190.188C278.195 189.961 278.166 189.754 278.107 189.566C278.053 189.375 277.967 189.211 277.85 189.074C277.732 188.938 277.586 188.832 277.41 188.758C277.234 188.684 277.027 188.646 276.789 188.646C276.629 188.646 276.49 188.66 276.373 188.688C276.256 188.715 276.152 188.75 276.062 188.793C275.973 188.836 275.893 188.887 275.822 188.945C275.752 189 275.686 189.059 275.623 189.121L274.322 188.799Z" fill="black"/>
<path d="M342.172 184.469H343.818L343.824 190.381C343.82 190.787 343.742 191.158 343.59 191.494C343.441 191.826 343.236 192.113 342.975 192.355C342.713 192.598 342.404 192.785 342.049 192.918C341.697 193.051 341.318 193.117 340.912 193.117C340.482 193.117 340.092 193.062 339.74 192.953C339.389 192.844 339.088 192.68 338.838 192.461C338.584 192.246 338.387 191.975 338.246 191.646C338.105 191.318 338.033 190.934 338.029 190.492H339.682C339.682 190.695 339.701 190.873 339.74 191.025C339.779 191.178 339.838 191.307 339.916 191.412C340.018 191.541 340.15 191.637 340.314 191.699C340.479 191.762 340.678 191.793 340.912 191.793C341.1 191.793 341.271 191.758 341.428 191.688C341.584 191.613 341.717 191.514 341.826 191.389C341.936 191.264 342.02 191.115 342.078 190.943C342.141 190.768 342.172 190.58 342.172 190.381V184.469ZM349.373 193C349.334 192.922 349.301 192.832 349.273 192.73C349.246 192.629 349.223 192.521 349.203 192.408C349.113 192.506 349.01 192.598 348.893 192.684C348.775 192.77 348.646 192.844 348.506 192.906C348.361 192.973 348.203 193.023 348.031 193.059C347.859 193.098 347.674 193.117 347.475 193.117C347.15 193.117 346.852 193.07 346.578 192.977C346.309 192.883 346.076 192.752 345.881 192.584C345.686 192.416 345.533 192.217 345.424 191.986C345.314 191.752 345.26 191.498 345.26 191.225C345.26 190.873 345.328 190.562 345.465 190.293C345.602 190.02 345.807 189.795 346.08 189.619C346.326 189.459 346.629 189.338 346.988 189.256C347.352 189.17 347.768 189.127 348.236 189.127H349.145V188.752C349.145 188.604 349.121 188.471 349.074 188.354C349.027 188.232 348.957 188.129 348.863 188.043C348.766 187.953 348.643 187.885 348.494 187.838C348.35 187.787 348.18 187.762 347.984 187.762C347.812 187.762 347.664 187.783 347.539 187.826C347.414 187.865 347.312 187.922 347.234 187.996C347.164 188.062 347.111 188.143 347.076 188.236C347.045 188.33 347.029 188.434 347.029 188.547H345.4C345.4 188.277 345.459 188.021 345.576 187.779C345.697 187.537 345.873 187.324 346.104 187.141C346.33 186.957 346.607 186.812 346.936 186.707C347.268 186.598 347.646 186.543 348.072 186.543C348.455 186.543 348.811 186.59 349.139 186.684C349.471 186.777 349.758 186.916 350 187.1C350.242 187.283 350.432 187.516 350.568 187.797C350.705 188.074 350.773 188.396 350.773 188.764V191.482C350.773 191.822 350.795 192.104 350.838 192.326C350.881 192.549 350.943 192.74 351.025 192.9V193H349.373ZM347.82 191.857C347.984 191.857 348.137 191.838 348.277 191.799C348.418 191.76 348.545 191.709 348.658 191.646C348.771 191.584 348.869 191.514 348.951 191.436C349.033 191.354 349.098 191.271 349.145 191.189V190.1H348.312C348.059 190.1 347.842 190.125 347.662 190.176C347.482 190.223 347.336 190.289 347.223 190.375C347.109 190.465 347.025 190.572 346.971 190.697C346.916 190.818 346.889 190.951 346.889 191.096C346.889 191.209 346.908 191.314 346.947 191.412C346.99 191.506 347.051 191.586 347.129 191.652C347.207 191.715 347.303 191.766 347.416 191.805C347.533 191.84 347.668 191.857 347.82 191.857ZM352.619 193V186.66H354.096L354.195 187.539C354.277 187.422 354.367 187.314 354.465 187.217C354.562 187.119 354.666 187.031 354.775 186.953C354.963 186.82 355.168 186.719 355.391 186.648C355.613 186.578 355.85 186.543 356.1 186.543C356.42 186.543 356.713 186.59 356.979 186.684C357.244 186.777 357.475 186.926 357.67 187.129C357.861 187.336 358.01 187.602 358.115 187.926C358.225 188.246 358.279 188.637 358.279 189.098V193H356.65V189.121C356.65 188.871 356.621 188.666 356.562 188.506C356.508 188.342 356.428 188.213 356.322 188.119C356.217 188.025 356.09 187.961 355.941 187.926C355.793 187.887 355.625 187.867 355.438 187.867C355.281 187.867 355.137 187.885 355.004 187.92C354.875 187.955 354.76 188.008 354.658 188.078C354.576 188.129 354.502 188.189 354.436 188.26C354.369 188.33 354.309 188.408 354.254 188.494V193H352.619ZM372.588 189.754C372.588 190.305 372.523 190.791 372.395 191.213C372.27 191.631 372.088 191.98 371.85 192.262C371.611 192.547 371.32 192.762 370.977 192.906C370.633 193.051 370.246 193.123 369.816 193.123C369.391 193.123 369.006 193.051 368.662 192.906C368.318 192.762 368.027 192.547 367.789 192.262C367.547 191.98 367.359 191.631 367.227 191.213C367.098 190.791 367.033 190.305 367.033 189.754V187.715C367.033 187.164 367.098 186.68 367.227 186.262C367.355 185.84 367.541 185.486 367.783 185.201C368.021 184.92 368.311 184.707 368.65 184.562C368.994 184.418 369.379 184.346 369.805 184.346C370.234 184.346 370.621 184.418 370.965 184.562C371.309 184.707 371.602 184.92 371.844 185.201C372.082 185.486 372.266 185.84 372.395 186.262C372.523 186.68 372.588 187.164 372.588 187.715V189.754ZM368.674 189.051L370.947 187.357C370.939 187.037 370.904 186.764 370.842 186.537C370.783 186.307 370.695 186.123 370.578 185.986C370.488 185.877 370.377 185.797 370.244 185.746C370.115 185.691 369.969 185.664 369.805 185.664C369.621 185.664 369.459 185.699 369.318 185.77C369.182 185.836 369.066 185.938 368.973 186.074C368.871 186.219 368.795 186.406 368.744 186.637C368.697 186.867 368.674 187.141 368.674 187.457V188.4C368.674 188.588 368.674 188.713 368.674 188.775C368.674 188.838 368.674 188.93 368.674 189.051ZM370.947 190V189.01C370.947 188.881 370.947 188.787 370.947 188.729C370.947 188.666 370.947 188.578 370.947 188.465L368.674 190.152C368.682 190.41 368.707 190.639 368.75 190.838C368.797 191.037 368.861 191.203 368.943 191.336C369.037 191.496 369.156 191.615 369.301 191.693C369.445 191.771 369.617 191.811 369.816 191.811C370 191.811 370.162 191.777 370.303 191.711C370.443 191.641 370.561 191.535 370.654 191.395C370.752 191.246 370.824 191.057 370.871 190.826C370.922 190.592 370.947 190.316 370.947 190ZM379.812 185.377L376.49 193H374.773L378.102 185.799H373.818V184.469H379.812V185.377Z" fill="black"/>
<path d="M442.172 184.469H443.818L443.824 190.381C443.82 190.787 443.742 191.158 443.59 191.494C443.441 191.826 443.236 192.113 442.975 192.355C442.713 192.598 442.404 192.785 442.049 192.918C441.697 193.051 441.318 193.117 440.912 193.117C440.482 193.117 440.092 193.062 439.74 192.953C439.389 192.844 439.088 192.68 438.838 192.461C438.584 192.246 438.387 191.975 438.246 191.646C438.105 191.318 438.033 190.934 438.029 190.492H439.682C439.682 190.695 439.701 190.873 439.74 191.025C439.779 191.178 439.838 191.307 439.916 191.412C440.018 191.541 440.15 191.637 440.314 191.699C440.479 191.762 440.678 191.793 440.912 191.793C441.1 191.793 441.271 191.758 441.428 191.688C441.584 191.613 441.717 191.514 441.826 191.389C441.936 191.264 442.02 191.115 442.078 190.943C442.141 190.768 442.172 190.58 442.172 190.381V184.469ZM449.373 193C449.334 192.922 449.301 192.832 449.273 192.73C449.246 192.629 449.223 192.521 449.203 192.408C449.113 192.506 449.01 192.598 448.893 192.684C448.775 192.77 448.646 192.844 448.506 192.906C448.361 192.973 448.203 193.023 448.031 193.059C447.859 193.098 447.674 193.117 447.475 193.117C447.15 193.117 446.852 193.07 446.578 192.977C446.309 192.883 446.076 192.752 445.881 192.584C445.686 192.416 445.533 192.217 445.424 191.986C445.314 191.752 445.26 191.498 445.26 191.225C445.26 190.873 445.328 190.562 445.465 190.293C445.602 190.02 445.807 189.795 446.08 189.619C446.326 189.459 446.629 189.338 446.988 189.256C447.352 189.17 447.768 189.127 448.236 189.127H449.145V188.752C449.145 188.604 449.121 188.471 449.074 188.354C449.027 188.232 448.957 188.129 448.863 188.043C448.766 187.953 448.643 187.885 448.494 187.838C448.35 187.787 448.18 187.762 447.984 187.762C447.812 187.762 447.664 187.783 447.539 187.826C447.414 187.865 447.312 187.922 447.234 187.996C447.164 188.062 447.111 188.143 447.076 188.236C447.045 188.33 447.029 188.434 447.029 188.547H445.4C445.4 188.277 445.459 188.021 445.576 187.779C445.697 187.537 445.873 187.324 446.104 187.141C446.33 186.957 446.607 186.812 446.936 186.707C447.268 186.598 447.646 186.543 448.072 186.543C448.455 186.543 448.811 186.59 449.139 186.684C449.471 186.777 449.758 186.916 450 187.1C450.242 187.283 450.432 187.516 450.568 187.797C450.705 188.074 450.773 188.396 450.773 188.764V191.482C450.773 191.822 450.795 192.104 450.838 192.326C450.881 192.549 450.943 192.74 451.025 192.9V193H449.373ZM447.82 191.857C447.984 191.857 448.137 191.838 448.277 191.799C448.418 191.76 448.545 191.709 448.658 191.646C448.771 191.584 448.869 191.514 448.951 191.436C449.033 191.354 449.098 191.271 449.145 191.189V190.1H448.312C448.059 190.1 447.842 190.125 447.662 190.176C447.482 190.223 447.336 190.289 447.223 190.375C447.109 190.465 447.025 190.572 446.971 190.697C446.916 190.818 446.889 190.951 446.889 191.096C446.889 191.209 446.908 191.314 446.947 191.412C446.99 191.506 447.051 191.586 447.129 191.652C447.207 191.715 447.303 191.766 447.416 191.805C447.533 191.84 447.668 191.857 447.82 191.857ZM452.619 193V186.66H454.096L454.195 187.539C454.277 187.422 454.367 187.314 454.465 187.217C454.562 187.119 454.666 187.031 454.775 186.953C454.963 186.82 455.168 186.719 455.391 186.648C455.613 186.578 455.85 186.543 456.1 186.543C456.42 186.543 456.713 186.59 456.979 186.684C457.244 186.777 457.475 186.926 457.67 187.129C457.861 187.336 458.01 187.602 458.115 187.926C458.225 188.246 458.279 188.637 458.279 189.098V193H456.65V189.121C456.65 188.871 456.621 188.666 456.562 188.506C456.508 188.342 456.428 188.213 456.322 188.119C456.217 188.025 456.09 187.961 455.941 187.926C455.793 187.887 455.625 187.867 455.438 187.867C455.281 187.867 455.137 187.885 455.004 187.92C454.875 187.955 454.76 188.008 454.658 188.078C454.576 188.129 454.502 188.189 454.436 188.26C454.369 188.33 454.309 188.408 454.254 188.494V193H452.619ZM472.588 189.754C472.588 190.305 472.523 190.791 472.395 191.213C472.27 191.631 472.088 191.98 471.85 192.262C471.611 192.547 471.32 192.762 470.977 192.906C470.633 193.051 470.246 193.123 469.816 193.123C469.391 193.123 469.006 193.051 468.662 192.906C468.318 192.762 468.027 192.547 467.789 192.262C467.547 191.98 467.359 191.631 467.227 191.213C467.098 190.791 467.033 190.305 467.033 189.754V187.715C467.033 187.164 467.098 186.68 467.227 186.262C467.355 185.84 467.541 185.486 467.783 185.201C468.021 184.92 468.311 184.707 468.65 184.562C468.994 184.418 469.379 184.346 469.805 184.346C470.234 184.346 470.621 184.418 470.965 184.562C471.309 184.707 471.602 184.92 471.844 185.201C472.082 185.486 472.266 185.84 472.395 186.262C472.523 186.68 472.588 187.164 472.588 187.715V189.754ZM468.674 189.051L470.947 187.357C470.939 187.037 470.904 186.764 470.842 186.537C470.783 186.307 470.695 186.123 470.578 185.986C470.488 185.877 470.377 185.797 470.244 185.746C470.115 185.691 469.969 185.664 469.805 185.664C469.621 185.664 469.459 185.699 469.318 185.77C469.182 185.836 469.066 185.938 468.973 186.074C468.871 186.219 468.795 186.406 468.744 186.637C468.697 186.867 468.674 187.141 468.674 187.457V188.4C468.674 188.588 468.674 188.713 468.674 188.775C468.674 188.838 468.674 188.93 468.674 189.051ZM470.947 190V189.01C470.947 188.881 470.947 188.787 470.947 188.729C470.947 188.666 470.947 188.578 470.947 188.465L468.674 190.152C468.682 190.41 468.707 190.639 468.75 190.838C468.797 191.037 468.861 191.203 468.943 191.336C469.037 191.496 469.156 191.615 469.301 191.693C469.445 191.771 469.617 191.811 469.816 191.811C470 191.811 470.162 191.777 470.303 191.711C470.443 191.641 470.561 191.535 470.654 191.395C470.752 191.246 470.824 191.057 470.871 190.826C470.922 190.592 470.947 190.316 470.947 190ZM475.359 191.705C475.797 191.705 476.176 191.658 476.496 191.564C476.816 191.471 477.086 191.334 477.305 191.154C477.516 190.982 477.68 190.771 477.797 190.521C477.918 190.268 477.998 189.984 478.037 189.672V189.637C477.955 189.719 477.863 189.795 477.762 189.865C477.66 189.936 477.549 189.996 477.428 190.047C477.299 190.105 477.154 190.152 476.994 190.188C476.834 190.219 476.658 190.234 476.467 190.234C476.061 190.234 475.703 190.16 475.395 190.012C475.086 189.863 474.828 189.66 474.621 189.402C474.41 189.145 474.25 188.842 474.141 188.494C474.035 188.143 473.982 187.766 473.982 187.363C473.982 186.949 474.047 186.561 474.176 186.197C474.309 185.83 474.498 185.51 474.744 185.236C474.99 184.963 475.287 184.748 475.635 184.592C475.986 184.432 476.381 184.352 476.818 184.352C477.264 184.352 477.664 184.438 478.02 184.609C478.375 184.781 478.678 185.021 478.928 185.33C479.174 185.639 479.361 186.006 479.49 186.432C479.623 186.857 479.689 187.324 479.689 187.832V188.395C479.689 189.074 479.605 189.699 479.438 190.27C479.27 190.84 479.01 191.332 478.658 191.746C478.307 192.164 477.859 192.49 477.316 192.725C476.773 192.955 476.125 193.07 475.371 193.07H475.248V191.705H475.359ZM476.854 188.975C477.002 188.975 477.139 188.953 477.264 188.91C477.393 188.867 477.51 188.807 477.615 188.729C477.717 188.654 477.805 188.566 477.879 188.465C477.957 188.359 478.02 188.246 478.066 188.125V187.545C478.066 187.232 478.033 186.959 477.967 186.725C477.904 186.49 477.816 186.295 477.703 186.139C477.59 185.982 477.457 185.865 477.305 185.787C477.152 185.709 476.988 185.67 476.812 185.67C476.621 185.67 476.449 185.717 476.297 185.811C476.148 185.9 476.023 186.021 475.922 186.174C475.82 186.33 475.742 186.51 475.688 186.713C475.633 186.912 475.605 187.121 475.605 187.34C475.605 187.559 475.631 187.768 475.682 187.967C475.732 188.166 475.811 188.34 475.916 188.488C476.018 188.637 476.146 188.756 476.303 188.846C476.459 188.932 476.643 188.975 476.854 188.975Z" fill="black"/>
<rect x="60" y="106" width="48" height="18" rx="7" fill="#38B873" stroke="#356F2A" stroke-width="2"/>
<rect x="208" y="106" width="250" height="18" rx="7" fill="#38B873" stroke="#356F2A" stroke-width="2"/>
<rect x="158" y="46" width="100" height="18" rx="7" fill="#38B873" stroke="#356F2A" stroke-width="2"/>
</svg>
